<?xml version="1.0" encoding="UTF-8" standalone="no"?>
<!-- Created with Inkscape (http://www.inkscape.org/) -->

<svg
   xmlns:dc="http://purl.org/dc/elements/1.1/"
   xmlns:cc="http://creativecommons.org/ns#"
   xmlns:rdf="http://www.w3.org/1999/02/22-rdf-syntax-ns#"
   xmlns:svg="http://www.w3.org/2000/svg"
   xmlns="http://www.w3.org/2000/svg"
   xmlns:xlink="http://www.w3.org/1999/xlink"
   xmlns:sodipodi="http://sodipodi.sourceforge.net/DTD/sodipodi-0.dtd"
   xmlns:inkscape="http://www.inkscape.org/namespaces/inkscape"
   width="33.941895mm"
   height="20.932497mm"
   viewBox="0 0 120.26656 74.170265"
   id="svg2"
   version="1.1"
   inkscape:version="0.91 r13725"
   sodipodi:docname="goldcoin.svg">
  <defs
     id="defs4">
    <linearGradient
       inkscape:collect="always"
       id="linearGradient4151">
      <stop
         style="stop-color:#000000;stop-opacity:1;"
         offset="0"
         id="stop4153" />
      <stop
         style="stop-color:#000000;stop-opacity:0;"
         offset="1"
         id="stop4155" />
    </linearGradient>
    <linearGradient
       inkscape:collect="always"
       xlink:href="#linearGradient4151"
       id="linearGradient4157"
       x1="359.91089"
       y1="239.07648"
       x2="362.23199"
       y2="437.07648"
       gradientUnits="userSpaceOnUse" />
  </defs>
  <sodipodi:namedview
     id="base"
     pagecolor="#ffffff"
     bordercolor="#666666"
     borderopacity="1.0"
     inkscape:pageopacity="0.0"
     inkscape:pageshadow="2"
     inkscape:zoom="0.70710678"
     inkscape:cx="122.15802"
     inkscape:cy="163.29995"
     inkscape:document-units="px"
     inkscape:current-layer="layer1"
     showgrid="false"
     inkscape:snap-global="true"
     inkscape:object-nodes="true"
     fit-margin-top="2"
     fit-margin-left="2"
     fit-margin-right="2"
     fit-margin-bottom="2"
     inkscape:window-width="1440"
     inkscape:window-height="807"
     inkscape:window-x="0"
     inkscape:window-y="1"
     inkscape:window-maximized="1" />
  <metadata
     id="metadata7">
    <rdf:RDF>
      <cc:Work
         rdf:about="">
        <dc:format>image/svg+xml</dc:format>
        <dc:type
           rdf:resource="http://purl.org/dc/dcmitype/StillImage" />
        <dc:title></dc:title>
      </cc:Work>
    </rdf:RDF>
  </metadata>
  <g
     inkscape:label="Layer 1"
     inkscape:groupmode="layer"
     id="layer1"
     transform="translate(-75.269045,-480.06331)">
    <g
       id="g4163"
       transform="matrix(0.19057836,0,0,0.18944921,67.066368,443.08632)">
      <path
         id="path4136"
         d="m 82.859375,367.65625 0,46.13477 0,0.38867 0.04102,0 a 275.71429,132.85715 0 0 0 0.01172,0.16211 l -0.05273,0 a 275.71429,132.85715 0 0 0 0.15625,1.38281 275.71429,132.85715 0 0 0 1.037109,9.21289 275.71429,132.85715 0 0 0 1.84375,7.45312 275.71429,132.85715 0 0 0 1.833985,5.69141 275.71429,132.85715 0 0 0 3.371093,7.31641 275.71429,132.85715 0 0 0 3.025391,5.61328 275.71429,132.85715 0 0 0 4.849609,7.08398 275.71429,132.85715 0 0 0 4.183598,5.45118 275.71429,132.85715 0 0 0 6.27343,6.79687 275.71429,132.85715 0 0 0 5.33008,5.26172 275.71429,132.85715 0 0 0 7.59961,6.41601 275.71429,132.85715 0 0 0 6.44531,5.01758 275.71429,132.85715 0 0 0 8.82618,5.97656 275.71429,132.85715 0 0 0 7.52148,4.72657 275.71429,132.85715 0 0 0 9.95508,5.48633 275.71429,132.85715 0 0 0 8.52929,4.375 275.71429,132.85715 0 0 0 10.94922,4.9375 275.71429,132.85715 0 0 0 9.50782,3.99023 275.71429,132.85715 0 0 0 11.78711,4.33789 275.71429,132.85715 0 0 0 10.42187,3.55859 275.71429,132.85715 0 0 0 12.4668,3.70313 275.71429,132.85715 0 0 0 11.27148,3.08594 275.71429,132.85715 0 0 0 13.03711,3.05078 275.71429,132.85715 0 0 0 11.96094,2.55078 275.71429,132.85715 0 0 0 13.54101,2.39844 275.71429,132.85715 0 0 0 12.5,1.97265 275.71429,132.85715 0 0 0 13.82618,1.7168 275.71429,132.85715 0 0 0 13.01562,1.38086 275.71429,132.85715 0 0 0 13.94141,1.03125 275.71429,132.85715 0 0 0 13.43164,0.75781 275.71429,132.85715 0 0 0 20.85547,0.52539 275.71429,132.85715 0 0 0 1.84765,0.0469 275.71429,132.85715 0 0 0 0.57032,-0.01 275.71429,132.85715 0 0 0 0.57031,0.01 275.71429,132.85715 0 0 0 1.84765,-0.0469 275.71429,132.85715 0 0 0 20.85547,-0.52539 275.71429,132.85715 0 0 0 13.43164,-0.75781 275.71429,132.85715 0 0 0 13.94141,-1.03125 275.71429,132.85715 0 0 0 13.01563,-1.38086 275.71429,132.85715 0 0 0 13.82617,-1.7168 275.71429,132.85715 0 0 0 12.5,-1.97265 275.71429,132.85715 0 0 0 13.54101,-2.39844 275.71429,132.85715 0 0 0 11.96094,-2.55078 275.71429,132.85715 0 0 0 13.03711,-3.05078 275.71429,132.85715 0 0 0 11.27148,-3.08594 275.71429,132.85715 0 0 0 12.4668,-3.70313 275.71429,132.85715 0 0 0 10.42188,-3.55859 275.71429,132.85715 0 0 0 11.78711,-4.33789 275.71429,132.85715 0 0 0 9.50781,-3.99023 275.71429,132.85715 0 0 0 10.94922,-4.9375 275.71429,132.85715 0 0 0 8.52929,-4.375 275.71429,132.85715 0 0 0 9.95508,-5.48633 275.71429,132.85715 0 0 0 7.52149,-4.72657 275.71429,132.85715 0 0 0 8.82617,-5.97656 275.71429,132.85715 0 0 0 6.44531,-5.01758 275.71429,132.85715 0 0 0 7.59961,-6.41601 275.71429,132.85715 0 0 0 5.33008,-5.26172 275.71429,132.85715 0 0 0 6.27344,-6.79687 275.71429,132.85715 0 0 0 4.18359,-5.45118 275.71429,132.85715 0 0 0 4.84961,-7.08398 275.71429,132.85715 0 0 0 3.02539,-5.61328 275.71429,132.85715 0 0 0 3.37109,-7.31641 275.71429,132.85715 0 0 0 1.83399,-5.69141 275.71429,132.85715 0 0 0 1.84375,-7.45312 275.71429,132.85715 0 0 0 1.03711,-9.21289 275.71429,132.85715 0 0 0 0.15625,-1.38281 l -0.0527,0 a 275.71429,132.85715 0 0 0 0.0117,-0.16211 l 0.041,0 0,-0.38867 0,-46.13477 -0.0606,0 -39.89453,0 -0.0605,0 0,46.13477 -235.69726,0 -235.69727,0 0,-46.13477 -0.0606,0 -39.894528,0 -0.06055,0 z"
         style="color:#000000;display:inline;overflow:visible;visibility:visible;opacity:1;fill:#ffcc00;fill-opacity:1;fill-rule:nonzero;stroke:#000000;stroke-width:5.26279926;stroke-linecap:round;stroke-linejoin:round;stroke-miterlimit:4;stroke-dasharray:none;stroke-dashoffset:0;stroke-opacity:1;marker:none;enable-background:accumulate"
         inkscape:connector-curvature="0" />
      <ellipse
         style="color:#000000;display:inline;overflow:visible;visibility:visible;opacity:1;fill:#ffdd55;fill-opacity:1;fill-rule:nonzero;stroke:#000000;stroke-width:5.26279926;stroke-linecap:round;stroke-linejoin:round;stroke-miterlimit:4;stroke-dasharray:none;stroke-dashoffset:0;stroke-opacity:1;marker:none;enable-background:accumulate"
         id="ellipse4138"
         cx="358.57144"
         cy="368.07648"
         rx="275.71429"
         ry="132.85715" />
      <ellipse
         ry="118.85715"
         rx="246.66054"
         cy="368.07648"
         cx="358.57144"
         id="ellipse4149"
         style="color:#000000;display:inline;overflow:visible;visibility:visible;opacity:1;fill:#ffcc00;fill-opacity:1;fill-rule:nonzero;stroke:url(#linearGradient4157);stroke-width:21.05119705;stroke-linecap:round;stroke-linejoin:round;stroke-miterlimit:4;stroke-dasharray:none;stroke-dashoffset:0;stroke-opacity:1;marker:none;enable-background:accumulate" />
    </g>
  </g>
</svg>
