<?xml version="1.0" encoding="UTF-8" standalone="no"?>
<!-- Created with Inkscape (http://www.inkscape.org/) -->

<svg
   xmlns:dc="http://purl.org/dc/elements/1.1/"
   xmlns:cc="http://creativecommons.org/ns#"
   xmlns:rdf="http://www.w3.org/1999/02/22-rdf-syntax-ns#"
   xmlns:svg="http://www.w3.org/2000/svg"
   xmlns="http://www.w3.org/2000/svg"
   xmlns:sodipodi="http://sodipodi.sourceforge.net/DTD/sodipodi-0.dtd"
   xmlns:inkscape="http://www.inkscape.org/namespaces/inkscape"
   width="49.941055"
   height="50.062901"
   viewBox="0 0 49.941054 50.062901"
   id="svg4284"
   version="1.1"
   inkscape:version="0.91 r13725"
   sodipodi:docname="skull.svg">
  <defs
     id="defs4286" />
  <sodipodi:namedview
     id="base"
     pagecolor="#ffffff"
     bordercolor="#666666"
     borderopacity="1.0"
     inkscape:pageopacity="0.0"
     inkscape:pageshadow="2"
     inkscape:zoom="0.89866076"
     inkscape:cx="8.186694"
     inkscape:cy="169.5383"
     inkscape:document-units="px"
     inkscape:current-layer="layer1"
     showgrid="false"
     fit-margin-top="2"
     fit-margin-left="2"
     fit-margin-right="2"
     fit-margin-bottom="2"
     inkscape:window-width="1440"
     inkscape:window-height="807"
     inkscape:window-x="0"
     inkscape:window-y="1"
     inkscape:window-maximized="1"
     units="px" />
  <metadata
     id="metadata4289">
    <rdf:RDF>
      <cc:Work
         rdf:about="">
        <dc:format>image/svg+xml</dc:format>
        <dc:type
           rdf:resource="http://purl.org/dc/dcmitype/StillImage" />
        <dc:title></dc:title>
      </cc:Work>
    </rdf:RDF>
  </metadata>
  <g
     inkscape:label="Layer 1"
     inkscape:groupmode="layer"
     id="layer1"
     transform="translate(-164.0417,-514.83111)">
    <g
       id="skull"
       transform="matrix(0.10708839,0,0,0.12068007,148.67928,494.49235)">
      <path
         sodipodi:nodetypes="scccccccccccccs"
         inkscape:connector-curvature="0"
         id="path4832"
         d="m 381.42759,189.50558 c -68.64102,2.6e-4 -124.28534,46.05106 -124.28515,102.85742 0.0508,31.38254 17.41073,61.02893 47.14258,80.50781 l 0,39.49219 19.28589,-6.29476 19.28589,6.29476 19.28589,-2.36054 19.28589,2.36054 21.64643,-4.32765 16.92535,4.32765 20.85958,-6.68818 17.7122,6.68818 0,-39.36328 c 29.77465,-19.50697 47.13929,-49.20895 47.14257,-80.63672 1.9e-4,-56.80699 -55.64534,-102.85806 -124.28712,-102.85742 z"
         style="color:#000000;display:inline;overflow:visible;visibility:visible;opacity:1;fill:#ececec;fill-opacity:1;fill-rule:nonzero;stroke:#000000;stroke-width:8.79652309;stroke-linecap:round;stroke-linejoin:round;stroke-miterlimit:4;stroke-dasharray:none;stroke-dashoffset:0;stroke-opacity:1;marker:none;enable-background:accumulate" />
      <g
         id="g4842">
        <ellipse
           style="color:#000000;display:inline;overflow:visible;visibility:visible;opacity:1;fill:#000000;fill-opacity:1;fill-rule:nonzero;stroke:#000000;stroke-width:8.79652309;stroke-linecap:round;stroke-linejoin:round;stroke-miterlimit:4;stroke-dasharray:none;stroke-dashoffset:0;stroke-opacity:1;marker:none;enable-background:accumulate"
           id="path4838"
           cx="339.49451"
           cy="329.50504"
           rx="33.78022"
           ry="25.714285" />
        <ellipse
           ry="25.714285"
           rx="33.78022"
           cy="329.50504"
           cx="423.36264"
           id="ellipse4840"
           style="color:#000000;display:inline;overflow:visible;visibility:visible;opacity:1;fill:#000000;fill-opacity:1;fill-rule:nonzero;stroke:#000000;stroke-width:8.79652309;stroke-linecap:round;stroke-linejoin:round;stroke-miterlimit:4;stroke-dasharray:none;stroke-dashoffset:0;stroke-opacity:1;marker:none;enable-background:accumulate" />
      </g>
      <path
         inkscape:connector-curvature="0"
         id="rect4846"
         d="m 190.34279,512.08085 a 16.612243,36.284048 77.74022 0 0 -2.3488,0.83451 16.612243,36.284048 77.74022 0 0 -17.75205,10.99305 16.612243,36.284048 77.74022 0 0 6.11106,18.16992 15.974629,37.732296 60.705916 0 0 1.70113,19.70744 15.974629,37.732296 60.705916 0 0 47.43813,-17.44578 15.974629,37.732296 60.705916 0 0 5.67657,-5.44305 l 297.04454,-103.4031 a 16.612243,36.284048 77.74022 0 0 7.01093,1.02646 16.612243,36.284048 77.74022 0 0 47.79691,-15.70616 16.612243,36.284048 77.74022 0 0 -6.1115,-18.17216 15.974629,37.732296 60.705916 0 0 -1.70068,-19.70519 15.974629,37.732296 60.705916 0 0 -19.60458,2.01103 15.974629,37.732296 60.705916 0 0 -27.83377,15.43363 15.974629,37.732296 60.705916 0 0 -5.70023,5.45369 L 225.07413,509.22145 a 16.612243,36.284048 77.74022 0 0 -7.03548,-1.02031 16.612243,36.284048 77.74022 0 0 -27.69587,3.87969 z"
         style="color:#000000;display:inline;overflow:visible;visibility:visible;opacity:1;fill:#ececec;fill-opacity:1;fill-rule:nonzero;stroke:#000000;stroke-width:8.79652309;stroke-linecap:round;stroke-linejoin:round;stroke-miterlimit:4;stroke-dasharray:none;stroke-dashoffset:0;stroke-opacity:1;marker:none;enable-background:accumulate" />
      <path
         style="color:#000000;display:inline;overflow:visible;visibility:visible;opacity:1;fill:#ececec;fill-opacity:1;fill-rule:nonzero;stroke:#000000;stroke-width:8.79652309;stroke-linecap:round;stroke-linejoin:round;stroke-miterlimit:4;stroke-dasharray:none;stroke-dashoffset:0;stroke-opacity:1;marker:none;enable-background:accumulate"
         d="m 562.9218,512.08085 a 36.284048,16.612243 12.25978 0 1 2.34881,0.83451 36.284048,16.612243 12.25978 0 1 17.75204,10.99305 36.284048,16.612243 12.25978 0 1 -6.11105,18.16992 37.732296,15.974629 29.294084 0 1 -1.70114,19.70744 37.732296,15.974629 29.294084 0 1 -47.43813,-17.44578 37.732296,15.974629 29.294084 0 1 -5.67657,-5.44305 L 225.05122,435.49384 a 36.284048,16.612243 12.25978 0 1 -7.01093,1.02646 36.284048,16.612243 12.25978 0 1 -47.79691,-15.70616 36.284048,16.612243 12.25978 0 1 6.1115,-18.17216 37.732296,15.974629 29.294084 0 1 1.70068,-19.70519 37.732296,15.974629 29.294084 0 1 19.60459,2.01103 37.732296,15.974629 29.294084 0 1 27.83377,15.43363 37.732296,15.974629 29.294084 0 1 5.70022,5.45369 l 296.99633,103.38631 a 36.284048,16.612243 12.25978 0 1 7.03548,-1.02031 36.284048,16.612243 12.25978 0 1 27.69586,3.87969 z"
         id="path4864"
         inkscape:connector-curvature="0" />
      <path
         inkscape:connector-curvature="0"
         id="path4874"
         d="m 380.71471,346.86719 0.0918,2.84961 -15.35547,32.75976 15.57812,-1.11328 0.40039,-12.37695 0.39844,12.37695 15.57813,1.11328 -15.35547,-32.75976 0.0918,-2.84961 -0.7129,1.52343 -0.71484,-1.52343 z"
         style="fill:#000000;fill-rule:evenodd;stroke:#000000;stroke-width:8.79652309px;stroke-linecap:butt;stroke-linejoin:miter;stroke-opacity:1" />
    </g>
  </g>
</svg>
