<?xml version="1.0" encoding="UTF-8" standalone="no"?>
<!-- Created with Inkscape (http://www.inkscape.org/) -->

<svg
   xmlns:dc="http://purl.org/dc/elements/1.1/"
   xmlns:cc="http://creativecommons.org/ns#"
   xmlns:rdf="http://www.w3.org/1999/02/22-rdf-syntax-ns#"
   xmlns:svg="http://www.w3.org/2000/svg"
   xmlns="http://www.w3.org/2000/svg"
   xmlns:sodipodi="http://sodipodi.sourceforge.net/DTD/sodipodi-0.dtd"
   xmlns:inkscape="http://www.inkscape.org/namespaces/inkscape"
   width="100"
   height="100"
   viewBox="0 0 99.999997 99.999997"
   id="svg5511"
   version="1.1"
   inkscape:version="0.91 r13725"
   sodipodi:docname="coal.svg">
  <defs
     id="defs5513" />
  <sodipodi:namedview
     id="base"
     pagecolor="#ffffff"
     bordercolor="#666666"
     borderopacity="1.0"
     inkscape:pageopacity="0.0"
     inkscape:pageshadow="2"
     inkscape:zoom="5.69"
     inkscape:cx="16.959578"
     inkscape:cy="50"
     inkscape:document-units="px"
     inkscape:current-layer="layer1"
     showgrid="false"
     inkscape:window-width="1440"
     inkscape:window-height="807"
     inkscape:window-x="0"
     inkscape:window-y="1"
     inkscape:window-maximized="1"
     units="px" />
  <metadata
     id="metadata5516">
    <rdf:RDF>
      <cc:Work
         rdf:about="">
        <dc:format>image/svg+xml</dc:format>
        <dc:type
           rdf:resource="http://purl.org/dc/dcmitype/StillImage" />
        <dc:title />
      </cc:Work>
    </rdf:RDF>
  </metadata>
  <g
     inkscape:label="Layer 1"
     inkscape:groupmode="layer"
     id="layer1"
     transform="translate(0,-952.36223)">
    <path
       style="color:#000000;display:inline;overflow:visible;visibility:visible;opacity:1;fill:#000000;fill-opacity:1;fill-rule:nonzero;stroke:none;stroke-width:4;stroke-linecap:round;stroke-linejoin:round;stroke-miterlimit:4;stroke-dasharray:none;stroke-dashoffset:0;stroke-opacity:1;marker:none;enable-background:accumulate"
       d="m 55.812358,988.02734 c -3.68993,0.0129 -7.375904,0.98195 -10.673802,2.90654 -2.464753,1.43839 -4.563459,4.228 -6.230383,7.54916 -0.109038,-0.0619 -0.227675,-0.10178 -0.356229,-0.10178 -0.173011,0 -0.324003,0.0785 -0.45801,0.18611 l 0,-0.18611 0,-0.22973 -10.966054,-2.51832 0,9.94389 0,2.7466 8.859211,-2.0341 c -0.364025,1.3549 -0.665273,2.7036 -0.891301,4.0043 l -11.112909,5.3565 -1.00035,0 c -0.253687,0 -0.45801,0.2043 -0.45801,0.458 l 0,0.1309 c 0,0.2537 0.204323,0.458 0.45801,0.458 l 54.034938,0 c 0.253687,0 0.458011,-0.2043 0.458011,-0.458 l 0,-0.1309 c 0,-0.2537 -0.204324,-0.458 -0.458011,-0.458 l -0.466733,0 c -0.09656,-11.7148 -3.514861,-21.0435 -10.042767,-24.79212 -3.311274,-1.90149 -7.00568,-2.84384 -10.695611,-2.83094 z"
       id="path6186"
       inkscape:connector-curvature="0" />
  </g>
</svg>
