<?xml version="1.0" encoding="UTF-8" standalone="no"?>
<!-- Created with Inkscape (http://www.inkscape.org/) -->

<svg
   xmlns:dc="http://purl.org/dc/elements/1.1/"
   xmlns:cc="http://creativecommons.org/ns#"
   xmlns:rdf="http://www.w3.org/1999/02/22-rdf-syntax-ns#"
   xmlns:svg="http://www.w3.org/2000/svg"
   xmlns="http://www.w3.org/2000/svg"
   xmlns:sodipodi="http://sodipodi.sourceforge.net/DTD/sodipodi-0.dtd"
   xmlns:inkscape="http://www.inkscape.org/namespaces/inkscape"
   width="100"
   height="100"
   viewBox="0 0 100 100"
   id="svg8186"
   version="1.1"
   inkscape:version="0.91 r13725"
   sodipodi:docname="community_center.svg">
  <defs
     id="defs8188" />
  <sodipodi:namedview
     id="base"
     pagecolor="#ffffff"
     bordercolor="#666666"
     borderopacity="1.0"
     inkscape:pageopacity="0.0"
     inkscape:pageshadow="2"
     inkscape:zoom="5.69"
     inkscape:cx="50"
     inkscape:cy="50"
     inkscape:document-units="px"
     inkscape:current-layer="layer1"
     showgrid="false"
     units="px"
     inkscape:snap-nodes="false"
     inkscape:window-width="1440"
     inkscape:window-height="807"
     inkscape:window-x="0"
     inkscape:window-y="1"
     inkscape:window-maximized="1" />
  <metadata
     id="metadata8191">
    <rdf:RDF>
      <cc:Work
         rdf:about="">
        <dc:format>image/svg+xml</dc:format>
        <dc:type
           rdf:resource="http://purl.org/dc/dcmitype/StillImage" />
        <dc:title></dc:title>
      </cc:Work>
    </rdf:RDF>
  </metadata>
  <g
     inkscape:label="Layer 1"
     inkscape:groupmode="layer"
     id="layer1"
     transform="translate(0,-952.36216)">
    <path
       style="color:#000000;display:inline;overflow:visible;visibility:visible;opacity:1;fill:#a79774;fill-opacity:1;fill-rule:nonzero;stroke:none;stroke-width:1;stroke-linecap:round;stroke-linejoin:round;stroke-miterlimit:4;stroke-dasharray:none;stroke-dashoffset:0;stroke-opacity:1;marker:none;enable-background:accumulate"
       d="m 25.958502,991.82465 25.483303,-8.26011 25.834797,8.26011 0,42.87495 -51.3181,0 z"
       id="rect12013"
       inkscape:connector-curvature="0"
       sodipodi:nodetypes="cccccc" />
    <path
       style="color:#000000;display:inline;overflow:visible;visibility:visible;opacity:1;fill:#daca99;fill-opacity:1;fill-rule:nonzero;stroke:none;stroke-width:1;stroke-linecap:round;stroke-linejoin:round;stroke-miterlimit:4;stroke-dasharray:none;stroke-dashoffset:0;stroke-opacity:1;marker:none;enable-background:accumulate"
       d="M 23.910156 50.013672 L 23.910156 58.052734 L 38.005859 58.052734 A 13.491434 5.4484634 0 0 1 51.476562 52.779297 A 13.491434 5.4484634 0 0 1 64.951172 58.052734 L 79.041016 58.052734 L 79.041016 50.013672 L 23.910156 50.013672 z "
       transform="translate(0,952.36216)"
       id="rect11975" />
    <g
       id="g11959">
      <rect
         y="1011.5083"
         x="25.571178"
         height="23.191277"
         width="10.193321"
         id="rect8746"
         style="color:#000000;display:inline;overflow:visible;visibility:visible;opacity:1;fill:#daca99;fill-opacity:1;fill-rule:nonzero;stroke:none;stroke-width:1;stroke-linecap:round;stroke-linejoin:round;stroke-miterlimit:4;stroke-dasharray:none;stroke-dashoffset:0;stroke-opacity:1;marker:none;enable-background:accumulate" />
      <ellipse
         ry="1.8453428"
         rx="2.108963"
         cy="1018.0037"
         cx="30.667839"
         id="path11955"
         style="color:#000000;display:inline;overflow:visible;visibility:visible;opacity:1;fill:#fff6d5;fill-opacity:1;fill-rule:nonzero;stroke:none;stroke-width:1;stroke-linecap:round;stroke-linejoin:round;stroke-miterlimit:4;stroke-dasharray:none;stroke-dashoffset:0;stroke-opacity:1;marker:none;enable-background:accumulate" />
      <rect
         y="1009.7629"
         x="24.9806"
         height="2.5317385"
         width="11.374477"
         id="rect11957"
         style="color:#000000;display:inline;overflow:visible;visibility:visible;opacity:1;fill:#fff6d5;fill-opacity:1;fill-rule:nonzero;stroke:none;stroke-width:1;stroke-linecap:round;stroke-linejoin:round;stroke-miterlimit:4;stroke-dasharray:none;stroke-dashoffset:0;stroke-opacity:1;marker:none;enable-background:accumulate" />
    </g>
    <rect
       y="1011.5083"
       x="67.083282"
       height="23.191277"
       width="10.193321"
       id="rect11966"
       style="color:#000000;display:inline;overflow:visible;visibility:visible;opacity:1;fill:#daca99;fill-opacity:1;fill-rule:nonzero;stroke:none;stroke-width:1;stroke-linecap:round;stroke-linejoin:round;stroke-miterlimit:4;stroke-dasharray:none;stroke-dashoffset:0;stroke-opacity:1;marker:none;enable-background:accumulate" />
    <ellipse
       ry="1.8453428"
       rx="2.108963"
       cy="1018.0037"
       cx="72.179939"
       id="ellipse11968"
       style="color:#000000;display:inline;overflow:visible;visibility:visible;opacity:1;fill:#fff6d5;fill-opacity:1;fill-rule:nonzero;stroke:none;stroke-width:1;stroke-linecap:round;stroke-linejoin:round;stroke-miterlimit:4;stroke-dasharray:none;stroke-dashoffset:0;stroke-opacity:1;marker:none;enable-background:accumulate" />
    <rect
       y="1009.7629"
       x="66.492706"
       height="2.5317385"
       width="11.374477"
       id="rect11970"
       style="color:#000000;display:inline;overflow:visible;visibility:visible;opacity:1;fill:#fff6d5;fill-opacity:1;fill-rule:nonzero;stroke:none;stroke-width:1;stroke-linecap:round;stroke-linejoin:round;stroke-miterlimit:4;stroke-dasharray:none;stroke-dashoffset:0;stroke-opacity:1;marker:none;enable-background:accumulate" />
    <path
       style="color:#000000;display:inline;overflow:visible;visibility:visible;opacity:1;fill:#daca99;fill-opacity:1;fill-rule:nonzero;stroke:none;stroke-width:1;stroke-linecap:round;stroke-linejoin:round;stroke-miterlimit:4;stroke-dasharray:none;stroke-dashoffset:0;stroke-opacity:1;marker:none;enable-background:accumulate"
       d="m 51.46875,981.24875 -33.226563,8.90234 0.705078,2.62891 32.529297,-8.7168 32.527344,8.7168 0.705078,-2.62891 -33.226563,-8.90234 -0.0059,0.0254 -0.0078,-0.0254 z"
       id="rect11981"
       inkscape:connector-curvature="0" />
    <path
       inkscape:connector-curvature="0"
       id="path11991"
       d="m 51.46875,984.23645 -33.226563,8.90234 0.705078,2.62891 32.529297,-8.7168 32.527344,8.7168 0.705078,-2.62891 -33.226563,-8.90234 -0.0059,0.0254 -0.0078,-0.0254 z"
       style="color:#000000;display:inline;overflow:visible;visibility:visible;opacity:1;fill:#fff6d5;fill-opacity:1;fill-rule:nonzero;stroke:none;stroke-width:1;stroke-linecap:round;stroke-linejoin:round;stroke-miterlimit:4;stroke-dasharray:none;stroke-dashoffset:0;stroke-opacity:1;marker:none;enable-background:accumulate" />
    <rect
       y="-70.016884"
       x="999.91541"
       height="37.0826"
       width="2.4604568"
       id="rect11995"
       style="color:#000000;display:inline;overflow:visible;visibility:visible;opacity:1;fill:#fff6d5;fill-opacity:1;fill-rule:nonzero;stroke:none;stroke-width:1;stroke-linecap:round;stroke-linejoin:round;stroke-miterlimit:4;stroke-dasharray:none;stroke-dashoffset:0;stroke-opacity:1;marker:none;enable-background:accumulate"
       transform="matrix(0,1,-1,0,0,0)" />
    <rect
       style="color:#000000;display:inline;overflow:visible;visibility:visible;opacity:1;fill:#fff6d5;fill-opacity:1;fill-rule:nonzero;stroke:none;stroke-width:1;stroke-linecap:round;stroke-linejoin:round;stroke-miterlimit:4;stroke-dasharray:none;stroke-dashoffset:0;stroke-opacity:1;marker:none;enable-background:accumulate"
       id="rect11993"
       width="2.4604568"
       height="15.289982"
       x="50.245354"
       y="985.57831" />
    <rect
       y="990.67499"
       x="34.076637"
       height="10.544815"
       width="2.4604568"
       id="rect11997"
       style="color:#000000;display:inline;overflow:visible;visibility:visible;opacity:1;fill:#fff6d5;fill-opacity:1;fill-rule:nonzero;stroke:none;stroke-width:1;stroke-linecap:round;stroke-linejoin:round;stroke-miterlimit:4;stroke-dasharray:none;stroke-dashoffset:0;stroke-opacity:1;marker:none;enable-background:accumulate" />
    <rect
       style="color:#000000;display:inline;overflow:visible;visibility:visible;opacity:1;fill:#fff6d5;fill-opacity:1;fill-rule:nonzero;stroke:none;stroke-width:1;stroke-linecap:round;stroke-linejoin:round;stroke-miterlimit:4;stroke-dasharray:none;stroke-dashoffset:0;stroke-opacity:1;marker:none;enable-background:accumulate"
       id="rect11999"
       width="2.4604568"
       height="10.017574"
       x="66.41407"
       y="990.67499" />
    <rect
       y="825.49054"
       x="-546.56573"
       height="15.289982"
       width="2.4604568"
       id="rect12009"
       style="color:#000000;display:inline;overflow:visible;visibility:visible;opacity:1;fill:#fff6d5;fill-opacity:1;fill-rule:nonzero;stroke:none;stroke-width:1;stroke-linecap:round;stroke-linejoin:round;stroke-miterlimit:4;stroke-dasharray:none;stroke-dashoffset:0;stroke-opacity:1;marker:none;enable-background:accumulate"
       inkscape:transform-center-y="-5.9776202"
       transform="matrix(0.80982819,-0.58666712,0.58666712,0.80982819,0,0)"
       inkscape:transform-center-x="4.330426" />
    <rect
       inkscape:transform-center-x="-4.3304208"
       transform="matrix(-0.80982819,-0.58666712,-0.58666712,0.80982819,0,0)"
       inkscape:transform-center-y="-5.9776347"
       style="color:#000000;display:inline;overflow:visible;visibility:visible;opacity:1;fill:#fff6d5;fill-opacity:1;fill-rule:nonzero;stroke:none;stroke-width:1;stroke-linecap:round;stroke-linejoin:round;stroke-miterlimit:4;stroke-dasharray:none;stroke-dashoffset:0;stroke-opacity:1;marker:none;enable-background:accumulate"
       id="rect12011"
       width="2.4604568"
       height="15.289982"
       x="-629.93848"
       y="765.09247" />
    <g
       transform="matrix(-0.86978545,0,0,0.86978545,33.359694,145.69504)"
       id="g8906">
      <path
         inkscape:connector-curvature="0"
         style="color:#000000;display:inline;overflow:visible;visibility:visible;opacity:1;fill:#ffe680;fill-opacity:1;fill-rule:nonzero;stroke:none;stroke-width:1;stroke-linecap:round;stroke-linejoin:round;stroke-miterlimit:4;stroke-dasharray:none;stroke-dashoffset:0;stroke-opacity:1;marker:none;enable-background:accumulate"
         d="m -8.6328125,63.791016 2.3691406,6.568359 1.7558594,0 16.6542965,0 1.75586,0 2.36914,-6.568359 -4.125,0 -16.6542965,0 -4.125,0 z"
         transform="translate(0,952.36216)"
         id="path8908" />
      <g
         transform="translate(-2.0491826,-1.893849)"
         id="g8910">
        <path
           inkscape:connector-curvature="0"
           style="color:#000000;display:inline;overflow:visible;visibility:visible;opacity:1;fill:#ff0000;fill-opacity:1;fill-rule:nonzero;stroke:none;stroke-width:1;stroke-linecap:round;stroke-linejoin:round;stroke-miterlimit:4;stroke-dasharray:none;stroke-dashoffset:0;stroke-opacity:1;marker:none;enable-background:accumulate"
           d="m 6.859375,58.242188 a 1.1872187,1.9209601 0 0 0 -1.1152344,1.265624 1.9209601,1.1872187 42.343959 0 0 -1.6875,-0.0293 1.9209601,1.1872187 42.343959 0 0 0.068359,1.496093 1.9209601,1.1872187 0 0 0 -1.0585938,1.058594 1.9209601,1.1872187 0 0 0 1.2675782,1.115235 1.1872187,1.9209601 42.343959 0 0 -0.029297,1.689453 1.1872187,1.9209601 42.343959 0 0 1.4941406,-0.06836 1.1872187,1.9209601 0 0 0 1.0605469,1.056641 1.1872187,1.9209601 0 0 0 1.1152344,-1.265625 1.9209601,1.1872187 42.343959 0 0 1.6875,0.02734 1.9209601,1.1872187 42.343959 0 0 -0.066406,-1.494141 1.9209601,1.1872187 0 0 0 1.0566411,-1.060547 1.9209601,1.1872187 0 0 0 -1.2675786,-1.115234 1.1872187,1.9209601 42.343959 0 0 0.029297,-1.6875 1.1872187,1.9209601 42.343959 0 0 -1.4941406,0.06836 1.1872187,1.9209601 0 0 0 -1.0605469,-1.05664 z"
           transform="translate(0,952.36216)"
           id="path8912" />
        <circle
           style="color:#000000;display:inline;overflow:visible;visibility:visible;opacity:1;fill:#ffff00;fill-opacity:1;fill-rule:nonzero;stroke:none;stroke-width:1;stroke-linecap:round;stroke-linejoin:round;stroke-miterlimit:4;stroke-dasharray:none;stroke-dashoffset:0;stroke-opacity:1;marker:none;enable-background:accumulate"
           id="circle8914"
           cx="6.859375"
           cy="1014.3964"
           r="1.203155" />
      </g>
      <g
         id="g8916"
         transform="translate(7.0380674,0.30888708)">
        <path
           id="path8918"
           transform="translate(0,952.36216)"
           d="m 6.859375,58.242188 a 1.1872187,1.9209601 0 0 0 -1.1152344,1.265624 1.9209601,1.1872187 42.343959 0 0 -1.6875,-0.0293 1.9209601,1.1872187 42.343959 0 0 0.068359,1.496093 1.9209601,1.1872187 0 0 0 -1.0585938,1.058594 1.9209601,1.1872187 0 0 0 1.2675782,1.115235 1.1872187,1.9209601 42.343959 0 0 -0.029297,1.689453 1.1872187,1.9209601 42.343959 0 0 1.4941406,-0.06836 1.1872187,1.9209601 0 0 0 1.0605469,1.056641 1.1872187,1.9209601 0 0 0 1.1152344,-1.265625 1.9209601,1.1872187 42.343959 0 0 1.6875,0.02734 1.9209601,1.1872187 42.343959 0 0 -0.066406,-1.494141 1.9209601,1.1872187 0 0 0 1.0566411,-1.060547 1.9209601,1.1872187 0 0 0 -1.2675786,-1.115234 1.1872187,1.9209601 42.343959 0 0 0.029297,-1.6875 1.1872187,1.9209601 42.343959 0 0 -1.4941406,0.06836 1.1872187,1.9209601 0 0 0 -1.0605469,-1.05664 z"
           style="color:#000000;display:inline;overflow:visible;visibility:visible;opacity:1;fill:#ff0000;fill-opacity:1;fill-rule:nonzero;stroke:none;stroke-width:1;stroke-linecap:round;stroke-linejoin:round;stroke-miterlimit:4;stroke-dasharray:none;stroke-dashoffset:0;stroke-opacity:1;marker:none;enable-background:accumulate"
           inkscape:connector-curvature="0" />
        <circle
           r="1.203155"
           cy="1014.3964"
           cx="6.859375"
           id="circle8920"
           style="color:#000000;display:inline;overflow:visible;visibility:visible;opacity:1;fill:#ffff00;fill-opacity:1;fill-rule:nonzero;stroke:none;stroke-width:1;stroke-linecap:round;stroke-linejoin:round;stroke-miterlimit:4;stroke-dasharray:none;stroke-dashoffset:0;stroke-opacity:1;marker:none;enable-background:accumulate" />
      </g>
      <g
         id="g8922"
         transform="translate(-24.689239,-0.94086025)">
        <path
           id="path8924"
           d="m 17.171995,1009.7642 a 1.1632654,1.8822029 0 0 0 -1.092733,1.2401 1.8822029,1.1632654 42.343959 0 0 -1.653453,-0.028 1.8822029,1.1632654 42.343959 0 0 0.06699,1.4659 1.8822029,1.1632654 0 0 0 -1.037236,1.0372 1.8822029,1.1632654 0 0 0 1.242003,1.0927 1.1632654,1.8822029 42.343959 0 0 -0.02871,1.6555 1.1632654,1.8822029 42.343959 0 0 1.463995,-0.067 1.1632654,1.8822029 0 0 0 1.039149,1.0353 1.1632654,1.8822029 0 0 0 1.092734,-1.2401 1.8822029,1.1632654 42.343959 0 0 1.653453,0.027 1.8822029,1.1632654 42.343959 0 0 -0.06507,-1.464 1.8822029,1.1632654 0 0 0 1.035322,-1.0391 1.8822029,1.1632654 0 0 0 -1.242003,-1.0928 1.1632654,1.8822029 42.343959 0 0 0.02871,-1.6535 1.1632654,1.8822029 42.343959 0 0 -1.463995,0.067 1.1632654,1.8822029 0 0 0 -1.039149,-1.0354 z"
           style="color:#000000;display:inline;overflow:visible;visibility:visible;opacity:1;fill:#65bedf;fill-opacity:1;fill-rule:nonzero;stroke:none;stroke-width:1;stroke-linecap:round;stroke-linejoin:round;stroke-miterlimit:4;stroke-dasharray:none;stroke-dashoffset:0;stroke-opacity:1;marker:none;enable-background:accumulate"
           inkscape:connector-curvature="0" />
        <circle
           r="1.1788802"
           cy="1013.4798"
           cx="17.171995"
           id="circle8926"
           style="color:#000000;display:inline;overflow:visible;visibility:visible;opacity:1;fill:#e3edaa;fill-opacity:1;fill-rule:nonzero;stroke:none;stroke-width:1;stroke-linecap:round;stroke-linejoin:round;stroke-miterlimit:4;stroke-dasharray:none;stroke-dashoffset:0;stroke-opacity:1;marker:none;enable-background:accumulate" />
      </g>
      <g
         id="g8928"
         transform="translate(-7.6591322,-0.50808245)">
        <path
           id="path8930"
           d="m 17.171995,1009.7642 a 1.1632654,1.8822029 0 0 0 -1.092733,1.2401 1.8822029,1.1632654 42.343959 0 0 -1.653453,-0.028 1.8822029,1.1632654 42.343959 0 0 0.06699,1.4659 1.8822029,1.1632654 0 0 0 -1.037236,1.0372 1.8822029,1.1632654 0 0 0 1.242003,1.0927 1.1632654,1.8822029 42.343959 0 0 -0.02871,1.6555 1.1632654,1.8822029 42.343959 0 0 1.463995,-0.067 1.1632654,1.8822029 0 0 0 1.039149,1.0353 1.1632654,1.8822029 0 0 0 1.092734,-1.2401 1.8822029,1.1632654 42.343959 0 0 1.653453,0.027 1.8822029,1.1632654 42.343959 0 0 -0.06507,-1.464 1.8822029,1.1632654 0 0 0 1.035322,-1.0391 1.8822029,1.1632654 0 0 0 -1.242003,-1.0928 1.1632654,1.8822029 42.343959 0 0 0.02871,-1.6535 1.1632654,1.8822029 42.343959 0 0 -1.463995,0.067 1.1632654,1.8822029 0 0 0 -1.039149,-1.0354 z"
           style="color:#000000;display:inline;overflow:visible;visibility:visible;opacity:1;fill:#65bedf;fill-opacity:1;fill-rule:nonzero;stroke:none;stroke-width:1;stroke-linecap:round;stroke-linejoin:round;stroke-miterlimit:4;stroke-dasharray:none;stroke-dashoffset:0;stroke-opacity:1;marker:none;enable-background:accumulate"
           inkscape:connector-curvature="0" />
        <circle
           r="1.1788802"
           cy="1013.4798"
           cx="17.171995"
           id="circle8932"
           style="color:#000000;display:inline;overflow:visible;visibility:visible;opacity:1;fill:#e3edaa;fill-opacity:1;fill-rule:nonzero;stroke:none;stroke-width:1;stroke-linecap:round;stroke-linejoin:round;stroke-miterlimit:4;stroke-dasharray:none;stroke-dashoffset:0;stroke-opacity:1;marker:none;enable-background:accumulate" />
      </g>
      <g
         id="g8934"
         transform="translate(-10.389807,-0.0569257)">
        <path
           id="path8936"
           transform="translate(0,952.36216)"
           d="m 6.859375,58.242188 a 1.1872187,1.9209601 0 0 0 -1.1152344,1.265624 1.9209601,1.1872187 42.343959 0 0 -1.6875,-0.0293 1.9209601,1.1872187 42.343959 0 0 0.068359,1.496093 1.9209601,1.1872187 0 0 0 -1.0585938,1.058594 1.9209601,1.1872187 0 0 0 1.2675782,1.115235 1.1872187,1.9209601 42.343959 0 0 -0.029297,1.689453 1.1872187,1.9209601 42.343959 0 0 1.4941406,-0.06836 1.1872187,1.9209601 0 0 0 1.0605469,1.056641 1.1872187,1.9209601 0 0 0 1.1152344,-1.265625 1.9209601,1.1872187 42.343959 0 0 1.6875,0.02734 1.9209601,1.1872187 42.343959 0 0 -0.066406,-1.494141 1.9209601,1.1872187 0 0 0 1.0566411,-1.060547 1.9209601,1.1872187 0 0 0 -1.2675786,-1.115234 1.1872187,1.9209601 42.343959 0 0 0.029297,-1.6875 1.1872187,1.9209601 42.343959 0 0 -1.4941406,0.06836 1.1872187,1.9209601 0 0 0 -1.0605469,-1.05664 z"
           style="color:#000000;display:inline;overflow:visible;visibility:visible;opacity:1;fill:#ff0000;fill-opacity:1;fill-rule:nonzero;stroke:none;stroke-width:1;stroke-linecap:round;stroke-linejoin:round;stroke-miterlimit:4;stroke-dasharray:none;stroke-dashoffset:0;stroke-opacity:1;marker:none;enable-background:accumulate"
           inkscape:connector-curvature="0" />
        <circle
           r="1.203155"
           cy="1014.3964"
           cx="6.859375"
           id="circle8938"
           style="color:#000000;display:inline;overflow:visible;visibility:visible;opacity:1;fill:#ffff00;fill-opacity:1;fill-rule:nonzero;stroke:none;stroke-width:1;stroke-linecap:round;stroke-linejoin:round;stroke-miterlimit:4;stroke-dasharray:none;stroke-dashoffset:0;stroke-opacity:1;marker:none;enable-background:accumulate" />
      </g>
      <g
         id="g8940"
         transform="translate(-20.584436,-0.83619995)">
        <path
           inkscape:connector-curvature="0"
           style="color:#000000;display:inline;overflow:visible;visibility:visible;opacity:1;fill:#40bf40;fill-opacity:1;fill-rule:nonzero;stroke:none;stroke-width:1;stroke-linecap:round;stroke-linejoin:round;stroke-miterlimit:4;stroke-dasharray:none;stroke-dashoffset:0;stroke-opacity:1;marker:none;enable-background:accumulate"
           d="m 13.352455,1012.4377 a 0.90024713,1.4566304 0 0 0 -0.845662,0.9597 1.4566304,0.90024713 42.343959 0 0 -1.279602,-0.022 1.4566304,0.90024713 42.343959 0 0 0.05184,1.1345 1.4566304,0.90024713 0 0 0 -0.802713,0.8027 1.4566304,0.90024713 0 0 0 0.961182,0.8456 0.90024713,1.4566304 42.343959 0 0 -0.02222,1.2812 0.90024713,1.4566304 42.343959 0 0 1.132981,-0.052 0.90024713,1.4566304 0 0 0 0.804194,0.8012 0.90024713,1.4566304 0 0 0 0.845663,-0.9597 1.4566304,0.90024713 42.343959 0 0 1.279602,0.021 1.4566304,0.90024713 42.343959 0 0 -0.05036,-1.133 1.4566304,0.90024713 0 0 0 0.801232,-0.8042 1.4566304,0.90024713 0 0 0 -0.961182,-0.8457 0.90024713,1.4566304 42.343959 0 0 0.02222,-1.2796 0.90024713,1.4566304 42.343959 0 0 -1.132981,0.052 0.90024713,1.4566304 0 0 0 -0.804194,-0.8013 z"
           id="path8942" />
        <circle
           style="color:#000000;display:inline;overflow:visible;visibility:visible;opacity:1;fill:#ffff89;fill-opacity:1;fill-rule:nonzero;stroke:none;stroke-width:1;stroke-linecap:round;stroke-linejoin:round;stroke-miterlimit:4;stroke-dasharray:none;stroke-dashoffset:0;stroke-opacity:1;marker:none;enable-background:accumulate"
           id="circle8944"
           cx="13.352456"
           cy="1015.3132"
           r="0.9123314" />
      </g>
      <g
         id="g8946"
         transform="translate(-16.895881,-0.56765573)">
        <path
           inkscape:connector-curvature="0"
           style="color:#000000;display:inline;overflow:visible;visibility:visible;opacity:1;fill:#65bedf;fill-opacity:1;fill-rule:nonzero;stroke:none;stroke-width:1;stroke-linecap:round;stroke-linejoin:round;stroke-miterlimit:4;stroke-dasharray:none;stroke-dashoffset:0;stroke-opacity:1;marker:none;enable-background:accumulate"
           d="m 17.171995,1009.7642 a 1.1632654,1.8822029 0 0 0 -1.092733,1.2401 1.8822029,1.1632654 42.343959 0 0 -1.653453,-0.028 1.8822029,1.1632654 42.343959 0 0 0.06699,1.4659 1.8822029,1.1632654 0 0 0 -1.037236,1.0372 1.8822029,1.1632654 0 0 0 1.242003,1.0927 1.1632654,1.8822029 42.343959 0 0 -0.02871,1.6555 1.1632654,1.8822029 42.343959 0 0 1.463995,-0.067 1.1632654,1.8822029 0 0 0 1.039149,1.0353 1.1632654,1.8822029 0 0 0 1.092734,-1.2401 1.8822029,1.1632654 42.343959 0 0 1.653453,0.027 1.8822029,1.1632654 42.343959 0 0 -0.06507,-1.464 1.8822029,1.1632654 0 0 0 1.035322,-1.0391 1.8822029,1.1632654 0 0 0 -1.242003,-1.0928 1.1632654,1.8822029 42.343959 0 0 0.02871,-1.6535 1.1632654,1.8822029 42.343959 0 0 -1.463995,0.067 1.1632654,1.8822029 0 0 0 -1.039149,-1.0354 z"
           id="path8948" />
        <circle
           style="color:#000000;display:inline;overflow:visible;visibility:visible;opacity:1;fill:#e3edaa;fill-opacity:1;fill-rule:nonzero;stroke:none;stroke-width:1;stroke-linecap:round;stroke-linejoin:round;stroke-miterlimit:4;stroke-dasharray:none;stroke-dashoffset:0;stroke-opacity:1;marker:none;enable-background:accumulate"
           id="circle8950"
           cx="17.171995"
           cy="1013.4798"
           r="1.1788802" />
      </g>
      <g
         id="g8952"
         transform="translate(-3.3830334,0.31550374)">
        <path
           id="path8954"
           d="m 13.352455,1012.4377 a 0.90024713,1.4566304 0 0 0 -0.845662,0.9597 1.4566304,0.90024713 42.343959 0 0 -1.279602,-0.022 1.4566304,0.90024713 42.343959 0 0 0.05184,1.1345 1.4566304,0.90024713 0 0 0 -0.802713,0.8027 1.4566304,0.90024713 0 0 0 0.961182,0.8456 0.90024713,1.4566304 42.343959 0 0 -0.02222,1.2812 0.90024713,1.4566304 42.343959 0 0 1.132981,-0.052 0.90024713,1.4566304 0 0 0 0.804194,0.8012 0.90024713,1.4566304 0 0 0 0.845663,-0.9597 1.4566304,0.90024713 42.343959 0 0 1.279602,0.021 1.4566304,0.90024713 42.343959 0 0 -0.05036,-1.133 1.4566304,0.90024713 0 0 0 0.801232,-0.8042 1.4566304,0.90024713 0 0 0 -0.961182,-0.8457 0.90024713,1.4566304 42.343959 0 0 0.02222,-1.2796 0.90024713,1.4566304 42.343959 0 0 -1.132981,0.052 0.90024713,1.4566304 0 0 0 -0.804194,-0.8013 z"
           style="color:#000000;display:inline;overflow:visible;visibility:visible;opacity:1;fill:#40bf40;fill-opacity:1;fill-rule:nonzero;stroke:none;stroke-width:1;stroke-linecap:round;stroke-linejoin:round;stroke-miterlimit:4;stroke-dasharray:none;stroke-dashoffset:0;stroke-opacity:1;marker:none;enable-background:accumulate"
           inkscape:connector-curvature="0" />
        <circle
           r="0.9123314"
           cy="1015.3132"
           cx="13.352456"
           id="circle8956"
           style="color:#000000;display:inline;overflow:visible;visibility:visible;opacity:1;fill:#ffff89;fill-opacity:1;fill-rule:nonzero;stroke:none;stroke-width:1;stroke-linecap:round;stroke-linejoin:round;stroke-miterlimit:4;stroke-dasharray:none;stroke-dashoffset:0;stroke-opacity:1;marker:none;enable-background:accumulate" />
      </g>
      <g
         id="g8958"
         transform="translate(-8.9911767,-0.29803188)">
        <path
           inkscape:connector-curvature="0"
           style="color:#000000;display:inline;overflow:visible;visibility:visible;opacity:1;fill:#40bf40;fill-opacity:1;fill-rule:nonzero;stroke:none;stroke-width:1;stroke-linecap:round;stroke-linejoin:round;stroke-miterlimit:4;stroke-dasharray:none;stroke-dashoffset:0;stroke-opacity:1;marker:none;enable-background:accumulate"
           d="m 13.352455,1012.4377 a 0.90024713,1.4566304 0 0 0 -0.845662,0.9597 1.4566304,0.90024713 42.343959 0 0 -1.279602,-0.022 1.4566304,0.90024713 42.343959 0 0 0.05184,1.1345 1.4566304,0.90024713 0 0 0 -0.802713,0.8027 1.4566304,0.90024713 0 0 0 0.961182,0.8456 0.90024713,1.4566304 42.343959 0 0 -0.02222,1.2812 0.90024713,1.4566304 42.343959 0 0 1.132981,-0.052 0.90024713,1.4566304 0 0 0 0.804194,0.8012 0.90024713,1.4566304 0 0 0 0.845663,-0.9597 1.4566304,0.90024713 42.343959 0 0 1.279602,0.021 1.4566304,0.90024713 42.343959 0 0 -0.05036,-1.133 1.4566304,0.90024713 0 0 0 0.801232,-0.8042 1.4566304,0.90024713 0 0 0 -0.961182,-0.8457 0.90024713,1.4566304 42.343959 0 0 0.02222,-1.2796 0.90024713,1.4566304 42.343959 0 0 -1.132981,0.052 0.90024713,1.4566304 0 0 0 -0.804194,-0.8013 z"
           id="path8960" />
        <circle
           style="color:#000000;display:inline;overflow:visible;visibility:visible;opacity:1;fill:#ffff89;fill-opacity:1;fill-rule:nonzero;stroke:none;stroke-width:1;stroke-linecap:round;stroke-linejoin:round;stroke-miterlimit:4;stroke-dasharray:none;stroke-dashoffset:0;stroke-opacity:1;marker:none;enable-background:accumulate"
           id="circle8962"
           cx="13.352456"
           cy="1015.3132"
           r="0.9123314" />
      </g>
    </g>
    <g
       id="g8876"
       transform="matrix(0.76943778,0,0,0.76943778,70.229553,248.67425)">
      <path
         id="rect8870"
         transform="translate(0,952.36216)"
         d="m -8.6328125,63.791016 2.3691406,6.568359 1.7558594,0 16.6542965,0 1.75586,0 2.36914,-6.568359 -4.125,0 -16.6542965,0 -4.125,0 z"
         style="color:#000000;display:inline;overflow:visible;visibility:visible;opacity:1;fill:#ffe680;fill-opacity:1;fill-rule:nonzero;stroke:none;stroke-width:1;stroke-linecap:round;stroke-linejoin:round;stroke-miterlimit:4;stroke-dasharray:none;stroke-dashoffset:0;stroke-opacity:1;marker:none;enable-background:accumulate"
         inkscape:connector-curvature="0" />
      <g
         id="g8840"
         transform="translate(-2.0491826,-1.893849)">
        <path
           id="path8842"
           transform="translate(0,952.36216)"
           d="m 6.859375,58.242188 a 1.1872187,1.9209601 0 0 0 -1.1152344,1.265624 1.9209601,1.1872187 42.343959 0 0 -1.6875,-0.0293 1.9209601,1.1872187 42.343959 0 0 0.068359,1.496093 1.9209601,1.1872187 0 0 0 -1.0585938,1.058594 1.9209601,1.1872187 0 0 0 1.2675782,1.115235 1.1872187,1.9209601 42.343959 0 0 -0.029297,1.689453 1.1872187,1.9209601 42.343959 0 0 1.4941406,-0.06836 1.1872187,1.9209601 0 0 0 1.0605469,1.056641 1.1872187,1.9209601 0 0 0 1.1152344,-1.265625 1.9209601,1.1872187 42.343959 0 0 1.6875,0.02734 1.9209601,1.1872187 42.343959 0 0 -0.066406,-1.494141 1.9209601,1.1872187 0 0 0 1.0566411,-1.060547 1.9209601,1.1872187 0 0 0 -1.2675786,-1.115234 1.1872187,1.9209601 42.343959 0 0 0.029297,-1.6875 1.1872187,1.9209601 42.343959 0 0 -1.4941406,0.06836 1.1872187,1.9209601 0 0 0 -1.0605469,-1.05664 z"
           style="color:#000000;display:inline;overflow:visible;visibility:visible;opacity:1;fill:#ff0000;fill-opacity:1;fill-rule:nonzero;stroke:none;stroke-width:1;stroke-linecap:round;stroke-linejoin:round;stroke-miterlimit:4;stroke-dasharray:none;stroke-dashoffset:0;stroke-opacity:1;marker:none;enable-background:accumulate"
           inkscape:connector-curvature="0" />
        <circle
           r="1.203155"
           cy="1014.3964"
           cx="6.859375"
           id="circle8844"
           style="color:#000000;display:inline;overflow:visible;visibility:visible;opacity:1;fill:#ffff00;fill-opacity:1;fill-rule:nonzero;stroke:none;stroke-width:1;stroke-linecap:round;stroke-linejoin:round;stroke-miterlimit:4;stroke-dasharray:none;stroke-dashoffset:0;stroke-opacity:1;marker:none;enable-background:accumulate" />
      </g>
      <g
         transform="translate(7.0380674,0.30888708)"
         id="g8858">
        <path
           inkscape:connector-curvature="0"
           style="color:#000000;display:inline;overflow:visible;visibility:visible;opacity:1;fill:#ff0000;fill-opacity:1;fill-rule:nonzero;stroke:none;stroke-width:1;stroke-linecap:round;stroke-linejoin:round;stroke-miterlimit:4;stroke-dasharray:none;stroke-dashoffset:0;stroke-opacity:1;marker:none;enable-background:accumulate"
           d="m 6.859375,58.242188 a 1.1872187,1.9209601 0 0 0 -1.1152344,1.265624 1.9209601,1.1872187 42.343959 0 0 -1.6875,-0.0293 1.9209601,1.1872187 42.343959 0 0 0.068359,1.496093 1.9209601,1.1872187 0 0 0 -1.0585938,1.058594 1.9209601,1.1872187 0 0 0 1.2675782,1.115235 1.1872187,1.9209601 42.343959 0 0 -0.029297,1.689453 1.1872187,1.9209601 42.343959 0 0 1.4941406,-0.06836 1.1872187,1.9209601 0 0 0 1.0605469,1.056641 1.1872187,1.9209601 0 0 0 1.1152344,-1.265625 1.9209601,1.1872187 42.343959 0 0 1.6875,0.02734 1.9209601,1.1872187 42.343959 0 0 -0.066406,-1.494141 1.9209601,1.1872187 0 0 0 1.0566411,-1.060547 1.9209601,1.1872187 0 0 0 -1.2675786,-1.115234 1.1872187,1.9209601 42.343959 0 0 0.029297,-1.6875 1.1872187,1.9209601 42.343959 0 0 -1.4941406,0.06836 1.1872187,1.9209601 0 0 0 -1.0605469,-1.05664 z"
           transform="translate(0,952.36216)"
           id="path8860" />
        <circle
           style="color:#000000;display:inline;overflow:visible;visibility:visible;opacity:1;fill:#ffff00;fill-opacity:1;fill-rule:nonzero;stroke:none;stroke-width:1;stroke-linecap:round;stroke-linejoin:round;stroke-miterlimit:4;stroke-dasharray:none;stroke-dashoffset:0;stroke-opacity:1;marker:none;enable-background:accumulate"
           id="circle8862"
           cx="6.859375"
           cy="1014.3964"
           r="1.203155" />
      </g>
      <g
         transform="translate(-24.689239,-0.94086025)"
         id="g8852">
        <path
           inkscape:connector-curvature="0"
           style="color:#000000;display:inline;overflow:visible;visibility:visible;opacity:1;fill:#65bedf;fill-opacity:1;fill-rule:nonzero;stroke:none;stroke-width:1;stroke-linecap:round;stroke-linejoin:round;stroke-miterlimit:4;stroke-dasharray:none;stroke-dashoffset:0;stroke-opacity:1;marker:none;enable-background:accumulate"
           d="m 17.171995,1009.7642 a 1.1632654,1.8822029 0 0 0 -1.092733,1.2401 1.8822029,1.1632654 42.343959 0 0 -1.653453,-0.028 1.8822029,1.1632654 42.343959 0 0 0.06699,1.4659 1.8822029,1.1632654 0 0 0 -1.037236,1.0372 1.8822029,1.1632654 0 0 0 1.242003,1.0927 1.1632654,1.8822029 42.343959 0 0 -0.02871,1.6555 1.1632654,1.8822029 42.343959 0 0 1.463995,-0.067 1.1632654,1.8822029 0 0 0 1.039149,1.0353 1.1632654,1.8822029 0 0 0 1.092734,-1.2401 1.8822029,1.1632654 42.343959 0 0 1.653453,0.027 1.8822029,1.1632654 42.343959 0 0 -0.06507,-1.464 1.8822029,1.1632654 0 0 0 1.035322,-1.0391 1.8822029,1.1632654 0 0 0 -1.242003,-1.0928 1.1632654,1.8822029 42.343959 0 0 0.02871,-1.6535 1.1632654,1.8822029 42.343959 0 0 -1.463995,0.067 1.1632654,1.8822029 0 0 0 -1.039149,-1.0354 z"
           id="path8854" />
        <circle
           style="color:#000000;display:inline;overflow:visible;visibility:visible;opacity:1;fill:#e3edaa;fill-opacity:1;fill-rule:nonzero;stroke:none;stroke-width:1;stroke-linecap:round;stroke-linejoin:round;stroke-miterlimit:4;stroke-dasharray:none;stroke-dashoffset:0;stroke-opacity:1;marker:none;enable-background:accumulate"
           id="circle8856"
           cx="17.171995"
           cy="1013.4798"
           r="1.1788802" />
      </g>
      <g
         transform="translate(-7.6591322,-0.50808245)"
         id="g8826">
        <path
           inkscape:connector-curvature="0"
           style="color:#000000;display:inline;overflow:visible;visibility:visible;opacity:1;fill:#65bedf;fill-opacity:1;fill-rule:nonzero;stroke:none;stroke-width:1;stroke-linecap:round;stroke-linejoin:round;stroke-miterlimit:4;stroke-dasharray:none;stroke-dashoffset:0;stroke-opacity:1;marker:none;enable-background:accumulate"
           d="m 17.171995,1009.7642 a 1.1632654,1.8822029 0 0 0 -1.092733,1.2401 1.8822029,1.1632654 42.343959 0 0 -1.653453,-0.028 1.8822029,1.1632654 42.343959 0 0 0.06699,1.4659 1.8822029,1.1632654 0 0 0 -1.037236,1.0372 1.8822029,1.1632654 0 0 0 1.242003,1.0927 1.1632654,1.8822029 42.343959 0 0 -0.02871,1.6555 1.1632654,1.8822029 42.343959 0 0 1.463995,-0.067 1.1632654,1.8822029 0 0 0 1.039149,1.0353 1.1632654,1.8822029 0 0 0 1.092734,-1.2401 1.8822029,1.1632654 42.343959 0 0 1.653453,0.027 1.8822029,1.1632654 42.343959 0 0 -0.06507,-1.464 1.8822029,1.1632654 0 0 0 1.035322,-1.0391 1.8822029,1.1632654 0 0 0 -1.242003,-1.0928 1.1632654,1.8822029 42.343959 0 0 0.02871,-1.6535 1.1632654,1.8822029 42.343959 0 0 -1.463995,0.067 1.1632654,1.8822029 0 0 0 -1.039149,-1.0354 z"
           id="path8818" />
        <circle
           style="color:#000000;display:inline;overflow:visible;visibility:visible;opacity:1;fill:#e3edaa;fill-opacity:1;fill-rule:nonzero;stroke:none;stroke-width:1;stroke-linecap:round;stroke-linejoin:round;stroke-miterlimit:4;stroke-dasharray:none;stroke-dashoffset:0;stroke-opacity:1;marker:none;enable-background:accumulate"
           id="circle8820"
           cx="17.171995"
           cy="1013.4798"
           r="1.1788802" />
      </g>
      <g
         transform="translate(-10.389807,-0.0569257)"
         id="g8830">
        <path
           inkscape:connector-curvature="0"
           style="color:#000000;display:inline;overflow:visible;visibility:visible;opacity:1;fill:#ff0000;fill-opacity:1;fill-rule:nonzero;stroke:none;stroke-width:1;stroke-linecap:round;stroke-linejoin:round;stroke-miterlimit:4;stroke-dasharray:none;stroke-dashoffset:0;stroke-opacity:1;marker:none;enable-background:accumulate"
           d="m 6.859375,58.242188 a 1.1872187,1.9209601 0 0 0 -1.1152344,1.265624 1.9209601,1.1872187 42.343959 0 0 -1.6875,-0.0293 1.9209601,1.1872187 42.343959 0 0 0.068359,1.496093 1.9209601,1.1872187 0 0 0 -1.0585938,1.058594 1.9209601,1.1872187 0 0 0 1.2675782,1.115235 1.1872187,1.9209601 42.343959 0 0 -0.029297,1.689453 1.1872187,1.9209601 42.343959 0 0 1.4941406,-0.06836 1.1872187,1.9209601 0 0 0 1.0605469,1.056641 1.1872187,1.9209601 0 0 0 1.1152344,-1.265625 1.9209601,1.1872187 42.343959 0 0 1.6875,0.02734 1.9209601,1.1872187 42.343959 0 0 -0.066406,-1.494141 1.9209601,1.1872187 0 0 0 1.0566411,-1.060547 1.9209601,1.1872187 0 0 0 -1.2675786,-1.115234 1.1872187,1.9209601 42.343959 0 0 0.029297,-1.6875 1.1872187,1.9209601 42.343959 0 0 -1.4941406,0.06836 1.1872187,1.9209601 0 0 0 -1.0605469,-1.05664 z"
           transform="translate(0,952.36216)"
           id="path8795" />
        <circle
           style="color:#000000;display:inline;overflow:visible;visibility:visible;opacity:1;fill:#ffff00;fill-opacity:1;fill-rule:nonzero;stroke:none;stroke-width:1;stroke-linecap:round;stroke-linejoin:round;stroke-miterlimit:4;stroke-dasharray:none;stroke-dashoffset:0;stroke-opacity:1;marker:none;enable-background:accumulate"
           id="path8812"
           cx="6.859375"
           cy="1014.3964"
           r="1.203155" />
      </g>
      <g
         transform="translate(-20.584436,-0.83619995)"
         id="g8822">
        <path
           id="path8814"
           d="m 13.352455,1012.4377 a 0.90024713,1.4566304 0 0 0 -0.845662,0.9597 1.4566304,0.90024713 42.343959 0 0 -1.279602,-0.022 1.4566304,0.90024713 42.343959 0 0 0.05184,1.1345 1.4566304,0.90024713 0 0 0 -0.802713,0.8027 1.4566304,0.90024713 0 0 0 0.961182,0.8456 0.90024713,1.4566304 42.343959 0 0 -0.02222,1.2812 0.90024713,1.4566304 42.343959 0 0 1.132981,-0.052 0.90024713,1.4566304 0 0 0 0.804194,0.8012 0.90024713,1.4566304 0 0 0 0.845663,-0.9597 1.4566304,0.90024713 42.343959 0 0 1.279602,0.021 1.4566304,0.90024713 42.343959 0 0 -0.05036,-1.133 1.4566304,0.90024713 0 0 0 0.801232,-0.8042 1.4566304,0.90024713 0 0 0 -0.961182,-0.8457 0.90024713,1.4566304 42.343959 0 0 0.02222,-1.2796 0.90024713,1.4566304 42.343959 0 0 -1.132981,0.052 0.90024713,1.4566304 0 0 0 -0.804194,-0.8013 z"
           style="color:#000000;display:inline;overflow:visible;visibility:visible;opacity:1;fill:#40bf40;fill-opacity:1;fill-rule:nonzero;stroke:none;stroke-width:1;stroke-linecap:round;stroke-linejoin:round;stroke-miterlimit:4;stroke-dasharray:none;stroke-dashoffset:0;stroke-opacity:1;marker:none;enable-background:accumulate"
           inkscape:connector-curvature="0" />
        <circle
           r="0.9123314"
           cy="1015.3132"
           cx="13.352456"
           id="circle8816"
           style="color:#000000;display:inline;overflow:visible;visibility:visible;opacity:1;fill:#ffff89;fill-opacity:1;fill-rule:nonzero;stroke:none;stroke-width:1;stroke-linecap:round;stroke-linejoin:round;stroke-miterlimit:4;stroke-dasharray:none;stroke-dashoffset:0;stroke-opacity:1;marker:none;enable-background:accumulate" />
      </g>
      <g
         transform="translate(-16.895881,-0.56765573)"
         id="g8834">
        <path
           id="path8836"
           d="m 17.171995,1009.7642 a 1.1632654,1.8822029 0 0 0 -1.092733,1.2401 1.8822029,1.1632654 42.343959 0 0 -1.653453,-0.028 1.8822029,1.1632654 42.343959 0 0 0.06699,1.4659 1.8822029,1.1632654 0 0 0 -1.037236,1.0372 1.8822029,1.1632654 0 0 0 1.242003,1.0927 1.1632654,1.8822029 42.343959 0 0 -0.02871,1.6555 1.1632654,1.8822029 42.343959 0 0 1.463995,-0.067 1.1632654,1.8822029 0 0 0 1.039149,1.0353 1.1632654,1.8822029 0 0 0 1.092734,-1.2401 1.8822029,1.1632654 42.343959 0 0 1.653453,0.027 1.8822029,1.1632654 42.343959 0 0 -0.06507,-1.464 1.8822029,1.1632654 0 0 0 1.035322,-1.0391 1.8822029,1.1632654 0 0 0 -1.242003,-1.0928 1.1632654,1.8822029 42.343959 0 0 0.02871,-1.6535 1.1632654,1.8822029 42.343959 0 0 -1.463995,0.067 1.1632654,1.8822029 0 0 0 -1.039149,-1.0354 z"
           style="color:#000000;display:inline;overflow:visible;visibility:visible;opacity:1;fill:#65bedf;fill-opacity:1;fill-rule:nonzero;stroke:none;stroke-width:1;stroke-linecap:round;stroke-linejoin:round;stroke-miterlimit:4;stroke-dasharray:none;stroke-dashoffset:0;stroke-opacity:1;marker:none;enable-background:accumulate"
           inkscape:connector-curvature="0" />
        <circle
           r="1.1788802"
           cy="1013.4798"
           cx="17.171995"
           id="circle8838"
           style="color:#000000;display:inline;overflow:visible;visibility:visible;opacity:1;fill:#e3edaa;fill-opacity:1;fill-rule:nonzero;stroke:none;stroke-width:1;stroke-linecap:round;stroke-linejoin:round;stroke-miterlimit:4;stroke-dasharray:none;stroke-dashoffset:0;stroke-opacity:1;marker:none;enable-background:accumulate" />
      </g>
      <g
         transform="translate(-3.3830334,0.31550374)"
         id="g8846">
        <path
           inkscape:connector-curvature="0"
           style="color:#000000;display:inline;overflow:visible;visibility:visible;opacity:1;fill:#40bf40;fill-opacity:1;fill-rule:nonzero;stroke:none;stroke-width:1;stroke-linecap:round;stroke-linejoin:round;stroke-miterlimit:4;stroke-dasharray:none;stroke-dashoffset:0;stroke-opacity:1;marker:none;enable-background:accumulate"
           d="m 13.352455,1012.4377 a 0.90024713,1.4566304 0 0 0 -0.845662,0.9597 1.4566304,0.90024713 42.343959 0 0 -1.279602,-0.022 1.4566304,0.90024713 42.343959 0 0 0.05184,1.1345 1.4566304,0.90024713 0 0 0 -0.802713,0.8027 1.4566304,0.90024713 0 0 0 0.961182,0.8456 0.90024713,1.4566304 42.343959 0 0 -0.02222,1.2812 0.90024713,1.4566304 42.343959 0 0 1.132981,-0.052 0.90024713,1.4566304 0 0 0 0.804194,0.8012 0.90024713,1.4566304 0 0 0 0.845663,-0.9597 1.4566304,0.90024713 42.343959 0 0 1.279602,0.021 1.4566304,0.90024713 42.343959 0 0 -0.05036,-1.133 1.4566304,0.90024713 0 0 0 0.801232,-0.8042 1.4566304,0.90024713 0 0 0 -0.961182,-0.8457 0.90024713,1.4566304 42.343959 0 0 0.02222,-1.2796 0.90024713,1.4566304 42.343959 0 0 -1.132981,0.052 0.90024713,1.4566304 0 0 0 -0.804194,-0.8013 z"
           id="path8848" />
        <circle
           style="color:#000000;display:inline;overflow:visible;visibility:visible;opacity:1;fill:#ffff89;fill-opacity:1;fill-rule:nonzero;stroke:none;stroke-width:1;stroke-linecap:round;stroke-linejoin:round;stroke-miterlimit:4;stroke-dasharray:none;stroke-dashoffset:0;stroke-opacity:1;marker:none;enable-background:accumulate"
           id="circle8850"
           cx="13.352456"
           cy="1015.3132"
           r="0.9123314" />
      </g>
      <g
         transform="translate(-8.9911767,-0.29803188)"
         id="g8864">
        <path
           id="path8866"
           d="m 13.352455,1012.4377 a 0.90024713,1.4566304 0 0 0 -0.845662,0.9597 1.4566304,0.90024713 42.343959 0 0 -1.279602,-0.022 1.4566304,0.90024713 42.343959 0 0 0.05184,1.1345 1.4566304,0.90024713 0 0 0 -0.802713,0.8027 1.4566304,0.90024713 0 0 0 0.961182,0.8456 0.90024713,1.4566304 42.343959 0 0 -0.02222,1.2812 0.90024713,1.4566304 42.343959 0 0 1.132981,-0.052 0.90024713,1.4566304 0 0 0 0.804194,0.8012 0.90024713,1.4566304 0 0 0 0.845663,-0.9597 1.4566304,0.90024713 42.343959 0 0 1.279602,0.021 1.4566304,0.90024713 42.343959 0 0 -0.05036,-1.133 1.4566304,0.90024713 0 0 0 0.801232,-0.8042 1.4566304,0.90024713 0 0 0 -0.961182,-0.8457 0.90024713,1.4566304 42.343959 0 0 0.02222,-1.2796 0.90024713,1.4566304 42.343959 0 0 -1.132981,0.052 0.90024713,1.4566304 0 0 0 -0.804194,-0.8013 z"
           style="color:#000000;display:inline;overflow:visible;visibility:visible;opacity:1;fill:#40bf40;fill-opacity:1;fill-rule:nonzero;stroke:none;stroke-width:1;stroke-linecap:round;stroke-linejoin:round;stroke-miterlimit:4;stroke-dasharray:none;stroke-dashoffset:0;stroke-opacity:1;marker:none;enable-background:accumulate"
           inkscape:connector-curvature="0" />
        <circle
           r="0.9123314"
           cy="1015.3132"
           cx="13.352456"
           id="circle8868"
           style="color:#000000;display:inline;overflow:visible;visibility:visible;opacity:1;fill:#ffff89;fill-opacity:1;fill-rule:nonzero;stroke:none;stroke-width:1;stroke-linecap:round;stroke-linejoin:round;stroke-miterlimit:4;stroke-dasharray:none;stroke-dashoffset:0;stroke-opacity:1;marker:none;enable-background:accumulate" />
      </g>
    </g>
    <rect
       style="color:#000000;display:inline;overflow:visible;visibility:visible;opacity:1;fill:#daca99;fill-opacity:1;fill-rule:nonzero;stroke:none;stroke-width:1;stroke-linecap:round;stroke-linejoin:round;stroke-miterlimit:4;stroke-dasharray:none;stroke-dashoffset:0;stroke-opacity:1;marker:none;enable-background:accumulate"
       id="rect12016"
       width="16.52021"
       height="23.191277"
       x="43.357449"
       y="1011.5083" />
    <g
       id="g12066"
       transform="translate(0.61717921,4.3e-5)">
      <g
         id="g12062">
        <path
           style="color:#000000;display:inline;overflow:visible;visibility:visible;opacity:1;fill:#fff6d5;fill-opacity:1;fill-rule:nonzero;stroke:none;stroke-width:1;stroke-linecap:round;stroke-linejoin:round;stroke-miterlimit:4;stroke-dasharray:none;stroke-dashoffset:0;stroke-opacity:1;marker:none;enable-background:accumulate"
           d="m 51.73716,1012.5633 0,2.5079 1.12572,0 0,-2.5079 -1.12572,0 z m 1.290739,0 0,2.5079 1.640382,0 0,-2.5079 -1.640382,0 z m 1.805401,0 0,2.5079 1.640383,0 0,-2.5079 -1.640383,0 z m 1.805401,0 0,2.5079 1.12572,0 0,-2.5079 -1.12572,0 z m -4.901541,2.6728 0,2.712 1.12572,0 0,-2.712 -1.12572,0 z m 1.290739,0 0,2.712 1.640382,0 0,-2.712 -1.640382,0 z m 1.805401,0 0,2.712 1.640383,0 0,-2.712 -1.640383,0 z m 1.805401,0 0,2.712 1.12572,0 0,-2.712 -1.12572,0 z m -4.901541,2.8769 0,2.7119 1.12572,0 0,-2.7119 -1.12572,0 z m 1.290739,0 0,2.7119 1.640382,0 0,-2.7119 -1.640382,0 z m 1.805401,0 0,2.7119 1.640383,0 0,-2.7119 -1.640383,0 z m 1.805401,0 0,2.7119 1.12572,0 0,-2.7119 -1.12572,0 z m -4.901541,2.8769 0,1.9984 1.12572,0 0,-1.9984 -1.12572,0 z m 1.290739,0 0,1.9984 1.640382,0 0,-1.9984 -1.640382,0 z m 1.805401,0 0,1.9984 1.640383,0 0,-1.9984 -1.640383,0 z m 1.805401,0 0,1.9984 1.12572,0 0,-1.9984 -1.12572,0 z"
           id="path12052"
           inkscape:connector-curvature="0" />
        <path
           inkscape:connector-curvature="0"
           id="path12056"
           d="m 51.73716,1024.2175 0,2.5079 1.12572,0 0,-2.5079 -1.12572,0 z m 1.290739,0 0,2.5079 1.640382,0 0,-2.5079 -1.640382,0 z m 1.805401,0 0,2.5079 1.640383,0 0,-2.5079 -1.640383,0 z m 1.805401,0 0,2.5079 1.12572,0 0,-2.5079 -1.12572,0 z m -4.901541,2.6728 0,2.712 1.12572,0 0,-2.712 -1.12572,0 z m 1.290739,0 0,2.712 1.640382,0 0,-2.712 -1.640382,0 z m 1.805401,0 0,2.712 1.640383,0 0,-2.712 -1.640383,0 z m 1.805401,0 0,2.712 1.12572,0 0,-2.712 -1.12572,0 z m -4.901541,2.8769 0,2.7119 1.12572,0 0,-2.7119 -1.12572,0 z m 1.290739,0 0,2.7119 1.640382,0 0,-2.7119 -1.640382,0 z m 1.805401,0 0,2.7119 1.640383,0 0,-2.7119 -1.640383,0 z m 1.805401,0 0,2.7119 1.12572,0 0,-2.7119 -1.12572,0 z m -4.901541,2.8769 0,1.9984 1.12572,0 0,-1.9984 -1.12572,0 z m 1.290739,0 0,1.9984 1.640382,0 0,-1.9984 -1.640382,0 z m 1.805401,0 0,1.9984 1.640383,0 0,-1.9984 -1.640383,0 z m 1.805401,0 0,1.9984 1.12572,0 0,-1.9984 -1.12572,0 z"
           style="color:#000000;display:inline;overflow:visible;visibility:visible;opacity:1;fill:#fff6d5;fill-opacity:1;fill-rule:nonzero;stroke:none;stroke-width:1;stroke-linecap:round;stroke-linejoin:round;stroke-miterlimit:4;stroke-dasharray:none;stroke-dashoffset:0;stroke-opacity:1;marker:none;enable-background:accumulate" />
      </g>
      <path
         inkscape:connector-curvature="0"
         id="path12058"
         d="m 44.236328,1012.5633 0,2.5079 1.12572,0 0,-2.5079 -1.12572,0 z m 1.290739,0 0,2.5079 1.640382,0 0,-2.5079 -1.640382,0 z m 1.805401,0 0,2.5079 1.640383,0 0,-2.5079 -1.640383,0 z m 1.805401,0 0,2.5079 1.12572,0 0,-2.5079 -1.12572,0 z m -4.901541,2.6728 0,2.712 1.12572,0 0,-2.712 -1.12572,0 z m 1.290739,0 0,2.712 1.640382,0 0,-2.712 -1.640382,0 z m 1.805401,0 0,2.712 1.640383,0 0,-2.712 -1.640383,0 z m 1.805401,0 0,2.712 1.12572,0 0,-2.712 -1.12572,0 z m -4.901541,2.8769 0,2.7119 1.12572,0 0,-2.7119 -1.12572,0 z m 1.290739,0 0,2.7119 1.640382,0 0,-2.7119 -1.640382,0 z m 1.805401,0 0,2.7119 1.640383,0 0,-2.7119 -1.640383,0 z m 1.805401,0 0,2.7119 1.12572,0 0,-2.7119 -1.12572,0 z m -4.901541,2.8769 0,1.9984 1.12572,0 0,-1.9984 -1.12572,0 z m 1.290739,0 0,1.9984 1.640382,0 0,-1.9984 -1.640382,0 z m 1.805401,0 0,1.9984 1.640383,0 0,-1.9984 -1.640383,0 z m 1.805401,0 0,1.9984 1.12572,0 0,-1.9984 -1.12572,0 z"
         style="color:#000000;display:inline;overflow:visible;visibility:visible;opacity:1;fill:#fff6d5;fill-opacity:1;fill-rule:nonzero;stroke:none;stroke-width:1;stroke-linecap:round;stroke-linejoin:round;stroke-miterlimit:4;stroke-dasharray:none;stroke-dashoffset:0;stroke-opacity:1;marker:none;enable-background:accumulate" />
      <path
         style="color:#000000;display:inline;overflow:visible;visibility:visible;opacity:1;fill:#fff6d5;fill-opacity:1;fill-rule:nonzero;stroke:none;stroke-width:1;stroke-linecap:round;stroke-linejoin:round;stroke-miterlimit:4;stroke-dasharray:none;stroke-dashoffset:0;stroke-opacity:1;marker:none;enable-background:accumulate"
         d="m 44.236328,1024.2175 0,2.5079 1.12572,0 0,-2.5079 -1.12572,0 z m 1.290739,0 0,2.5079 1.640382,0 0,-2.5079 -1.640382,0 z m 1.805401,0 0,2.5079 1.640383,0 0,-2.5079 -1.640383,0 z m 1.805401,0 0,2.5079 1.12572,0 0,-2.5079 -1.12572,0 z m -4.901541,2.6728 0,2.712 1.12572,0 0,-2.712 -1.12572,0 z m 1.290739,0 0,2.712 1.640382,0 0,-2.712 -1.640382,0 z m 1.805401,0 0,2.712 1.640383,0 0,-2.712 -1.640383,0 z m 1.805401,0 0,2.712 1.12572,0 0,-2.712 -1.12572,0 z m -4.901541,2.8769 0,2.7119 1.12572,0 0,-2.7119 -1.12572,0 z m 1.290739,0 0,2.7119 1.640382,0 0,-2.7119 -1.640382,0 z m 1.805401,0 0,2.7119 1.640383,0 0,-2.7119 -1.640383,0 z m 1.805401,0 0,2.7119 1.12572,0 0,-2.7119 -1.12572,0 z m -4.901541,2.8769 0,1.9984 1.12572,0 0,-1.9984 -1.12572,0 z m 1.290739,0 0,1.9984 1.640382,0 0,-1.9984 -1.640382,0 z m 1.805401,0 0,1.9984 1.640383,0 0,-1.9984 -1.640383,0 z m 1.805401,0 0,1.9984 1.12572,0 0,-1.9984 -1.12572,0 z"
         id="path12060"
         inkscape:connector-curvature="0" />
    </g>
  </g>
</svg>
