<?xml version="1.0" encoding="UTF-8" standalone="no"?>
<!-- Created with Inkscape (http://www.inkscape.org/) -->

<svg
   xmlns:dc="http://purl.org/dc/elements/1.1/"
   xmlns:cc="http://creativecommons.org/ns#"
   xmlns:rdf="http://www.w3.org/1999/02/22-rdf-syntax-ns#"
   xmlns:svg="http://www.w3.org/2000/svg"
   xmlns="http://www.w3.org/2000/svg"
   xmlns:sodipodi="http://sodipodi.sourceforge.net/DTD/sodipodi-0.dtd"
   xmlns:inkscape="http://www.inkscape.org/namespaces/inkscape"
   width="100"
   height="100"
   viewBox="0 0 99.999997 100"
   id="svg12771"
   version="1.1"
   inkscape:version="0.91 r13725"
   sodipodi:docname="factory.svg">
  <defs
     id="defs12773" />
  <sodipodi:namedview
     id="base"
     pagecolor="#ffffff"
     bordercolor="#666666"
     borderopacity="1.0"
     inkscape:pageopacity="0.0"
     inkscape:pageshadow="2"
     inkscape:zoom="5.69"
     inkscape:cx="50"
     inkscape:cy="50"
     inkscape:document-units="px"
     inkscape:current-layer="layer1"
     showgrid="false"
     units="px"
     inkscape:window-width="1440"
     inkscape:window-height="807"
     inkscape:window-x="0"
     inkscape:window-y="1"
     inkscape:window-maximized="1" />
  <metadata
     id="metadata12776">
    <rdf:RDF>
      <cc:Work
         rdf:about="">
        <dc:format>image/svg+xml</dc:format>
        <dc:type
           rdf:resource="http://purl.org/dc/dcmitype/StillImage" />
        <dc:title></dc:title>
      </cc:Work>
    </rdf:RDF>
  </metadata>
  <g
     inkscape:label="Layer 1"
     inkscape:groupmode="layer"
     id="layer1"
     transform="translate(0,-952.36216)">
    <path
       style="color:#000000;display:inline;overflow:visible;visibility:visible;opacity:1;fill:#453508;fill-opacity:1;fill-rule:nonzero;stroke:none;stroke-width:1;stroke-linecap:round;stroke-linejoin:round;stroke-miterlimit:4;stroke-dasharray:none;stroke-dashoffset:0;stroke-opacity:1;marker:none;enable-background:accumulate"
       d="M 10.808594 36.90625 L 10.808594 40.421875 L 8.6992188 40.421875 L 8.6992188 43.585938 L 7.1171875 43.585938 L 7.1171875 91.916016 L 88.136719 91.916016 L 88.136719 43.585938 L 86.554688 43.585938 L 86.554688 40.421875 L 84.447266 40.421875 L 84.447266 36.90625 L 10.808594 36.90625 z "
       transform="translate(0,952.36216)"
       id="rect13319" />
    <g
       transform="translate(1.262659,6.0526815)"
       id="g13674">
      <circle
         r="1.7574877"
         cy="999.01196"
         cx="22.288088"
         id="circle13676"
         style="color:#000000;display:inline;overflow:visible;visibility:visible;opacity:1;fill:#b3b3b3;fill-opacity:1;fill-rule:nonzero;stroke:none;stroke-width:1;stroke-linecap:round;stroke-linejoin:round;stroke-miterlimit:4;stroke-dasharray:none;stroke-dashoffset:0;stroke-opacity:1;marker:none;enable-background:accumulate" />
      <rect
         style="color:#000000;display:inline;overflow:visible;visibility:visible;opacity:1;fill:#b3b3b3;fill-opacity:1;fill-rule:nonzero;stroke:none;stroke-width:1;stroke-linecap:round;stroke-linejoin:round;stroke-miterlimit:4;stroke-dasharray:none;stroke-dashoffset:0;stroke-opacity:1;marker:none;enable-background:accumulate"
         id="rect13678"
         width="3.5150371"
         height="2.9657586"
         x="20.530569"
         y="999.23157" />
    </g>
    <g
       id="g13680"
       transform="matrix(1.497781,0,0,1.497781,-9.8319278,-479.99253)">
      <circle
         style="color:#000000;display:inline;overflow:visible;visibility:visible;opacity:1;fill:#b3b3b3;fill-opacity:1;fill-rule:nonzero;stroke:none;stroke-width:1;stroke-linecap:round;stroke-linejoin:round;stroke-miterlimit:4;stroke-dasharray:none;stroke-dashoffset:0;stroke-opacity:1;marker:none;enable-background:accumulate"
         id="circle13682"
         cx="22.288088"
         cy="999.01196"
         r="1.7574877" />
      <rect
         y="999.23157"
         x="20.530569"
         height="2.9657586"
         width="3.5150371"
         id="rect13684"
         style="color:#000000;display:inline;overflow:visible;visibility:visible;opacity:1;fill:#b3b3b3;fill-opacity:1;fill-rule:nonzero;stroke:none;stroke-width:1;stroke-linecap:round;stroke-linejoin:round;stroke-miterlimit:4;stroke-dasharray:none;stroke-dashoffset:0;stroke-opacity:1;marker:none;enable-background:accumulate" />
    </g>
    <g
       transform="matrix(1.497781,0,0,1.497781,-9.8319278,-470.32645)"
       id="g13686">
      <rect
         style="color:#000000;display:inline;overflow:visible;visibility:visible;opacity:1;fill:#b3b3b3;fill-opacity:1;fill-rule:nonzero;stroke:none;stroke-width:1;stroke-linecap:round;stroke-linejoin:round;stroke-miterlimit:4;stroke-dasharray:none;stroke-dashoffset:0;stroke-opacity:1;marker:none;enable-background:accumulate"
         id="rect13688"
         width="3.5150375"
         height="12.0008"
         x="20.530569"
         y="999.23157" />
      <circle
         r="1.7574877"
         cy="999.01196"
         cx="22.288088"
         id="circle13690"
         style="color:#000000;display:inline;overflow:visible;visibility:visible;opacity:1;fill:#b3b3b3;fill-opacity:1;fill-rule:nonzero;stroke:none;stroke-width:1;stroke-linecap:round;stroke-linejoin:round;stroke-miterlimit:4;stroke-dasharray:none;stroke-dashoffset:0;stroke-opacity:1;marker:none;enable-background:accumulate" />
    </g>
    <path
       sodipodi:nodetypes="cccccccc"
       inkscape:connector-curvature="0"
       id="path13692"
       d="m 21.446152,1029.5147 0,14.7634 4.209189,0 0,-14.7634 -1.052297,0 -1.052298,-0.4036 -1.052297,0.4036 z"
       style="color:#000000;display:inline;overflow:visible;visibility:visible;opacity:1;fill:#433d30;fill-opacity:1;fill-rule:nonzero;stroke:none;stroke-width:1;stroke-linecap:round;stroke-linejoin:round;stroke-miterlimit:4;stroke-dasharray:none;stroke-dashoffset:0;stroke-opacity:1;marker:none;enable-background:accumulate" />
    <g
       id="g13694"
       transform="translate(1.262659,6.0526815)">
      <circle
         style="color:#000000;display:inline;overflow:visible;visibility:visible;opacity:1;fill:#b3b3b3;fill-opacity:1;fill-rule:nonzero;stroke:none;stroke-width:1;stroke-linecap:round;stroke-linejoin:round;stroke-miterlimit:4;stroke-dasharray:none;stroke-dashoffset:0;stroke-opacity:1;marker:none;enable-background:accumulate"
         id="circle13696"
         cx="22.288088"
         cy="999.01196"
         r="1.7574877" />
      <rect
         y="999.23157"
         x="20.530569"
         height="2.9657586"
         width="3.5150371"
         id="rect13698"
         style="color:#000000;display:inline;overflow:visible;visibility:visible;opacity:1;fill:#b3b3b3;fill-opacity:1;fill-rule:nonzero;stroke:none;stroke-width:1;stroke-linecap:round;stroke-linejoin:round;stroke-miterlimit:4;stroke-dasharray:none;stroke-dashoffset:0;stroke-opacity:1;marker:none;enable-background:accumulate" />
    </g>
    <path
       id="path13700"
       d="m 23.549974,1013.6758 a 2.6323316,1.3702563 0 0 0 -2.623047,1.2696 l -0.0078,0 0,0.1015 0,6.0332 5.263671,0 0,-6.0332 0,-0.1015 -0.0059,0 a 2.6323316,1.3702563 0 0 0 -2.626953,-1.2696 z"
       style="color:#000000;display:inline;overflow:visible;visibility:visible;opacity:1;fill:#b3b3b3;fill-opacity:1;fill-rule:nonzero;stroke:none;stroke-width:1;stroke-linecap:round;stroke-linejoin:round;stroke-miterlimit:4;stroke-dasharray:none;stroke-dashoffset:0;stroke-opacity:1;marker:none;enable-background:accumulate"
       inkscape:connector-curvature="0" />
    <path
       id="path13702"
       d="m 23.549974,1023.252 a 2.6323316,1.3702563 0 0 0 -2.623047,1.2695 l -0.0078,0 0,0.1016 0,1.3516 0,4.6816 0,13.6211 5.263671,0 0,-17.9746 0,-0.3281 0,-1.3516 0,-0.1016 -0.0059,0 a 2.6323316,1.3702563 0 0 0 -2.626953,-1.2695 z"
       style="color:#000000;display:inline;overflow:visible;visibility:visible;opacity:1;fill:#b3b3b3;fill-opacity:1;fill-rule:nonzero;stroke:none;stroke-width:1;stroke-linecap:round;stroke-linejoin:round;stroke-miterlimit:4;stroke-dasharray:none;stroke-dashoffset:0;stroke-opacity:1;marker:none;enable-background:accumulate"
       inkscape:connector-curvature="0" />
    <path
       style="color:#000000;display:inline;overflow:visible;visibility:visible;opacity:1;fill:#433d30;fill-opacity:1;fill-rule:nonzero;stroke:none;stroke-width:1;stroke-linecap:round;stroke-linejoin:round;stroke-miterlimit:4;stroke-dasharray:none;stroke-dashoffset:0;stroke-opacity:1;marker:none;enable-background:accumulate"
       d="m 21.446152,1029.5147 0,14.7634 4.209189,0 0,-14.7634 -1.052297,0 -1.052298,-0.4036 -1.052297,0.4036 z"
       id="path13704"
       inkscape:connector-curvature="0"
       sodipodi:nodetypes="cccccccc" />
    <path
       sodipodi:nodetypes="cccccccc"
       inkscape:connector-curvature="0"
       id="path13706"
       d="m 21.446152,1025.4619 0,18.8162 4.209189,0 0,-18.8162 -1.052297,0 -1.052298,-0.5143 -1.052297,0.5143 z"
       style="color:#000000;display:inline;overflow:visible;visibility:visible;opacity:1;fill:#433d30;fill-opacity:1;fill-rule:nonzero;stroke:none;stroke-width:1;stroke-linecap:round;stroke-linejoin:round;stroke-miterlimit:4;stroke-dasharray:none;stroke-dashoffset:0;stroke-opacity:1;marker:none;enable-background:accumulate" />
    <g
       transform="matrix(1.497781,0,0,1.497781,-9.8319278,-479.99253)"
       id="g13708">
      <circle
         r="1.7574877"
         cy="999.01196"
         cx="22.288088"
         id="circle13710"
         style="color:#000000;display:inline;overflow:visible;visibility:visible;opacity:1;fill:#b3b3b3;fill-opacity:1;fill-rule:nonzero;stroke:none;stroke-width:1;stroke-linecap:round;stroke-linejoin:round;stroke-miterlimit:4;stroke-dasharray:none;stroke-dashoffset:0;stroke-opacity:1;marker:none;enable-background:accumulate" />
      <rect
         style="color:#000000;display:inline;overflow:visible;visibility:visible;opacity:1;fill:#b3b3b3;fill-opacity:1;fill-rule:nonzero;stroke:none;stroke-width:1;stroke-linecap:round;stroke-linejoin:round;stroke-miterlimit:4;stroke-dasharray:none;stroke-dashoffset:0;stroke-opacity:1;marker:none;enable-background:accumulate"
         id="rect13712"
         width="3.5150371"
         height="2.9657586"
         x="20.530569"
         y="999.23157" />
    </g>
    <g
       id="g13714"
       transform="matrix(1.497781,0,0,1.497781,-9.8319278,-470.32645)">
      <rect
         y="999.23157"
         x="20.530569"
         height="12.0008"
         width="3.5150375"
         id="rect13716"
         style="color:#000000;display:inline;overflow:visible;visibility:visible;opacity:1;fill:#b3b3b3;fill-opacity:1;fill-rule:nonzero;stroke:none;stroke-width:1;stroke-linecap:round;stroke-linejoin:round;stroke-miterlimit:4;stroke-dasharray:none;stroke-dashoffset:0;stroke-opacity:1;marker:none;enable-background:accumulate" />
      <circle
         style="color:#000000;display:inline;overflow:visible;visibility:visible;opacity:1;fill:#b3b3b3;fill-opacity:1;fill-rule:nonzero;stroke:none;stroke-width:1;stroke-linecap:round;stroke-linejoin:round;stroke-miterlimit:4;stroke-dasharray:none;stroke-dashoffset:0;stroke-opacity:1;marker:none;enable-background:accumulate"
         id="circle13718"
         cx="22.288088"
         cy="999.01196"
         r="1.7574877" />
    </g>
    <path
       style="color:#000000;display:inline;overflow:visible;visibility:visible;opacity:1;fill:#433d30;fill-opacity:1;fill-rule:nonzero;stroke:none;stroke-width:1;stroke-linecap:round;stroke-linejoin:round;stroke-miterlimit:4;stroke-dasharray:none;stroke-dashoffset:0;stroke-opacity:1;marker:none;enable-background:accumulate"
       d="m 21.446152,1029.5147 0,14.7634 4.209189,0 0,-14.7634 -1.052297,0 -1.052298,-0.4036 -1.052297,0.4036 z"
       id="path13720"
       inkscape:connector-curvature="0"
       sodipodi:nodetypes="cccccccc" />
    <path
       style="color:#000000;display:inline;overflow:visible;visibility:visible;opacity:1;fill:#b3b3b3;fill-opacity:1;fill-rule:nonzero;stroke:none;stroke-width:1;stroke-linecap:round;stroke-linejoin:round;stroke-miterlimit:4;stroke-dasharray:none;stroke-dashoffset:0;stroke-opacity:1;marker:none;enable-background:accumulate"
       d="m 23.549974,1013.6758 a 2.6323316,1.3702563 0 0 0 -2.623047,1.2696 l -0.0078,0 0,0.1015 0,6.0332 5.263671,0 0,-6.0332 0,-0.1015 -0.0059,0 a 2.6323316,1.3702563 0 0 0 -2.626953,-1.2696 z"
       id="path13722"
       inkscape:connector-curvature="0" />
    <path
       style="color:#000000;display:inline;overflow:visible;visibility:visible;opacity:1;fill:#b3b3b3;fill-opacity:1;fill-rule:nonzero;stroke:none;stroke-width:1;stroke-linecap:round;stroke-linejoin:round;stroke-miterlimit:4;stroke-dasharray:none;stroke-dashoffset:0;stroke-opacity:1;marker:none;enable-background:accumulate"
       d="m 23.549974,1023.252 a 2.6323316,1.3702563 0 0 0 -2.623047,1.2695 l -0.0078,0 0,0.1016 0,1.3516 0,4.6816 0,13.6211 5.263671,0 0,-17.9746 0,-0.3281 0,-1.3516 0,-0.1016 -0.0059,0 a 2.6323316,1.3702563 0 0 0 -2.626953,-1.2695 z"
       id="path13724"
       inkscape:connector-curvature="0" />
    <path
       sodipodi:nodetypes="cccccccc"
       inkscape:connector-curvature="0"
       id="path13726"
       d="m 21.446152,1029.5147 0,14.7634 4.209189,0 0,-14.7634 -1.052297,0 -1.052298,-0.4036 -1.052297,0.4036 z"
       style="color:#000000;display:inline;overflow:visible;visibility:visible;opacity:1;fill:#433d30;fill-opacity:1;fill-rule:nonzero;stroke:none;stroke-width:1;stroke-linecap:round;stroke-linejoin:round;stroke-miterlimit:4;stroke-dasharray:none;stroke-dashoffset:0;stroke-opacity:1;marker:none;enable-background:accumulate" />
    <path
       style="color:#000000;display:inline;overflow:visible;visibility:visible;opacity:1;fill:#433d30;fill-opacity:1;fill-rule:nonzero;stroke:none;stroke-width:1;stroke-linecap:round;stroke-linejoin:round;stroke-miterlimit:4;stroke-dasharray:none;stroke-dashoffset:0;stroke-opacity:1;marker:none;enable-background:accumulate"
       d="m 21.446152,1025.4619 0,18.8162 4.209189,0 0,-18.8162 -1.052297,0 -1.052298,-0.5143 -1.052297,0.5143 z"
       id="path13728"
       inkscape:connector-curvature="0"
       sodipodi:nodetypes="cccccccc" />
    <path
       style="color:#000000;display:inline;overflow:visible;visibility:visible;opacity:1;fill:#2b2613;fill-opacity:1;fill-rule:nonzero;stroke:none;stroke-width:1;stroke-linecap:round;stroke-linejoin:round;stroke-miterlimit:4;stroke-dasharray:none;stroke-dashoffset:0;stroke-opacity:1;marker:none;enable-background:accumulate"
       d="M 31.232422 58.394531 L 31.232422 67.152344 L 34.5625 67.152344 L 34.5625 83.404297 L 34.5625 91.740234 L 42.265625 91.740234 L 52.779297 91.740234 L 60.482422 91.740234 L 60.482422 83.404297 L 60.482422 67.152344 L 63.8125 67.152344 L 63.8125 58.394531 L 52.779297 58.394531 L 42.265625 58.394531 L 31.232422 58.394531 z "
       transform="translate(0,952.36216)"
       id="rect13803" />
    <path
       inkscape:connector-curvature="0"
       id="path13797"
       d="m 47.461145,1013.7677 a 8.780696,1.9883595 0 0 0 -8.749725,1.8422 l -0.02602,0 0,0.1474 0,1.9613 0,6.7934 0,19.7654 17.558082,0 0,-26.0827 0,-0.4761 0,-1.9613 0,-0.1474 -0.01968,0 a 8.780696,1.9883595 0 0 0 -8.762755,-1.8422 z"
       style="color:#000000;display:inline;overflow:visible;visibility:visible;opacity:1;fill:#b3b3b3;fill-opacity:1;fill-rule:nonzero;stroke:none;stroke-width:1;stroke-linecap:round;stroke-linejoin:round;stroke-miterlimit:4;stroke-dasharray:none;stroke-dashoffset:0;stroke-opacity:1;marker:none;enable-background:accumulate" />
    <rect
       style="color:#000000;display:inline;overflow:visible;visibility:visible;opacity:1;fill:#141209;fill-opacity:1;fill-rule:nonzero;stroke:none;stroke-width:1;stroke-linecap:round;stroke-linejoin:round;stroke-miterlimit:4;stroke-dasharray:none;stroke-dashoffset:0;stroke-opacity:1;marker:none;enable-background:accumulate"
       id="rect14212"
       width="75.776566"
       height="1.2490642"
       x="9.5761595"
       y="988.24353" />
    <rect
       y="991.99072"
       x="7.7025633"
       height="1.2490642"
       width="79.523758"
       id="rect14214"
       style="color:#000000;display:inline;overflow:visible;visibility:visible;opacity:1;fill:#141209;fill-opacity:1;fill-rule:nonzero;stroke:none;stroke-width:1;stroke-linecap:round;stroke-linejoin:round;stroke-miterlimit:4;stroke-dasharray:none;stroke-dashoffset:0;stroke-opacity:1;marker:none;enable-background:accumulate" />
    <rect
       style="color:#000000;display:inline;overflow:visible;visibility:visible;opacity:1;fill:#141209;fill-opacity:1;fill-rule:nonzero;stroke:none;stroke-width:1;stroke-linecap:round;stroke-linejoin:round;stroke-miterlimit:4;stroke-dasharray:none;stroke-dashoffset:0;stroke-opacity:1;marker:none;enable-background:accumulate"
       id="rect14216"
       width="85.352722"
       height="1.2490642"
       x="4.7880802"
       y="995.1134" />
    <rect
       y="1009.4776"
       x="30.393896"
       height="1.2490642"
       width="34.14109"
       id="rect14278"
       style="color:#000000;display:inline;overflow:visible;visibility:visible;opacity:1;fill:#141209;fill-opacity:1;fill-rule:nonzero;stroke:none;stroke-width:1;stroke-linecap:round;stroke-linejoin:round;stroke-miterlimit:4;stroke-dasharray:none;stroke-dashoffset:0;stroke-opacity:1;marker:none;enable-background:accumulate" />
    <path
       inkscape:connector-curvature="0"
       id="path14307"
       d="m 31.772449,998.60713 0,0.35742 1.013672,0 0,-0.35742 -1.013672,0 z m 1.167969,0 0,0.35742 0.94336,0 0,-0.35742 -0.94336,0 z m 1.09961,0 0,0.35742 0.943359,0 0,-0.35742 -0.943359,0 z m 1.099609,0 0,0.35742 0.943359,0 0,-0.35742 -0.943359,0 z m 1.097656,0 0,0.35742 0.94336,0 0,-0.35742 -0.94336,0 z m 1.09961,0 0,0.35742 0.943359,0 0,-0.35742 -0.943359,0 z m 1.099609,0 0,0.35742 0.830078,0 0,-0.35742 -0.830078,0 z m -6.664063,0.51172 0,0.94335 1.013672,0 0,-0.94335 -1.013672,0 z m 1.167969,0 0,0.94335 0.94336,0 0,-0.94335 -0.94336,0 z m 1.09961,0 0,0.94335 0.943359,0 0,-0.94335 -0.943359,0 z m 1.099609,0 0,0.94335 0.943359,0 0,-0.94335 -0.943359,0 z m 1.097656,0 0,0.94335 0.94336,0 0,-0.94335 -0.94336,0 z m 1.09961,0 0,0.94335 0.943359,0 0,-0.94335 -0.943359,0 z m 1.099609,0 0,0.94335 0.830078,0 0,-0.94335 -0.830078,0 z m -6.664063,1.09965 0,0.9433 1.013672,0 0,-0.9433 -1.013672,0 z m 1.167969,0 0,0.9433 0.94336,0 0,-0.9433 -0.94336,0 z m 1.09961,0 0,0.9433 0.943359,0 0,-0.9433 -0.943359,0 z m 1.099609,0 0,0.9433 0.943359,0 0,-0.9433 -0.943359,0 z m 1.097656,0 0,0.9433 0.94336,0 0,-0.9433 -0.94336,0 z m 1.09961,0 0,0.9433 0.943359,0 0,-0.9433 -0.943359,0 z m 1.099609,0 0,0.9433 0.830078,0 0,-0.9433 -0.830078,0 z m -6.664063,1.0996 0,0.9433 1.013672,0 0,-0.9433 -1.013672,0 z m 1.167969,0 0,0.9433 0.94336,0 0,-0.9433 -0.94336,0 z m 1.09961,0 0,0.9433 0.943359,0 0,-0.9433 -0.943359,0 z m 1.099609,0 0,0.9433 0.943359,0 0,-0.9433 -0.943359,0 z m 1.097656,0 0,0.9433 0.94336,0 0,-0.9433 -0.94336,0 z m 1.09961,0 0,0.9433 0.943359,0 0,-0.9433 -0.943359,0 z m 1.099609,0 0,0.9433 0.830078,0 0,-0.9433 -0.830078,0 z m -6.664063,1.0976 0,0.9434 1.013672,0 0,-0.9434 -1.013672,0 z m 1.167969,0 0,0.9434 0.94336,0 0,-0.9434 -0.94336,0 z m 1.09961,0 0,0.9434 0.943359,0 0,-0.9434 -0.943359,0 z m 1.099609,0 0,0.9434 0.943359,0 0,-0.9434 -0.943359,0 z m 1.097656,0 0,0.9434 0.94336,0 0,-0.9434 -0.94336,0 z m 1.09961,0 0,0.9434 0.943359,0 0,-0.9434 -0.943359,0 z m 1.099609,0 0,0.9434 0.830078,0 0,-0.9434 -0.830078,0 z m -6.664063,1.0996 0,0.9434 1.013672,0 0,-0.9434 -1.013672,0 z m 1.167969,0 0,0.9434 0.94336,0 0,-0.9434 -0.94336,0 z m 1.09961,0 0,0.9434 0.943359,0 0,-0.9434 -0.943359,0 z m 1.099609,0 0,0.9434 0.943359,0 0,-0.9434 -0.943359,0 z m 1.097656,0 0,0.9434 0.94336,0 0,-0.9434 -0.94336,0 z m 1.09961,0 0,0.9434 0.943359,0 0,-0.9434 -0.943359,0 z m 1.099609,0 0,0.9434 0.830078,0 0,-0.9434 -0.830078,0 z m -6.664063,1.0996 0,0.2383 1.013672,0 0,-0.2383 -1.013672,0 z m 1.167969,0 0,0.2383 0.94336,0 0,-0.2383 -0.94336,0 z m 1.09961,0 0,0.2383 0.943359,0 0,-0.2383 -0.943359,0 z m 1.099609,0 0,0.2383 0.943359,0 0,-0.2383 -0.943359,0 z m 1.097656,0 0,0.2383 0.94336,0 0,-0.2383 -0.94336,0 z m 1.09961,0 0,0.2383 0.943359,0 0,-0.2383 -0.943359,0 z m 1.099609,0 0,0.2383 0.830078,0 0,-0.2383 -0.830078,0 z"
       style="color:#000000;display:inline;overflow:visible;visibility:visible;opacity:1;fill:#b3b3b3;fill-opacity:1;fill-rule:nonzero;stroke:none;stroke-width:1;stroke-linecap:round;stroke-linejoin:round;stroke-miterlimit:4;stroke-dasharray:none;stroke-dashoffset:0;stroke-opacity:1;marker:none;enable-background:accumulate" />
    <path
       style="color:#000000;display:inline;overflow:visible;visibility:visible;opacity:1;fill:#b3b3b3;fill-opacity:1;fill-rule:nonzero;stroke:none;stroke-width:1;stroke-linecap:round;stroke-linejoin:round;stroke-miterlimit:4;stroke-dasharray:none;stroke-dashoffset:0;stroke-opacity:1;marker:none;enable-background:accumulate"
       d="m 43.879884,998.60713 0,0.35742 1.013672,0 0,-0.35742 -1.013672,0 z m 1.167969,0 0,0.35742 0.94336,0 0,-0.35742 -0.94336,0 z m 1.09961,0 0,0.35742 0.943359,0 0,-0.35742 -0.943359,0 z m 1.099609,0 0,0.35742 0.943359,0 0,-0.35742 -0.943359,0 z m 1.097656,0 0,0.35742 0.94336,0 0,-0.35742 -0.94336,0 z m 1.09961,0 0,0.35742 0.943359,0 0,-0.35742 -0.943359,0 z m 1.099609,0 0,0.35742 0.830078,0 0,-0.35742 -0.830078,0 z m -6.664063,0.51172 0,0.94335 1.013672,0 0,-0.94335 -1.013672,0 z m 1.167969,0 0,0.94335 0.94336,0 0,-0.94335 -0.94336,0 z m 1.09961,0 0,0.94335 0.943359,0 0,-0.94335 -0.943359,0 z m 1.099609,0 0,0.94335 0.943359,0 0,-0.94335 -0.943359,0 z m 1.097656,0 0,0.94335 0.94336,0 0,-0.94335 -0.94336,0 z m 1.09961,0 0,0.94335 0.943359,0 0,-0.94335 -0.943359,0 z m 1.099609,0 0,0.94335 0.830078,0 0,-0.94335 -0.830078,0 z m -6.664063,1.09965 0,0.9433 1.013672,0 0,-0.9433 -1.013672,0 z m 1.167969,0 0,0.9433 0.94336,0 0,-0.9433 -0.94336,0 z m 1.09961,0 0,0.9433 0.943359,0 0,-0.9433 -0.943359,0 z m 1.099609,0 0,0.9433 0.943359,0 0,-0.9433 -0.943359,0 z m 1.097656,0 0,0.9433 0.94336,0 0,-0.9433 -0.94336,0 z m 1.09961,0 0,0.9433 0.943359,0 0,-0.9433 -0.943359,0 z m 1.099609,0 0,0.9433 0.830078,0 0,-0.9433 -0.830078,0 z m -6.664063,1.0996 0,0.9433 1.013672,0 0,-0.9433 -1.013672,0 z m 1.167969,0 0,0.9433 0.94336,0 0,-0.9433 -0.94336,0 z m 1.09961,0 0,0.9433 0.943359,0 0,-0.9433 -0.943359,0 z m 1.099609,0 0,0.9433 0.943359,0 0,-0.9433 -0.943359,0 z m 1.097656,0 0,0.9433 0.94336,0 0,-0.9433 -0.94336,0 z m 1.09961,0 0,0.9433 0.943359,0 0,-0.9433 -0.943359,0 z m 1.099609,0 0,0.9433 0.830078,0 0,-0.9433 -0.830078,0 z m -6.664063,1.0976 0,0.9434 1.013672,0 0,-0.9434 -1.013672,0 z m 1.167969,0 0,0.9434 0.94336,0 0,-0.9434 -0.94336,0 z m 1.09961,0 0,0.9434 0.943359,0 0,-0.9434 -0.943359,0 z m 1.099609,0 0,0.9434 0.943359,0 0,-0.9434 -0.943359,0 z m 1.097656,0 0,0.9434 0.94336,0 0,-0.9434 -0.94336,0 z m 1.09961,0 0,0.9434 0.943359,0 0,-0.9434 -0.943359,0 z m 1.099609,0 0,0.9434 0.830078,0 0,-0.9434 -0.830078,0 z m -6.664063,1.0996 0,0.9434 1.013672,0 0,-0.9434 -1.013672,0 z m 1.167969,0 0,0.9434 0.94336,0 0,-0.9434 -0.94336,0 z m 1.09961,0 0,0.9434 0.943359,0 0,-0.9434 -0.943359,0 z m 1.099609,0 0,0.9434 0.943359,0 0,-0.9434 -0.943359,0 z m 1.097656,0 0,0.9434 0.94336,0 0,-0.9434 -0.94336,0 z m 1.09961,0 0,0.9434 0.943359,0 0,-0.9434 -0.943359,0 z m 1.099609,0 0,0.9434 0.830078,0 0,-0.9434 -0.830078,0 z m -6.664063,1.0996 0,0.2383 1.013672,0 0,-0.2383 -1.013672,0 z m 1.167969,0 0,0.2383 0.94336,0 0,-0.2383 -0.94336,0 z m 1.09961,0 0,0.2383 0.943359,0 0,-0.2383 -0.943359,0 z m 1.099609,0 0,0.2383 0.943359,0 0,-0.2383 -0.943359,0 z m 1.097656,0 0,0.2383 0.94336,0 0,-0.2383 -0.94336,0 z m 1.09961,0 0,0.2383 0.943359,0 0,-0.2383 -0.943359,0 z m 1.099609,0 0,0.2383 0.830078,0 0,-0.2383 -0.830078,0 z"
       id="path14377"
       inkscape:connector-curvature="0" />
    <path
       inkscape:connector-curvature="0"
       id="path14379"
       d="m 55.987317,998.60713 0,0.35742 1.013672,0 0,-0.35742 -1.013672,0 z m 1.167969,0 0,0.35742 0.94336,0 0,-0.35742 -0.94336,0 z m 1.09961,0 0,0.35742 0.943359,0 0,-0.35742 -0.943359,0 z m 1.099609,0 0,0.35742 0.943359,0 0,-0.35742 -0.943359,0 z m 1.097656,0 0,0.35742 0.94336,0 0,-0.35742 -0.94336,0 z m 1.09961,0 0,0.35742 0.943359,0 0,-0.35742 -0.943359,0 z m 1.099609,0 0,0.35742 0.830078,0 0,-0.35742 -0.830078,0 z m -6.664063,0.51172 0,0.94335 1.013672,0 0,-0.94335 -1.013672,0 z m 1.167969,0 0,0.94335 0.94336,0 0,-0.94335 -0.94336,0 z m 1.09961,0 0,0.94335 0.943359,0 0,-0.94335 -0.943359,0 z m 1.099609,0 0,0.94335 0.943359,0 0,-0.94335 -0.943359,0 z m 1.097656,0 0,0.94335 0.94336,0 0,-0.94335 -0.94336,0 z m 1.09961,0 0,0.94335 0.943359,0 0,-0.94335 -0.943359,0 z m 1.099609,0 0,0.94335 0.830078,0 0,-0.94335 -0.830078,0 z m -6.664063,1.09965 0,0.9433 1.013672,0 0,-0.9433 -1.013672,0 z m 1.167969,0 0,0.9433 0.94336,0 0,-0.9433 -0.94336,0 z m 1.09961,0 0,0.9433 0.943359,0 0,-0.9433 -0.943359,0 z m 1.099609,0 0,0.9433 0.943359,0 0,-0.9433 -0.943359,0 z m 1.097656,0 0,0.9433 0.94336,0 0,-0.9433 -0.94336,0 z m 1.09961,0 0,0.9433 0.943359,0 0,-0.9433 -0.943359,0 z m 1.099609,0 0,0.9433 0.830078,0 0,-0.9433 -0.830078,0 z m -6.664063,1.0996 0,0.9433 1.013672,0 0,-0.9433 -1.013672,0 z m 1.167969,0 0,0.9433 0.94336,0 0,-0.9433 -0.94336,0 z m 1.09961,0 0,0.9433 0.943359,0 0,-0.9433 -0.943359,0 z m 1.099609,0 0,0.9433 0.943359,0 0,-0.9433 -0.943359,0 z m 1.097656,0 0,0.9433 0.94336,0 0,-0.9433 -0.94336,0 z m 1.09961,0 0,0.9433 0.943359,0 0,-0.9433 -0.943359,0 z m 1.099609,0 0,0.9433 0.830078,0 0,-0.9433 -0.830078,0 z m -6.664063,1.0976 0,0.9434 1.013672,0 0,-0.9434 -1.013672,0 z m 1.167969,0 0,0.9434 0.94336,0 0,-0.9434 -0.94336,0 z m 1.09961,0 0,0.9434 0.943359,0 0,-0.9434 -0.943359,0 z m 1.099609,0 0,0.9434 0.943359,0 0,-0.9434 -0.943359,0 z m 1.097656,0 0,0.9434 0.94336,0 0,-0.9434 -0.94336,0 z m 1.09961,0 0,0.9434 0.943359,0 0,-0.9434 -0.943359,0 z m 1.099609,0 0,0.9434 0.830078,0 0,-0.9434 -0.830078,0 z m -6.664063,1.0996 0,0.9434 1.013672,0 0,-0.9434 -1.013672,0 z m 1.167969,0 0,0.9434 0.94336,0 0,-0.9434 -0.94336,0 z m 1.09961,0 0,0.9434 0.943359,0 0,-0.9434 -0.943359,0 z m 1.099609,0 0,0.9434 0.943359,0 0,-0.9434 -0.943359,0 z m 1.097656,0 0,0.9434 0.94336,0 0,-0.9434 -0.94336,0 z m 1.09961,0 0,0.9434 0.943359,0 0,-0.9434 -0.943359,0 z m 1.099609,0 0,0.9434 0.830078,0 0,-0.9434 -0.830078,0 z m -6.664063,1.0996 0,0.2383 1.013672,0 0,-0.2383 -1.013672,0 z m 1.167969,0 0,0.2383 0.94336,0 0,-0.2383 -0.94336,0 z m 1.09961,0 0,0.2383 0.943359,0 0,-0.2383 -0.943359,0 z m 1.099609,0 0,0.2383 0.943359,0 0,-0.2383 -0.943359,0 z m 1.097656,0 0,0.2383 0.94336,0 0,-0.2383 -0.94336,0 z m 1.09961,0 0,0.2383 0.943359,0 0,-0.2383 -0.943359,0 z m 1.099609,0 0,0.2383 0.830078,0 0,-0.2383 -0.830078,0 z"
       style="color:#000000;display:inline;overflow:visible;visibility:visible;opacity:1;fill:#b3b3b3;fill-opacity:1;fill-rule:nonzero;stroke:none;stroke-width:1;stroke-linecap:round;stroke-linejoin:round;stroke-miterlimit:4;stroke-dasharray:none;stroke-dashoffset:0;stroke-opacity:1;marker:none;enable-background:accumulate" />
    <path
       style="color:#000000;font-style:normal;font-variant:normal;font-weight:normal;font-stretch:normal;font-size:medium;line-height:normal;font-family:sans-serif;text-indent:0;text-align:start;text-decoration:none;text-decoration-line:none;text-decoration-style:solid;text-decoration-color:#000000;letter-spacing:normal;word-spacing:normal;text-transform:none;direction:ltr;block-progression:tb;writing-mode:lr-tb;baseline-shift:baseline;text-anchor:start;white-space:normal;clip-rule:nonzero;display:inline;overflow:visible;visibility:visible;opacity:1;isolation:auto;mix-blend-mode:normal;color-interpolation:sRGB;color-interpolation-filters:linearRGB;solid-color:#000000;solid-opacity:1;fill:#433d30;fill-opacity:1;fill-rule:evenodd;stroke:none;stroke-width:1px;stroke-linecap:butt;stroke-linejoin:miter;stroke-miterlimit:4;stroke-dasharray:none;stroke-dashoffset:0;stroke-opacity:1;color-rendering:auto;image-rendering:auto;shape-rendering:auto;text-rendering:auto;enable-background:accumulate"
       d="m 47.126954,1013.7227 0,30.0332 1,0 0,-30.0332 -1,0 z"
       id="path14670"
       inkscape:connector-curvature="0" />
    <g
       id="g14702"
       transform="translate(0.14477025,0)">
      <g
         id="g14674">
        <path
           sodipodi:nodetypes="ccccc"
           inkscape:connector-curvature="0"
           id="rect13340"
           d="m 18.84606,958.71222 7.182862,0 1.665419,85.39008 -10.305523,0 z"
           style="color:#000000;display:inline;overflow:visible;visibility:visible;opacity:1;fill:#141209;fill-opacity:1;fill-rule:nonzero;stroke:none;stroke-width:1;stroke-linecap:round;stroke-linejoin:round;stroke-miterlimit:4;stroke-dasharray:none;stroke-dashoffset:0;stroke-opacity:1;marker:none;enable-background:accumulate" />
        <path
           style="color:#000000;display:inline;overflow:visible;visibility:visible;opacity:1;fill:#b3b3b3;fill-opacity:1;fill-rule:nonzero;stroke:none;stroke-width:1;stroke-linecap:round;stroke-linejoin:round;stroke-miterlimit:4;stroke-dasharray:none;stroke-dashoffset:0;stroke-opacity:1;marker:none;enable-background:accumulate"
           d="m 8.9856363,998.60713 0,0.35742 1.0136719,0 0,-0.35742 -1.0136719,0 z m 1.1679687,0 0,0.35742 0.94336,0 0,-0.35742 -0.94336,0 z m 1.09961,0 0,0.35742 0.943359,0 0,-0.35742 -0.943359,0 z m 1.099609,0 0,0.35742 0.943359,0 0,-0.35742 -0.943359,0 z m 1.097656,0 0,0.35742 0.94336,0 0,-0.35742 -0.94336,0 z m 1.09961,0 0,0.35742 0.943359,0 0,-0.35742 -0.943359,0 z m 1.099609,0 0,0.35742 0.830078,0 0,-0.35742 -0.830078,0 z m -6.6640627,0.51172 0,0.94335 1.0136719,0 0,-0.94335 -1.0136719,0 z m 1.1679687,0 0,0.94335 0.94336,0 0,-0.94335 -0.94336,0 z m 1.09961,0 0,0.94335 0.943359,0 0,-0.94335 -0.943359,0 z m 1.099609,0 0,0.94335 0.943359,0 0,-0.94335 -0.943359,0 z m 1.097656,0 0,0.94335 0.94336,0 0,-0.94335 -0.94336,0 z m 1.09961,0 0,0.94335 0.943359,0 0,-0.94335 -0.943359,0 z m 1.099609,0 0,0.94335 0.830078,0 0,-0.94335 -0.830078,0 z m -6.6640627,1.09965 0,0.9433 1.0136719,0 0,-0.9433 -1.0136719,0 z m 1.1679687,0 0,0.9433 0.94336,0 0,-0.9433 -0.94336,0 z m 1.09961,0 0,0.9433 0.943359,0 0,-0.9433 -0.943359,0 z m 1.099609,0 0,0.9433 0.943359,0 0,-0.9433 -0.943359,0 z m 1.097656,0 0,0.9433 0.94336,0 0,-0.9433 -0.94336,0 z m 1.09961,0 0,0.9433 0.943359,0 0,-0.9433 -0.943359,0 z m 1.099609,0 0,0.9433 0.830078,0 0,-0.9433 -0.830078,0 z m -6.6640627,1.0996 0,0.9433 1.0136719,0 0,-0.9433 -1.0136719,0 z m 1.1679687,0 0,0.9433 0.94336,0 0,-0.9433 -0.94336,0 z m 1.09961,0 0,0.9433 0.943359,0 0,-0.9433 -0.943359,0 z m 1.099609,0 0,0.9433 0.943359,0 0,-0.9433 -0.943359,0 z m 1.097656,0 0,0.9433 0.94336,0 0,-0.9433 -0.94336,0 z m 1.09961,0 0,0.9433 0.943359,0 0,-0.9433 -0.943359,0 z m 1.099609,0 0,0.9433 0.830078,0 0,-0.9433 -0.830078,0 z m -6.6640627,1.0976 0,0.9434 1.0136719,0 0,-0.9434 -1.0136719,0 z m 1.1679687,0 0,0.9434 0.94336,0 0,-0.9434 -0.94336,0 z m 1.09961,0 0,0.9434 0.943359,0 0,-0.9434 -0.943359,0 z m 1.099609,0 0,0.9434 0.943359,0 0,-0.9434 -0.943359,0 z m 1.097656,0 0,0.9434 0.94336,0 0,-0.9434 -0.94336,0 z m 1.09961,0 0,0.9434 0.943359,0 0,-0.9434 -0.943359,0 z m 1.099609,0 0,0.9434 0.830078,0 0,-0.9434 -0.830078,0 z m -6.6640627,1.0996 0,0.9434 1.0136719,0 0,-0.9434 -1.0136719,0 z m 1.1679687,0 0,0.9434 0.94336,0 0,-0.9434 -0.94336,0 z m 1.09961,0 0,0.9434 0.943359,0 0,-0.9434 -0.943359,0 z m 1.099609,0 0,0.9434 0.943359,0 0,-0.9434 -0.943359,0 z m 1.097656,0 0,0.9434 0.94336,0 0,-0.9434 -0.94336,0 z m 1.09961,0 0,0.9434 0.943359,0 0,-0.9434 -0.943359,0 z m 1.099609,0 0,0.9434 0.830078,0 0,-0.9434 -0.830078,0 z m -6.6640627,1.0996 0,0.2383 1.0136719,0 0,-0.2383 -1.0136719,0 z m 1.1679687,0 0,0.2383 0.94336,0 0,-0.2383 -0.94336,0 z m 1.09961,0 0,0.2383 0.943359,0 0,-0.2383 -0.943359,0 z m 1.099609,0 0,0.2383 0.943359,0 0,-0.2383 -0.943359,0 z m 1.097656,0 0,0.2383 0.94336,0 0,-0.2383 -0.94336,0 z m 1.09961,0 0,0.2383 0.943359,0 0,-0.2383 -0.943359,0 z m 1.099609,0 0,0.2383 0.830078,0 0,-0.2383 -0.830078,0 z"
           id="rect14280"
           inkscape:connector-curvature="0" />
        <g
           id="g14573"
           transform="translate(-10.011163,0)">
          <path
             style="color:#000000;display:inline;overflow:visible;visibility:visible;opacity:1;fill:#b3b3b3;fill-opacity:1;fill-rule:nonzero;stroke:none;stroke-width:1;stroke-linecap:round;stroke-linejoin:round;stroke-miterlimit:4;stroke-dasharray:none;stroke-dashoffset:0;stroke-opacity:1;marker:none;enable-background:accumulate"
             d="m 22.540807,1023.252 a 2.6323316,1.3702563 0 0 0 -2.623047,1.2695 l -0.0078,0 0,0.1016 0,1.3516 0,4.6816 0,13.6211 5.263671,0 0,-17.9746 0,-0.3281 0,-1.3516 0,-0.1016 -0.0059,0 a 2.6323316,1.3702563 0 0 0 -2.626953,-1.2695 z"
             id="path13535"
             inkscape:connector-curvature="0" />
          <path
             style="color:#000000;display:inline;overflow:visible;visibility:visible;opacity:1;fill:#433d30;fill-opacity:1;fill-rule:nonzero;stroke:none;stroke-width:1;stroke-linecap:round;stroke-linejoin:round;stroke-miterlimit:4;stroke-dasharray:none;stroke-dashoffset:0;stroke-opacity:1;marker:none;enable-background:accumulate"
             d="m 20.436985,1025.4619 0,18.8162 4.209189,0 0,-18.8162 -1.052297,0 -1.052298,-0.5143 -1.052297,0.5143 z"
             id="path13539"
             inkscape:connector-curvature="0"
             sodipodi:nodetypes="cccccccc" />
          <g
             id="g14509">
            <path
               inkscape:connector-curvature="0"
               id="path13533"
               d="m 22.540807,1013.6758 c -1.377941,6e-4 -2.521827,0.5543 -2.623047,1.2696 l -0.0078,0 0,0.1015 0,-0.07 5.263671,0 0,0.07 0,-0.1015 -0.0059,0 c -0.101331,-0.7161 -1.247509,-1.2701 -2.626953,-1.2696 z"
               style="color:#000000;display:inline;overflow:visible;visibility:visible;opacity:1;fill:#b3b3b3;fill-opacity:1;fill-rule:nonzero;stroke:none;stroke-width:1;stroke-linecap:round;stroke-linejoin:round;stroke-miterlimit:4;stroke-dasharray:none;stroke-dashoffset:0;stroke-opacity:1;marker:none;enable-background:accumulate"
               sodipodi:nodetypes="ccccccccccc" />
            <path
               inkscape:connector-curvature="0"
               id="path14389"
               d="m 19.905826,1015.0138 0,0.3574 0.983976,0 0,-0.3574 z m 1.133753,0 0,0.3574 0.915724,0 0,-0.3574 z m 1.067397,0 0,0.3574 0.915723,0 0,-0.3574 z m 1.067395,0 0,0.3574 0.915723,0 0,-0.3574 z m 1.0655,0 0,0.3574 0.915724,0 0,-0.3574 z m -4.334045,0.5117 0,0.9433 0.983976,0 0,-0.9433 z m 1.133753,0 0,0.9433 0.915724,0 0,-0.9433 z m 1.067397,0 0,0.9433 0.915723,0 0,-0.9433 z m 1.067395,0 0,0.9433 0.915723,0 0,-0.9433 z m 1.0655,0 0,0.9433 0.915724,0 0,-0.9433 z m -4.334045,1.0996 0,0.9433 0.983976,0 0,-0.9433 z m 1.133753,0 0,0.9433 0.915724,0 0,-0.9433 z m 1.067397,0 0,0.9433 0.915723,0 0,-0.9433 z m 1.067395,0 0,0.9433 0.915723,0 0,-0.9433 z m 1.0655,0 0,0.9433 0.915724,0 0,-0.9433 z m -4.334045,1.0996 0,0.9433 0.983976,0 0,-0.9433 z m 1.133753,0 0,0.9433 0.915724,0 0,-0.9433 z m 1.067397,0 0,0.9433 0.915723,0 0,-0.9433 z m 1.067395,0 0,0.9433 0.915723,0 0,-0.9433 z m 1.0655,0 0,0.9433 0.915724,0 0,-0.9433 z m -4.334045,1.0976 0,0.9434 0.983976,0 0,-0.9434 z m 1.133753,0 0,0.9434 0.915724,0 0,-0.9434 z m 1.067397,0 0,0.9434 0.915723,0 0,-0.9434 z m 1.067395,0 0,0.9434 0.915723,0 0,-0.9434 z m 1.0655,0 0,0.9434 0.915724,0 0,-0.9434 z m -4.334045,1.0996 0,0.9434 0.983976,0 0,-0.9434 z m 1.133753,0 0,0.9434 0.915724,0 0,-0.9434 z m 1.067397,0 0,0.9434 0.915723,0 0,-0.9434 z m 1.067395,0 0,0.9434 0.915723,0 0,-0.9434 z m 1.0655,0 0,0.9434 0.915724,0 0,-0.9434 z m -4.334045,1.0996 0,0.2383 0.983976,0 0,-0.2383 z m 1.133753,0 0,0.2383 0.915724,0 0,-0.2383 z m 1.067397,0 0,0.2383 0.915723,0 0,-0.2383 z m 1.067395,0 0,0.2383 0.915723,0 0,-0.2383 z m 1.0655,0 0,0.2383 0.915724,0 0,-0.2383 z"
               style="color:#000000;display:inline;overflow:visible;visibility:visible;opacity:1;fill:#b3b3b3;fill-opacity:1;fill-rule:nonzero;stroke:none;stroke-width:1;stroke-linecap:round;stroke-linejoin:round;stroke-miterlimit:4;stroke-dasharray:none;stroke-dashoffset:0;stroke-opacity:1;marker:none;enable-background:accumulate"
               sodipodi:nodetypes="ccccccccccccccccccccccccccccccccccccccccccccccccccccccccccccccccccccccccccccccccccccccccccccccccccccccccccccccccccccccccccccccccccccccccccccccccccccccccccccccccccccccccccccccc" />
          </g>
        </g>
      </g>
      <g
         transform="matrix(-1,0,0,1,94.639344,0)"
         id="g14684">
        <path
           style="color:#000000;display:inline;overflow:visible;visibility:visible;opacity:1;fill:#141209;fill-opacity:1;fill-rule:nonzero;stroke:none;stroke-width:1;stroke-linecap:round;stroke-linejoin:round;stroke-miterlimit:4;stroke-dasharray:none;stroke-dashoffset:0;stroke-opacity:1;marker:none;enable-background:accumulate"
           d="m 18.84606,958.71222 7.182862,0 1.665419,85.39008 -10.305523,0 z"
           id="path14686"
           inkscape:connector-curvature="0"
           sodipodi:nodetypes="ccccc" />
        <path
           inkscape:connector-curvature="0"
           id="path14688"
           d="m 8.9856363,998.60713 0,0.35742 1.0136719,0 0,-0.35742 -1.0136719,0 z m 1.1679687,0 0,0.35742 0.94336,0 0,-0.35742 -0.94336,0 z m 1.09961,0 0,0.35742 0.943359,0 0,-0.35742 -0.943359,0 z m 1.099609,0 0,0.35742 0.943359,0 0,-0.35742 -0.943359,0 z m 1.097656,0 0,0.35742 0.94336,0 0,-0.35742 -0.94336,0 z m 1.09961,0 0,0.35742 0.943359,0 0,-0.35742 -0.943359,0 z m 1.099609,0 0,0.35742 0.830078,0 0,-0.35742 -0.830078,0 z m -6.6640627,0.51172 0,0.94335 1.0136719,0 0,-0.94335 -1.0136719,0 z m 1.1679687,0 0,0.94335 0.94336,0 0,-0.94335 -0.94336,0 z m 1.09961,0 0,0.94335 0.943359,0 0,-0.94335 -0.943359,0 z m 1.099609,0 0,0.94335 0.943359,0 0,-0.94335 -0.943359,0 z m 1.097656,0 0,0.94335 0.94336,0 0,-0.94335 -0.94336,0 z m 1.09961,0 0,0.94335 0.943359,0 0,-0.94335 -0.943359,0 z m 1.099609,0 0,0.94335 0.830078,0 0,-0.94335 -0.830078,0 z m -6.6640627,1.09965 0,0.9433 1.0136719,0 0,-0.9433 -1.0136719,0 z m 1.1679687,0 0,0.9433 0.94336,0 0,-0.9433 -0.94336,0 z m 1.09961,0 0,0.9433 0.943359,0 0,-0.9433 -0.943359,0 z m 1.099609,0 0,0.9433 0.943359,0 0,-0.9433 -0.943359,0 z m 1.097656,0 0,0.9433 0.94336,0 0,-0.9433 -0.94336,0 z m 1.09961,0 0,0.9433 0.943359,0 0,-0.9433 -0.943359,0 z m 1.099609,0 0,0.9433 0.830078,0 0,-0.9433 -0.830078,0 z m -6.6640627,1.0996 0,0.9433 1.0136719,0 0,-0.9433 -1.0136719,0 z m 1.1679687,0 0,0.9433 0.94336,0 0,-0.9433 -0.94336,0 z m 1.09961,0 0,0.9433 0.943359,0 0,-0.9433 -0.943359,0 z m 1.099609,0 0,0.9433 0.943359,0 0,-0.9433 -0.943359,0 z m 1.097656,0 0,0.9433 0.94336,0 0,-0.9433 -0.94336,0 z m 1.09961,0 0,0.9433 0.943359,0 0,-0.9433 -0.943359,0 z m 1.099609,0 0,0.9433 0.830078,0 0,-0.9433 -0.830078,0 z m -6.6640627,1.0976 0,0.9434 1.0136719,0 0,-0.9434 -1.0136719,0 z m 1.1679687,0 0,0.9434 0.94336,0 0,-0.9434 -0.94336,0 z m 1.09961,0 0,0.9434 0.943359,0 0,-0.9434 -0.943359,0 z m 1.099609,0 0,0.9434 0.943359,0 0,-0.9434 -0.943359,0 z m 1.097656,0 0,0.9434 0.94336,0 0,-0.9434 -0.94336,0 z m 1.09961,0 0,0.9434 0.943359,0 0,-0.9434 -0.943359,0 z m 1.099609,0 0,0.9434 0.830078,0 0,-0.9434 -0.830078,0 z m -6.6640627,1.0996 0,0.9434 1.0136719,0 0,-0.9434 -1.0136719,0 z m 1.1679687,0 0,0.9434 0.94336,0 0,-0.9434 -0.94336,0 z m 1.09961,0 0,0.9434 0.943359,0 0,-0.9434 -0.943359,0 z m 1.099609,0 0,0.9434 0.943359,0 0,-0.9434 -0.943359,0 z m 1.097656,0 0,0.9434 0.94336,0 0,-0.9434 -0.94336,0 z m 1.09961,0 0,0.9434 0.943359,0 0,-0.9434 -0.943359,0 z m 1.099609,0 0,0.9434 0.830078,0 0,-0.9434 -0.830078,0 z m -6.6640627,1.0996 0,0.2383 1.0136719,0 0,-0.2383 -1.0136719,0 z m 1.1679687,0 0,0.2383 0.94336,0 0,-0.2383 -0.94336,0 z m 1.09961,0 0,0.2383 0.943359,0 0,-0.2383 -0.943359,0 z m 1.099609,0 0,0.2383 0.943359,0 0,-0.2383 -0.943359,0 z m 1.097656,0 0,0.2383 0.94336,0 0,-0.2383 -0.94336,0 z m 1.09961,0 0,0.2383 0.943359,0 0,-0.2383 -0.943359,0 z m 1.099609,0 0,0.2383 0.830078,0 0,-0.2383 -0.830078,0 z"
           style="color:#000000;display:inline;overflow:visible;visibility:visible;opacity:1;fill:#b3b3b3;fill-opacity:1;fill-rule:nonzero;stroke:none;stroke-width:1;stroke-linecap:round;stroke-linejoin:round;stroke-miterlimit:4;stroke-dasharray:none;stroke-dashoffset:0;stroke-opacity:1;marker:none;enable-background:accumulate" />
        <g
           transform="translate(-10.011163,0)"
           id="g14690">
          <path
             inkscape:connector-curvature="0"
             id="path14692"
             d="m 22.540807,1023.252 a 2.6323316,1.3702563 0 0 0 -2.623047,1.2695 l -0.0078,0 0,0.1016 0,1.3516 0,4.6816 0,13.6211 5.263671,0 0,-17.9746 0,-0.3281 0,-1.3516 0,-0.1016 -0.0059,0 a 2.6323316,1.3702563 0 0 0 -2.626953,-1.2695 z"
             style="color:#000000;display:inline;overflow:visible;visibility:visible;opacity:1;fill:#b3b3b3;fill-opacity:1;fill-rule:nonzero;stroke:none;stroke-width:1;stroke-linecap:round;stroke-linejoin:round;stroke-miterlimit:4;stroke-dasharray:none;stroke-dashoffset:0;stroke-opacity:1;marker:none;enable-background:accumulate" />
          <path
             sodipodi:nodetypes="cccccccc"
             inkscape:connector-curvature="0"
             id="path14694"
             d="m 20.436985,1025.4619 0,18.8162 4.209189,0 0,-18.8162 -1.052297,0 -1.052298,-0.5143 -1.052297,0.5143 z"
             style="color:#000000;display:inline;overflow:visible;visibility:visible;opacity:1;fill:#433d30;fill-opacity:1;fill-rule:nonzero;stroke:none;stroke-width:1;stroke-linecap:round;stroke-linejoin:round;stroke-miterlimit:4;stroke-dasharray:none;stroke-dashoffset:0;stroke-opacity:1;marker:none;enable-background:accumulate" />
          <g
             id="g14696">
            <path
               sodipodi:nodetypes="ccccccccccc"
               style="color:#000000;display:inline;overflow:visible;visibility:visible;opacity:1;fill:#b3b3b3;fill-opacity:1;fill-rule:nonzero;stroke:none;stroke-width:1;stroke-linecap:round;stroke-linejoin:round;stroke-miterlimit:4;stroke-dasharray:none;stroke-dashoffset:0;stroke-opacity:1;marker:none;enable-background:accumulate"
               d="m 22.540807,1013.6758 c -1.377941,6e-4 -2.521827,0.5543 -2.623047,1.2696 l -0.0078,0 0,0.1015 0,-0.07 5.263671,0 0,0.07 0,-0.1015 -0.0059,0 c -0.101331,-0.7161 -1.247509,-1.2701 -2.626953,-1.2696 z"
               id="path14698"
               inkscape:connector-curvature="0" />
            <path
               sodipodi:nodetypes="ccccccccccccccccccccccccccccccccccccccccccccccccccccccccccccccccccccccccccccccccccccccccccccccccccccccccccccccccccccccccccccccccccccccccccccccccccccccccccccccccccccccccccccccc"
               style="color:#000000;display:inline;overflow:visible;visibility:visible;opacity:1;fill:#b3b3b3;fill-opacity:1;fill-rule:nonzero;stroke:none;stroke-width:1;stroke-linecap:round;stroke-linejoin:round;stroke-miterlimit:4;stroke-dasharray:none;stroke-dashoffset:0;stroke-opacity:1;marker:none;enable-background:accumulate"
               d="m 19.905826,1015.0138 0,0.3574 0.983976,0 0,-0.3574 z m 1.133753,0 0,0.3574 0.915724,0 0,-0.3574 z m 1.067397,0 0,0.3574 0.915723,0 0,-0.3574 z m 1.067395,0 0,0.3574 0.915723,0 0,-0.3574 z m 1.0655,0 0,0.3574 0.915724,0 0,-0.3574 z m -4.334045,0.5117 0,0.9433 0.983976,0 0,-0.9433 z m 1.133753,0 0,0.9433 0.915724,0 0,-0.9433 z m 1.067397,0 0,0.9433 0.915723,0 0,-0.9433 z m 1.067395,0 0,0.9433 0.915723,0 0,-0.9433 z m 1.0655,0 0,0.9433 0.915724,0 0,-0.9433 z m -4.334045,1.0996 0,0.9433 0.983976,0 0,-0.9433 z m 1.133753,0 0,0.9433 0.915724,0 0,-0.9433 z m 1.067397,0 0,0.9433 0.915723,0 0,-0.9433 z m 1.067395,0 0,0.9433 0.915723,0 0,-0.9433 z m 1.0655,0 0,0.9433 0.915724,0 0,-0.9433 z m -4.334045,1.0996 0,0.9433 0.983976,0 0,-0.9433 z m 1.133753,0 0,0.9433 0.915724,0 0,-0.9433 z m 1.067397,0 0,0.9433 0.915723,0 0,-0.9433 z m 1.067395,0 0,0.9433 0.915723,0 0,-0.9433 z m 1.0655,0 0,0.9433 0.915724,0 0,-0.9433 z m -4.334045,1.0976 0,0.9434 0.983976,0 0,-0.9434 z m 1.133753,0 0,0.9434 0.915724,0 0,-0.9434 z m 1.067397,0 0,0.9434 0.915723,0 0,-0.9434 z m 1.067395,0 0,0.9434 0.915723,0 0,-0.9434 z m 1.0655,0 0,0.9434 0.915724,0 0,-0.9434 z m -4.334045,1.0996 0,0.9434 0.983976,0 0,-0.9434 z m 1.133753,0 0,0.9434 0.915724,0 0,-0.9434 z m 1.067397,0 0,0.9434 0.915723,0 0,-0.9434 z m 1.067395,0 0,0.9434 0.915723,0 0,-0.9434 z m 1.0655,0 0,0.9434 0.915724,0 0,-0.9434 z m -4.334045,1.0996 0,0.2383 0.983976,0 0,-0.2383 z m 1.133753,0 0,0.2383 0.915724,0 0,-0.2383 z m 1.067397,0 0,0.2383 0.915723,0 0,-0.2383 z m 1.067395,0 0,0.2383 0.915723,0 0,-0.2383 z m 1.0655,0 0,0.2383 0.915724,0 0,-0.2383 z"
               id="path14700"
               inkscape:connector-curvature="0" />
          </g>
        </g>
      </g>
    </g>
  </g>
</svg>
