<?xml version="1.0" encoding="UTF-8" standalone="no"?>
<!-- Created with Inkscape (http://www.inkscape.org/) -->

<svg
   xmlns:dc="http://purl.org/dc/elements/1.1/"
   xmlns:cc="http://creativecommons.org/ns#"
   xmlns:rdf="http://www.w3.org/1999/02/22-rdf-syntax-ns#"
   xmlns:svg="http://www.w3.org/2000/svg"
   xmlns="http://www.w3.org/2000/svg"
   xmlns:sodipodi="http://sodipodi.sourceforge.net/DTD/sodipodi-0.dtd"
   xmlns:inkscape="http://www.inkscape.org/namespaces/inkscape"
   sodipodi:docname="natural_gas.svg"
   inkscape:version="0.91 r13725"
   version="1.1"
   id="svg5511"
   viewBox="0 0 99.999997 99.999997"
   height="100"
   width="100">
  <defs
     id="defs5513" />
  <sodipodi:namedview
     units="px"
     inkscape:window-maximized="1"
     inkscape:window-y="1"
     inkscape:window-x="0"
     inkscape:window-height="807"
     inkscape:window-width="1440"
     showgrid="false"
     inkscape:current-layer="svg5511"
     inkscape:document-units="px"
     inkscape:cy="53.86644"
     inkscape:cx="50"
     inkscape:zoom="3.6576732"
     inkscape:pageshadow="2"
     inkscape:pageopacity="0.0"
     borderopacity="1.0"
     bordercolor="#666666"
     pagecolor="#ffffff"
     id="base" />
  <metadata
     id="metadata5516">
    <rdf:RDF>
      <cc:Work
         rdf:about="">
        <dc:format>image/svg+xml</dc:format>
        <dc:type
           rdf:resource="http://purl.org/dc/dcmitype/StillImage" />
        <dc:title />
      </cc:Work>
    </rdf:RDF>
  </metadata>
  <g
     inkscape:label="Layer 1"
     inkscape:groupmode="layer"
     id="layer1"
     transform="translate(0,-952.36223)">
    <path
       style="color:#000000;display:inline;overflow:visible;visibility:visible;opacity:1;fill:#000000;fill-opacity:1;fill-rule:nonzero;stroke:none;stroke-width:4;stroke-linecap:round;stroke-linejoin:round;stroke-miterlimit:4;stroke-dasharray:none;stroke-dashoffset:0;stroke-opacity:1;marker:none;enable-background:accumulate"
       d="m 50.026087,971.60146 c -0.786036,0 -1.419145,1.12271 -1.419145,2.52072 l 0,0.0365 -3.457892,0 0,-0.80835 c 0,-0.88653 -0.401257,-1.6002 -0.89972,-1.6002 l -4.340916,0 c -0.498463,0 -0.899719,0.71367 -0.899719,1.6002 l 0,4.51684 c 0,0.88653 0.401256,1.6002 0.899719,1.6002 l 4.340916,0 c 0.498463,0 0.89972,-0.71367 0.89972,-1.6002 l 0,-0.77535 3.457892,0 0,0.74236 -0.08347,0 c -0.786039,0 -1.419147,1.12602 -1.419147,2.52401 l 0,9.0997 c 2.023072,18.79921 5.905778,15.23361 6.845292,0.14527 l 0,-9.24486 c 0,-1.398 -0.633108,-2.524 -1.419146,-2.524 l -0.08347,0 0,-0.74237 1.938572,0 c 0.266471,0 0.480468,-0.38063 0.480468,-0.85454 l 0,-1.22407 c 0,-0.47395 -0.213997,-0.85453 -0.480468,-0.85453 l -1.938572,0 0,-0.0364 c 0,-1.39803 -0.633108,-2.52074 -1.419146,-2.52074 z"
       id="path6248"
       inkscape:connector-curvature="0"
       sodipodi:nodetypes="ssccsssssssscccssccssccsssscsss" />
    <path
       inkscape:connector-curvature="0"
       id="path7428"
       d="m 47.866945,981.4401 c -3.337997,0.80642 -5.796318,3.66402 -5.796318,7.09552 l 0,0.9347 0,29.32428 0,4.7949 c 0,4.5792 3.439089,6.2727 7.710598,6.2727 l 0.43755,0 c 4.27151,0 7.710598,-1.6935 7.710598,-6.2727 l 0,-4.7949 0,-29.32428 0,-0.9347 c 0,-3.3561 -2.351645,-6.16548 -5.577543,-7.04204 0,0 -2.068367,3.6253 -4.484885,-0.0535 z"
       style="color:#000000;display:inline;overflow:visible;visibility:visible;opacity:1;fill:#000000;fill-opacity:1;fill-rule:nonzero;stroke:none;stroke-width:4;stroke-linecap:round;stroke-linejoin:round;stroke-miterlimit:4;stroke-dasharray:none;stroke-dashoffset:0;stroke-opacity:1;marker:none;enable-background:accumulate"
       sodipodi:nodetypes="csccssssccscc" />
  </g>
</svg>
