<?xml version="1.0" encoding="UTF-8" standalone="no"?>
<!-- Created with Inkscape (http://www.inkscape.org/) -->

<svg
   xmlns:dc="http://purl.org/dc/elements/1.1/"
   xmlns:cc="http://creativecommons.org/ns#"
   xmlns:rdf="http://www.w3.org/1999/02/22-rdf-syntax-ns#"
   xmlns:svg="http://www.w3.org/2000/svg"
   xmlns="http://www.w3.org/2000/svg"
   xmlns:sodipodi="http://sodipodi.sourceforge.net/DTD/sodipodi-0.dtd"
   xmlns:inkscape="http://www.inkscape.org/namespaces/inkscape"
   sodipodi:docname="natural_gas.svg"
   inkscape:version="0.91 r13725"
   version="1.1"
   id="svg5511"
   viewBox="0 0 99.999997 99.999997"
   height="100"
   width="100">
  <defs
     id="defs5513" />
  <sodipodi:namedview
     units="px"
     inkscape:window-maximized="1"
     inkscape:window-y="1"
     inkscape:window-x="0"
     inkscape:window-height="807"
     inkscape:window-width="1440"
     showgrid="false"
     inkscape:current-layer="layer1"
     inkscape:document-units="px"
     inkscape:cy="61.424116"
     inkscape:cx="20.925089"
     inkscape:zoom="3.9141824"
     inkscape:pageshadow="2"
     inkscape:pageopacity="0.0"
     borderopacity="1.0"
     bordercolor="#666666"
     pagecolor="#ffffff"
     id="base"
     showguides="true"
     inkscape:guide-bbox="true"
     inkscape:snap-nodes="false"
     inkscape:snap-global="false">
    <sodipodi:guide
       position="-10.219247,74.855988"
       orientation="0,1"
       id="guide16074" />
    <sodipodi:guide
       position="-105.51373,74.855988"
       orientation="1,0"
       id="guide16076" />
  </sodipodi:namedview>
  <metadata
     id="metadata5516">
    <rdf:RDF>
      <cc:Work
         rdf:about="">
        <dc:format>image/svg+xml</dc:format>
        <dc:type
           rdf:resource="http://purl.org/dc/dcmitype/StillImage" />
        <dc:title />
      </cc:Work>
    </rdf:RDF>
  </metadata>
  <g
     inkscape:label="Layer 1"
     inkscape:groupmode="layer"
     id="layer1"
     transform="translate(0,-952.36223)">
    <path
       sodipodi:nodetypes="cccscccssssssscccccssccccccccccc"
       id="path16213"
       d="m 51.734497,1002.8229 c -10.292859,0 -19.609767,-0.7459 -26.388583,-1.9606 -3.389411,-0.6072 -6.145325,-1.32961 -8.086489,-2.15192 -1.941173,-0.82238 -3.11688,-1.77035 -3.11688,-2.82797 0,-1.05788 1.175707,-2.00691 3.11688,-2.82922 0.300293,-0.12722 0.62698,-0.25049 0.965604,-0.37285 0.102806,0.66746 0.450941,0.47394 -0.487923,0.84687 -1.81919,0.77061 -2.721088,1.57379 -2.721088,2.35454 0,0.78066 0.901898,1.58376 2.721088,2.35445 1.81919,0.77069 4.50638,1.48259 7.840825,2.0801 6.668891,1.1949 15.928917,1.9395 26.156566,1.9395 10.227648,0 19.487675,-0.7446 26.156565,-1.9395 3.334446,-0.59751 6.021639,-1.30941 7.840828,-2.0801 1.81919,-0.77069 2.721089,-1.57379 2.721089,-2.35445 0,-0.78075 -0.901899,-1.58393 -2.721089,-2.35454 -0.360069,-0.15245 -0.762723,-0.30161 -1.18909,-0.44912 l 0.143306,-0.0132 c 0.419006,-0.0387 0.516077,-0.40303 0.141598,-0.531 0.495199,0.16862 0.96122,0.34061 1.38187,0.51888 1.941167,0.8223 3.116882,1.77134 3.116882,2.82913 0,1.05771 -1.175715,2.00567 -3.116882,2.82798 -1.941169,0.82231 -4.69538,1.54472 -8.084788,2.15202 -6.778815,1.2146 -16.09743,1.9606 -26.390289,1.9606 z m 33.093207,-10.28859 c -0.207538,-0.0709 -0.438928,-0.13794 -0.65852,-0.20696 0.21996,0.0693 0.45118,0.1363 0.65852,0.20696 z m -66.602675,0.14603 c 0.05293,-0.0635 -0.487923,0.84687 0,0 z m 64.806246,-0.68931 c -0.199535,-0.0553 -0.401666,-0.10884 -0.609046,-0.16268 0.208378,0.0536 0.408944,0.10768 0.609046,0.16268 z"
       style="color:#000000;font-style:normal;font-variant:normal;font-weight:normal;font-stretch:normal;font-size:medium;line-height:normal;font-family:sans-serif;text-indent:0;text-align:start;text-decoration:none;text-decoration-line:none;text-decoration-style:solid;text-decoration-color:#000000;letter-spacing:normal;word-spacing:normal;text-transform:none;direction:ltr;block-progression:tb;writing-mode:lr-tb;baseline-shift:baseline;text-anchor:start;white-space:normal;clip-rule:nonzero;display:inline;overflow:visible;visibility:visible;opacity:1;isolation:auto;mix-blend-mode:normal;color-interpolation:sRGB;color-interpolation-filters:linearRGB;solid-color:#000000;solid-opacity:1;fill:#000000;fill-opacity:1;fill-rule:nonzero;stroke:#000000;stroke-width:2;stroke-linecap:round;stroke-linejoin:round;stroke-miterlimit:4;stroke-dasharray:none;stroke-dashoffset:0;stroke-opacity:1;marker:none;color-rendering:auto;image-rendering:auto;shape-rendering:auto;text-rendering:auto;enable-background:accumulate"
       inkscape:connector-curvature="0" />
    <rect
       y="1005.8034"
       x="18.538568"
       height="29.622971"
       width="1.8641981"
       id="rect16052"
       style="color:#000000;display:inline;overflow:visible;visibility:visible;opacity:1;fill:#9f9280;fill-opacity:1;fill-rule:nonzero;stroke:none;stroke-width:1;stroke-linecap:round;stroke-linejoin:round;stroke-miterlimit:4;stroke-dasharray:none;stroke-dashoffset:0;stroke-opacity:1;marker:none;enable-background:accumulate" />
    <rect
       style="color:#000000;display:inline;overflow:visible;visibility:visible;opacity:1;fill:#9f9280;fill-opacity:1;fill-rule:nonzero;stroke:none;stroke-width:1;stroke-linecap:round;stroke-linejoin:round;stroke-miterlimit:4;stroke-dasharray:none;stroke-dashoffset:0;stroke-opacity:1;marker:none;enable-background:accumulate"
       id="rect16149"
       width="1.8641981"
       height="29.622971"
       x="-83.809128"
       y="1005.8034"
       transform="scale(-1,1)" />
    <circle
       style="color:#000000;display:inline;overflow:visible;visibility:visible;opacity:1;fill:#635d59;fill-opacity:1;fill-rule:nonzero;stroke:none;stroke-width:1;stroke-linecap:round;stroke-linejoin:round;stroke-miterlimit:4;stroke-dasharray:none;stroke-dashoffset:0;stroke-opacity:1;marker:none;enable-background:accumulate"
       id="path15971"
       cx="51.252258"
       cy="999.91504"
       r="32.635082" />
    <path
       id="path16203"
       d="m 69.118807,1001.1058 3.040294,1.0789 -9.906917,16.4795 9.906917,16.481 -3.040294,1.0773 -8.71157,-14.4907 -8.71157,14.4907 -3.040292,-1.0773 9.906916,-16.481 -9.906916,-16.4795 3.040292,-1.0789 8.71157,14.4908 8.71157,-14.4908 z"
       style="color:#000000;display:inline;overflow:visible;visibility:visible;opacity:1;fill:#000000;fill-opacity:1;fill-rule:nonzero;stroke:none;stroke-width:1;stroke-linecap:round;stroke-linejoin:round;stroke-miterlimit:4;stroke-dasharray:none;stroke-dashoffset:0;stroke-opacity:1;marker:none;enable-background:accumulate"
       inkscape:connector-curvature="0" />
    <path
       style="color:#000000;display:inline;overflow:visible;visibility:visible;opacity:1;fill:#000000;fill-opacity:1;fill-rule:nonzero;stroke:none;stroke-width:1;stroke-linecap:round;stroke-linejoin:round;stroke-miterlimit:4;stroke-dasharray:none;stroke-dashoffset:0;stroke-opacity:1;marker:none;enable-background:accumulate"
       d="m 33.01495,1000.4739 -2.404347,1.1112 7.834662,16.9737 -7.834662,16.9754 2.404347,1.1096 6.88935,-14.9253 6.889349,14.9253 2.404347,-1.1096 -7.834662,-16.9754 7.834662,-16.9737 -2.404347,-1.1112 -6.889349,14.9253 -6.88935,-14.9253 z"
       id="rect16197"
       inkscape:connector-curvature="0" />
    <rect
       style="color:#000000;display:inline;overflow:visible;visibility:visible;opacity:1;fill:#9f9280;fill-opacity:1;fill-rule:nonzero;stroke:none;stroke-width:1;stroke-linecap:round;stroke-linejoin:round;stroke-miterlimit:4;stroke-dasharray:none;stroke-dashoffset:0;stroke-opacity:1;marker:none;enable-background:accumulate"
       id="rect16046"
       width="3.5436733"
       height="47.863773"
       x="47.10051"
       y="989.19537" />
    <path
       cx="-62.976116"
       cy="989.25836"
       rx="42.537621"
       ry="11.752135"
       id="path16080"
       style="color:#000000;display:inline;overflow:visible;visibility:visible;opacity:1;fill:none;fill-opacity:1;fill-rule:nonzero;stroke:#ff0000;stroke-width:1;stroke-linecap:round;stroke-linejoin:round;stroke-miterlimit:4;stroke-dasharray:none;stroke-dashoffset:0;stroke-opacity:1;marker:none;enable-background:accumulate" />
    <path
       cx="-62.976116"
       cy="989.25836"
       rx="42.537621"
       ry="11.752135"
       id="path16082"
       style="color:#000000;display:inline;overflow:visible;visibility:visible;opacity:1;fill:none;fill-opacity:1;fill-rule:nonzero;stroke:#f33bce;stroke-width:1;stroke-linecap:round;stroke-linejoin:round;stroke-miterlimit:4;stroke-dasharray:none;stroke-dashoffset:0;stroke-opacity:1;marker:none;enable-background:accumulate" />
    <path
       cx="-62.976116"
       cy="989.25836"
       rx="42.537621"
       ry="11.752135"
       id="path16084"
       style="color:#000000;display:inline;overflow:visible;visibility:visible;opacity:1;fill:none;fill-opacity:1;fill-rule:nonzero;stroke:#ff0000;stroke-width:1;stroke-linecap:round;stroke-linejoin:round;stroke-miterlimit:4;stroke-dasharray:none;stroke-dashoffset:0;stroke-opacity:1;marker:none;enable-background:accumulate" />
    <path
       id="path16093"
       d="m 51.945148,976.03208 c -9.71609,0 -18.510917,1.08577 -24.909876,2.85365 -3.19948,0.88394 -5.800968,1.93536 -7.633358,3.13226 -1.832398,1.19691 -2.942227,2.57669 -2.942227,4.11621 0,1.53953 1.109829,2.92093 2.942227,4.11783 0.283465,0.18516 0.591849,0.3646 0.911495,0.54271 a 0.41230708,0.41230708 0 0 1 0.144936,-0.76816 l 0.133665,-0.0177 c -0.26042,-0.14773 -0.507969,-0.29667 -0.739185,-0.4477 -1.717244,-1.12169 -2.568606,-2.29066 -2.568606,-3.42696 0,-1.13629 0.851362,-2.30526 2.568606,-3.42696 1.717255,-1.12169 4.253866,-2.15797 7.401463,-3.02757 6.295193,-1.73922 15.036325,-2.82306 24.69086,-2.82306 9.654534,0 18.395666,1.08384 24.69086,2.82306 3.147597,0.8696 5.684211,1.90588 7.40146,3.02757 1.717251,1.1217 2.56861,2.29067 2.56861,3.42696 0,1.1363 -0.85136,2.30527 -2.56861,3.42696 -0.339893,0.22202 -0.719983,0.43914 -1.122458,0.65383 l 0.135275,0.0193 a 0.41230708,0.41230708 0 0 1 0.133664,0.77299 c 0.467449,-0.24548 0.907357,-0.49591 1.304435,-0.75528 1.832393,-1.1969 2.942225,-2.57831 2.942225,-4.11783 0,-1.53952 -1.109832,-2.9193 -2.942225,-4.11621 -1.832394,-1.1969 -4.43227,-2.24832 -7.63175,-3.13226 -6.398959,-1.76788 -15.195396,-2.85365 -24.911486,-2.85365 z m 31.238801,14.97524 c -0.195909,0.10297 -0.414332,0.20076 -0.62162,0.30114 0.207635,-0.10029 0.425898,-0.19836 0.62162,-0.30114 z m -62.87054,-0.21258 c 0.288413,0.16071 0.604266,0.31539 0.92115,0.47024 -0.316397,-0.15518 -0.632119,-0.30898 -0.92115,-0.47024 z m 61.174775,1.00328 c -0.188354,0.0802 -0.379159,0.15845 -0.574918,0.23674 0.196702,-0.0783 0.38603,-0.15671 0.574918,-0.23674 z m -59.005551,0.0355 c 0.09454,0.0397 0.178905,0.0815 0.27538,0.12079 -0.09584,-0.0392 -0.181374,-0.0811 -0.27538,-0.12079 z m 2.167616,0.8197 c 0.08923,0.0301 0.181695,0.0588 0.27216,0.0886 -0.09009,-0.0299 -0.183244,-0.0584 -0.27216,-0.0886 z m 52.293348,0.70536 c -0.07312,0.0205 -0.148527,0.0393 -0.222237,0.0596 0.04333,-0.0119 0.09216,-0.0219 0.135274,-0.0338 0.03038,-0.008 0.0567,-0.0173 0.08696,-0.0257 z m -8.150303,1.69258 c -0.04406,0.008 -0.08789,0.0124 -0.132054,0.019 0.04418,-0.008 0.08799,-0.0124 0.132054,-0.019 z m -10.588469,0.19805 c -0.752441,0.0379 -1.50867,0.0709 -2.277124,0.095 0.765922,-0.0256 1.524734,-0.0552 2.277124,-0.095 z m -12.134465,0.0157 c 0.522683,0.0256 1.04722,0.047 1.576594,0.066 -0.530585,-0.0181 -1.053674,-0.0412 -1.576594,-0.066 z m 2.745755,0.10307 c 0.895327,0.0231 1.79673,0.0404 2.707105,0.0437 0.09722,3.3e-4 0.19279,0 0.289874,0 -1.010773,0 -2.008184,-0.0173 -2.996979,-0.0421 z m 6.059985,0 c -0.853056,0.0198 -1.712122,0.033 -2.581492,0.0355 0.867044,0 1.727343,-0.0149 2.581492,-0.0355 z m -16.74991,0.0854 c 0.105087,0.0124 0.211646,0.0231 0.317251,0.0355 -0.105569,-0.0124 -0.212148,-0.0231 -0.317251,-0.0355 z m 24.571689,0.31398 c -0.214514,0.019 -0.429762,0.0371 -0.645776,0.0544 0.216033,-0.0181 0.431495,-0.0355 0.645776,-0.0544 z m -21.473254,0 c 0.122648,0.0107 0.24234,0.0231 0.365564,0.0338 -0.123086,-0.0107 -0.242979,-0.0231 -0.365564,-0.0338 z m 18.025358,0.24967 c -0.09131,0.008 -0.180642,0.0124 -0.27216,0.0173 0.09179,-0.008 0.180628,-0.0124 0.27216,-0.0173 z m -14.52915,0.008 c 0.135493,0.008 0.272988,0.014 0.409044,0.0206 -0.136019,-0.008 -0.273493,-0.0132 -0.409044,-0.0206 z m 3.299737,0.1433 c 0.172167,0.008 0.342427,0.0115 0.515332,0.0165 -0.172637,-0.008 -0.343267,-0.0107 -0.515332,-0.0165 z m 7.741258,0 c -0.185593,0.008 -0.372587,0.01 -0.558814,0.0148 0.186373,-0.008 0.373291,-0.009 0.558814,-0.0148 z m -3.462389,0.0561 c -0.162484,4.1e-4 -0.323522,0 -0.486345,0 0.04454,8e-5 0.08748,0 0.132054,0 0.119601,0 0.23497,-0.008 0.354291,-0.008 z"
       style="color:#000000;font-style:normal;font-variant:normal;font-weight:normal;font-stretch:normal;font-size:medium;line-height:normal;font-family:sans-serif;text-indent:0;text-align:start;text-decoration:none;text-decoration-line:none;text-decoration-style:solid;text-decoration-color:#000000;letter-spacing:normal;word-spacing:normal;text-transform:none;direction:ltr;block-progression:tb;writing-mode:lr-tb;baseline-shift:baseline;text-anchor:start;white-space:normal;clip-rule:nonzero;display:inline;overflow:visible;visibility:visible;opacity:1;isolation:auto;mix-blend-mode:normal;color-interpolation:sRGB;color-interpolation-filters:linearRGB;solid-color:#000000;solid-opacity:1;fill:#000000;fill-opacity:1;fill-rule:nonzero;stroke:none;stroke-width:1;stroke-linecap:round;stroke-linejoin:round;stroke-miterlimit:4;stroke-dasharray:none;stroke-dashoffset:0;stroke-opacity:1;marker:none;color-rendering:auto;image-rendering:auto;shape-rendering:auto;text-rendering:auto;enable-background:accumulate"
       inkscape:connector-curvature="0" />
    <path
       inkscape:connector-curvature="0"
       style="color:#000000;font-style:normal;font-variant:normal;font-weight:normal;font-stretch:normal;font-size:medium;line-height:normal;font-family:sans-serif;text-indent:0;text-align:start;text-decoration:none;text-decoration-line:none;text-decoration-style:solid;text-decoration-color:#000000;letter-spacing:normal;word-spacing:normal;text-transform:none;direction:ltr;block-progression:tb;writing-mode:lr-tb;baseline-shift:baseline;text-anchor:start;white-space:normal;clip-rule:nonzero;display:inline;overflow:visible;visibility:visible;opacity:1;isolation:auto;mix-blend-mode:normal;color-interpolation:sRGB;color-interpolation-filters:linearRGB;solid-color:#000000;solid-opacity:1;fill:#000000;fill-opacity:1;fill-rule:nonzero;stroke:none;stroke-width:1;stroke-linecap:round;stroke-linejoin:round;stroke-miterlimit:4;stroke-dasharray:none;stroke-dashoffset:0;stroke-opacity:1;marker:none;color-rendering:auto;image-rendering:auto;shape-rendering:auto;text-rendering:auto;enable-background:accumulate"
       d="m 51.102539,963.46963 c -5.447946,0 -10.379328,0.66976 -13.967311,1.76027 -1.793992,0.54526 -3.252684,1.19383 -4.28013,1.93212 -1.02745,0.73831 -1.649747,1.58943 -1.649747,2.53908 0,0.94965 0.622297,1.80176 1.649747,2.54006 0.158944,0.11423 0.331858,0.22491 0.511088,0.33478 a 0.23118627,0.25433038 0 0 1 0.08127,-0.47383 l 0.07495,-0.0109 c -0.146021,-0.0911 -0.284825,-0.183 -0.414471,-0.27617 -0.962882,-0.69192 -1.440252,-1.413 -1.440252,-2.11391 0,-0.70091 0.47737,-1.42199 1.440252,-2.11391 0.962889,-0.69191 2.385201,-1.33114 4.150103,-1.86755 3.529802,-1.07283 8.431075,-1.74139 13.844505,-1.74139 5.41343,0 10.314704,0.66856 13.844506,1.74139 1.764901,0.53641 3.187216,1.17564 4.150101,1.86755 0.962886,0.69192 1.440255,1.413 1.440255,2.11391 0,0.70091 -0.477369,1.42199 -1.440255,2.11391 -0.190582,0.13696 -0.403705,0.27088 -0.629378,0.40332 l 0.07585,0.0119 a 0.23118627,0.25433038 0 0 1 0.07495,0.47681 c 0.262105,-0.15141 0.508768,-0.3059 0.731414,-0.46589 1.027449,-0.7383 1.649747,-1.59041 1.649747,-2.54007 0,-0.94964 -0.622298,-1.80076 -1.649747,-2.53907 -1.027448,-0.7383 -2.485235,-1.38688 -4.279227,-1.93212 -3.587983,-1.09051 -8.520268,-1.76027 -13.968214,-1.76027 z m 17.516026,9.23743 c -0.109849,0.0635 -0.232322,0.12385 -0.348551,0.18576 0.116424,-0.0618 0.238807,-0.12236 0.348551,-0.18576 z m -35.252379,-0.13112 c 0.161718,0.0991 0.33882,0.19454 0.516502,0.29007 -0.177408,-0.0957 -0.354438,-0.1906 -0.516502,-0.29007 z m 34.301541,0.61887 c -0.105613,0.0495 -0.212601,0.0978 -0.322365,0.14603 0.110294,-0.0482 0.216452,-0.0967 0.322365,-0.14603 z m -33.085226,0.0219 c 0.05301,0.0245 0.100314,0.0503 0.154408,0.0745 -0.05374,-0.0243 -0.101699,-0.0501 -0.154408,-0.0745 z m 1.215411,0.50563 c 0.05003,0.0186 0.101879,0.0363 0.152604,0.0547 -0.05051,-0.0184 -0.102747,-0.036 -0.152604,-0.0547 z m 29.321602,0.4351 c -0.04099,0.0125 -0.08328,0.0242 -0.124611,0.0368 0.02429,-0.007 0.05167,-0.0135 0.07585,-0.0209 0.01703,-0.005 0.03179,-0.0107 0.04876,-0.0159 z m -4.569989,1.04406 c -0.0247,0.005 -0.04928,0.007 -0.07404,0.0116 0.02478,-0.005 0.04933,-0.007 0.07404,-0.0116 z m -5.937099,0.12216 c -0.421904,0.0234 -0.845932,0.0438 -1.276815,0.0586 0.429463,-0.0158 0.85494,-0.0341 1.276815,-0.0586 z m -6.803963,0.01 c 0.293077,0.0158 0.587192,0.029 0.884019,0.0407 -0.297505,-0.0111 -0.59081,-0.0255 -0.884019,-0.0407 z m 1.539583,0.0635 c 0.502023,0.0142 1.007452,0.0249 1.517911,0.027 0.05451,2.1e-4 0.108101,0 0.162537,0 -0.566753,0 -1.126016,-0.0107 -1.680448,-0.0259 z m 3.397918,0 c -0.478321,0.0122 -0.960011,0.0204 -1.447478,0.0219 0.486163,0 0.968545,-0.009 1.447478,-0.0219 z m -9.391906,0.0527 c 0.05893,0.007 0.118673,0.0142 0.177888,0.0219 -0.05919,-0.007 -0.118955,-0.0142 -0.177888,-0.0219 z m 13.777685,0.19369 c -0.12028,0.0116 -0.240973,0.0229 -0.362096,0.0336 0.121134,-0.0111 0.241945,-0.0218 0.362096,-0.0336 z m -12.040349,0 c 0.06877,0.007 0.135882,0.0142 0.204977,0.0209 -0.06902,-0.007 -0.136242,-0.0142 -0.204977,-0.0209 z m 10.107066,0.15401 c -0.0512,0.005 -0.101288,0.007 -0.152604,0.0107 0.05147,-0.005 0.101281,-0.007 0.152604,-0.0107 z m -8.146694,0.005 c 0.07597,0.005 0.153068,0.009 0.229356,0.0128 -0.07627,-0.005 -0.153351,-0.008 -0.229356,-0.0128 z m 1.850208,0.0884 c 0.09654,0.005 0.192003,0.007 0.288955,0.0101 -0.0968,-0.005 -0.192476,-0.007 -0.288955,-0.0101 z m 4.34063,0 c -0.104065,0.005 -0.208914,0.006 -0.313335,0.009 0.104502,-0.005 0.20931,-0.005 0.313335,-0.009 z m -1.941409,0.0345 c -0.09111,2.6e-4 -0.181403,0 -0.272701,0 0.02497,5e-5 0.04904,0 0.07404,0 0.06706,0 0.131751,-0.005 0.198656,-0.005 z"
       id="path16095" />
    <path
       inkscape:connector-curvature="0"
       style="color:#000000;display:inline;overflow:visible;visibility:visible;opacity:1;fill:#000000;fill-opacity:1;fill-rule:nonzero;stroke:none;stroke-width:1;stroke-linecap:round;stroke-linejoin:round;stroke-miterlimit:4;stroke-dasharray:none;stroke-dashoffset:0;stroke-opacity:1;marker:none;enable-background:accumulate"
       d="m 19.146947,1003.6337 -0.543529,1.0011 1.771111,15.2933 -1.771111,15.2947 0.543529,0.9997 1.557413,-13.4476 1.557411,13.4476 0.543529,-0.9997 -1.77111,-15.2947 1.77111,-15.2933 -0.543529,-1.0011 -1.557411,13.4476 -1.557413,-13.4476 z"
       id="path16209" />
    <path
       id="path16211"
       d="m 22.300727,1001.1058 -1.398526,1.0918 4.557155,16.6772 -4.557155,16.6788 1.398526,1.0902 4.007299,-14.6645 4.007298,14.6645 1.398526,-1.0902 -4.557154,-16.6788 4.557154,-16.6772 -1.398526,-1.0918 -4.007298,14.6646 -4.007299,-14.6646 z"
       style="color:#000000;display:inline;overflow:visible;visibility:visible;opacity:1;fill:#000000;fill-opacity:1;fill-rule:nonzero;stroke:none;stroke-width:1;stroke-linecap:round;stroke-linejoin:round;stroke-miterlimit:4;stroke-dasharray:none;stroke-dashoffset:0;stroke-opacity:1;marker:none;enable-background:accumulate"
       inkscape:connector-curvature="0" />
    <rect
       y="989.37762"
       x="30.142996"
       height="46.461704"
       width="2.6882677"
       id="rect16048"
       style="color:#000000;display:inline;overflow:visible;visibility:visible;opacity:1;fill:#9f9280;fill-opacity:1;fill-rule:nonzero;stroke:none;stroke-width:1;stroke-linecap:round;stroke-linejoin:round;stroke-miterlimit:4;stroke-dasharray:none;stroke-dashoffset:0;stroke-opacity:1;marker:none;enable-background:accumulate" />
    <rect
       style="color:#000000;display:inline;overflow:visible;visibility:visible;opacity:1;fill:#9f9280;fill-opacity:1;fill-rule:nonzero;stroke:none;stroke-width:1;stroke-linecap:round;stroke-linejoin:round;stroke-miterlimit:4;stroke-dasharray:none;stroke-dashoffset:0;stroke-opacity:1;marker:none;enable-background:accumulate"
       id="rect16050"
       width="1.8641981"
       height="43.672703"
       x="21.066402"
       y="991.02319" />
    <path
       inkscape:connector-curvature="0"
       style="color:#000000;display:inline;overflow:visible;visibility:visible;opacity:1;fill:#000000;fill-opacity:1;fill-rule:nonzero;stroke:none;stroke-width:1;stroke-linecap:round;stroke-linejoin:round;stroke-miterlimit:4;stroke-dasharray:none;stroke-dashoffset:0;stroke-opacity:1;marker:none;enable-background:accumulate"
       d="m 79.638856,1001.5272 1.306492,1.0658 -4.257254,16.2818 4.257254,16.2834 -1.306492,1.0643 -3.743582,-14.3169 -3.743583,14.3169 -1.306491,-1.0643 4.257254,-16.2834 -4.257254,-16.2818 1.306491,-1.0658 3.743583,14.3168 3.743582,-14.3168 z"
       id="path16205" />
    <rect
       style="color:#000000;display:inline;overflow:visible;visibility:visible;opacity:1;fill:#9f9280;fill-opacity:1;fill-rule:nonzero;stroke:none;stroke-width:1;stroke-linecap:round;stroke-linejoin:round;stroke-miterlimit:4;stroke-dasharray:none;stroke-dashoffset:0;stroke-opacity:1;marker:none;enable-background:accumulate"
       id="rect16145"
       width="2.6882677"
       height="46.049637"
       x="-72.204704"
       y="990.39954"
       transform="scale(-1,1)" />
    <path
       id="path16207"
       d="m 83.350952,1003.6337 0.543529,1.0011 -1.771111,15.2933 1.771111,15.2947 -0.543529,0.9997 -1.557413,-13.4476 -1.557412,13.4476 -0.543528,-0.9997 1.77111,-15.2947 -1.77111,-15.2933 0.543528,-1.0011 1.557412,13.4476 1.557413,-13.4476 z"
       style="color:#000000;display:inline;overflow:visible;visibility:visible;opacity:1;fill:#000000;fill-opacity:1;fill-rule:nonzero;stroke:none;stroke-width:1;stroke-linecap:round;stroke-linejoin:round;stroke-miterlimit:4;stroke-dasharray:none;stroke-dashoffset:0;stroke-opacity:1;marker:none;enable-background:accumulate"
       inkscape:connector-curvature="0" />
    <rect
       y="991.15765"
       x="-81.281296"
       height="45.223434"
       width="1.8641981"
       id="rect16147"
       style="color:#000000;display:inline;overflow:visible;visibility:visible;opacity:1;fill:#9f9280;fill-opacity:1;fill-rule:nonzero;stroke:none;stroke-width:1;stroke-linecap:round;stroke-linejoin:round;stroke-miterlimit:4;stroke-dasharray:none;stroke-dashoffset:0;stroke-opacity:1;marker:none;enable-background:accumulate"
       transform="scale(-1,1)" />
    <g
       id="g16169"
       transform="matrix(0.82453171,0,0,0.82453171,9.0777641,175.51468)">
      <path
         inkscape:connector-curvature="0"
         id="path16157"
         d="m 29.8913,959.62256 0,7.66443"
         style="fill:none;fill-rule:evenodd;stroke:#000000;stroke-width:1.21280968px;stroke-linecap:butt;stroke-linejoin:miter;stroke-opacity:1" />
      <path
         inkscape:connector-curvature="0"
         id="path16159"
         d="m 36.022848,957.06774 0,6.64251"
         style="fill:none;fill-rule:evenodd;stroke:#000000;stroke-width:1.21280968px;stroke-linecap:butt;stroke-linejoin:miter;stroke-opacity:1" />
      <path
         inkscape:connector-curvature="0"
         id="path16161"
         d="m 42.66536,956.55678 0,5.36511"
         style="fill:none;fill-rule:evenodd;stroke:#000000;stroke-width:1.21280968px;stroke-linecap:butt;stroke-linejoin:miter;stroke-opacity:1" />
      <path
         inkscape:connector-curvature="0"
         id="path16163"
         d="m 50.585277,955.79034 0,5.87607"
         style="fill:none;fill-rule:evenodd;stroke:#000000;stroke-width:1.21280968px;stroke-linecap:butt;stroke-linejoin:miter;stroke-opacity:1" />
      <path
         style="fill:none;fill-rule:evenodd;stroke:#000000;stroke-width:1.21280968px;stroke-linecap:butt;stroke-linejoin:miter;stroke-opacity:1"
         d="m 58.760675,955.79034 0,5.87607"
         id="path16165"
         inkscape:connector-curvature="0" />
      <path
         inkscape:connector-curvature="0"
         id="path16167"
         d="m 64.636745,956.81231 0,7.40895"
         style="fill:none;fill-rule:evenodd;stroke:#000000;stroke-width:1.21280968px;stroke-linecap:butt;stroke-linejoin:miter;stroke-opacity:1" />
    </g>
    <path
       inkscape:connector-curvature="0"
       id="path16179"
       d="m 70.588252,969.70305 0,6.31956"
       style="fill:none;fill-rule:evenodd;stroke:#000000;stroke-width:1px;stroke-linecap:butt;stroke-linejoin:miter;stroke-opacity:1" />
    <path
       inkscape:connector-curvature="0"
       id="path16181"
       d="m 66.164553,965.9113 0,5.47696"
       style="fill:none;fill-rule:evenodd;stroke:#000000;stroke-width:1px;stroke-linecap:butt;stroke-linejoin:miter;stroke-opacity:1" />
    <path
       style="color:#000000;font-style:normal;font-variant:normal;font-weight:normal;font-stretch:normal;font-size:medium;line-height:normal;font-family:sans-serif;text-indent:0;text-align:start;text-decoration:none;text-decoration-line:none;text-decoration-style:solid;text-decoration-color:#000000;letter-spacing:normal;word-spacing:normal;text-transform:none;direction:ltr;block-progression:tb;writing-mode:lr-tb;baseline-shift:baseline;text-anchor:start;white-space:normal;clip-rule:nonzero;display:inline;overflow:visible;visibility:visible;opacity:1;isolation:auto;mix-blend-mode:normal;color-interpolation:sRGB;color-interpolation-filters:linearRGB;solid-color:#000000;solid-opacity:1;fill:#000000;fill-opacity:1;fill-rule:nonzero;stroke:#000000;stroke-width:2;stroke-linecap:round;stroke-linejoin:round;stroke-miterlimit:4;stroke-dasharray:none;stroke-dashoffset:0;stroke-opacity:1;marker:none;color-rendering:auto;image-rendering:auto;shape-rendering:auto;text-rendering:auto;enable-background:accumulate"
       d="m 51.734397,988.88249 c -10.29286,0 -19.60942,0.74526 -26.388236,1.95988 -3.38941,0.60726 -6.146332,1.3292 -8.087496,2.1515 -1.681096,0.71221 -2.783669,1.51896 -3.050124,2.40919 l 0.905053,0 c 0.264745,-0.64658 1.128645,-1.30088 2.623363,-1.93412 1.819191,-0.77069 4.506659,-1.48319 7.841104,-2.08064 6.668892,-1.19492 15.928686,-1.93895 26.156336,-1.93895 10.227648,0 19.487446,0.74403 26.156336,1.93895 3.334445,0.59745 6.021914,1.30995 7.841103,2.08064 1.494978,0.63334 2.360395,1.28744 2.624974,1.93412 l 0.901832,0 c -0.267443,-0.88955 -1.368596,-1.69593 -3.048513,-2.40757 -1.94117,-0.82231 -4.696478,-1.54577 -8.085887,-2.15312 -6.778814,-1.21454 -16.096987,-1.95988 -26.389845,-1.95988 z"
       id="path16097"
       inkscape:connector-curvature="0" />
  </g>
</svg>
