<?xml version="1.0" encoding="UTF-8" standalone="no"?>
<!-- Created with Inkscape (http://www.inkscape.org/) -->

<svg
   xmlns:dc="http://purl.org/dc/elements/1.1/"
   xmlns:cc="http://creativecommons.org/ns#"
   xmlns:rdf="http://www.w3.org/1999/02/22-rdf-syntax-ns#"
   xmlns:svg="http://www.w3.org/2000/svg"
   xmlns="http://www.w3.org/2000/svg"
   xmlns:sodipodi="http://sodipodi.sourceforge.net/DTD/sodipodi-0.dtd"
   xmlns:inkscape="http://www.inkscape.org/namespaces/inkscape"
   width="100"
   height="100"
   viewBox="0 0 100 100"
   id="svg2"
   version="1.1"
   inkscape:version="0.91 r13725"
   sodipodi:docname="oil.svg">
  <defs
     id="defs4">
    <inkscape:perspective
       sodipodi:type="inkscape:persp3d"
       inkscape:vp_x="220.17707 : 633.92186 : 1"
       inkscape:vp_y="0 : 291.60601 : 0"
       inkscape:vp_z="357.65946 : 652.13136 : 1"
       inkscape:persp3d-origin="314.01185 : 504.60836 : 1"
       id="perspective4410" />
  </defs>
  <sodipodi:namedview
     id="base"
     pagecolor="#ffffff"
     bordercolor="#666666"
     borderopacity="1.0"
     inkscape:pageopacity="0.0"
     inkscape:pageshadow="2"
     inkscape:zoom="5.69"
     inkscape:cx="50"
     inkscape:cy="50"
     inkscape:document-units="px"
     inkscape:current-layer="layer1"
     showgrid="false"
     units="px"
     inkscape:window-width="1440"
     inkscape:window-height="807"
     inkscape:window-x="0"
     inkscape:window-y="1"
     inkscape:window-maximized="1" />
  <metadata
     id="metadata7">
    <rdf:RDF>
      <cc:Work
         rdf:about="">
        <dc:format>image/svg+xml</dc:format>
        <dc:type
           rdf:resource="http://purl.org/dc/dcmitype/StillImage" />
        <dc:title></dc:title>
      </cc:Work>
    </rdf:RDF>
  </metadata>
  <g
     inkscape:label="Layer 1"
     inkscape:groupmode="layer"
     id="layer1"
     transform="translate(0,-952.36216)">
    <path
       style="color:#000000;font-style:normal;font-variant:normal;font-weight:normal;font-stretch:normal;font-size:medium;line-height:normal;font-family:sans-serif;text-indent:0;text-align:start;text-decoration:none;text-decoration-line:none;text-decoration-style:solid;text-decoration-color:#000000;letter-spacing:normal;word-spacing:normal;text-transform:none;direction:ltr;block-progression:tb;writing-mode:lr-tb;baseline-shift:baseline;text-anchor:start;white-space:normal;clip-rule:nonzero;display:inline;overflow:visible;visibility:visible;opacity:1;isolation:auto;mix-blend-mode:normal;color-interpolation:sRGB;color-interpolation-filters:linearRGB;solid-color:#000000;solid-opacity:1;fill:#000000;fill-opacity:1;fill-rule:evenodd;stroke:none;stroke-width:1px;stroke-linecap:butt;stroke-linejoin:miter;stroke-miterlimit:4;stroke-dasharray:none;stroke-dashoffset:0;stroke-opacity:1;color-rendering:auto;image-rendering:auto;shape-rendering:auto;text-rendering:auto;enable-background:accumulate"
       d="m 45.4834,997.38005 -18.232483,18.02895 0.62192,0.2117 18.232476,-18.02813 -0.621913,-0.21252 z"
       id="path4305"
       inkscape:connector-curvature="0" />
    <path
       style="color:#000000;font-style:normal;font-variant:normal;font-weight:normal;font-stretch:normal;font-size:medium;line-height:normal;font-family:sans-serif;text-indent:0;text-align:start;text-decoration:none;text-decoration-line:none;text-decoration-style:solid;text-decoration-color:#000000;letter-spacing:normal;word-spacing:normal;text-transform:none;direction:ltr;block-progression:tb;writing-mode:lr-tb;baseline-shift:baseline;text-anchor:start;white-space:normal;clip-rule:nonzero;display:inline;overflow:visible;visibility:visible;opacity:1;isolation:auto;mix-blend-mode:normal;color-interpolation:sRGB;color-interpolation-filters:linearRGB;solid-color:#000000;solid-opacity:1;fill:#1a1a1a;fill-opacity:1;fill-rule:evenodd;stroke:none;stroke-width:4;stroke-linecap:butt;stroke-linejoin:miter;stroke-miterlimit:4;stroke-dasharray:none;stroke-dashoffset:0;stroke-opacity:1;color-rendering:auto;image-rendering:auto;shape-rendering:auto;text-rendering:auto;enable-background:accumulate"
       d="m 49.243528,964.86224 c -1.572175,0.006 -2.828,0.37146 -2.804934,0.81516 l 0,1.51418 0,43.26082 0,20.7648 c 1.056311,0.5592 4.574827,0.6835 5.693274,0 l 0,-20.7648 0,-43.26082 0,-1.51418 c 0.02355,-0.45292 -1.283495,-0.8218 -2.88834,-0.81516 z"
       id="path4401"
       inkscape:connector-curvature="0"
       sodipodi:nodetypes="sccccccccs" />
    <path
       style="fill:#ff0000"
       d="m 183.21225,1247.9141 c -0.0825,-0.8698 -0.195,-2.1257 -0.25,-2.7908 -0.0736,-0.8898 3.51064,-1.2201 13.56669,-1.25 7.51668,-0.022 14.00418,-0.3782 14.41667,-0.7907 0.41248,-0.4125 -0.39493,-0.75 -1.79425,-0.75 -2.97206,0 -5.26393,-2.3203 -4.43237,-4.4873 0.31927,-0.832 0.0321,-1.5395 -0.63813,-1.5723 -0.67023,-0.033 -3.3796,-0.415 -6.02082,-0.8494 -4.6056,-0.7575 -4.86252,-0.6731 -6.27568,2.0596 -1.433,2.7711 -1.69252,2.8494 -9.44779,2.8494 l -7.97432,0 0,-7.1167 c 0,-6.8751 0.0759,-7.0967 2.23654,-6.5317 1.23009,0.3217 8.66694,1.119 16.52632,1.7717 13.5169,1.1227 14.363,1.0868 15.64355,-0.6644 0.74457,-1.0183 3.09522,-2.3396 5.22368,-2.9363 3.46893,-0.9724 3.93914,-1.4961 4.53803,-5.0537 0.36747,-2.1829 1.16439,-6.6689 1.77095,-9.9689 0.60656,-3.3 1.25008,-7.8 1.43005,-10 0.17998,-2.2 0.88757,-6.6914 1.57242,-9.9809 0.68486,-3.2896 1.00647,-7.4521 0.7147,-9.25 -0.39299,-2.4218 -0.15799,-3.2691 0.90663,-3.2691 0.86341,0 1.43713,-0.9907 1.43713,-2.4815 0,-2.8644 1.29347,-11.9867 4.1146,-29.0185 1.09322,-6.6 2.15182,-14.7714 2.35245,-18.1587 0.20063,-3.3872 0.79134,-6.9872 1.31268,-8 0.52134,-1.0127 1.20828,-4.4929 1.52653,-7.7338 0.31825,-3.2408 1.05454,-6.3683 1.63619,-6.95 0.7434,-0.7434 1.05755,-0.7011 1.05755,0.1425 0,0.7522 1.64849,1.2 4.41821,1.2 7.43589,0 7.58179,-0.1825 7.58179,-9.482 l 0,-8.268 -3.125,-0.625 c -1.71875,-0.3438 -3.44652,-0.625 -3.83949,-0.625 -1.21993,0 -3.03475,4.9356 -3.05082,8.297 -0.008,1.7616 -0.48183,3.878 -1.05201,4.703 -1.13649,1.6444 -0.57663,-15.1491 0.56671,-16.999 0.34026,-0.5506 2.09795,-1.001 3.90599,-1.001 1.80804,0 4.76428,-0.7368 6.56942,-1.6373 5.47206,-2.7299 11.72834,-2.9856 14.31727,-0.5852 1.21436,1.1259 3.33293,2.1991 4.70793,2.3848 2.21594,0.2993 2.53463,0.8774 2.80479,5.0877 0.16764,2.6125 0.76589,4.75 1.32946,4.75 0.61081,0 0.76698,1.1732 0.38666,2.9048 -0.38045,1.7322 -0.18705,3.1835 0.47909,3.5952 0.66625,0.4117 0.85953,1.8631 0.47891,3.596 -0.47305,2.1538 -0.22335,3.0648 0.965,3.5208 1.21038,0.4645 1.4529,1.4163 0.98983,3.8847 -0.36332,1.9366 -0.16909,3.544 0.47645,3.943 0.5994,0.3704 1.08981,1.7238 1.08981,3.0075 0,2.1786 2.35006,4.1321 4.3992,3.657 0.49456,-0.1147 1.58478,0.055 2.4227,0.3761 1.24309,0.477 1.11063,0.8738 -0.71967,2.1558 -2.10466,1.4742 -2.21222,2.1049 -1.74208,10.2151 0.27559,4.7542 0.52247,10.0432 0.54861,11.7534 0.0261,1.7102 0.74106,3.685 1.58871,4.3885 1.08525,0.9007 1.36099,2.2396 0.93206,4.526 -0.35118,1.8719 -0.16149,3.5237 0.44791,3.9003 0.59205,0.3659 0.79652,1.956 0.46481,3.6145 -0.38024,1.9012 -0.1827,2.9613 0.5518,2.9613 0.7142,0 0.91342,0.9189 0.53023,2.4456 -0.37085,1.4776 -0.0124,3.3043 0.90551,4.6148 0.83563,1.1931 1.27794,2.7982 0.9829,3.5671 -0.29504,0.7689 -0.0167,2.0242 0.61849,2.7896 0.65683,0.7914 0.87257,2.5166 0.50021,4.0002 -0.3601,1.4348 -0.21372,3.1653 0.32528,3.8457 0.53901,0.6803 1.01035,2.7412 1.04743,4.5798 0.0404,2.0058 0.79301,3.8812 1.88165,4.6891 1.547,1.1479 1.62613,1.6542 0.53718,3.4369 -1.09914,1.7994 -0.86921,2.9719 1.6503,8.4153 1.61005,3.4785 4.88473,8.6094 7.27707,11.402 2.39233,2.7925 5.88819,7.0901 7.76857,9.5501 l 3.41888,4.4727 14.08112,0.6774 c 16.2982,0.784 22.96685,0.3941 27.11485,-1.5855 4.02448,-1.9206 4.56862,-6.1324 1.08701,-8.4137 -1.45758,-0.955 -2.2721,-2.2321 -1.9534,-3.0626 0.30066,-0.7835 0.0485,-1.4245 -0.56034,-1.4245 -1.88987,0 -1.21802,-1.4771 1.14301,-2.5129 3.49896,-1.5351 2.66573,-3.6819 -2.03752,-5.2496 l -4.28752,-1.4292 1.95944,-3.1542 c 1.07769,-1.7348 3.14442,-3.7531 4.59272,-4.4851 2.11907,-1.0712 2.40332,-1.6082 1.45564,-2.75 -0.64771,-0.7805 -2.43574,-1.419 -3.97342,-1.419 -3.42189,0 -5.95934,-0.9053 -5.95934,-2.1261 0,-0.5016 1.18702,-0.6141 2.63783,-0.25 3.28215,0.8238 6.78239,-2.9702 5.2984,-5.7431 -1.33903,-2.502 0.8239,-7.6527 3.83039,-9.1216 2.10538,-1.0286 2.8158,-2.4367 3.87913,-7.6884 0.90597,-4.4745 0.98587,-6.8098 0.26281,-7.681 -0.57141,-0.6885 -1.20379,-3.6454 -1.4053,-6.5708 -0.2015,-2.9255 -0.67263,-8.0813 -1.04694,-11.4575 -0.42535,-3.8365 -0.27492,-6.8365 0.40115,-8 0.86774,-1.4933 1.08773,-0.7241 1.11212,3.8885 0.0294,5.5681 1.15726,7.4678 2.44355,4.1157 1.37115,-3.5731 -3.5271,-18.8276 -5.80219,-18.0695 -0.61102,0.2035 -1.61264,3.4827 -2.22582,7.2869 -0.92039,5.7103 -1.14083,6.2191 -1.26366,2.9169 -0.17299,-4.651 -1.07753,-8.5 -1.99755,-8.5 -0.35356,0 -1.27792,1.0125 -2.05415,2.25 -1.01516,1.6184 -1.37822,5.3377 -1.29338,13.25 0.0757,7.0612 -0.19605,10.2838 -0.75894,9 -0.48228,-1.1 -0.90851,-4.5875 -0.94716,-7.75 -0.0539,-4.4132 -0.41902,-5.75 -1.57029,-5.75 -0.82536,0 -1.5,-0.8854 -1.5,-1.9686 0,-1.302 0.48731,-1.7817 1.43901,-1.4165 1.04455,0.4009 1.60789,-0.4986 2.05512,-3.2813 0.33886,-2.1085 0.76985,-4.6046 0.95776,-5.5469 0.1879,-0.9422 -0.25552,-2.2088 -0.98539,-2.8145 -1.01261,-0.8404 -1.60186,-0.5878 -2.48704,1.0661 -1.15218,2.1529 -1.16999,2.1483 -2.63898,-0.6832 -0.81343,-1.5678 -2.19255,-3.6392 -3.06471,-4.6029 -0.87216,-0.9637 -1.09589,-1.7522 -0.49718,-1.7522 0.59871,0 1.23096,-1.2375 1.40499,-2.75 0.28638,-2.489 0.69616,-2.75 4.31642,-2.75 2.2,0 4.98292,-0.5625 6.18426,-1.25 1.20134,-0.6875 3.30204,-1.25 4.66821,-1.25 5.06567,0 5.64753,-0.7818 5.64753,-7.588 0,-5.9957 -0.15109,-6.4118 -2.54619,-7.013 -1.4004,-0.3515 -5.0004,-0.4355 -8,-0.1868 l -5.45381,0.4523 0,-3.2732 c 0,-3.1605 1.47517,-5.4658 2.16782,-3.3879 0.41726,1.2518 10.83218,-1.0364 10.83218,-2.3798 0,-0.4967 0.64669,-1.4027 1.43709,-2.0134 0.7904,-0.6106 1.7275,-2.7285 2.08243,-4.7064 0.90022,-5.0165 -1.45744,-7.3096 -6.78119,-6.5956 -4.72013,0.6331 -5.80805,1.5136 -3.48,2.8165 0.95792,0.536 1.74167,1.4574 1.74167,2.0474 0,0.6641 -0.60042,0.5745 -1.57622,-0.2354 -1.30629,-1.0841 -1.73178,-1.0623 -2.48468,0.1276 -1.27586,2.0163 -1.22965,-8.6529 0.0478,-11.0399 1.12806,-2.1078 5.45491,-1.6182 4.63279,0.5242 -0.64141,1.6715 1.13681,2.2198 4.8803,1.5048 3.34237,-0.6385 4.18742,-3.552 1.03136,-3.5559 -1.40273,0 -2.26513,-1.0391 -3,-3.6087 -1.23186,-4.3074 -3.41141,-7.1488 -5.01237,-6.5345 -0.85681,0.3288 -0.94424,-1.1365 -0.33404,-5.5984 0.82716,-6.0484 2.94004,-9.1841 5.56505,-8.2592 1.36913,0.4825 1.57996,-0.4733 0.64301,-2.9149 -0.77,-2.0066 -2.393,-2.0621 -2.393,-0.082 0,0.825 -0.45,1.5 -1,1.5 -0.55,0 -0.991,-1.2375 -0.98001,-2.75 0.026,-3.5812 2.56186,-19.1652 3.22674,-19.8301 0.97565,-0.9756 1.79858,4.6273 0.93275,6.3506 -1.49528,2.9762 -0.22647,10.0798 1.92221,10.7617 1.72604,0.5479 2.33887,1.6776 2.01673,3.7178 -0.0651,0.4125 0.28049,0.75 0.76804,0.75 1.50014,0 2.39981,-8.9502 1.06173,-10.5625 -0.71071,-0.8563 -0.78253,-1.4375 -0.17762,-1.4375 1.99691,0 2.06902,-2.8918 0.16523,-6.626 -2.4554,-4.8161 -2.44078,-6.4292 0.0642,-7.0843 2.27435,-0.5947 2.71049,-4.1723 0.75,-6.152 -1.00119,-1.011 -0.90166,-1.4588 0.5,-2.2497 2.16991,-1.2243 2.36793,-5.888 0.25,-5.888 -1.08528,0 -1.5,-1.1146 -1.5,-4.03142 0,-2.66096 0.50991,-4.22705 1.5,-4.60698 1.66984,-0.64078 2.04936,-4.90407 0.52067,-5.84886 -0.53864,-0.33289 -1.92882,-0.0971 -3.08931,0.52396 -1.81586,0.97183 -2.06008,0.87373 -1.75204,-0.70375 0.19686,-1.00814 1.24955,-1.87885 2.33931,-1.93492 1.08975,-0.0561 2.54387,-0.16857 3.23137,-0.25 0.87573,-0.10373 1.25,-2.39369 1.25,-7.64806 0,-5.31443 -0.36426,-7.51033 -1.25,-7.53544 -1.17804,-0.0334 3.03577,-2.85332 4.37698,-2.92912 0.81278,-0.046 0.35796,11.81295 -0.4854,12.65632 -2.00392,2.00391 0.0602,6.30824 3.02506,6.30824 0.27668,0 0.36697,-3.9375 0.20064,-8.75 l -0.30242,-8.75 3.45388,0 c 2.38927,0 3.55007,0.49952 3.76597,1.62058 0.24109,1.2519 -0.27821,1.50774 -2.28265,1.12457 l -2.59474,-0.49602 0.29634,7.27067 c 0.23364,5.73236 0.67899,7.50441 2.10491,8.37543 1.43986,0.87954 2.09226,0.72295 3.2001,-0.76812 1.33173,-1.7924 1.41234,-1.77091 1.87556,0.5 1.36793,6.70625 1.52588,8.93537 0.59225,8.35836 -1.092,-0.6749 -3.03796,3.5137 -2.25066,4.84445 0.27005,0.45645 -0.45779,1.49451 -1.61741,2.30671 -3.07328,2.1526 -2.77191,5.98 0.53623,6.8103 3.6133,0.9069 4.91981,-0.65 3.0126,-3.59 -1.32179,-2.0376 -1.33814,-2.6149 -0.12062,-4.26043 1.59528,-2.15615 1.86571,-1.70628 2.94759,4.90353 1.85222,11.3161 1.85228,11.315 -0.65028,11.6694 -1.86802,0.2646 -2.27883,0.8644 -2.05794,3.0049 0.19693,1.9083 -0.27347,2.8488 -1.64203,3.2831 -2.00159,0.6353 -3.59368,4.4981 -2.35121,5.7046 0.39449,0.383 1.95056,1.001 3.45793,1.3733 2.06051,0.5088 2.90004,0.2615 3.38278,-0.9965 0.35316,-0.9203 0.13235,-2.183 -0.49068,-2.8061 -1.62699,-1.6269 -1.40567,-2.4281 0.83243,-3.0134 2.11941,-0.5542 2.43855,0.067 3.48167,6.7807 0.34184,2.2 0.86688,5.2375 1.16677,6.75 0.32485,1.6383 0.10891,2.75 -0.53419,2.75 -0.59371,0 -1.07946,-0.675 -1.07946,-1.5 0,-1.8082 -1.16679,-1.9332 -2.8,-0.3 -2.66249,2.6625 -0.72539,7.8 2.94098,7.8 2.2849,0 3.14507,1.5353 3.91925,6.9955 0.35127,2.4775 1.42734,8.9718 2.39128,14.4318 0.96394,5.46 1.50998,11.4225 1.21343,13.25 -0.29656,1.8275 -0.12606,3.3227 0.37888,3.3227 1.07144,0 1.16935,0.4216 4.0634,17.5 2.34611,13.8448 3.21565,15.5 8.14293,15.5 1.73201,0 2.61314,0.4121 2.22471,1.0406 -0.35375,0.5724 -1.44177,0.7873 -2.41783,0.4775 -3.61899,-1.1487 -3.90951,1.2309 -3.84519,31.4945 0.044,20.6946 -0.29403,30.3731 -1.13358,32.4576 -1.01415,2.5182 -0.94369,3.155 0.46288,4.1835 1.82696,1.3359 1.16602,3.3463 -1.10016,3.3463 -0.79254,0 -1.44098,-0.8534 -1.44098,-1.8964 0,-1.0431 -1.575,-3.2793 -3.5,-4.9695 -3.90003,-3.4243 -4.44037,-5.1341 -1.62244,-5.1341 1.03265,0 2.32167,-0.5625 2.86449,-1.25 1.81751,-2.302 2.1569,-12.7823 0.69919,-21.5908 -1.123,-6.786 -1.1868,-9.6472 -0.29493,-13.2264 1.29378,-5.192 -0.27424,-10.1412 -3.40392,-10.7439 -1.39405,-0.2685 -1.74239,0.3788 -1.74239,3.2377 0,1.9654 -0.45,3.5734 -1,3.5734 -1.28815,0 -1.27248,-2.1532 0.0408,-5.6074 0.57245,-1.5056 0.78807,-3.3962 0.47915,-4.2012 -0.47621,-1.241 -0.85426,-1.1989 -2.48494,0.2769 -1.05781,0.9573 -2.06093,2.6708 -2.22915,3.8078 -0.49843,3.3686 -2.80587,3.3108 -2.80587,-0.07 0,-3.1952 -2.978,-6.7375 -3.74595,-4.4558 -0.641,1.9045 -1.95731,1.4927 -2.55682,-0.7998 -0.48033,-1.8368 -1.19398,-2.0187 -6.86664,-1.75 l -6.33058,0.2998 -0.80498,11 c -0.44274,6.05 -0.53496,17.975 -0.20495,26.5 0.33002,8.525 0.62737,16.5125 0.66077,17.75 0.0664,2.4613 1.84916,3.1843 1.84916,0.75 0,-1.0036 1.00357,-1.5 3.03212,-1.5 1.66766,0 4.65523,-0.6782 6.63903,-1.5071 3.99487,-1.6692 6.32885,-0.7212 6.32885,2.5705 0,2.115 1.81472,3.4991 4.09691,3.1247 2.01226,-0.3301 4.5545,2.5704 3.31071,3.7773 -0.49919,0.4844 -2.15911,1.0278 -3.68871,1.2076 -4.1372,0.4864 -3.77583,2.2809 0.53109,2.6373 3.64624,0.3018 3.75,0.4194 3.75,4.25 0,3.0219 -0.39112,3.9397 -1.679,3.9397 -0.92345,0 -3.12502,0.5229 -4.89238,1.1619 -2.59558,0.9386 -4.35217,0.8425 -9.1366,-0.5 -3.25778,-0.914 -6.45621,-1.6619 -7.10762,-1.6619 -2.14971,0 -1.23598,2.2152 2.28247,5.5335 2.63626,2.4863 4.73265,3.4398 8.75,3.9797 4.5897,0.6168 9.87984,2.3703 7.41069,2.4564 -0.47985,0.017 -0.31225,0.7054 0.37244,1.5304 0.99328,1.1968 0.99286,1.8036 -0.002,3.0024 -0.73363,0.884 -1.00335,2.7205 -0.6552,4.4613 0.32546,1.6273 0.15649,3.2277 -0.37549,3.5565 -0.53199,0.3288 -0.96725,1.4825 -0.96725,2.5638 0,1.3844 0.88743,2.1435 3,2.566 1.88702,0.3774 3,1.2156 3,2.2594 0,3.7721 5.03388,5.077 21.66466,5.6161 8.70944,0.2822 22.24784,0.7763 30.08534,1.0978 l 14.25,0.5846 0,5.0404 0,5.0403 -7.75,-0.6988 c -4.2625,-0.3844 -8.425,-0.6699 -9.25,-0.6343 -5.66515,0.2439 -8.64744,-0.2804 -10.95943,-1.9266 -1.78417,-1.2705 -3.12343,-1.5917 -4.09579,-0.9825 -0.79463,0.4979 -4.45955,0.8184 -8.14426,0.7122 -7.02228,-0.2023 -8.96163,0.4803 -6.98385,2.458 1.84776,1.8479 1.40521,2.7834 -1.31673,2.7834 -1.83333,0 -2.5,-0.5334 -2.5,-2 0,-1.755 -0.66667,-2 -5.44098,-2 -5.45326,0 -8.01896,1.4612 -5.43714,3.0965 0.93689,0.5934 0.25753,0.8728 -2.12188,0.8728 -2.33797,0 -3.04954,-0.2854 -2.14324,-0.8596 0.79509,-0.5038 0.95531,-1.1078 0.38703,-1.4591 -0.53336,-0.3296 -11.66823,-0.9088 -24.74416,-1.2871 -20.24432,-0.5857 -23.70521,-0.4782 -23.30837,0.7243 0.3212,0.9733 2.77261,1.5893 7.88739,1.982 5.53932,0.4253 3.42721,0.6155 -8.32865,0.75 -14.42965,0.1651 -17.88622,-0.3815 -14.73369,-2.3299 2.93399,-1.8133 -1.76043,-2.4899 -17.27533,-2.4899 -11.13657,0 -16.79938,0.3416 -16.16579,0.9752 0.53635,0.5363 3.5854,1.0844 6.77566,1.2179 6.12969,0.2565 9.17054,1.8889 3.48093,1.8687 -1.83248,-0.01 -15.433,0.2378 -30.22337,0.5431 -21.02615,0.4339 -27.06138,0.2802 -27.67003,-0.7046 -1.04138,-1.685 -4.0556,-2.0479 -5.69672,-0.6859 -0.96894,0.8041 -1.63841,0.7888 -2.48404,-0.057 -0.63669,-0.6367 -3.54262,-1.1576 -6.45762,-1.1576 -4.04444,0 -5.3,0.3553 -5.3,1.5 0,0.9876 -0.98811,1.5 -2.89301,1.5 -1.64908,0 -3.14051,-0.645 -3.46862,-1.5 -0.59961,-1.5626 -7.63837,-2.2088 -7.63837,-0.7013 0,0.4393 -1.6875,0.8844 -3.75,0.9891 -27.76033,1.4096 -29.24774,1.3991 -29.4,-0.2063 z m 111.15,-2.5815 c 0,-0.55 -0.19844,-1 -0.44098,-1 -0.24254,0 -0.7191,0.45 -1.05902,1 -0.33992,0.55 -0.14148,1 0.44098,1 0.58246,0 1.05902,-0.45 1.05902,-1 z m 0.38525,-19.2624 c -0.16398,-8.1451 -2.20603,-14.7378 -5.72641,-18.4876 -1.67815,-1.7875 -3.4129,-3.25 -3.85501,-3.25 -0.44211,0 -0.80383,6.0478 -0.80383,13.4396 l 0,13.4396 3.75,0.4016 c 6.73648,0.7214 6.76096,0.701 6.63525,-5.5432 z m 14.61475,4.9748 c 0,-0.7082 -2.2667,-3.5202 -5.03711,-6.249 -4.13052,-4.0684 -5.20853,-4.6916 -5.9895,-3.4624 -0.52381,0.8244 -0.68105,2.174 -0.34943,2.999 0.33162,0.825 0.8169,2.4 1.07841,3.5 0.2615,1.1 0.64632,2.5625 0.85516,3.25 0.52655,1.7334 9.44247,1.6979 9.44247,-0.038 z m -31.40662,-2.2285 c 0.34732,-1.3838 0.31582,-3.5213 -0.07,-4.75 -0.38583,-1.2286 -0.89254,-6.5089 -1.12604,-11.7339 -0.2335,-5.225 -0.6293,-10.0625 -0.87956,-10.75 -0.62041,-1.7044 -6.99456,-1.5854 -8.4411,0.1576 -0.89117,1.0738 -0.88532,4.5042 0.0246,14.4657 1.15933,12.6912 1.26598,13.0849 3.79576,14.0134 4.40957,1.6185 6.02284,1.2805 6.6963,-1.4028 z m -30.81838,-4.1835 c -0.25996,-3.1348 -0.99068,-5.8723 -1.62383,-6.0834 -1.81582,-0.6052 -1.3453,-1.933 0.89237,-2.5182 1.87198,-0.4895 2.0189,-1.1919 1.75,-8.3666 l -0.29354,-7.8322 -5.5,-0.029 c -10.09038,-0.053 -14,-0.4626 -14,-1.4685 0,-1.5399 6.29,-3.8306 8.05388,-2.9331 0.85464,0.4349 2.20464,0.3789 3,-0.1243 0.79537,-0.5032 2.68362,-0.9218 4.19612,-0.9302 1.79914,-0.01 2.75,-0.5461 2.75,-1.5505 0,-2.2056 -2.99609,-6.4648 -4.54762,-6.4648 -0.72468,0 -1.60533,-0.9065 -1.95699,-2.0145 -0.76149,-2.3993 -2.26886,-1.7115 -3.53232,1.6116 -0.50246,1.3216 -1.5597,2.4029 -2.34943,2.4029 -1.95014,0 -6.61364,5.6952 -6.61364,8.0767 0,1.0578 -0.43844,1.9233 -0.97432,1.9233 -1.86824,0 -4.026,5.9391 -4.06923,11.2003 -0.024,2.9148 -0.40896,7.1872 -0.85557,9.4941 -1.03338,5.338 -0.0656,6.3015 6.34912,6.3209 5.12851,0.016 7.79408,0.9331 7.48436,2.5763 -0.39784,2.1108 0.36692,2.4084 6.18947,2.4084 l 6.12383,0 -0.47266,-5.6996 z m 7.64321,5.0926 c 3.29459,-1.2643 1.10058,-6.393 -2.73484,-6.393 -1.49961,0 -1.78544,0.4895 -1.31366,2.25 0.33164,1.2375 0.60913,2.8125 0.61664,3.5 0.015,1.3771 1.02552,1.5664 3.43186,0.643 z m 7.17996,-13.643 c -1.42749,-15.6747 -1.36826,-15.5006 -5.44704,-16.013 -5.3747,-0.6753 -6.15113,0.4546 -6.15113,8.9512 0,8.9261 1.03608,11.3118 4.91274,11.3118 1.5633,0 3.40257,0.675 4.08726,1.5 2.57594,3.1038 3.2655,1.5777 2.59817,-5.75 z m 110.87093,-21.3023 c 1.08301,-0.8187 3.69961,-1.9546 5.81468,-2.5241 5.69695,-1.5341 4.17341,-3.4236 -2.76043,-3.4236 l -5.80998,0 -0.38471,3.75 c -0.41864,4.0808 0.13613,4.469 3.14044,2.1977 z m -85.76196,-2.8834 c -0.86035,-0.8604 -2.00972,-1.5643 -2.55415,-1.5643 -0.54443,0 -1.95269,-1.5579 -3.12946,-3.462 -1.17678,-1.904 -3.83556,-4.8051 -5.90839,-6.4468 l -3.7688,-2.985 -3.23925,4.1969 c -2.51857,3.2631 -3.1133,4.8365 -2.67317,7.0719 0.31135,1.5812 0.56608,3.5561 0.56608,4.3887 0,1.2763 1.3965,1.4341 8.90307,1.0061 4.89669,-0.2792 9.50542,-0.1354 10.24164,0.3196 2.08764,1.2902 3.34528,-0.7423 1.56243,-2.5251 z m -29.70714,2.0175 c 0,-1.5245 -1.36169,-3.4763 -2.10478,-3.0171 -1.46276,0.9041 -1.01714,3.4353 0.60478,3.4353 0.825,0 1.5,-0.1882 1.5,-0.4182 z m 104.5,-2.5818 c -0.33992,-0.55 -1.04148,-1 -1.55902,-1 -0.51754,0 -0.94098,0.45 -0.94098,1 0,0.55 0.70156,1 1.55902,1 0.85746,0 1.2809,-0.45 0.94098,-1 z m -98.18863,-5.25 c -0.59092,-2.9844 -3.00744,-3.7056 -3.97421,-1.1863 -0.33005,0.8601 -0.0674,2.733 0.58373,4.162 1.01486,2.2274 1.38011,2.3967 2.55941,1.1862 0.82816,-0.85 1.1589,-2.5063 0.83107,-4.1619 z m -11.20757,0.9538 c -1.28349,-1.2835 -2.58505,-0.2915 -1.63484,1.246 0.36808,0.5955 1.12735,0.7997 1.68727,0.4536 0.683,-0.4221 0.66575,-0.9814 -0.0524,-1.6996 z m -4.1356,-2.4538 c -0.0347,-3.003 -2.02369,-6.25 -3.82844,-6.25 -1.58511,0 -1.42225,2.553 0.38592,6.0496 1.91471,3.7027 3.48408,3.794 3.44252,0.2004 z m -19.59492,0.5 c 1.78478,-1.8132 5.62672,-10.0856 5.62672,-12.1154 0,-2.6387 -2.87826,-7.6346 -4.39845,-7.6346 -0.8611,0 -1.55092,1.7137 -1.91206,4.75 -0.31074,2.6125 -0.88095,7.3375 -1.26714,10.5 -0.70947,5.8099 -0.29025,6.7768 1.95093,4.5 z m 5.44627,-1.5784 c 0.17575,-1.1944 -0.16175,-2.1716 -0.75,-2.1716 -0.58825,0 -1.06955,0.4132 -1.06955,0.9182 0,0.505 -0.29671,1.6914 -0.65935,2.6364 -0.46278,1.206 -0.23918,1.5797 0.75,1.2535 0.77514,-0.2556 1.55315,-1.442 1.7289,-2.6365 z m 53.89882,1.1733 c 0.18885,-0.5666 -1.40172,-2.2395 -3.5346,-3.7176 -2.13288,-1.4781 -4.46004,-3.775 -5.17146,-5.1043 -1.49487,-2.7932 -3.92696,-4.0084 -5.29149,-2.6438 -0.593,0.593 0.24541,2.0014 2.25182,3.7827 1.75811,1.561 4.621,4.2917 6.36197,6.0683 3.11115,3.1748 4.70442,3.6527 5.38376,1.6147 z m -30.59485,-1.5949 c 0.65663,-1.2375 2.02246,-2.838 3.03518,-3.5567 2.53797,-1.8011 2.69557,-12.9283 0.19669,-13.8872 -0.97418,-0.3738 -2.14016,0.047 -2.86024,1.0314 -0.6686,0.9144 -1.69586,1.6625 -2.28281,1.6625 -1.99065,0 -5.21234,5.2537 -5.21234,8.5 0,3.1095 3.1946,8.5 5.0374,8.5 0.49073,0 1.42948,-1.0125 2.08612,-2.25 z m -1.12352,-11.75 c 0,-0.55 0.45,-1 1,-1 0.55,0 1,0.45 1,1 0,0.55 -0.45,1 -1,1 -0.55,0 -1,-0.45 -1,-1 z m -18,7.5 c 0,-0.825 -0.45,-1.5 -1,-1.5 -0.55,0 -1,0.675 -1,1.5 0,0.825 0.45,1.5 1,1.5 0.55,0 1,-0.675 1,-1.5 z m 30,-1 c 0,-0.825 -0.40186,-1.5 -0.89301,-1.5 -0.49116,0 -1.15203,0.675 -1.46862,1.5 -0.35062,0.9137 -0.002,1.5 0.89301,1.5 0.80774,0 1.46862,-0.675 1.46862,-1.5 z m -26,-1.8776 c 0,-0.7576 -0.675,-1.9377 -1.5,-2.6224 -1.59021,-1.3198 -1.95173,-0.3408 -0.89301,2.4182 0.74671,1.9459 2.39301,2.0864 2.39301,0.2042 z m 42,-7.0634 c 0,-5.4059 -1.56346,-8.574 -2.17851,-4.4144 -0.17692,1.1966 -1.14965,2.2937 -2.16312,2.4398 -1.0129,0.146 -2.08952,0.5134 -2.3925,0.8164 -0.8651,0.8651 1.84854,3.6465 2.91474,2.9875 0.52471,-0.3242 1.2012,0.3557 1.50333,1.5111 1.03385,3.9534 2.31606,2.1041 2.31606,-3.3404 z m -38.16451,2.691 c 2.41819,-2.0572 3.4754,-10.2653 1.41451,-10.982 -0.6875,-0.2391 -1.25,0.2227 -1.25,1.0262 0,1.7604 -2.78032,4.2588 -3.7075,3.3316 -0.36254,-0.3625 -0.12667,-1.1917 0.52417,-1.8425 0.65083,-0.6508 1.18333,-2.243 1.18333,-3.5381 0,-2.1854 -0.34182,-2.3329 -4.75,-2.05 -4.47805,0.2873 -4.76701,0.4783 -5.04706,3.3363 -0.38169,3.8951 4.21962,8.8821 5.94406,6.4423 0.84862,-1.2007 0.93218,-1.1361 0.45092,0.3486 -0.62925,1.9412 0.90178,5.6776 2.32648,5.6776 0.46972,0 1.77971,-0.7875 2.91109,-1.75 z m 22.16451,-5.25 c 0,-1.1 -0.1882,-2 -0.41821,-2 -0.23002,0 -1.13002,-0.2732 -2,-0.607 -1.10746,-0.425 -1.58179,-0.025 -1.58179,1.3333 0,2.2734 0.81478,3.2737 2.66667,3.2737 0.73333,0 1.33333,-0.9 1.33333,-2 z m -13.0669,-1.375 c 0.98367,-1.838 1.00662,-2.8691 0.10151,-4.5604 -1.60343,-2.996 -4.45439,-2.246 -4.85918,1.2784 -0.65238,5.6799 2.36161,7.7591 4.75767,3.282 z m 21.48469,-3.7097 c 2.97976,-3.5412 2.62283,-4.9153 -1.27681,-4.9153 -3.49664,0 -5.14098,1.6632 -5.14098,5.2 0,3.8508 3.0519,3.7154 6.41779,-0.2847 z m -31.64846,-10.192 c 0.81626,-0.6432 1.05103,-2.164 0.65772,-4.2605 -0.4295,-2.2894 -0.18243,-3.5136 0.82976,-4.1115 2.22329,-1.3132 2.99208,-5.8999 1.23352,-7.3593 -1.27618,-1.0592 -1.4949,-0.6805 -1.52213,2.6355 -0.0282,3.4342 -0.18214,3.6744 -1.36025,2.1225 -0.73064,-0.9625 -1.9715,-1.75 -2.75748,-1.75 -1.66743,0 -7.85047,10.2946 -7.85047,13.0708 0,1.676 0.53978,1.8206 4.75,1.2719 2.6125,-0.3405 5.3212,-1.0692 6.01933,-1.6194 z m 33.59815,0 c 1.62114,-1.1854 1.48483,-1.6263 -1.85468,-6 -1.98243,-2.5961 -4.05539,-4.7203 -4.60657,-4.7203 -1.67842,0 -5.84099,5.3664 -5.87463,7.5736 -0.0237,1.5537 0.90874,2.3369 3.7184,3.1236 5.27506,1.4771 6.62441,1.4807 8.61748,0.023 z m 124.2948,-1.9703 c -0.27741,-0.6875 -0.50439,-0.125 -0.50439,1.25 0,1.375 0.22698,1.9375 0.50439,1.25 0.27741,-0.6875 0.27741,-1.8125 0,-2.5 z m -147.16228,-0.75 c -0.48382,-0.7829 -1.05907,-0.841 -1.72574,-0.1743 -0.55,0.55 -0.67341,1.5284 -0.27426,2.1743 0.48382,0.7828 1.05907,0.8409 1.72574,0.1742 0.55,-0.55 0.67341,-1.5284 0.27426,-2.1742 z m 4.91667,-1.3334 c -0.0458,-0.9166 -0.15834,-3.2416 -0.25,-5.1666 -0.0917,-1.925 -0.56421,-3.5 -1.05009,-3.5 -1.2287,0 -2.0624,4.9333 -1.40081,8.289 0.57778,2.9308 2.8444,3.2476 2.7009,0.3776 z m 4.15476,-1.0952 c 0.78571,-0.7857 1.42857,-2.2936 1.42857,-3.3508 0,-1.0572 0.50117,-3.3598 1.11372,-5.117 0.94087,-2.699 0.8299,-3.5084 -0.71496,-5.2155 -1.72968,-1.9113 -1.89824,-1.9255 -3.11372,-0.2633 -1.2554,1.7169 -1.88933,15.3752 -0.71361,15.3752 0.31428,0 1.21428,-0.6429 2,-1.4286 z m -8.57143,-9.449 c 0,-3.0822 -2.23949,-5.7105 -3.95987,-4.6472 -0.92508,0.5717 -0.52837,4.6616 0.65715,6.7748 1.10329,1.9666 3.30272,0.5498 3.30272,-2.1276 z m -15.61844,-1.6744 c 0.34149,-0.8899 0.17385,-1.2913 -0.39301,-0.9409 -0.5437,0.336 -0.98855,1.0344 -0.98855,1.5519 0,1.4384 0.71677,1.1215 1.38156,-0.611 z m 36.07223,-3.698 c -0.3383,-2.8875 -0.78677,-5.8049 -0.99659,-6.4832 -0.56172,-1.8157 -3.4572,-0.3537 -3.4572,1.7457 0,1.665 3.93309,9.9875 4.71997,9.9875 0.1919,0 0.0721,-2.3625 -0.26618,-5.25 z m -37.86301,-0.3001 c 1.33432,-2.8119 1.45251,-4.0595 0.56836,-6 -0.61394,-1.3475 -1.50368,-2.4499 -1.97719,-2.4499 -1.39032,0 -3.18195,4.8125 -3.18195,8.547 0,4.6084 2.38178,4.558 4.59078,-0.097 z m 20.10221,-3.1809 c -0.25354,-0.973 -0.47766,-0.419 -0.49804,1.231 -0.0204,1.65 0.18706,2.446 0.46099,1.769 0.27392,-0.677 0.29059,-2.027 0.037,-3 z m -2.69299,-2.2775 c 0,-4.7581 -0.1,-4.946 -2,-3.7595 -2.94808,1.8412 -2.46855,8.768 0.60699,8.768 1.00526,0 1.39301,-1.3942 1.39301,-5.0085 z m 8.60699,-4.5733 c -0.33385,-0.87 -0.60699,-1.995 -0.60699,-2.5 0,-0.505 -0.45,-0.9182 -1,-0.9182 -0.55,0 -1,1.125 -1,2.5 0,1.6295 0.55953,2.5 1.60699,2.5 1.05452,0 1.39831,-0.5438 1,-1.5818 z m -15.60699,-2.9772 c 0,-0.7926 -0.66386,-1.441 -1.47525,-1.441 -1.17317,0 -1.27409,-0.5291 -0.49285,-2.5839 0.54033,-1.4212 0.72763,-2.9962 0.41624,-3.5 -0.75393,-1.2199 -8.16782,-1.1787 -8.92694,0.05 -0.72297,1.1697 3.14223,9.0343 4.44011,9.0343 0.50636,0 1.23449,-0.5078 1.61806,-1.1285 0.47563,-0.7695 0.99093,-0.6039 1.62047,0.5211 1.03655,1.8522 2.80016,1.2528 2.80016,-0.9516 z m 21.31684,-3.2438 c 2.36015,-4.0412 1.75889,-4.8527 -3.24209,-4.3757 -4.54643,0.4335 -5.22883,2.0858 -2.48146,6.0082 1.97029,2.813 3.35847,2.417 5.72355,-1.6325 z m -16.31684,1.3028 c 0,-0.825 -0.45,-1.5 -1,-1.5 -0.55,0 -1,0.675 -1,1.5 0,0.825 0.45,1.5 1,1.5 0.55,0 1,-0.675 1,-1.5 z m 148,-3.0409 c 0,-0.8475 -0.93453,-4.4336 -2.07673,-7.9691 -1.92707,-5.9649 -2.32342,-6.4745 -5.5,-7.0704 -1.8828,-0.3532 -5.05791,-0.3355 -7.0558,0.039 l -3.63252,0.6815 0.53154,5.8619 c 0.66205,7.3012 1.08685,7.9809 5.04253,8.068 1.75504,0.039 4.09098,0.457 5.19098,0.9297 3.40736,1.4642 7.5,1.1691 7.5,-0.5409 z m -145,-1.4591 c 0,-0.55 -0.675,-1 -1.5,-1 -0.825,0 -1.5,0.45 -1.5,1 0,0.55 0.675,1 1.5,1 0.825,0 1.5,-0.45 1.5,-1 z m 123.55951,-4.5483 c 1.09038,-7.2712 0.45738,-7.9477 -7.46727,-7.98 l -6.93164,-0.028 -0.64354,4.2914 c -1.09624,7.3102 -0.47739,7.9711 7.46443,7.9711 l 6.94007,0 0.63795,-4.2542 z m -122.77058,-9.2017 c -0.28363,-8.5896 -0.33475,-8.75 -2.78893,-8.75 -2.41491,0 -2.51011,0.2521 -2.79697,7.4064 -0.35996,8.9777 0.005,10.0936 3.30452,10.0936 l 2.57032,0 -0.28894,-8.75 z m 13.73621,6.5 c -0.38946,-1.2375 -1.23968,-5.175 -1.88936,-8.75 l -1.18125,-6.5 -3.97726,0 -3.97727,0 -0.29697,7.4064 c -0.16333,4.0735 -0.0649,8.011 0.21862,8.75 0.34741,0.9053 2.35786,1.3436 6.1636,1.3436 5.40035,0 5.61696,-0.099 4.93989,-2.25 z m 106.65742,-11.4706 c 1.86718,-1.6283 1.37805,-4.2794 -0.78955,-4.2794 -1.67529,0 -1.80125,-1.1918 -0.28611,-2.7069 0.8092,-0.8092 0.40108,-1.5694 -1.51748,-2.8265 -2.01502,-1.3203 -2.36814,-2.0283 -1.52082,-3.0493 2.71166,-3.2673 -3.4712,-4.8399 -6.38222,-1.6233 -1.27633,1.4104 -1.52619,3.2674 -1.16822,8.6828 0.2646,4.0029 0.98458,7.2242 1.7186,7.6894 1.71536,1.0873 7.87548,-0.081 9.9458,-1.8868 z m -6.18256,-3.2794 c 0,-0.55 0.45,-1 1,-1 0.55,0 1,0.45 1,1 0,0.55 -0.45,1 -1,1 -0.55,0 -1,-0.45 -1,-1 z m 23.75947,4.2357 c 0.45706,-1.3867 -5.43416,-4.2357 -8.75874,-4.2357 -2.28897,0 -3.53483,2.1657 -2.6189,4.5526 0.7469,1.9464 10.72327,1.6686 11.37764,-0.3169 z m -4.0953,-8.8029 c 0.33077,-0.862 0.0916,-2.077 -0.53139,-2.7 -0.62303,-0.6231 -1.13278,-2.1678 -1.13278,-3.4328 0,-1.2954 -0.60631,-2.3 -1.38813,-2.3 -1.03758,0 -1.30135,1.1995 -1.04448,4.75 0.189,2.6125 0.36366,4.8625 0.38813,5 0.18053,1.0145 3.2294,-0.068 3.70865,-1.3172 z m -13.66417,-7.4328 c 0,-0.55 -0.45,-1 -1,-1 -0.55,0 -1,0.45 -1,1 0,0.55 0.45,1 1,1 0.55,0 1,-0.45 1,-1 z m 6,-8.5 c 0,-3.6551 -1.33289,-4.6809 -2.41569,-1.8591 -0.75695,1.9725 0.18024,5.3591 1.48308,5.3591 0.51293,0 0.93261,-1.575 0.93261,-3.5 z m -5.12188,1.5965 c 0.75796,-0.4801 1.05902,-1.3892 0.66902,-2.0202 -0.39,-0.6311 -1.09851,-3.9024 -1.57447,-7.2697 -0.96293,-6.8124 -1.67996,-7.65 -6.00573,-7.0151 -3.27758,0.4811 -5.15693,4.4185 -3.09372,6.4817 1.64169,1.6417 1.37818,4.4867 -0.51362,5.5454 -0.90222,0.5049 -1.32566,1.4273 -0.94098,2.0497 1.02004,1.6505 2.58138,1.3833 2.58138,-0.4416 0,-0.9602 0.68206,-1.442 1.75,-1.2364 0.9625,0.1854 1.75689,0.7809 1.76531,1.3234 0.0465,2.9942 2.6975,4.2709 5.36281,2.5828 z m -6.12812,-11.7588 c 0.6875,-0.2774 1.8125,-0.2774 2.5,0 0.6875,0.2774 0.125,0.5044 -1.25,0.5044 -1.375,0 -1.9375,-0.227 -1.25,-0.5044 z m 21.25,4.6623 c 0,-2.75 -0.1882,-5 -0.41821,-5 -0.23002,0 -1.13002,-0.2732 -2,-0.607 -1.92865,-0.7401 -2.05627,1.2913 -0.4235,6.741 1.59825,5.3344 2.84171,4.8382 2.84171,-1.134 z m -6,-0.5 c 0,-1.375 -0.45,-2.5 -1,-2.5 -0.55,0 -1,1.125 -1,2.5 0,1.375 0.45,2.5 1,2.5 0.55,0 1,-1.125 1,-2.5 z m -26,-0.059 c 0,-0.8575 -0.45,-1.2809 -1,-0.941 -0.55,0.3399 -1,1.0415 -1,1.559 0,0.5176 0.45,0.941 1,0.941 0.55,0 1,-0.7016 1,-1.559 z m 2,-5.834 c 0,-2.7495 -2.09142,-3.8731 -5.57946,-2.9977 -1.52538,0.3828 -2.42054,0.1758 -2.42054,-0.5599 0,-0.6421 -0.45,-0.8893 -1,-0.5494 -1.55933,0.9637 -1.17426,3.5 0.53138,3.5 0.84227,0 1.79041,0.675 2.10699,1.5 0.32811,0.855 1.81954,1.5 3.46862,1.5 2.38472,0 2.89301,-0.4204 2.89301,-2.393 z m -2.08793,-7.0011 c 0.89327,-1.0763 0.79094,-1.76 -0.44898,-3 -2.16454,-2.1645 -3.12113,-2.0215 -3.79822,0.5676 -0.97731,3.7373 1.82997,5.345 4.2472,2.4324 z m 13.18168,0.3439 c 1.07925,-0.5776 1.71732,-1.4465 1.41795,-1.9309 -0.29938,-0.4844 -0.087,-1.1634 0.47199,-1.5088 1.30697,-0.8078 1.31803,-2.5101 0.0163,-2.5101 -0.55,0 -1,0.675 -1,1.5 0,1.683 -0.18315,1.7507 -2.41821,0.893 -0.95047,-0.3647 -1.58179,-1.7909 -1.58179,-3.5733 0,-2.2874 -0.40058,-2.8889 -1.75,-2.628 -1.31634,0.2546 -1.72009,1.2496 -1.6293,4.0152 0.21963,6.6899 1.90673,8.1867 6.47305,5.7429 z m 14.90625,-0.3784 c 0,-2.2083 -2.88009,-4.5714 -5.57143,-4.5714 -2.66648,0 -3.07945,-0.9491 -1.22143,-2.8072 0.94286,-0.9428 0.83339,-1.5809 -0.5,-2.9143 -1.60952,-1.6095 -1.71603,-1.5376 -1.86266,1.2572 -0.19228,3.6648 0.0866,7.5606 0.65962,9.2143 0.63267,1.8258 8.4959,1.6606 8.4959,-0.1786 z m -13,-10.7138 c 0,-3.2029 -1.56387,-3.4961 -3.37057,-0.6319 -0.71587,1.1349 -0.63017,2.0685 0.29187,3.1794 1.78627,2.1524 3.0787,1.0829 3.0787,-2.5475 z m 9.38401,-2.6076 c 0.3395,-0.9625 0.87949,-2.3125 1.19997,-3 0.41536,-0.8911 -0.58988,-1.25 -3.50065,-1.25 -3.38198,0 -4.08333,0.335 -4.08333,1.9503 0,3.4681 5.29863,5.3768 6.38401,2.2997 z m -10.38401,-2.8884 c 0,-1.7608 -2.44565,-2.7883 -4.63612,-1.9478 -1.49984,0.5756 -1.49201,0.7871 0.094,2.5396 1.86907,2.0653 4.54212,1.7171 4.54212,-0.5918 z m -0.54393,-14.3616 c -0.0435,-9.4095 -0.0674,-9.5 -2.5,-9.5 -1.78569,0 -2.54329,0.6141 -2.77562,2.25 -0.24307,1.7115 0.17578,2.25 1.75,2.25 1.13825,0 2.06955,0.45 2.06955,1 0,0.55 -0.6199,1 -1.37756,1 -2.42463,0 -3.7513,2.5309 -2.732,5.2118 0.52546,1.3821 0.55985,3.0596 0.0787,3.8381 -1.17448,1.9004 0.86195,4.1172 3.44335,3.7483 1.95289,-0.279 2.08468,-0.9109 2.04358,-9.7982 z m 6.54393,0 c 0,-0.55 -0.675,-1 -1.5,-1 -0.825,0 -1.5,0.45 -1.5,1 0,0.55 0.675,1 1.5,1 0.825,0 1.5,-0.45 1.5,-1 z m 2.9926,-5.9862 c 1.23474,-2.3071 0.37669,-3.0138 -3.65927,-3.0138 -2.63835,0 -3.33333,0.4066 -3.33333,1.9503 0,3.8964 5.06424,4.6667 6.9926,1.0635 z m -10.59634,-6.6041 c 0.75081,-1.9565 -0.0573,-3.4097 -1.89626,-3.4097 -0.76008,0 -1.63498,0.4094 -1.94423,0.9097 -0.83524,1.3515 0.46661,4.0903 1.94423,4.0903 0.70731,0 1.56063,-0.7156 1.89626,-1.5903 z m 0.4171,-8.65972 c -0.23822,-2.47069 -0.78965,-3.25 -2.29966,-3.25 -2.34103,0 -3.20563,2.96135 -1.47383,5.04804 2.20389,2.65548 4.11509,1.74488 3.77349,-1.79804 z m 7.18664,-7.75 c 0,-1.46667 -0.66667,-2 -2.5,-2 -2.35301,0 -3.35141,1.81526 -1.83333,3.33333 1.49204,1.49204 4.33333,0.6178 4.33333,-1.33333 z m -8,-0.5 c 0,-0.825 -0.675,-1.5 -1.5,-1.5 -1.56157,0 -1.98397,1.1827 -0.83333,2.33333 1.15063,1.15064 2.33333,0.72824 2.33333,-0.83333 z m -57,258.50002 c 0,-0.55 0.61875,-1 1.375,-1 0.75625,0 2.78125,-0.2813 4.5,-0.625 2.47436,-0.4949 3.125,-0.2867 3.125,1 0,1.2592 -1.01282,1.625 -4.5,1.625 -2.475,0 -4.5,-0.45 -4.5,-1 z m 46.8125,0.3169 c 0.72187,-0.2889 1.58437,-0.2534 1.91667,0.079 0.33229,0.3323 -0.25834,0.5686 -1.3125,0.5252 -1.16495,-0.048 -1.4019,-0.285 -0.60417,-0.6042 z m 71,0 c 0.72187,-0.2889 1.58438,-0.2534 1.91667,0.079 0.33229,0.3323 -0.25834,0.5686 -1.3125,0.5252 -1.16495,-0.048 -1.4019,-0.285 -0.60417,-0.6042 z m -90.39077,-63.8824 c -0.36819,-1.9627 -0.19422,-4.5476 0.38701,-5.75 0.87713,-1.8147 1.06736,-1.211 1.12358,3.5655 0.077,6.5397 -0.52911,7.4162 -1.51059,2.1845 z m -37.92368,-15.6832 c -0.90053,-12.0953 -0.52059,-15.3391 1.75195,-14.9575 1.87283,0.3145 2.37039,-1.7734 0.79746,-3.3464 -1.59177,-1.5917 -3.09623,-14.6103 -2.13184,-18.4474 0.82873,-3.2974 0.88558,-3.3369 0.98202,-0.6826 0.0852,2.3444 0.43807,2.7108 2.10236,2.1826 1.91993,-0.6094 2,-0.1797 2,10.7326 0,7.415 -0.41118,11.7786 -1.1826,12.55 -1.26795,1.2679 -2.06758,7.8138 -1.88026,15.3921 0.21585,8.7322 -1.73826,5.9895 -2.43909,-3.4234 z m 21.04521,7.9987 c -1.01779,-3.2293 -1.86672,-11.7516 -1.63251,-16.3884 0.14641,-2.8985 -0.21347,-5.4307 -0.8256,-5.809 -0.59683,-0.3689 -1.08515,-1.3742 -1.08515,-2.2341 0,-1.2368 0.2965,-1.3173 1.41928,-0.3855 1.12148,0.9307 1.63193,0.7991 2.43275,-0.6276 0.97367,-1.7345 1.04132,-1.7331 1.72281,0.036 0.39014,1.0128 0.44476,5.9254 0.12138,10.9169 -0.32642,5.0383 -0.1688,9.8586 0.35432,10.8361 1.02358,1.9126 0.2982,4.9055 -1.18891,4.9055 -0.50842,0 -1.10168,-0.5625 -1.31837,-1.25 z m 27.45674,-3.809 c 0,-3.1181 0.38367,-4.8219 1,-4.441 0.55,0.3399 1,2.6165 1,5.059 0,2.4425 -0.45,4.441 -1,4.441 -0.55,0 -1,-2.2766 -1,-5.059 z m 86.58536,-1.0784 c -1.21746,-3.7849 -1.18484,-16.6899 0.0464,-18.3738 1.75693,-2.4027 2.12118,-1.1193 2.63254,9.2753 0.29735,6.0443 0.051,8.5592 -0.91706,9.3626 -0.98243,0.8154 -1.43659,0.7473 -1.76192,-0.2641 z m -10.87119,-2.3626 c -0.64554,-3.0768 -1.04589,-12.0821 -0.83358,-18.75 0.1363,-4.2804 2.02047,-5.1889 2.07412,-1 0.0194,1.5125 0.16056,5.9 0.31375,9.75 0.15319,3.85 0.008,8.35 -0.32317,10 l -0.60169,3 -0.62943,-3 z m -138.71417,-2.5 c 0,-0.55 0.45,-1 1,-1 0.55,0 1,0.45 1,1 0,0.55 -0.45,1 -1,1 -0.55,0 -1,-0.45 -1,-1 z m 129.45564,-1.3208 c -0.84378,-3.3618 -0.15826,-9.2283 1.04436,-8.9372 1.27895,0.3095 1.71493,10.0071 0.48409,10.7678 -0.509,0.3146 -1.1968,-0.5092 -1.52845,-1.8306 z m 34.98204,-0.072 c -0.53192,-2.1193 1.79579,-8.6077 3.088,-8.6077 0.26088,0 0.47432,2.475 0.47432,5.5 0,4.1908 -0.35253,5.5 -1.48095,5.5 -0.81452,0 -1.75114,-1.0765 -2.08137,-2.3923 z m -139.44637,-2.8576 c -0.005,-1.7875 -0.29246,-5.6125 -0.63929,-8.5 -0.71448,-5.9483 0.77979,-7.1793 2.55015,-2.1008 1.20953,3.4696 1.3974,8.131 0.46754,11.6008 -0.89568,3.3422 -2.36844,2.723 -2.3784,-1 z m 26.00682,0.745 c -1.38591,-3.6452 -1.24616,-7.0443 0.34388,-8.3639 1.97727,-1.641 2.65799,-0.3665 2.65799,4.9765 0,5.4893 -1.54142,7.2287 -3.00187,3.3874 z m 11.72442,1.8942 c -1.04718,-1.0472 -0.85843,-11.6259 0.23839,-13.3603 1.40059,-2.2146 2.12726,-0.7973 2.6366,5.1424 0.44785,5.2226 -1.18966,9.9032 -2.87499,8.2179 z m 26.52236,-3.5513 c -0.81207,-2.1515 -0.86071,-3.6873 -0.15835,-4.9997 1.40894,-2.6326 2.91645,-1.3474 2.89813,2.4708 -0.0236,4.9198 -1.36867,6.1614 -2.73978,2.5289 z m -89.53531,-4.0644 c -0.70291,-4.9968 -0.0964,-8.1306 1.39518,-7.2088 1.0333,0.6386 1.0239,5.7852 -0.0172,9.4353 -0.61028,2.1396 -0.80892,1.8187 -1.37796,-2.2265 z m -95.7096,-1.7145 c 0,-2.1675 0.45,-4.2191 1,-4.559 0.61081,-0.3775 1,1.1563 1,3.941 0,2.5074 -0.45,4.559 -1,4.559 -0.55,0 -1,-1.7735 -1,-3.941 z m 192.8849,3.75 c -0.0633,-0.17 -0.28571,-4.2216 -0.49422,-9.0036 -0.24686,-5.6616 0.007,-8.933 0.72691,-9.3781 1.85839,-1.1485 2.70823,1.6196 1.66129,5.4113 -0.54545,1.9755 -0.73013,5.5004 -0.4104,7.8331 0.32255,2.3533 0.14735,4.5095 -0.39357,4.8438 -0.5362,0.3314 -1.02671,0.4635 -1.09001,0.2935 z m -180.27791,-2.3908 c -0.93513,-2.4369 -0.71962,-6.2306 0.39301,-6.9182 0.61081,-0.3775 1,1.1563 1,3.941 0,4.7887 -0.38342,5.6082 -1.39301,2.9772 z m 225.62501,-1.4182 c 0,-1.925 0.2058,-2.7125 0.45733,-1.75 0.25152,0.9625 0.25152,2.5375 0,3.5 -0.25153,0.9625 -0.45733,0.175 -0.45733,-1.75 z m -249.56533,0.3333 c -1.03447,-1.0345 -0.78532,-6.142 0.33333,-6.8333 0.60393,-0.3733 1,0.9896 1,3.441 0,4.1452 -0.16377,4.5619 -1.33333,3.3923 z m 37.08333,0.095 c -0.4125,-0.4189 -0.75,-1.9016 -0.75,-3.2949 0,-1.8207 0.30511,-2.2283 1.08466,-1.4487 0.59657,0.5966 0.93407,2.0793 0.75,3.2949 -0.18406,1.2157 -0.67216,1.8676 -1.08466,1.4487 z m 173.00113,-1.0809 c -1.01914,-1.5687 -1.43606,-13.9874 -0.50113,-14.927 1.47224,-1.4795 1.83441,0.4453 1.54427,8.2072 -0.16185,4.3299 -0.63126,7.3537 -1.04314,6.7198 z m 39.09807,-7.0974 c -0.25319,-4.6172 0.26548,-8.7001 1.23225,-9.7 0.5612,-0.5804 0.91855,1.6566 0.91855,5.75 0,3.8 -0.43284,6.7 -1,6.7 -0.55,0 -1.06786,-1.2375 -1.1508,-2.75 z m 8.1508,1.3742 c 0,-0.8217 -0.52017,-2.7608 -1.15593,-4.3091 -0.63577,-1.5483 -1.20748,-3.2651 -1.27048,-3.8151 -0.31941,-2.7884 -1.86796,-5.5 -3.14098,-5.5 -0.85221,0 -1.43261,-0.9889 -1.43261,-2.4409 0,-3.1974 -1.7925,-4.2251 -3.43981,-1.9723 -1.23708,1.6918 -1.342,1.676 -1.96799,-0.2963 -0.36368,-1.1458 -0.53321,-2.6924 -0.37672,-3.4369 0.18231,-0.8673 -0.8523,-1.4638 -2.88001,-1.6605 -2.46888,-0.2395 -3.30804,0.1451 -3.81738,1.75 -0.87452,2.7553 -2.16503,2.5998 -2.90542,-0.3502 -0.33228,-1.3239 -0.90505,-3.1912 -1.27283,-4.1496 -0.56898,-1.4828 -0.25871,-1.6397 2.08078,-1.0525 4.35586,1.0932 6.75188,-0.117 6.38961,-3.2273 -0.30085,-2.5829 -0.1363,-2.6725 5.43977,-2.9634 l 5.75,-0.2999 0,-3.5091 c 0,-2.0848 0.4059,-3.2582 1,-2.8911 0.55,0.34 1,1.9415 1,3.5591 0,2.5025 0.38863,2.9409 2.60699,2.9409 2.09274,0 2.46378,0.3452 1.88102,1.75 -0.39928,0.9625 -0.64465,8.5688 -0.54528,16.9029 0.11686,9.8004 -0.19434,15.3846 -0.88102,15.809 -0.58394,0.3609 -1.06171,-0.016 -1.06171,-0.8377 z m -3.57421,-25.9569 c -0.35187,-0.917 -1.04162,-1.6673 -1.53278,-1.6673 -1.04564,0 -1.20723,3.3525 -0.20968,4.35 1.12469,1.1247 2.43146,-0.8873 1.74246,-2.6827 z m -4.42579,-1.2743 c 0,-1.0545 -0.5438,-1.3983 -1.58179,-1 -0.86998,0.3339 -2.24654,0.607 -3.05901,0.607 -0.81248,0 -1.19912,0.45 -0.8592,1 1.03914,1.6814 5.5,1.1891 5.5,-0.607 z m -110.39003,23.8937 c -0.77717,-4.234 -0.0498,-7.1834 1.38692,-5.6238 0.42413,0.4604 0.45959,2.8621 0.0788,5.3371 l -0.69235,4.5 -0.77336,-4.2133 z m -8.87077,-1.176 c -0.27174,-1.0391 -0.10611,-2.5016 0.36806,-3.25 0.58614,-0.9251 0.86702,-0.3203 0.87743,1.8893 0.0171,3.6384 -0.50165,4.2052 -1.24549,1.3607 z m 115.84375,-0.9765 c -0.43077,-0.697 -0.51316,-1.5373 -0.18309,-1.8674 0.89497,-0.8949 1.87077,0.4213 1.38739,1.8715 -0.33872,1.0162 -0.57427,1.0154 -1.2043,0 z m -102.58295,-4.7278 c 0,-1.7526 -0.64852,-2.7632 -2,-3.1166 -1.30868,-0.3422 -2,-1.364 -2,-2.9561 0,-1.3381 -0.73125,-3.8471 -1.625,-5.5754 l -1.625,-3.1424 -1.67033,3.2301 c -1.86658,3.6095 -3.07967,3.2295 -3.07967,-0.9648 0,-2.5931 -0.24959,-2.7632 -3.61182,-2.4615 -1.98649,0.1783 -3.94215,0.8586 -4.34589,1.5119 -0.50319,0.8142 -1.23797,0.4187 -2.33614,-1.2573 -1.8303,-2.7934 -1.36028,-3.6743 1.96052,-3.6743 1.82222,0 2.33333,-0.5476 2.33333,-2.5 0,-2.6686 1.3203,-2.9987 6,-1.5 2.24695,0.7196 2.28465,0.8108 0.37244,0.9004 -2.26315,0.106 -5.01257,2.623 -3.671,3.3607 1.2764,0.7018 8.68581,0.2357 10.09472,-0.6351 0.7282,-0.45 1.02166,-1.6246 0.67713,-2.7101 -0.42989,-1.3545 -0.12905,-1.9159 1.02671,-1.9159 1.17749,0 1.45793,0.5572 1.00257,1.9919 -0.47116,1.4845 -0.009,2.276 1.8153,3.1071 2.90443,1.3234 3.77883,5.7431 2.94828,14.9025 -0.53415,5.8907 -2.26615,8.4931 -2.26615,3.4049 z m 120,-0.4064 c 0,-0.55 0.45,-1 1,-1 0.55,0 1,0.45 1,1 0,0.55 -0.45,1 -1,1 -0.55,0 -1,-0.45 -1,-1 z m -155.47646,-3.3568 c -0.28795,-0.9038 -0.72889,-2.3038 -0.97987,-3.1111 -0.25098,-0.8074 -0.0626,-1.7114 0.41863,-2.0088 0.48123,-0.2974 1.1794,0.8454 1.55149,2.5395 0.71532,3.2568 -0.0988,5.3782 -0.99025,2.5804 z m 155.47646,-5.0841 c 0,-2.9926 0.45,-5.7191 1,-6.0591 0.62464,-0.386 1,1.6563 1,5.441 0,3.3727 -0.44336,6.059 -1,6.059 -0.55,0 -1,-2.4484 -1,-5.4409 z m -225.92105,0.8576 c 0.048,-1.1649 0.28494,-1.4019 0.60416,-0.6042 0.28887,0.7219 0.25335,1.5844 -0.0789,1.9167 -0.33229,0.3323 -0.56864,-0.2583 -0.52522,-1.3125 z m -36,-1 c 0.048,-1.1649 0.28494,-1.4019 0.60416,-0.6042 0.28887,0.7219 0.25335,1.5844 -0.0789,1.9167 -0.33229,0.3323 -0.56864,-0.2583 -0.52522,-1.3125 z m 125.92105,-0.8576 c 0,-0.8575 0.45,-1.5591 1,-1.5591 0.55,0 1,0.4235 1,0.941 0,0.5176 -0.45,1.2191 -1,1.559 -0.55,0.34 -1,-0.083 -1,-0.9409 z m 146.66667,-1.2257 c -1.02514,-1.0252 -0.79006,-5.1391 0.33333,-5.8334 0.59512,-0.3678 1,0.823 1,2.941 0,3.6546 -0.1802,4.0455 -1.33333,2.8924 z m -166.66667,-3.5046 c 0,-0.6442 -0.74474,-1.9942 -1.65499,-3 -1.67056,-1.846 -0.83563,-2.338 2.0732,-1.2218 1.71284,0.6573 2.22372,5.393 0.58179,5.393 -0.55,0 -1,-0.527 -1,-1.1712 z m -84.33333,-1.4954 c -1.51808,-1.5181 -0.51969,-3.3334 1.83333,-3.3334 2.79174,0 3.44732,2.4225 0.91821,3.393 -1.95858,0.7516 -1.93988,0.752 -2.75154,-0.06 z m 239.90645,-5.0034 c -0.57717,-1.5041 0.82136,-3.2748 2.61786,-3.3147 1.45365,-0.032 1.92842,2.1359 0.77267,3.5285 -1.58111,1.9052 -2.60212,1.8408 -3.39053,-0.2138 z m 8.92688,-0.33 c -1.77225,-0.7615 -1.68684,-0.8674 0.75,-0.9297 1.5125,-0.039 2.75,0.3797 2.75,0.9297 0,1.1737 -0.76862,1.1737 -3.5,0 z m -40,-1 c -2.55221,-0.6494 -2.20756,-0.781 2.30902,-0.8817 3.31169,-0.074 5.0765,0.2579 4.69098,0.8817 -0.69362,1.1223 -2.58944,1.1223 -7,0 z m -60.82411,-32.4022 c -0.56462,-1.4713 0.0818,-2.5977 1.49078,-2.5977 0.45833,0 0.83333,0.9 0.83333,2 0,2.2929 -1.52327,2.6847 -2.32411,0.5977 z m 3.11411,-75.7639 c -0.26858,-0.7336 -0.28197,-3.0213 -0.0298,-5.0838 0.34843,-2.8493 0.91267,-3.75 2.34917,-3.75 2.29995,0 2.43665,1.3019 0.32107,3.0577 -0.86324,0.7164 -1.3684,2.0717 -1.12257,3.0117 0.57459,2.1973 -0.80542,4.7105 -1.51791,2.7644 z m 1.81,-16.43382 c -0.36606,-0.95394 -0.21557,-2.18443 0.33443,-2.73443 0.66667,-0.66667 1.22186,-0.42186 1.66557,0.73443 0.36606,0.95394 0.21557,2.18443 -0.33443,2.73443 -0.66667,0.66667 -1.22186,0.42186 -1.66557,-0.73443 z"
       id="path4259"
       inkscape:connector-curvature="0" />
    <path
       style="color:#000000;font-style:normal;font-variant:normal;font-weight:normal;font-stretch:normal;font-size:medium;line-height:normal;font-family:sans-serif;text-indent:0;text-align:start;text-decoration:none;text-decoration-line:none;text-decoration-style:solid;text-decoration-color:#000000;letter-spacing:normal;word-spacing:normal;text-transform:none;direction:ltr;block-progression:tb;writing-mode:lr-tb;baseline-shift:baseline;text-anchor:start;white-space:normal;clip-rule:nonzero;display:inline;overflow:visible;visibility:visible;opacity:1;isolation:auto;mix-blend-mode:normal;color-interpolation:sRGB;color-interpolation-filters:linearRGB;solid-color:#000000;solid-opacity:1;fill:#000000;fill-opacity:1;fill-rule:evenodd;stroke:none;stroke-width:4;stroke-linecap:butt;stroke-linejoin:miter;stroke-miterlimit:4;stroke-dasharray:none;stroke-dashoffset:0;stroke-opacity:1;color-rendering:auto;image-rendering:auto;shape-rendering:auto;text-rendering:auto;enable-background:accumulate"
       d="m 60.654148,967.56453 -2.835196,0.29834 19.718321,63.31083 c 2.236893,0.6214 2.835197,-0.2983 2.835197,-0.2983 z"
       id="path4239"
       inkscape:connector-curvature="0"
       sodipodi:nodetypes="ccccc" />
    <path
       style="color:#000000;font-style:normal;font-variant:normal;font-weight:normal;font-stretch:normal;font-size:medium;line-height:normal;font-family:sans-serif;text-indent:0;text-align:start;text-decoration:none;text-decoration-line:none;text-decoration-style:solid;text-decoration-color:#000000;letter-spacing:normal;word-spacing:normal;text-transform:none;direction:ltr;block-progression:tb;writing-mode:lr-tb;baseline-shift:baseline;text-anchor:start;white-space:normal;clip-rule:nonzero;display:inline;overflow:visible;visibility:visible;opacity:1;isolation:auto;mix-blend-mode:normal;color-interpolation:sRGB;color-interpolation-filters:linearRGB;solid-color:#000000;solid-opacity:1;fill:#000000;fill-opacity:1;fill-rule:evenodd;stroke:none;stroke-width:4;stroke-linecap:butt;stroke-linejoin:miter;stroke-miterlimit:4;stroke-dasharray:none;stroke-dashoffset:0;stroke-opacity:1;color-rendering:auto;image-rendering:auto;shape-rendering:auto;text-rendering:auto;enable-background:accumulate"
       d="m 53.302341,968.52495 -2.87881,0.0826 5.363651,62.99455 c 0.807767,0.6835 2.877405,0.5384 2.877405,-0.083 l -5.362246,-62.99451 z"
       id="path4241"
       inkscape:connector-curvature="0"
       sodipodi:nodetypes="cccccc" />
    <path
       style="color:#000000;font-style:normal;font-variant:normal;font-weight:normal;font-stretch:normal;font-size:medium;line-height:normal;font-family:sans-serif;text-indent:0;text-align:start;text-decoration:none;text-decoration-line:none;text-decoration-style:solid;text-decoration-color:#000000;letter-spacing:normal;word-spacing:normal;text-transform:none;direction:ltr;block-progression:tb;writing-mode:lr-tb;baseline-shift:baseline;text-anchor:start;white-space:normal;clip-rule:nonzero;display:inline;overflow:visible;visibility:visible;opacity:1;isolation:auto;mix-blend-mode:normal;color-interpolation:sRGB;color-interpolation-filters:linearRGB;solid-color:#000000;solid-opacity:1;fill:#000000;fill-opacity:1;fill-rule:evenodd;stroke:none;stroke-width:4;stroke-linecap:butt;stroke-linejoin:miter;stroke-miterlimit:4;stroke-dasharray:none;stroke-dashoffset:0;stroke-opacity:1;color-rendering:auto;image-rendering:auto;shape-rendering:auto;text-rendering:auto;enable-background:accumulate"
       d="m 45.809831,967.69776 -4.492493,61.81504 2.881626,-0.1377 4.491089,-61.64017 -2.880222,-0.0368 z"
       id="path4243"
       inkscape:connector-curvature="0"
       sodipodi:nodetypes="cccccc" />
    <path
       style="color:#000000;font-style:normal;font-variant:normal;font-weight:normal;font-stretch:normal;font-size:medium;line-height:normal;font-family:sans-serif;text-indent:0;text-align:start;text-decoration:none;text-decoration-line:none;text-decoration-style:solid;text-decoration-color:#000000;letter-spacing:normal;word-spacing:normal;text-transform:none;direction:ltr;block-progression:tb;writing-mode:lr-tb;baseline-shift:baseline;text-anchor:start;white-space:normal;clip-rule:nonzero;display:inline;overflow:visible;visibility:visible;opacity:1;isolation:auto;mix-blend-mode:normal;color-interpolation:sRGB;color-interpolation-filters:linearRGB;solid-color:#000000;solid-opacity:1;fill:#000000;fill-opacity:1;fill-rule:nonzero;stroke:none;stroke-width:9.32303715;stroke-linecap:round;stroke-linejoin:bevel;stroke-miterlimit:4;stroke-dasharray:none;stroke-dashoffset:0;stroke-opacity:1;marker:none;color-rendering:auto;image-rendering:auto;shape-rendering:auto;text-rendering:auto;enable-background:accumulate"
       d="m 49.540306,965.64443 -6.044166,0.72597 -6.137423,2.30515 1.052584,1.14876 12.372575,0.73702 6.042691,-0.72609 6.137424,-2.30515 -1.051123,-1.14864 -12.372585,-0.73703 z m -1.443131,2.08611 5.27573,0.31427 -1.147003,0.43079 -5.275731,-0.31427 1.147004,-0.43079 z"
       id="rect4245"
       inkscape:connector-curvature="0" />
    <path
       style="color:#000000;font-style:normal;font-variant:normal;font-weight:normal;font-stretch:normal;font-size:medium;line-height:normal;font-family:sans-serif;text-indent:0;text-align:start;text-decoration:none;text-decoration-line:none;text-decoration-style:solid;text-decoration-color:#000000;letter-spacing:normal;word-spacing:normal;text-transform:none;direction:ltr;block-progression:tb;writing-mode:lr-tb;baseline-shift:baseline;text-anchor:start;white-space:normal;clip-rule:nonzero;display:inline;overflow:visible;visibility:visible;opacity:1;isolation:auto;mix-blend-mode:normal;color-interpolation:sRGB;color-interpolation-filters:linearRGB;solid-color:#000000;solid-opacity:1;fill:#000000;fill-opacity:1;fill-rule:nonzero;stroke:none;stroke-width:10.85245037;stroke-linecap:round;stroke-linejoin:bevel;stroke-miterlimit:4;stroke-dasharray:none;stroke-dashoffset:0;stroke-opacity:1;marker:none;color-rendering:auto;image-rendering:auto;shape-rendering:auto;text-rendering:auto;enable-background:accumulate"
       d="m 45.43326,1014.299 -7.781328,0.3085 -18.024408,1.4357 0.03624,0.3085 34.037772,0 7.781328,-0.3085 18.024408,-1.4357 -0.03624,-0.3085 -34.037772,0 z m -3.836381,0.6169 26.220279,0 -10.279323,0.8189 -26.22028,0 10.279324,-0.8189 z"
       id="rect4255"
       inkscape:connector-curvature="0" />
    <path
       style="color:#000000;font-style:normal;font-variant:normal;font-weight:normal;font-stretch:normal;font-size:medium;line-height:normal;font-family:sans-serif;text-indent:0;text-align:start;text-decoration:none;text-decoration-line:none;text-decoration-style:solid;text-decoration-color:#000000;letter-spacing:normal;word-spacing:normal;text-transform:none;direction:ltr;block-progression:tb;writing-mode:lr-tb;baseline-shift:baseline;text-anchor:start;white-space:normal;clip-rule:nonzero;display:inline;overflow:visible;visibility:visible;opacity:1;isolation:auto;mix-blend-mode:normal;color-interpolation:sRGB;color-interpolation-filters:linearRGB;solid-color:#000000;solid-opacity:1;fill:#000000;fill-opacity:1;fill-rule:nonzero;stroke:none;stroke-width:11.70901108;stroke-linecap:round;stroke-linejoin:bevel;stroke-miterlimit:4;stroke-dasharray:none;stroke-dashoffset:0;stroke-opacity:1;marker:none;color-rendering:auto;image-rendering:auto;shape-rendering:auto;text-rendering:auto;enable-background:accumulate"
       d="m 50.757692,996.56996 -8.407787,0.28598 -16.246494,1.109 0.02874,0.28599 23.432954,0 8.407859,-0.28599 16.246494,-1.109 -0.02882,-0.28598 -23.432954,0 z m -4.160629,0.57187 14.999082,0 -7.870327,0.53723 -14.999082,0 7.870327,-0.53723 z"
       id="rect4257"
       inkscape:connector-curvature="0" />
    <path
       style="color:#000000;font-style:normal;font-variant:normal;font-weight:normal;font-stretch:normal;font-size:medium;line-height:normal;font-family:sans-serif;text-indent:0;text-align:start;text-decoration:none;text-decoration-line:none;text-decoration-style:solid;text-decoration-color:#000000;letter-spacing:normal;word-spacing:normal;text-transform:none;direction:ltr;block-progression:tb;writing-mode:lr-tb;baseline-shift:baseline;text-anchor:start;white-space:normal;clip-rule:nonzero;display:inline;overflow:visible;visibility:visible;opacity:1;isolation:auto;mix-blend-mode:normal;color-interpolation:sRGB;color-interpolation-filters:linearRGB;solid-color:#000000;solid-opacity:1;fill:#000000;fill-opacity:1;fill-rule:nonzero;stroke:none;stroke-width:13.12921143;stroke-linecap:round;stroke-linejoin:bevel;stroke-miterlimit:4;stroke-dasharray:none;stroke-dashoffset:0;stroke-opacity:1;marker:none;color-rendering:auto;image-rendering:auto;shape-rendering:auto;text-rendering:auto;enable-background:accumulate"
       d="m 52.170236,977.78242 -9.437658,0.25499 -12.208104,0.66113 0.02039,0.25499 17.607747,0 9.43773,-0.25499 12.208104,-0.66113 -0.02046,-0.25499 -17.607747,0 z m -4.688204,0.50999 8.1496,0 -2.790719,0.15113 -8.1496,0 2.790719,-0.15113 z"
       id="rect4277"
       inkscape:connector-curvature="0" />
    <path
       style="color:#000000;font-style:normal;font-variant:normal;font-weight:normal;font-stretch:normal;font-size:medium;line-height:normal;font-family:sans-serif;text-indent:0;text-align:start;text-decoration:none;text-decoration-line:none;text-decoration-style:solid;text-decoration-color:#000000;letter-spacing:normal;word-spacing:normal;text-transform:none;direction:ltr;block-progression:tb;writing-mode:lr-tb;baseline-shift:baseline;text-anchor:start;white-space:normal;clip-rule:nonzero;display:inline;overflow:visible;visibility:visible;opacity:1;isolation:auto;mix-blend-mode:normal;color-interpolation:sRGB;color-interpolation-filters:linearRGB;solid-color:#000000;solid-opacity:1;fill:#000000;fill-opacity:1;fill-rule:evenodd;stroke:none;stroke-width:2;stroke-linecap:butt;stroke-linejoin:miter;stroke-miterlimit:4;stroke-dasharray:none;stroke-dashoffset:0;stroke-opacity:1;color-rendering:auto;image-rendering:auto;shape-rendering:auto;text-rendering:auto;enable-background:accumulate"
       d="m 32.780607,997.90154 -1.127047,0.52148 22.888392,16.67618 1.125635,-0.5215 -22.88698,-16.67616 z"
       id="path4295"
       inkscape:connector-curvature="0" />
    <path
       style="color:#000000;font-style:normal;font-variant:normal;font-weight:normal;font-stretch:normal;font-size:medium;line-height:normal;font-family:sans-serif;text-indent:0;text-align:start;text-decoration:none;text-decoration-line:none;text-decoration-style:solid;text-decoration-color:#000000;letter-spacing:normal;word-spacing:normal;text-transform:none;direction:ltr;block-progression:tb;writing-mode:lr-tb;baseline-shift:baseline;text-anchor:start;white-space:normal;clip-rule:nonzero;display:inline;overflow:visible;visibility:visible;opacity:1;isolation:auto;mix-blend-mode:normal;color-interpolation:sRGB;color-interpolation-filters:linearRGB;solid-color:#000000;solid-opacity:1;fill:#000000;fill-opacity:1;fill-rule:evenodd;stroke:none;stroke-width:2;stroke-linecap:butt;stroke-linejoin:miter;stroke-miterlimit:4;stroke-dasharray:none;stroke-dashoffset:0;stroke-opacity:1;color-rendering:auto;image-rendering:auto;shape-rendering:auto;text-rendering:auto;enable-background:accumulate"
       d="m 54.40828,998.19089 -27.362786,16.35571 1.032767,0.5836 26.17243,-15.64376 19.280725,15.37326 1.16363,-0.4929 -20.286766,-16.17591 z"
       id="path4297"
       inkscape:connector-curvature="0" />
    <path
       style="color:#000000;font-style:normal;font-variant:normal;font-weight:normal;font-stretch:normal;font-size:medium;line-height:normal;font-family:sans-serif;text-indent:0;text-align:start;text-decoration:none;text-decoration-line:none;text-decoration-style:solid;text-decoration-color:#000000;letter-spacing:normal;word-spacing:normal;text-transform:none;direction:ltr;block-progression:tb;writing-mode:lr-tb;baseline-shift:baseline;text-anchor:start;white-space:normal;clip-rule:nonzero;display:inline;overflow:visible;visibility:visible;opacity:1;isolation:auto;mix-blend-mode:normal;color-interpolation:sRGB;color-interpolation-filters:linearRGB;solid-color:#000000;solid-opacity:1;fill:#000000;fill-opacity:1;fill-rule:evenodd;stroke:none;stroke-width:2;stroke-linecap:butt;stroke-linejoin:miter;stroke-miterlimit:4;stroke-dasharray:none;stroke-dashoffset:0;stroke-opacity:1;color-rendering:auto;image-rendering:auto;shape-rendering:auto;text-rendering:auto;enable-background:accumulate"
       d="m 67.624644,997.55824 -11.639069,17.12656 1.340914,0.3073 11.637665,-17.12653 -1.33951,-0.30733 z"
       id="path4299"
       inkscape:connector-curvature="0" />
    <path
       style="color:#000000;font-style:normal;font-variant:normal;font-weight:normal;font-stretch:normal;font-size:medium;line-height:normal;font-family:sans-serif;text-indent:0;text-align:start;text-decoration:none;text-decoration-line:none;text-decoration-style:solid;text-decoration-color:#000000;letter-spacing:normal;word-spacing:normal;text-transform:none;direction:ltr;block-progression:tb;writing-mode:lr-tb;baseline-shift:baseline;text-anchor:start;white-space:normal;clip-rule:nonzero;display:inline;overflow:visible;visibility:visible;opacity:1;isolation:auto;mix-blend-mode:normal;color-interpolation:sRGB;color-interpolation-filters:linearRGB;solid-color:#000000;solid-opacity:1;fill:#000000;fill-opacity:1;fill-rule:evenodd;stroke:none;stroke-width:2;stroke-linecap:butt;stroke-linejoin:miter;stroke-miterlimit:4;stroke-dasharray:none;stroke-dashoffset:0;stroke-opacity:1;color-rendering:auto;image-rendering:auto;shape-rendering:auto;text-rendering:auto;enable-background:accumulate"
       d="m 46.303706,997.19042 -1.018698,0.59178 27.542888,16.0002 1.018698,-0.5918 -27.542888,-16.00018 z"
       id="path4301"
       inkscape:connector-curvature="0" />
    <path
       style="color:#000000;font-style:normal;font-variant:normal;font-weight:normal;font-stretch:normal;font-size:medium;line-height:normal;font-family:sans-serif;text-indent:0;text-align:start;text-decoration:none;text-decoration-line:none;text-decoration-style:solid;text-decoration-color:#000000;letter-spacing:normal;word-spacing:normal;text-transform:none;direction:ltr;block-progression:tb;writing-mode:lr-tb;baseline-shift:baseline;text-anchor:start;white-space:normal;clip-rule:nonzero;display:inline;overflow:visible;visibility:visible;opacity:1;isolation:auto;mix-blend-mode:normal;color-interpolation:sRGB;color-interpolation-filters:linearRGB;solid-color:#000000;solid-opacity:1;fill:#000000;fill-opacity:1;fill-rule:evenodd;stroke:none;stroke-width:2;stroke-linecap:butt;stroke-linejoin:miter;stroke-miterlimit:4;stroke-dasharray:none;stroke-dashoffset:0;stroke-opacity:1;color-rendering:auto;image-rendering:auto;shape-rendering:auto;text-rendering:auto;enable-background:accumulate"
       d="m 66.946453,997.45688 -21.723357,16.45142 1.142522,0.5092 21.724762,-16.45139 -1.143927,-0.50923 z"
       id="path4303"
       inkscape:connector-curvature="0" />
    <path
       style="color:#000000;font-style:normal;font-variant:normal;font-weight:normal;font-stretch:normal;font-size:medium;line-height:normal;font-family:sans-serif;text-indent:0;text-align:start;text-decoration:none;text-decoration-line:none;text-decoration-style:solid;text-decoration-color:#000000;letter-spacing:normal;word-spacing:normal;text-transform:none;direction:ltr;block-progression:tb;writing-mode:lr-tb;baseline-shift:baseline;text-anchor:start;white-space:normal;clip-rule:nonzero;display:inline;overflow:visible;visibility:visible;opacity:1;isolation:auto;mix-blend-mode:normal;color-interpolation:sRGB;color-interpolation-filters:linearRGB;solid-color:#000000;solid-opacity:1;fill:#000000;fill-opacity:1;fill-rule:evenodd;stroke:none;stroke-width:2;stroke-linecap:butt;stroke-linejoin:miter;stroke-miterlimit:4;stroke-dasharray:none;stroke-dashoffset:0;stroke-opacity:1;color-rendering:auto;image-rendering:auto;shape-rendering:auto;text-rendering:auto;enable-background:accumulate"
       d="m 32.065827,998.40504 -1.249459,0.41605 15.128539,15.32421 1.250864,-0.416 -15.129944,-15.32426 z"
       id="path4307"
       inkscape:connector-curvature="0" />
    <path
       style="color:#000000;font-style:normal;font-variant:normal;font-weight:normal;font-stretch:normal;font-size:medium;line-height:normal;font-family:sans-serif;text-indent:0;text-align:start;text-decoration:none;text-decoration-line:none;text-decoration-style:solid;text-decoration-color:#000000;letter-spacing:normal;word-spacing:normal;text-transform:none;direction:ltr;block-progression:tb;writing-mode:lr-tb;baseline-shift:baseline;text-anchor:start;white-space:normal;clip-rule:nonzero;display:inline;overflow:visible;visibility:visible;opacity:1;isolation:auto;mix-blend-mode:normal;color-interpolation:sRGB;color-interpolation-filters:linearRGB;solid-color:#000000;solid-opacity:1;fill:#000000;fill-opacity:1;fill-rule:evenodd;stroke:none;stroke-width:2;stroke-linecap:butt;stroke-linejoin:miter;stroke-miterlimit:4;stroke-dasharray:none;stroke-dashoffset:0;stroke-opacity:1;color-rendering:auto;image-rendering:auto;shape-rendering:auto;text-rendering:auto;enable-background:accumulate"
       d="M 38.375011,979.09692 37.08897,979.47456 52.726866,997.44953 54.0129,997.0719 38.375011,979.09692 Z"
       id="path4319"
       inkscape:connector-curvature="0" />
    <path
       style="color:#000000;font-style:normal;font-variant:normal;font-weight:normal;font-stretch:normal;font-size:medium;line-height:normal;font-family:sans-serif;text-indent:0;text-align:start;text-decoration:none;text-decoration-line:none;text-decoration-style:solid;text-decoration-color:#000000;letter-spacing:normal;word-spacing:normal;text-transform:none;direction:ltr;block-progression:tb;writing-mode:lr-tb;baseline-shift:baseline;text-anchor:start;white-space:normal;clip-rule:nonzero;display:inline;overflow:visible;visibility:visible;opacity:1;isolation:auto;mix-blend-mode:normal;color-interpolation:sRGB;color-interpolation-filters:linearRGB;solid-color:#000000;solid-opacity:1;fill:#000000;fill-opacity:1;fill-rule:evenodd;stroke:none;stroke-width:2;stroke-linecap:butt;stroke-linejoin:miter;stroke-miterlimit:4;stroke-dasharray:none;stroke-dashoffset:0;stroke-opacity:1;color-rendering:auto;image-rendering:auto;shape-rendering:auto;text-rendering:auto;enable-background:accumulate"
       d="m 52.930885,979.13125 -18.992282,17.90959 1.226939,0.43893 17.583836,-16.58216 12.954655,16.29526 1.307142,-0.35065 -14.08029,-17.71097 z"
       id="path4321"
       inkscape:connector-curvature="0" />
    <path
       style="color:#000000;font-style:normal;font-variant:normal;font-weight:normal;font-stretch:normal;font-size:medium;line-height:normal;font-family:sans-serif;text-indent:0;text-align:start;text-decoration:none;text-decoration-line:none;text-decoration-style:solid;text-decoration-color:#000000;letter-spacing:normal;word-spacing:normal;text-transform:none;direction:ltr;block-progression:tb;writing-mode:lr-tb;baseline-shift:baseline;text-anchor:start;white-space:normal;clip-rule:nonzero;display:inline;overflow:visible;visibility:visible;opacity:1;isolation:auto;mix-blend-mode:normal;color-interpolation:sRGB;color-interpolation-filters:linearRGB;solid-color:#000000;solid-opacity:1;fill:#000000;fill-opacity:1;fill-rule:evenodd;stroke:none;stroke-width:2;stroke-linecap:butt;stroke-linejoin:miter;stroke-miterlimit:4;stroke-dasharray:none;stroke-dashoffset:0;stroke-opacity:1;color-rendering:auto;image-rendering:auto;shape-rendering:auto;text-rendering:auto;enable-background:accumulate"
       d="m 61.682701,978.69886 -7.951207,18.4605 1.397193,0.20271 7.952612,-18.4605 -1.398598,-0.20271 z"
       id="path4323"
       inkscape:connector-curvature="0" />
    <path
       style="color:#000000;font-style:normal;font-variant:normal;font-weight:normal;font-stretch:normal;font-size:medium;line-height:normal;font-family:sans-serif;text-indent:0;text-align:start;text-decoration:none;text-decoration-line:none;text-decoration-style:solid;text-decoration-color:#000000;letter-spacing:normal;word-spacing:normal;text-transform:none;direction:ltr;block-progression:tb;writing-mode:lr-tb;baseline-shift:baseline;text-anchor:start;white-space:normal;clip-rule:nonzero;display:inline;overflow:visible;visibility:visible;opacity:1;isolation:auto;mix-blend-mode:normal;color-interpolation:sRGB;color-interpolation-filters:linearRGB;solid-color:#000000;solid-opacity:1;fill:#000000;fill-opacity:1;fill-rule:evenodd;stroke:none;stroke-width:2;stroke-linecap:butt;stroke-linejoin:miter;stroke-miterlimit:4;stroke-dasharray:none;stroke-dashoffset:0;stroke-opacity:1;color-rendering:auto;image-rendering:auto;shape-rendering:auto;text-rendering:auto;enable-background:accumulate"
       d="m 47.617886,978.33349 -1.217091,0.44793 18.817806,17.24587 1.217091,-0.44793 -18.817806,-17.24587 z"
       id="path4325"
       inkscape:connector-curvature="0" />
    <path
       style="color:#000000;font-style:normal;font-variant:normal;font-weight:normal;font-stretch:normal;font-size:medium;line-height:normal;font-family:sans-serif;text-indent:0;text-align:start;text-decoration:none;text-decoration-line:none;text-decoration-style:solid;text-decoration-color:#000000;letter-spacing:normal;word-spacing:normal;text-transform:none;direction:ltr;block-progression:tb;writing-mode:lr-tb;baseline-shift:baseline;text-anchor:start;white-space:normal;clip-rule:nonzero;display:inline;overflow:visible;visibility:visible;opacity:1;isolation:auto;mix-blend-mode:normal;color-interpolation:sRGB;color-interpolation-filters:linearRGB;solid-color:#000000;solid-opacity:1;fill:#000000;fill-opacity:1;fill-rule:evenodd;stroke:none;stroke-width:2;stroke-linecap:butt;stroke-linejoin:miter;stroke-miterlimit:4;stroke-dasharray:none;stroke-dashoffset:0;stroke-opacity:1;color-rendering:auto;image-rendering:auto;shape-rendering:auto;text-rendering:auto;enable-background:accumulate"
       d="m 61.204301,978.61713 -14.842905,17.73139 1.295889,0.36618 14.842905,-17.73139 -1.295889,-0.36618 z"
       id="path4327"
       inkscape:connector-curvature="0" />
    <path
       style="color:#000000;font-style:normal;font-variant:normal;font-weight:normal;font-stretch:normal;font-size:medium;line-height:normal;font-family:sans-serif;text-indent:0;text-align:start;text-decoration:none;text-decoration-line:none;text-decoration-style:solid;text-decoration-color:#000000;letter-spacing:normal;word-spacing:normal;text-transform:none;direction:ltr;block-progression:tb;writing-mode:lr-tb;baseline-shift:baseline;text-anchor:start;white-space:normal;clip-rule:nonzero;display:inline;overflow:visible;visibility:visible;opacity:1;isolation:auto;mix-blend-mode:normal;color-interpolation:sRGB;color-interpolation-filters:linearRGB;solid-color:#000000;solid-opacity:1;fill:#000000;fill-opacity:1;fill-rule:evenodd;stroke:none;stroke-width:2;stroke-linecap:butt;stroke-linejoin:miter;stroke-miterlimit:4;stroke-dasharray:none;stroke-dashoffset:0;stroke-opacity:1;color-rendering:auto;image-rendering:auto;shape-rendering:auto;text-rendering:auto;enable-background:accumulate"
       d="m 37.879732,979.62904 -1.354984,0.28527 10.337554,16.51758 1.353579,-0.28608 -10.336149,-16.51677 z"
       id="path4329"
       inkscape:connector-curvature="0" />
    <path
       style="color:#000000;font-style:normal;font-variant:normal;font-weight:normal;font-stretch:normal;font-size:medium;line-height:normal;font-family:sans-serif;text-indent:0;text-align:start;text-decoration:none;text-decoration-line:none;text-decoration-style:solid;text-decoration-color:#000000;letter-spacing:normal;word-spacing:normal;text-transform:none;direction:ltr;block-progression:tb;writing-mode:lr-tb;baseline-shift:baseline;text-anchor:start;white-space:normal;clip-rule:nonzero;display:inline;overflow:visible;visibility:visible;opacity:1;isolation:auto;mix-blend-mode:normal;color-interpolation:sRGB;color-interpolation-filters:linearRGB;solid-color:#000000;solid-opacity:1;fill:#000000;fill-opacity:1;fill-rule:evenodd;stroke:none;stroke-width:2;stroke-linecap:butt;stroke-linejoin:miter;stroke-miterlimit:4;stroke-dasharray:none;stroke-dashoffset:0;stroke-opacity:1;color-rendering:auto;image-rendering:auto;shape-rendering:auto;text-rendering:auto;enable-background:accumulate"
       d="m 41.101866,968.08847 -1.156591,0.4986 12.211735,9.55679 1.156591,-0.49942 -12.211735,-9.55597 z"
       id="path4333"
       inkscape:connector-curvature="0" />
    <path
       style="color:#000000;font-style:normal;font-variant:normal;font-weight:normal;font-stretch:normal;font-size:medium;line-height:normal;font-family:sans-serif;text-indent:0;text-align:start;text-decoration:none;text-decoration-line:none;text-decoration-style:solid;text-decoration-color:#000000;letter-spacing:normal;word-spacing:normal;text-transform:none;direction:ltr;block-progression:tb;writing-mode:lr-tb;baseline-shift:baseline;text-anchor:start;white-space:normal;clip-rule:nonzero;display:inline;overflow:visible;visibility:visible;opacity:1;isolation:auto;mix-blend-mode:normal;color-interpolation:sRGB;color-interpolation-filters:linearRGB;solid-color:#000000;solid-opacity:1;fill:#000000;fill-opacity:1;fill-rule:evenodd;stroke:none;stroke-width:2;stroke-linecap:butt;stroke-linejoin:miter;stroke-miterlimit:4;stroke-dasharray:none;stroke-dashoffset:0;stroke-opacity:1;color-rendering:auto;image-rendering:auto;shape-rendering:auto;text-rendering:auto;enable-background:accumulate"
       d="m 52.403245,968.04924 -14.897786,9.56414 1.067945,0.56154 13.666618,-8.77374 10.042079,8.59882 1.191762,-0.46999 -11.070618,-9.48077 z"
       id="path4335"
       inkscape:connector-curvature="0" />
    <path
       style="color:#000000;font-style:normal;font-variant:normal;font-weight:normal;font-stretch:normal;font-size:medium;line-height:normal;font-family:sans-serif;text-indent:0;text-align:start;text-decoration:none;text-decoration-line:none;text-decoration-style:solid;text-decoration-color:#000000;letter-spacing:normal;word-spacing:normal;text-transform:none;direction:ltr;block-progression:tb;writing-mode:lr-tb;baseline-shift:baseline;text-anchor:start;white-space:normal;clip-rule:nonzero;display:inline;overflow:visible;visibility:visible;opacity:1;isolation:auto;mix-blend-mode:normal;color-interpolation:sRGB;color-interpolation-filters:linearRGB;solid-color:#000000;solid-opacity:1;fill:#000000;fill-opacity:1;fill-rule:evenodd;stroke:none;stroke-width:2;stroke-linecap:butt;stroke-linejoin:miter;stroke-miterlimit:4;stroke-dasharray:none;stroke-dashoffset:0;stroke-opacity:1;color-rendering:auto;image-rendering:auto;shape-rendering:auto;text-rendering:auto;enable-background:accumulate"
       d="m 59.09655,967.93481 -6.209286,9.81507 1.352175,0.28854 6.21069,-9.81508 -1.353579,-0.28853 z"
       id="path4337"
       inkscape:connector-curvature="0" />
    <path
       style="color:#000000;font-style:normal;font-variant:normal;font-weight:normal;font-stretch:normal;font-size:medium;line-height:normal;font-family:sans-serif;text-indent:0;text-align:start;text-decoration:none;text-decoration-line:none;text-decoration-style:solid;text-decoration-color:#000000;letter-spacing:normal;word-spacing:normal;text-transform:none;direction:ltr;block-progression:tb;writing-mode:lr-tb;baseline-shift:baseline;text-anchor:start;white-space:normal;clip-rule:nonzero;display:inline;overflow:visible;visibility:visible;opacity:1;isolation:auto;mix-blend-mode:normal;color-interpolation:sRGB;color-interpolation-filters:linearRGB;solid-color:#000000;solid-opacity:1;fill:#000000;fill-opacity:1;fill-rule:evenodd;stroke:none;stroke-width:2;stroke-linecap:butt;stroke-linejoin:miter;stroke-miterlimit:4;stroke-dasharray:none;stroke-dashoffset:0;stroke-opacity:1;color-rendering:auto;image-rendering:auto;shape-rendering:auto;text-rendering:auto;enable-background:accumulate"
       d="m 48.294672,967.66507 -1.053876,0.57053 14.696576,9.16853 1.053876,-0.56971 -14.696576,-9.16935 z"
       id="path4339"
       inkscape:connector-curvature="0" />
    <path
       style="color:#000000;font-style:normal;font-variant:normal;font-weight:normal;font-stretch:normal;font-size:medium;line-height:normal;font-family:sans-serif;text-indent:0;text-align:start;text-decoration:none;text-decoration-line:none;text-decoration-style:solid;text-decoration-color:#000000;letter-spacing:normal;word-spacing:normal;text-transform:none;direction:ltr;block-progression:tb;writing-mode:lr-tb;baseline-shift:baseline;text-anchor:start;white-space:normal;clip-rule:nonzero;display:inline;overflow:visible;visibility:visible;opacity:1;isolation:auto;mix-blend-mode:normal;color-interpolation:sRGB;color-interpolation-filters:linearRGB;solid-color:#000000;solid-opacity:1;fill:#000000;fill-opacity:1;fill-rule:evenodd;stroke:none;stroke-width:2;stroke-linecap:butt;stroke-linejoin:miter;stroke-miterlimit:4;stroke-dasharray:none;stroke-dashoffset:0;stroke-opacity:1;color-rendering:auto;image-rendering:auto;shape-rendering:auto;text-rendering:auto;enable-background:accumulate"
       d="m 58.772929,967.8359 -11.591228,9.42764 1.172066,0.48634 11.591234,-9.42764 -1.172072,-0.48634 z"
       id="path4341"
       inkscape:connector-curvature="0" />
    <path
       style="color:#000000;font-style:normal;font-variant:normal;font-weight:normal;font-stretch:normal;font-size:medium;line-height:normal;font-family:sans-serif;text-indent:0;text-align:start;text-decoration:none;text-decoration-line:none;text-decoration-style:solid;text-decoration-color:#000000;letter-spacing:normal;word-spacing:normal;text-transform:none;direction:ltr;block-progression:tb;writing-mode:lr-tb;baseline-shift:baseline;text-anchor:start;white-space:normal;clip-rule:nonzero;display:inline;overflow:visible;visibility:visible;opacity:1;isolation:auto;mix-blend-mode:normal;color-interpolation:sRGB;color-interpolation-filters:linearRGB;solid-color:#000000;solid-opacity:1;fill:#000000;fill-opacity:1;fill-rule:evenodd;stroke:none;stroke-width:2;stroke-linecap:butt;stroke-linejoin:miter;stroke-miterlimit:4;stroke-dasharray:none;stroke-dashoffset:0;stroke-opacity:1;color-rendering:auto;image-rendering:auto;shape-rendering:auto;text-rendering:auto;enable-background:accumulate"
       d="m 40.744472,968.39907 -1.270559,0.39398 8.072213,8.78192 1.27056,-0.3948 -8.072214,-8.7811 z"
       id="path4343"
       inkscape:connector-curvature="0" />
    <path
       inkscape:connector-curvature="0"
       id="path4428"
       style="color:#000000;visibility:visible;fill:#000000;fill-opacity:1;fill-rule:evenodd;stroke:none;stroke-width:1px;stroke-linecap:butt;stroke-linejoin:round;stroke-miterlimit:4;stroke-dasharray:none;stroke-dashoffset:0;stroke-opacity:1;marker:none"
       d="m 41.82506,968.41451 8.107392,0.2908 7.704316,-1.38547 -8.237295,-0.0463 z" />
    <path
       inkscape:connector-curvature="0"
       id="path4430"
       style="color:#000000;visibility:visible;fill:#000000;fill-opacity:1;fill-rule:evenodd;stroke:none;stroke-width:1px;stroke-linecap:butt;stroke-linejoin:round;stroke-miterlimit:4;stroke-dasharray:none;stroke-dashoffset:0;stroke-opacity:1;marker:none"
       d="m 41.82506,967.16584 0,1.24867 7.574413,-1.14101 0,-1.09079 z" />
    <path
       inkscape:connector-curvature="0"
       id="path4432"
       style="color:#000000;visibility:visible;fill:#000000;fill-opacity:1;fill-rule:evenodd;stroke:none;stroke-width:1px;stroke-linecap:butt;stroke-linejoin:round;stroke-miterlimit:4;stroke-dasharray:none;stroke-dashoffset:0;stroke-opacity:1;marker:none"
       d="m 49.399473,966.18271 8.237295,-0.14602 0,1.28315 -8.237295,-0.0463 z" />
    <path
       inkscape:connector-curvature="0"
       id="path4434"
       style="color:#000000;visibility:visible;fill:#000000;fill-opacity:1;fill-rule:evenodd;stroke:none;stroke-width:1px;stroke-linecap:butt;stroke-linejoin:round;stroke-miterlimit:4;stroke-dasharray:none;stroke-dashoffset:0;stroke-opacity:1;marker:none"
       d="m 41.82506,967.16584 8.107392,0.0322 7.704316,-1.16129 -8.237295,0.14602 z" />
    <path
       inkscape:connector-curvature="0"
       id="path4436"
       style="color:#000000;visibility:visible;fill:#000000;fill-opacity:1;fill-rule:evenodd;stroke:none;stroke-width:1px;stroke-linecap:butt;stroke-linejoin:round;stroke-miterlimit:4;stroke-dasharray:none;stroke-dashoffset:0;stroke-opacity:1;marker:none"
       d="m 49.932452,967.19798 0,1.50733 7.704316,-1.38547 0,-1.28315 z" />
    <path
       inkscape:connector-curvature="0"
       id="path4438"
       style="color:#000000;visibility:visible;fill:#000000;fill-opacity:1;fill-rule:evenodd;stroke:none;stroke-width:1px;stroke-linecap:butt;stroke-linejoin:round;stroke-miterlimit:4;stroke-dasharray:none;stroke-dashoffset:0;stroke-opacity:1;marker:none"
       d="m 41.82506,966.46285 8.107392,0.0469 0,2.19561 -8.107392,-0.42359 z" />
    <path
       style="color:#000000;font-style:normal;font-variant:normal;font-weight:normal;font-stretch:normal;font-size:medium;line-height:normal;font-family:sans-serif;text-indent:0;text-align:start;text-decoration:none;text-decoration-line:none;text-decoration-style:solid;text-decoration-color:#000000;letter-spacing:normal;word-spacing:normal;text-transform:none;direction:ltr;block-progression:tb;writing-mode:lr-tb;baseline-shift:baseline;text-anchor:start;white-space:normal;clip-rule:nonzero;display:inline;overflow:visible;visibility:visible;opacity:1;isolation:auto;mix-blend-mode:normal;color-interpolation:sRGB;color-interpolation-filters:linearRGB;solid-color:#000000;solid-opacity:1;fill:#1a1a1a;fill-opacity:1;fill-rule:evenodd;stroke:none;stroke-width:4;stroke-linecap:butt;stroke-linejoin:miter;stroke-miterlimit:4;stroke-dasharray:none;stroke-dashoffset:0;stroke-opacity:1;color-rendering:auto;image-rendering:auto;shape-rendering:auto;text-rendering:auto;enable-background:accumulate"
       d="m 39.917135,968.41706 -19.377814,62.45914 c 0.214077,0.484 2.21383,0.4831 2.835189,-0.076 l 19.377815,-62.08633 z"
       id="path4237"
       inkscape:connector-curvature="0"
       sodipodi:nodetypes="ccccc" />
  </g>
</svg>
