<?xml version="1.0" encoding="UTF-8" standalone="no"?>
<!-- Created with Inkscape (http://www.inkscape.org/) -->

<svg
   xmlns:dc="http://purl.org/dc/elements/1.1/"
   xmlns:cc="http://creativecommons.org/ns#"
   xmlns:rdf="http://www.w3.org/1999/02/22-rdf-syntax-ns#"
   xmlns:svg="http://www.w3.org/2000/svg"
   xmlns="http://www.w3.org/2000/svg"
   xmlns:sodipodi="http://sodipodi.sourceforge.net/DTD/sodipodi-0.dtd"
   xmlns:inkscape="http://www.inkscape.org/namespaces/inkscape"
   width="100"
   height="100"
   viewBox="0 0 99.999997 99.999997"
   id="svg5511"
   version="1.1"
   inkscape:version="0.91 r13725"
   sodipodi:docname="oil.svg">
  <defs
     id="defs5513" />
  <sodipodi:namedview
     id="base"
     pagecolor="#ffffff"
     bordercolor="#666666"
     borderopacity="1.0"
     inkscape:pageopacity="0.0"
     inkscape:pageshadow="2"
     inkscape:zoom="0.098889348"
     inkscape:cx="-695.86402"
     inkscape:cy="858.66667"
     inkscape:document-units="px"
     inkscape:current-layer="layer1"
     showgrid="false"
     inkscape:window-width="1440"
     inkscape:window-height="807"
     inkscape:window-x="0"
     inkscape:window-y="1"
     inkscape:window-maximized="1"
     units="px" />
  <metadata
     id="metadata5516">
    <rdf:RDF>
      <cc:Work
         rdf:about="">
        <dc:format>image/svg+xml</dc:format>
        <dc:type
           rdf:resource="http://purl.org/dc/dcmitype/StillImage" />
        <dc:title></dc:title>
      </cc:Work>
    </rdf:RDF>
  </metadata>
  <g
     inkscape:label="Layer 1"
     inkscape:groupmode="layer"
     id="layer1"
     transform="translate(0,-952.36223)">
    <path
       style="fill:#000000"
       d="m 31.030528,974.36237 c -0.021,0 -0.2051,0.22734 -0.4244,0.52069 l 0,-7.6e-4 c -0.087,0.1005 -0.6175,0.82326 -1.0435,1.40529 l 0,-0.0176 -0.01,0.0258 c -0.157,0.21455 -0.2912,0.39773 -0.3503,0.47872 -0.3732,0.42524 -1.1058,1.71422 -1.9204,3.40151 l -1.0461,2.16701 -0.6162,2.21901 -0.616,2.21902 -0.2129,2.29687 c -0.1763,1.90225 -0.2049,2.52429 -0.1662,3.6205 0.046,1.29343 0.2288,2.83848 0.4754,4.0098 0.1782,0.8469 0.1908,0.87619 0.3599,0.83198 0.1452,-0.038 0.1483,0.19131 0.1483,11.32149 l 0,11.3603 -1.9855,0 -1.9854,0 0,4.7884 0,4.7884 4.5548,0 4.5548,0 0,-4.7884 0,-4.7884 -1.9854,0 -1.9854,0 0,-11.4759 0,-11.47597 0.1796,-0.045 c 0.099,-0.0248 0.7539,-0.1698 1.4557,-0.32224 0.7019,-0.15244 1.2894,-0.29041 1.3056,-0.30658 0.016,-0.0162 -0.041,-0.35679 -0.1264,-0.75685 -0.2175,-1.01606 -0.3966,-2.53098 -0.4085,-3.4552 -0.016,-1.22002 0.3268,-4.86352 0.4572,-4.86352 0.092,0 18.3394,5.20972 18.3626,5.24279 0.01,0.007 -3.3974,8.18337 -7.5609,18.16967 l -7.5701,18.1569 0.7871,0.3296 c 0.433,0.1812 1.1377,0.4785 1.5659,0.6606 0.4282,0.1821 0.8,0.3071 0.8262,0.2778 0.026,-0.029 1.3519,-3.189 2.9459,-7.0217 1.594,-3.8327 2.9227,-6.9942 2.9526,-7.0257 0.03,-0.031 1.8225,0.6993 3.9837,1.6235 2.1611,0.9243 6.7148,2.8713 10.1192,4.3268 3.4044,1.4554 6.2294,2.687 6.2776,2.7368 0.048,0.05 0.552,1.2116 1.1196,2.582 0.5675,1.3703 1.0711,2.5677 1.119,2.6608 0.086,0.1673 0.1049,0.1619 1.634,-0.4827 0.8508,-0.3586 1.556,-0.6625 1.567,-0.6754 0.011,-0.013 -0.8996,-2.2307 -2.0235,-4.9286 -1.1238,-2.6978 -3.9963,-9.6001 -6.3833,-15.3384 -2.387,-5.7383 -4.7206,-11.34232 -5.1856,-12.45337 -0.465,-1.11106 -0.8338,-2.03183 -0.8195,-2.04611 0.028,-0.0284 10.3296,2.91584 10.3808,2.96704 0.017,0.0174 -0.1103,0.55074 -0.2838,1.18524 -0.1734,0.63451 -0.2894,1.17515 -0.2577,1.20151 0.081,0.0673 12.3617,4.90229 12.4518,4.90229 0.055,0 2.7499,-9.79063 2.7146,-9.86374 -0.012,-0.0259 -13.226,-2.36173 -13.2441,-2.34128 -0.01,0.0109 -0.1065,0.34721 -0.2152,0.74727 -0.1087,0.40006 -0.2193,0.74897 -0.2457,0.77541 -0.027,0.0264 -2.3327,-0.60641 -5.1251,-1.40635 -2.7924,-0.79993 -10.2275,-2.92881 -16.5225,-4.73091 -6.295,-1.80211 -11.6819,-3.34629 -11.971,-3.43148 -0.408,-0.12023 -0.5255,-0.18773 -0.5255,-0.30155 0,-0.0806 0.4025,-0.95555 0.8946,-1.94423 0.8388,-1.68529 0.9677,-1.89466 2.0633,-3.35179 0.6427,-0.85482 1.1686,-1.58412 1.1686,-1.62076 0,-0.0367 -0.1489,-0.17051 -0.3309,-0.29745 -0.066,-0.0458 -0.1211,-0.0816 -0.1732,-0.11086 l -1.3575,-1.03347 -0.019,-0.005 c -0.152,-0.12963 -0.371,-0.29987 -0.6818,-0.53468 -0.5528,-0.41752 -1.0247,-0.75914 -1.0489,-0.75914 z m 19.3446,21.85711 c 0.136,0.14624 4.2783,10.25042 4.2224,10.29962 -0.034,0.03 -2.3221,0.9573 -5.0842,2.0604 -2.7621,1.1031 -5.0705,2.0247 -5.1299,2.0481 -0.059,0.023 -0.094,0.01 -0.078,-0.038 0.4457,-1.1901 6.0305,-14.41238 6.0696,-14.37025 z m 5.5623,13.49122 c 0.043,10e-5 0.934,2.0586 1.9794,4.5745 1.0454,2.5158 2.0509,4.9334 2.2346,5.3723 0.1838,0.439 0.3092,0.7947 0.2788,0.7905 -0.045,-0.01 -14.3558,-6.1469 -14.9539,-6.4166 -0.148,-0.067 0.6185,-0.3971 5.1043,-2.1997 2.9031,-1.1667 5.3136,-2.1211 5.3568,-2.121 z"
       id="path6162"
       inkscape:connector-curvature="0" />
  </g>
</svg>
