<?xml version="1.0" encoding="UTF-8" standalone="no"?>
<!-- Created with Inkscape (http://www.inkscape.org/) -->

<svg
   xmlns:dc="http://purl.org/dc/elements/1.1/"
   xmlns:cc="http://creativecommons.org/ns#"
   xmlns:rdf="http://www.w3.org/1999/02/22-rdf-syntax-ns#"
   xmlns:svg="http://www.w3.org/2000/svg"
   xmlns="http://www.w3.org/2000/svg"
   xmlns:sodipodi="http://sodipodi.sourceforge.net/DTD/sodipodi-0.dtd"
   xmlns:inkscape="http://www.inkscape.org/namespaces/inkscape"
   width="100"
   height="100"
   viewBox="0 0 100 100"
   id="svg4162"
   version="1.1"
   inkscape:version="0.91 r13725"
   sodipodi:docname="smog.svg">
  <defs
     id="defs4164" />
  <sodipodi:namedview
     id="base"
     pagecolor="#ffffff"
     bordercolor="#666666"
     borderopacity="1.0"
     inkscape:pageopacity="0.0"
     inkscape:pageshadow="2"
     inkscape:zoom="5.69"
     inkscape:cx="50"
     inkscape:cy="50"
     inkscape:document-units="px"
     inkscape:current-layer="layer1"
     showgrid="false"
     units="px"
     inkscape:window-width="1440"
     inkscape:window-height="807"
     inkscape:window-x="0"
     inkscape:window-y="1"
     inkscape:window-maximized="1" />
  <metadata
     id="metadata4167">
    <rdf:RDF>
      <cc:Work
         rdf:about="">
        <dc:format>image/svg+xml</dc:format>
        <dc:type
           rdf:resource="http://purl.org/dc/dcmitype/StillImage" />
        <dc:title></dc:title>
      </cc:Work>
    </rdf:RDF>
  </metadata>
  <g
     inkscape:label="Layer 1"
     inkscape:groupmode="layer"
     id="layer1"
     transform="translate(0,-952.36216)">
    <path
       style="color:#000000;display:inline;overflow:visible;visibility:visible;opacity:0.5;fill:#1a1a1a;fill-opacity:1;fill-rule:nonzero;stroke:none;stroke-width:4;stroke-linecap:round;stroke-linejoin:round;stroke-miterlimit:4;stroke-dasharray:none;stroke-dashoffset:0;stroke-opacity:1;marker:none;enable-background:accumulate"
       d="M 56.326172 9.6660156 A 17.135324 7.8207383 0 0 0 39.191406 17.486328 A 17.135324 7.8207383 0 0 0 39.216797 17.806641 A 35.061512 9.7539539 0 0 0 15.992188 26.976562 A 35.061512 9.7539539 0 0 0 27.222656 34.115234 A 29.876978 6.1511421 0 0 0 4.7460938 40.070312 A 29.876978 6.1511421 0 0 0 11.503906 43.960938 A 10.281195 12.565906 0 0 0 5.9746094 55.095703 A 10.281195 12.565906 0 0 0 16.255859 67.662109 A 10.281195 12.565906 0 0 0 18.373047 67.378906 A 18.365553 10.193321 0 0 0 14.236328 73.814453 A 18.365553 10.193321 0 0 0 32.601562 84.007812 A 18.365553 10.193321 0 0 0 42.992188 82.205078 A 21.441124 15.026362 0 0 0 63.621094 93.146484 A 21.441124 15.026362 0 0 0 85.060547 78.119141 A 21.441124 15.026362 0 0 0 84.316406 74.216797 A 13.796134 8.611599 0 0 0 95.78125 65.728516 A 13.796134 8.611599 0 0 0 90.488281 58.958984 A 26.537786 11.775043 0 0 0 94.552734 52.724609 A 26.537786 11.775043 0 0 0 84.042969 43.359375 A 15.641477 8.4358521 0 0 0 89.630859 36.90625 A 15.641477 8.4358521 0 0 0 83.873047 30.375 A 35.061512 9.7539539 0 0 0 86.115234 26.976562 A 35.061512 9.7539539 0 0 0 72.9375 19.369141 A 17.135324 7.8207383 0 0 0 73.462891 17.486328 A 17.135324 7.8207383 0 0 0 56.326172 9.6660156 z M 23.109375 45.746094 A 29.876978 6.1511421 0 0 0 23.314453 45.761719 A 18.453426 6.2390156 0 0 0 23.185547 45.832031 A 10.281195 12.565906 0 0 0 23.109375 45.746094 z "
       transform="translate(0,952.36216)"
       id="path4710" />
  </g>
</svg>
