<?xml version="1.0" encoding="UTF-8" standalone="no"?>
<!-- Created with Inkscape (http://www.inkscape.org/) -->

<svg
   xmlns:dc="http://purl.org/dc/elements/1.1/"
   xmlns:cc="http://creativecommons.org/ns#"
   xmlns:rdf="http://www.w3.org/1999/02/22-rdf-syntax-ns#"
   xmlns:svg="http://www.w3.org/2000/svg"
   xmlns="http://www.w3.org/2000/svg"
   xmlns:sodipodi="http://sodipodi.sourceforge.net/DTD/sodipodi-0.dtd"
   xmlns:inkscape="http://www.inkscape.org/namespaces/inkscape"
   width="100mm"
   height="100mm"
   viewBox="0 0 354.33071 354.33071"
   id="svg10567"
   version="1.1"
   inkscape:version="0.91 r13725"
   sodipodi:docname="wind.svg">
  <defs
     id="defs10569" />
  <sodipodi:namedview
     id="base"
     pagecolor="#ffffff"
     bordercolor="#666666"
     borderopacity="1.0"
     inkscape:pageopacity="0.0"
     inkscape:pageshadow="2"
     inkscape:zoom="0.97645064"
     inkscape:cx="182.45069"
     inkscape:cy="116.21171"
     inkscape:document-units="px"
     inkscape:current-layer="layer1"
     showgrid="false"
     inkscape:window-width="1440"
     inkscape:window-height="807"
     inkscape:window-x="0"
     inkscape:window-y="1"
     inkscape:window-maximized="1" />
  <metadata
     id="metadata10572">
    <rdf:RDF>
      <cc:Work
         rdf:about="">
        <dc:format>image/svg+xml</dc:format>
        <dc:type
           rdf:resource="http://purl.org/dc/dcmitype/StillImage" />
        <dc:title></dc:title>
      </cc:Work>
    </rdf:RDF>
  </metadata>
  <g
     inkscape:label="Layer 1"
     inkscape:groupmode="layer"
     id="layer1"
     transform="translate(0,-698.0315)">
    <g
       id="g11126"
       transform="matrix(0.54745172,0,0,0.54745172,74.927102,316.56227)">
      <path
         inkscape:connector-curvature="0"
         id="path11115"
         d="m 212.97206,868.03552 c 0,0 1.24545,-129.52686 1.24545,-135.75412 0,-6.22725 -4.9818,-25.53174 -4.9818,-25.53174 l -9.34088,0 -16.81359,177.47672 c 0,0 17.43631,11.20906 17.43631,14.94541 0,3.73635 0,29.26809 0,29.26809 l 9.96361,1.24545 z"
         style="fill:#f8f8f8;fill-opacity:1;fill-rule:evenodd;stroke:none;stroke-width:1px;stroke-linecap:butt;stroke-linejoin:miter;stroke-opacity:1" />
      <path
         id="rect11117"
         transform="translate(0,698.0315)"
         d="m 196.53125,44.212891 -1.29687,13.701171 18.77343,0 c 0.0341,-3.96164 0.10508,-11.510724 0.1211,-13.701171 l -17.59766,0 z m -2.94922,31.136718 -1.29687,13.699219 21.44726,0 c 0.0578,-6.239371 0.0708,-8.163541 0.1211,-13.699219 l -20.27149,0 z"
         style="color:#000000;display:inline;overflow:visible;visibility:visible;opacity:1;fill:#ff0000;fill-opacity:1;fill-rule:nonzero;stroke:none;stroke-width:1;stroke-linecap:round;stroke-linejoin:round;stroke-miterlimit:4;stroke-dasharray:none;stroke-dashoffset:0;stroke-opacity:1;marker:none;enable-background:accumulate"
         inkscape:connector-curvature="0" />
    </g>
    <g
       transform="matrix(-0.27530611,0.47319122,-0.47319122,-0.27530611,683.55705,987.44585)"
       id="g11130"
       inkscape:transform-center-x="-53.574163"
       inkscape:transform-center-y="32.278653">
      <path
         style="fill:#f8f8f8;fill-opacity:1;fill-rule:evenodd;stroke:none;stroke-width:1px;stroke-linecap:butt;stroke-linejoin:miter;stroke-opacity:1"
         d="m 212.97206,868.03552 c 0,0 1.24545,-129.52686 1.24545,-135.75412 0,-6.22725 -4.9818,-25.53174 -4.9818,-25.53174 l -9.34088,0 -16.81359,177.47672 c 0,0 17.43631,11.20906 17.43631,14.94541 0,3.73635 0,29.26809 0,29.26809 l 9.96361,1.24545 z"
         id="path11132"
         inkscape:connector-curvature="0" />
      <path
         inkscape:connector-curvature="0"
         style="color:#000000;display:inline;overflow:visible;visibility:visible;opacity:1;fill:#ff0000;fill-opacity:1;fill-rule:nonzero;stroke:none;stroke-width:1;stroke-linecap:round;stroke-linejoin:round;stroke-miterlimit:4;stroke-dasharray:none;stroke-dashoffset:0;stroke-opacity:1;marker:none;enable-background:accumulate"
         d="m 196.53125,44.212891 -1.29687,13.701171 18.77343,0 c 0.0341,-3.96164 0.10508,-11.510724 0.1211,-13.701171 l -17.59766,0 z m -2.94922,31.136718 -1.29687,13.699219 21.44726,0 c 0.0578,-6.239371 0.0708,-8.163541 0.1211,-13.699219 l -20.27149,0 z"
         transform="translate(0,698.0315)"
         id="path11134" />
    </g>
    <g
       inkscape:transform-center-y="31.331734"
       inkscape:transform-center-x="54.323846"
       id="g11136"
       transform="matrix(-0.28136371,-0.46961457,0.46961457,-0.28136371,-194.31337,1184.9319)">
      <path
         inkscape:connector-curvature="0"
         id="path11138"
         d="m 212.97206,868.03552 c 0,0 1.24545,-129.52686 1.24545,-135.75412 0,-6.22725 -4.9818,-25.53174 -4.9818,-25.53174 l -9.34088,0 -16.81359,177.47672 c 0,0 17.43631,11.20906 17.43631,14.94541 0,3.73635 0,29.26809 0,29.26809 l 9.96361,1.24545 z"
         style="fill:#f8f8f8;fill-opacity:1;fill-rule:evenodd;stroke:none;stroke-width:1px;stroke-linecap:butt;stroke-linejoin:miter;stroke-opacity:1" />
      <path
         id="path11140"
         transform="translate(0,698.0315)"
         d="m 196.53125,44.212891 -1.29687,13.701171 18.77343,0 c 0.0341,-3.96164 0.10508,-11.510724 0.1211,-13.701171 l -17.59766,0 z m -2.94922,31.136718 -1.29687,13.699219 21.44726,0 c 0.0578,-6.239371 0.0708,-8.163541 0.1211,-13.699219 l -20.27149,0 z"
         style="color:#000000;display:inline;overflow:visible;visibility:visible;opacity:1;fill:#ff0000;fill-opacity:1;fill-rule:nonzero;stroke:none;stroke-width:1;stroke-linecap:round;stroke-linejoin:round;stroke-miterlimit:4;stroke-dasharray:none;stroke-dashoffset:0;stroke-opacity:1;marker:none;enable-background:accumulate"
         inkscape:connector-curvature="0" />
    </g>
    <path
       style="fill:#f8f8f8;fill-opacity:1;fill-rule:evenodd;stroke:none;stroke-width:1px;stroke-linecap:butt;stroke-linejoin:miter;stroke-opacity:1"
       d="m 184.48603,822.46624 -9.96289,205.49806 6.5,0 7.19921,0 6.50196,0 -9.96485,-205.49806 -0.13672,7.51953 -0.13671,-7.51953 z"
       id="path11142"
       inkscape:connector-curvature="0" />
  </g>
</svg>
