<?xml version="1.0" encoding="UTF-8" standalone="no"?>
<!-- Created with Inkscape (http://www.inkscape.org/) -->

<svg
   xmlns:dc="http://purl.org/dc/elements/1.1/"
   xmlns:cc="http://creativecommons.org/ns#"
   xmlns:rdf="http://www.w3.org/1999/02/22-rdf-syntax-ns#"
   xmlns:svg="http://www.w3.org/2000/svg"
   xmlns="http://www.w3.org/2000/svg"
   xmlns:xlink="http://www.w3.org/1999/xlink"
   xmlns:sodipodi="http://sodipodi.sourceforge.net/DTD/sodipodi-0.dtd"
   xmlns:inkscape="http://www.inkscape.org/namespaces/inkscape"
   width="100"
   height="100"
   viewBox="0 0 99.999997 99.999997"
   id="svg2"
   version="1.1"
   inkscape:version="0.91 r13725"
   sodipodi:docname="water_murky.svg">
  <defs
     id="defs4" />
  <sodipodi:namedview
     id="base"
     pagecolor="#ffffff"
     bordercolor="#666666"
     borderopacity="1.0"
     inkscape:pageopacity="0.0"
     inkscape:pageshadow="2"
     inkscape:zoom="4.0234376"
     inkscape:cx="-3.6854358"
     inkscape:cy="69.883495"
     inkscape:document-units="px"
     inkscape:current-layer="layer1"
     showgrid="false"
     units="px"
     inkscape:window-width="1440"
     inkscape:window-height="807"
     inkscape:window-x="0"
     inkscape:window-y="1"
     inkscape:window-maximized="1" />
  <metadata
     id="metadata7">
    <rdf:RDF>
      <cc:Work
         rdf:about="">
        <dc:format>image/svg+xml</dc:format>
        <dc:type
           rdf:resource="http://purl.org/dc/dcmitype/StillImage" />
        <dc:title></dc:title>
      </cc:Work>
    </rdf:RDF>
  </metadata>
  <g
     inkscape:label="Layer 1"
     inkscape:groupmode="layer"
     id="layer1"
     transform="translate(0,-952.36223)">
    <rect
       style="color:#000000;display:inline;overflow:visible;visibility:visible;opacity:1;fill:#4c864e;fill-opacity:1;fill-rule:nonzero;stroke:none;stroke-width:1;stroke-linecap:round;stroke-linejoin:round;stroke-miterlimit:4;stroke-dasharray:none;stroke-dashoffset:0;stroke-opacity:1;marker:none;enable-background:accumulate"
       id="rect4136"
       width="100"
       height="100"
       x="0"
       y="952.36224" />
    <path
       style="color:#000000;display:inline;overflow:visible;visibility:visible;opacity:0.5;fill:#6c5353;fill-opacity:1;fill-rule:nonzero;stroke:none;stroke-width:4;stroke-linecap:round;stroke-linejoin:round;stroke-miterlimit:4;stroke-dasharray:none;stroke-dashoffset:0;stroke-opacity:1;marker:none;enable-background:accumulate"
       d="m 22.142411,954.98315 a 1.3169961,1.4978441 0 0 0 -1.3164,1.49805 1.3169961,1.4978441 0 0 0 1.3164,1.49804 1.3169961,1.4978441 0 0 0 1.31641,-1.49804 1.3169961,1.4978441 0 0 0 -1.31641,-1.49805 z m 55.007817,1.24609 a 1.3169961,1.4978441 0 0 0 -1.318359,1.49805 1.3169961,1.4978441 0 0 0 1.318359,1.49805 1.3169961,1.4978441 0 0 0 1.316406,-1.49805 1.3169961,1.4978441 0 0 0 -1.316406,-1.49805 z m -46.781247,0.0332 a 1.1418347,1.7276187 61.735467 0 0 -1.38672,0.54687 1.1418347,1.7276187 61.735467 0 0 -0.38867,1.80664 1.1418347,1.7276187 61.735467 0 0 2.25195,-0.31055 1.1418347,1.7276187 61.735467 0 0 0.38672,-1.80664 1.1418347,1.7276187 61.735467 0 0 -0.86328,-0.23632 z m 28.72265,1.14843 a 1.7276187,1.1418347 28.264533 0 0 -0.71093,0.23633 1.7276187,1.1418347 28.264533 0 0 0.38671,1.80664 1.7276187,1.1418347 28.264533 0 0 2.25196,0.31055 1.7276187,1.1418347 28.264533 0 0 -0.38867,-1.80664 1.7276187,1.1418347 28.264533 0 0 -1.53907,-0.54688 z m -22.41406,1.625 a 0.82193737,1.2436077 61.735463 0 0 -0.99609,0.39453 0.82193737,1.2436077 61.735463 0 0 -0.2793,1.29883 0.82193737,1.2436077 61.735463 0 0 1.61914,-0.22265 0.82193737,1.2436077 61.735463 0 0 0.2793,-1.30078 0.82193737,1.2436077 61.735463 0 0 -0.62305,-0.16993 z m 45.060548,0.10743 a 1.3169961,1.4978441 0 0 0 -1.31836,1.49804 1.3169961,1.4978441 0 0 0 1.31836,1.49805 1.3169961,1.4978441 0 0 0 1.316406,-1.49805 1.3169961,1.4978441 0 0 0 -1.316406,-1.49804 z m -64.810548,0.084 a 1.3169961,1.4978441 0 0 0 -1.31641,1.49805 1.3169961,1.4978441 0 0 0 1.31641,1.49609 1.3169961,1.4978441 0 0 0 1.31836,-1.49609 1.3169961,1.4978441 0 0 0 -1.31836,-1.49805 z m 49.335938,0.0234 a 1.3169961,1.4978441 0 0 0 -1.316408,1.49609 1.3169961,1.4978441 0 0 0 1.316408,1.49805 1.3169961,1.4978441 0 0 0 1.31836,-1.49805 1.3169961,1.4978441 0 0 0 -1.31836,-1.49609 z m 5.353516,0.0703 a 1.2436077,0.82193737 28.264537 0 0 -0.513672,0.16992 1.2436077,0.82193737 28.264537 0 0 0.279297,1.30078 1.2436077,0.82193737 28.264537 0 0 1.621093,0.22266 1.2436077,0.82193737 28.264537 0 0 -0.279296,-1.30078 1.2436077,0.82193737 28.264537 0 0 -1.107422,-0.39258 z m -47.140624,0.28125 a 1.3169961,1.4978441 0 0 0 -1.31641,1.49805 1.3169961,1.4978441 0 0 0 1.31641,1.49804 1.3169961,1.4978441 0 0 0 1.31836,-1.49804 1.3169961,1.4978441 0 0 0 -1.31836,-1.49805 z m 30.74414,1.50195 a 1.1418347,1.7276187 61.735467 0 0 -1.53711,0.54883 1.1418347,1.7276187 61.735467 0 0 -0.38867,1.80664 1.1418347,1.7276187 61.735467 0 0 2.25,-0.3125 1.1418347,1.7276187 61.735467 0 0 0.38867,-1.80664 1.1418347,1.7276187 61.735467 0 0 -0.71289,-0.23633 z m 21.480468,0.57032 a 1.3169961,1.4978441 0 0 0 -1.316406,1.49804 1.3169961,1.4978441 0 0 0 1.316406,1.49805 1.3169961,1.4978441 0 0 0 1.31836,-1.49805 1.3169961,1.4978441 0 0 0 -1.31836,-1.49804 z m -36.312498,0.35546 a 1.3169961,1.4978441 0 0 0 -1.31641,1.49805 1.3169961,1.4978441 0 0 0 1.31641,1.49805 1.3169961,1.4978441 0 0 0 1.3164,-1.49805 1.3169961,1.4978441 0 0 0 -1.3164,-1.49805 z m 20.24414,0.0508 a 3.7733096,3.1717539 61.967937 0 0 -0.32031,0.0371 3.7733096,3.1717539 61.967937 0 0 -2.2168,4.1504 3.7733096,3.1717539 61.967937 0 0 4.13086,3.0664 3.7733096,3.1717539 61.967937 0 0 2.21484,-4.15039 3.7733096,3.1717539 61.967937 0 0 -3.80859,-3.10351 z m -28.41602,0.0527 a 1.3169961,1.4978441 0 0 0 -1.3164,1.49805 1.3169961,1.4978441 0 0 0 1.3164,1.49804 1.3169961,1.4978441 0 0 0 1.31641,-1.49804 1.3169961,1.4978441 0 0 0 -1.31641,-1.49805 z m 15.46875,0.65234 a 1.7276187,1.1418347 28.264533 0 0 -0.71289,0.23633 1.7276187,1.1418347 28.264533 0 0 0.38867,1.80664 1.7276187,1.1418347 28.264533 0 0 2.25,0.31055 1.7276187,1.1418347 28.264533 0 0 -0.38867,-1.80664 1.7276187,1.1418347 28.264533 0 0 -1.53711,-0.54688 z m -36.32812,0.69336 a 1.3169961,1.4978441 0 0 0 -1.31641,1.49805 1.3169961,1.4978441 0 0 0 1.31641,1.49609 1.3169961,1.4978441 0 0 0 1.3164,-1.49609 1.3169961,1.4978441 0 0 0 -1.3164,-1.49805 z m 59.570311,0.043 a 2.2254062,2.5309958 0 0 0 -2.22461,2.53125 2.2254062,2.5309958 0 0 0 2.22461,2.53125 2.2254062,2.5309958 0 0 0 2.224609,-2.53125 2.2254062,2.5309958 0 0 0 -2.224609,-2.53125 z m 10.923828,0.48242 a 1.3169961,1.4978441 0 0 0 -1.31836,1.49805 1.3169961,1.4978441 0 0 0 1.31836,1.49805 1.3169961,1.4978441 0 0 0 1.316406,-1.49805 1.3169961,1.4978441 0 0 0 -1.316406,-1.49805 z m -62.189449,0.35352 a 1.3888762,2.1013974 61.735465 0 0 -1.68555,0.66601 1.3888762,2.1013974 61.735465 0 0 -0.47266,2.19727 1.3888762,2.1013974 61.735465 0 0 2.73828,-0.37891 1.3888762,2.1013974 61.735465 0 0 0.47266,-2.19726 1.3888762,2.1013974 61.735465 0 0 -1.05273,-0.28711 z m 6.66601,0.10156 a 2.2254062,2.5309958 0 0 0 -2.22656,2.53125 2.2254062,2.5309958 0 0 0 2.22656,2.53125 2.2254062,2.5309958 0 0 0 2.22461,-2.53125 2.2254062,2.5309958 0 0 0 -2.22461,-2.53125 z m 19.74219,1.19727 a 2.2254062,2.5309958 0 0 0 -2.22461,2.53125 2.2254062,2.5309958 0 0 0 2.22461,2.53125 2.2254062,2.5309958 0 0 0 2.22656,-2.53125 2.2254062,2.5309958 0 0 0 -2.22656,-2.53125 z m 7.22461,0.34179 a 1.3169961,1.4978441 0 0 0 -1.31641,1.49805 1.3169961,1.4978441 0 0 0 1.31641,1.49805 1.3169961,1.4978441 0 0 0 1.3164,-1.49805 1.3169961,1.4978441 0 0 0 -1.3164,-1.49805 z m -14.90235,0.46289 a 0.82193737,1.2436077 61.735463 0 0 -0.99609,0.39258 0.82193737,1.2436077 61.735463 0 0 -0.2793,1.30078 0.82193737,1.2436077 61.735463 0 0 1.61914,-0.22461 0.82193737,1.2436077 61.735463 0 0 0.2793,-1.29882 0.82193737,1.2436077 61.735463 0 0 -0.62305,-0.16993 z m 39.394536,0.52149 a 2.1013974,1.3888762 28.264535 0 0 -0.865235,0.28711 2.1013974,1.3888762 28.264535 0 0 0.472657,2.19922 2.1013974,1.3888762 28.264535 0 0 2.736328,0.3789 2.1013974,1.3888762 28.264535 0 0 -0.472657,-2.19922 2.1013974,1.3888762 28.264535 0 0 -1.871093,-0.66601 z m 7.966796,0.35351 a 1.7849815,1.2833905 37.525646 0 0 -0.505859,0.13282 1.7849815,1.2833905 37.525646 0 0 -0.0957,1.97461 1.7849815,1.2833905 37.525646 0 0 2.285156,0.73437 1.7849815,1.2833905 37.525646 0 0 0.0957,-1.97461 1.7849815,1.2833905 37.525646 0 0 -1.779297,-0.86719 z m -53.416012,0.72461 a 2.9192593,1.9294256 28.264531 0 0 -1.20313,0.40039 2.9192593,1.9294256 28.264531 0 0 0.6543,3.05274 2.9192593,1.9294256 28.264531 0 0 3.80273,0.52539 2.9192593,1.9294256 28.264531 0 0 -0.65429,-3.05273 2.9192593,1.9294256 28.264531 0 0 -2.59961,-0.92579 z m -25.01758,0.52149 a 1.3169961,1.4978441 0 0 0 -1.31641,1.49805 1.3169961,1.4978441 0 0 0 1.31641,1.49804 1.3169961,1.4978441 0 0 0 1.31641,-1.49804 1.3169961,1.4978441 0 0 0 -1.31641,-1.49805 z m 7.04883,0.0117 a 1.2833905,1.7849815 52.474354 0 0 -1.625,0.86718 1.2833905,1.7849815 52.474354 0 0 0.0957,1.97461 1.2833905,1.7849815 52.474354 0 0 2.28516,-0.73437 1.2833905,1.7849815 52.474354 0 0 -0.09571,-1.97461 1.2833905,1.7849815 52.474354 0 0 -0.66015,-0.13281 z m 52.482419,0.62109 a 1.9294256,2.9192593 61.735469 0 0 -2.599609,0.92578 1.9294256,2.9192593 61.735469 0 0 -0.6543,3.05274 1.9294256,2.9192593 61.735469 0 0 3.802737,-0.52539 1.9294256,2.9192593 61.735469 0 0 0.65625,-3.05469 1.9294256,2.9192593 61.735469 0 0 -1.205078,-0.39844 z m -15.408199,0.14649 a 2.2254062,2.5309958 0 0 0 -2.22657,2.53125 2.2254062,2.5309958 0 0 0 2.22657,2.53125 2.2254062,2.5309958 0 0 0 2.2246,-2.53125 2.2254062,2.5309958 0 0 0 -2.2246,-2.53125 z m 6.80859,0.20117 a 1.2436077,0.82193737 28.264537 0 0 -0.51367,0.16992 1.2436077,0.82193737 28.264537 0 0 0.27929,1.30078 1.2436077,0.82193737 28.264537 0 0 1.6211,0.22266 1.2436077,0.82193737 28.264537 0 0 -0.2793,-1.29883 1.2436077,0.82193737 28.264537 0 0 -1.10742,-0.39453 z m -37.24414,0.36328 a 0.82193737,1.2436077 61.735463 0 0 -0.99609,0.39453 0.82193737,1.2436077 61.735463 0 0 -0.2793,1.29883 0.82193737,1.2436077 61.735463 0 0 1.61914,-0.22266 0.82193737,1.2436077 61.735463 0 0 0.2793,-1.30078 0.82193737,1.2436077 61.735463 0 0 -0.62305,-0.16992 z m 19.62891,0.19336 a 1.3169961,1.4978441 0 0 0 -1.31641,1.49804 1.3169961,1.4978441 0 0 0 1.31641,1.49805 1.3169961,1.4978441 0 0 0 1.3164,-1.49805 1.3169961,1.4978441 0 0 0 -1.3164,-1.49804 z m 33.812495,0.0117 a 1.8770449,2.2330458 28.032062 0 0 -2.058594,1.83593 1.8770449,2.2330458 28.032062 0 0 1.310547,2.45508 1.8770449,2.2330458 28.032062 0 0 2.44336,-1.81445 1.8770449,2.2330458 28.032062 0 0 -1.310547,-2.45508 1.8770449,2.2330458 28.032062 0 0 -0.384766,-0.0215 z m -18.855465,0.34765 a 1.3169961,1.4978441 0 0 0 -1.31641,1.49805 1.3169961,1.4978441 0 0 0 1.31641,1.49805 1.3169961,1.4978441 0 0 0 1.3164,-1.49805 1.3169961,1.4978441 0 0 0 -1.3164,-1.49805 z m -29.53711,0.0293 a 2.2330458,1.8770449 61.967938 0 0 -0.18946,0.0195 2.2330458,1.8770449 61.967938 0 0 -1.3125,2.45703 2.2330458,1.8770449 61.967938 0 0 2.44532,1.81446 2.2330458,1.8770449 61.967938 0 0 1.31054,-2.45704 2.2330458,1.8770449 61.967938 0 0 -2.2539,-1.83398 z m 59.999997,0.78906 a 2.2254062,2.5309958 0 0 0 -2.224609,2.53125 2.2254062,2.5309958 0 0 0 2.224609,2.53125 2.2254062,2.5309958 0 0 0 2.226562,-2.53125 2.2254062,2.5309958 0 0 0 -2.226562,-2.53125 z m 6.228515,0.1211 a 1.3169961,1.4978441 0 0 0 -1.316406,1.49804 1.3169961,1.4978441 0 0 0 1.316406,1.49805 1.3169961,1.4978441 0 0 0 1.31836,-1.49805 1.3169961,1.4978441 0 0 0 -1.31836,-1.49804 z m -45.869142,0.0215 a 3.1717539,3.7733096 28.032063 0 0 -3.48047,3.10352 3.1717539,3.7733096 28.032063 0 0 2.21485,4.15039 3.1717539,3.7733096 28.032063 0 0 4.13086,-3.06641 3.1717539,3.7733096 28.032063 0 0 -2.21485,-4.15039 3.1717539,3.7733096 28.032063 0 0 -0.65039,-0.0371 z m 33.759768,0.26953 a 1.2436077,0.82193737 28.264537 0 0 -0.511719,0.16992 1.2436077,0.82193737 28.264537 0 0 0.279297,1.30078 1.2436077,0.82193737 28.264537 0 0 1.61914,0.22266 1.2436077,0.82193737 28.264537 0 0 -0.279297,-1.30078 1.2436077,0.82193737 28.264537 0 0 -1.107421,-0.39258 z m -62.748048,0.3711 a 2.2254062,2.5309958 0 0 0 -2.22656,2.53125 2.2254062,2.5309958 0 0 0 2.22656,2.53125 2.2254062,2.5309958 0 0 0 2.22461,-2.53125 2.2254062,2.5309958 0 0 0 -2.22461,-2.53125 z m 42.32227,0.76953 a 2.1013974,1.3888762 28.264535 0 0 -0.86524,0.28711 2.1013974,1.3888762 28.264535 0 0 0.4707,2.19726 2.1013974,1.3888762 28.264535 0 0 2.73829,0.37891 2.1013974,1.3888762 28.264535 0 0 -0.47266,-2.19727 2.1013974,1.3888762 28.264535 0 0 -1.87109,-0.66601 z m -49.65039,0.4082 a 3.8752264,3.2574227 61.967935 0 0 -0.33008,0.0371 3.8752264,3.2574227 61.967935 0 0 -2.27539,4.26367 3.8752264,3.2574227 61.967935 0 0 4.24218,3.14844 3.8752264,3.2574227 61.967935 0 0 2.2754,-4.26367 3.8752264,3.2574227 61.967935 0 0 -3.91211,-3.18555 z m 27.625,0.25586 a 1.3888762,2.1013974 61.735465 0 0 -1.8711,0.66601 1.3888762,2.1013974 61.735465 0 0 -0.4707,2.19922 1.3888762,2.1013974 61.735465 0 0 2.73633,-0.3789 1.3888762,2.1013974 61.735465 0 0 0.47265,-2.19922 1.3888762,2.1013974 61.735465 0 0 -0.86718,-0.28711 z m -33.66797,0.6543 a 1.1418347,1.7276187 61.735467 0 0 -1.38672,0.54687 1.1418347,1.7276187 61.735467 0 0 -0.38672,1.80664 1.1418347,1.7276187 61.735467 0 0 2.25,-0.31055 1.1418347,1.7276187 61.735467 0 0 0.38867,-1.80859 1.1418347,1.7276187 61.735467 0 0 -0.86523,-0.23437 z m 28.87109,0.0352 a 1.1418347,1.7276187 61.735467 0 0 -1.38477,0.54688 1.1418347,1.7276187 61.735467 0 0 -0.38867,1.80664 1.1418347,1.7276187 61.735467 0 0 2.25,-0.3125 1.1418347,1.7276187 61.735467 0 0 0.38867,-1.80664 1.1418347,1.7276187 61.735467 0 0 -0.86523,-0.23438 z m -11.08594,0.13086 a 0.82193737,1.2436077 61.735463 0 0 -0.99609,0.39258 0.82193737,1.2436077 61.735463 0 0 -0.2793,1.30078 0.82193737,1.2436077 61.735463 0 0 1.61914,-0.22266 0.82193737,1.2436077 61.735463 0 0 0.2793,-1.30078 0.82193737,1.2436077 61.735463 0 0 -0.62305,-0.16992 z m 32.62891,0.39063 a 1.3169961,1.4978441 0 0 0 -1.31836,1.49804 1.3169961,1.4978441 0 0 0 1.31836,1.49805 1.3169961,1.4978441 0 0 0 1.31641,-1.49805 1.3169961,1.4978441 0 0 0 -1.31641,-1.49804 z m 21.970702,0.22851 a 1.2436077,0.82193737 28.264537 0 0 -0.513671,0.16992 1.2436077,0.82193737 28.264537 0 0 0.279297,1.30079 1.2436077,0.82193737 28.264537 0 0 1.621093,0.2246 1.2436077,0.82193737 28.264537 0 0 -0.279297,-1.30078 1.2436077,0.82193737 28.264537 0 0 -1.107422,-0.39453 z m -10.750002,0.34961 a 1.7276187,1.1418347 28.264533 0 0 -0.71094,0.23633 1.7276187,1.1418347 28.264533 0 0 0.38672,1.80664 1.7276187,1.1418347 28.264533 0 0 2.251957,0.3125 1.7276187,1.1418347 28.264533 0 0 -0.388672,-1.80664 1.7276187,1.1418347 28.264533 0 0 -1.539065,-0.54883 z m 5.388674,0.0801 a 1.7849815,1.2833905 37.525646 0 0 -0.660156,0.13477 1.7849815,1.2833905 37.525646 0 0 -0.0957,1.9746 1.7849815,1.2833905 37.525646 0 0 2.285156,0.73243 1.7849815,1.2833905 37.525646 0 0 0.0957,-1.97266 1.7849815,1.2833905 37.525646 0 0 -1.625,-0.86914 z m -46.976564,0.22461 a 3.7733096,3.1717539 61.967937 0 0 -0.32226,0.0352 3.7733096,3.1717539 61.967937 0 0 -2.21485,4.15039 3.7733096,3.1717539 61.967937 0 0 4.12891,3.0664 3.7733096,3.1717539 61.967937 0 0 2.2168,-4.15039 3.7733096,3.1717539 61.967937 0 0 -3.8086,-3.10156 z m 56.824221,0.62891 a 1.3169961,1.4978441 0 0 0 -1.316407,1.49804 1.3169961,1.4978441 0 0 0 1.316407,1.4961 1.3169961,1.4978441 0 0 0 1.316406,-1.4961 1.3169961,1.4978441 0 0 0 -1.316406,-1.49804 z m -20.951171,0.0273 a 2.1013974,1.3888762 28.264535 0 0 -0.86719,0.28711 2.1013974,1.3888762 28.264535 0 0 0.47266,2.19726 2.1013974,1.3888762 28.264535 0 0 2.73633,0.37891 2.1013974,1.3888762 28.264535 0 0 -0.47071,-2.19727 2.1013974,1.3888762 28.264535 0 0 -1.87109,-0.66601 z m 29.037108,0.32617 a 3.2574227,3.8752264 28.032065 0 0 -3.576172,3.18555 3.2574227,3.8752264 28.032065 0 0 2.275391,4.26367 3.2574227,3.8752264 28.032065 0 0 4.242187,-3.14844 3.2574227,3.8752264 28.032065 0 0 -2.27539,-4.26367 3.2574227,3.8752264 28.032065 0 0 -0.666016,-0.0371 z m -48.152348,0.17578 a 1.3169961,1.4978441 0 0 0 -1.3164,1.49805 1.3169961,1.4978441 0 0 0 1.3164,1.49805 1.3169961,1.4978441 0 0 0 1.31641,-1.49805 1.3169961,1.4978441 0 0 0 -1.31641,-1.49805 z m -10.45312,0.0703 a 1.2833905,1.7849815 52.474354 0 0 -1.625,0.86915 1.2833905,1.7849815 52.474354 0 0 0.0957,1.9746 1.2833905,1.7849815 52.474354 0 0 2.28516,-0.73437 1.2833905,1.7849815 52.474354 0 0 -0.09766,-1.97461 1.2833905,1.7849815 52.474354 0 0 -0.6582,-0.13477 z m 64.958984,0.44532 a 1.7276187,1.1418347 28.264533 0 0 -0.712891,0.23633 1.7276187,1.1418347 28.264533 0 0 0.388672,1.80664 1.7276187,1.1418347 28.264533 0 0 2.25,0.3125 1.7276187,1.1418347 28.264533 0 0 -0.388672,-1.80664 1.7276187,1.1418347 28.264533 0 0 -1.537109,-0.54883 z m -77.271484,0.78125 a 1.3169961,1.4978441 0 0 0 -1.31641,1.49804 1.3169961,1.4978441 0 0 0 1.31641,1.49805 1.3169961,1.4978441 0 0 0 1.31641,-1.49805 1.3169961,1.4978441 0 0 0 -1.31641,-1.49804 z m 57.843749,0.12304 a 3.1717539,3.7733096 28.032063 0 0 -3.480468,3.10157 3.1717539,3.7733096 28.032063 0 0 2.214843,4.15039 3.1717539,3.7733096 28.032063 0 0 4.13086,-3.06446 3.1717539,3.7733096 28.032063 0 0 -2.214844,-4.15234 3.1717539,3.7733096 28.032063 0 0 -0.650391,-0.0352 z m -39.249999,0.082 a 1.3888762,2.1013974 61.735465 0 0 -1.87109,0.66601 1.3888762,2.1013974 61.735465 0 0 -0.47071,2.19727 1.3888762,2.1013974 61.735465 0 0 2.73633,-0.37891 1.3888762,2.1013974 61.735465 0 0 0.47266,-2.19727 1.3888762,2.1013974 61.735465 0 0 -0.86719,-0.2871 z m 15.39453,0.043 a 1.8770449,2.2330458 28.032062 0 0 -2.06055,1.83594 1.8770449,2.2330458 28.032062 0 0 1.31055,2.45703 1.8770449,2.2330458 28.032062 0 0 2.44531,-1.81445 1.8770449,2.2330458 28.032062 0 0 -1.3125,-2.45703 1.8770449,2.2330458 28.032062 0 0 -0.38281,-0.0215 z m -6.13672,1.00196 a 2.2330458,1.8770449 61.967938 0 0 -0.18945,0.0215 2.2330458,1.8770449 61.967938 0 0 -1.3125,2.45703 2.2330458,1.8770449 61.967938 0 0 2.44531,1.81446 2.2330458,1.8770449 61.967938 0 0 1.31055,-2.45704 2.2330458,1.8770449 61.967938 0 0 -2.25391,-1.83593 z m 12.5332,0.0859 a 1.9294256,2.9192593 61.735469 0 0 -2.34179,0.92383 1.9294256,2.9192593 61.735469 0 0 -0.65625,3.05274 1.9294256,2.9192593 61.735469 0 0 3.80469,-0.52539 1.9294256,2.9192593 61.735469 0 0 0.65429,-3.05274 1.9294256,2.9192593 61.735469 0 0 -1.46094,-0.39844 z m 10.566411,0.008 a 1.9277439,2.2933603 28.032061 0 0 -2.115234,1.88476 1.9277439,2.2933603 28.032061 0 0 1.347656,2.52344 1.9277439,2.2933603 28.032061 0 0 2.509766,-1.86328 1.9277439,2.2933603 28.032061 0 0 -1.347657,-2.52344 1.9277439,2.2933603 28.032061 0 0 -0.394531,-0.0215 z m -65.087891,0.40625 a 2.9192593,1.9294256 28.264531 0 0 -1.20508,0.40039 2.9192593,1.9294256 28.264531 0 0 0.65625,3.05273 2.9192593,1.9294256 28.264531 0 0 3.80274,0.52539 2.9192593,1.9294256 28.264531 0 0 -0.65625,-3.05273 2.9192593,1.9294256 28.264531 0 0 -2.59766,-0.92578 z m 27.33203,0.2539 a 2.2933603,1.9277439 61.967939 0 0 -0.19531,0.0234 2.2933603,1.9277439 61.967939 0 0 -1.34766,2.52149 2.2933603,1.9277439 61.967939 0 0 2.51172,1.86523 2.2933603,1.9277439 61.967939 0 0 1.3457,-2.52344 2.2933603,1.9277439 61.967939 0 0 -2.31445,-1.88672 z m 9.67383,0.47071 a 2.9192593,1.9294256 28.264531 0 0 -1.20312,0.39843 2.9192593,1.9294256 28.264531 0 0 -0.07032,2.28321 0.82193737,1.2436077 61.735463 0 0 -0.67773,0.34179 0.82193737,1.2436077 61.735463 0 0 -0.48047,0.72461 2.2254062,2.5309958 0 0 0 -2.04492,-1.5332 2.2254062,2.5309958 0 0 0 -2.22461,2.53125 2.2254062,2.5309958 0 0 0 2.22461,2.53125 2.2254062,2.5309958 0 0 0 2.22656,-2.53125 2.2254062,2.5309958 0 0 0 -0.04102,-0.47656 0.82193737,1.2436077 61.735463 0 0 0.06055,0.0547 0.82193737,1.2436077 61.735463 0 0 1.61914,-0.22461 0.82193737,1.2436077 61.735463 0 0 0.36914,-0.42579 2.9192593,1.9294256 28.264531 0 0 3.49805,0.30469 2.9192593,1.9294256 28.264531 0 0 -0.65625,-3.05273 2.9192593,1.9294256 28.264531 0 0 -2.59961,-0.92578 z m 21.60547,0.002 a 2.1013974,1.3888762 28.264535 0 0 -0.86524,0.28711 2.1013974,1.3888762 28.264535 0 0 0.47071,2.19726 2.1013974,1.3888762 28.264535 0 0 2.73828,0.37891 2.1013974,1.3888762 28.264535 0 0 -0.47266,-2.19726 2.1013974,1.3888762 28.264535 0 0 -1.87109,-0.66602 z m -46.44922,0.93164 a 0.82193737,1.2436077 61.735463 0 0 -0.99805,0.39453 0.82193737,1.2436077 61.735463 0 0 -0.27929,1.30078 0.82193737,1.2436077 61.735463 0 0 1.61914,-0.22461 0.82193737,1.2436077 61.735463 0 0 0.27929,-1.30078 0.82193737,1.2436077 61.735463 0 0 -0.62109,-0.16992 z m -5.20898,0.37305 a 2.2330458,1.8770449 61.967938 0 0 -0.18946,0.0195 2.2330458,1.8770449 61.967938 0 0 -1.31054,2.45703 2.2330458,1.8770449 61.967938 0 0 2.44335,1.81445 2.2330458,1.8770449 61.967938 0 0 1.31055,-2.45703 2.2330458,1.8770449 61.967938 0 0 -2.2539,-1.83398 z m 10.59961,0.24023 a 2.2254062,2.5309958 0 0 0 -2.22461,2.53125 2.2254062,2.5309958 0 0 0 1.01562,2.12305 3.1717539,3.7733096 28.032063 0 0 -4.03125,3.07812 3.1717539,3.7733096 28.032063 0 0 2.2168,4.15039 3.1717539,3.7733096 28.032063 0 0 4.1289,-3.0664 3.1717539,3.7733096 28.032063 0 0 -1.21093,-3.75781 2.2254062,2.5309958 0 0 0 0.10547,0.004 2.2254062,2.5309958 0 0 0 2.22656,-2.53125 2.2254062,2.5309958 0 0 0 -2.22656,-2.53125 z m 60.300776,0.44336 a 1.2436077,0.82193737 28.264537 0 0 -0.513672,0.16992 1.2436077,0.82193737 28.264537 0 0 0.279297,1.30078 1.2436077,0.82193737 28.264537 0 0 1.621094,0.22461 1.2436077,0.82193737 28.264537 0 0 -0.279297,-1.30078 1.2436077,0.82193737 28.264537 0 0 -1.107422,-0.39453 z m -30.632816,0.74414 a 1.3888762,2.1013974 61.735465 0 0 -1.87109,0.66602 1.3888762,2.1013974 61.735465 0 0 -0.47266,2.19726 1.3888762,2.1013974 61.735465 0 0 2.73829,-0.3789 1.3888762,2.1013974 61.735465 0 0 0.47265,-2.19727 1.3888762,2.1013974 61.735465 0 0 -0.86719,-0.28711 z m 15.302738,0.33008 a 2.2254062,2.5309958 0 0 0 -2.224608,2.5293 2.2254062,2.5309958 0 0 0 2.224608,2.53125 2.2254062,2.5309958 0 0 0 2.226563,-2.53125 2.2254062,2.5309958 0 0 0 -2.226563,-2.5293 z m -38.804688,0.0234 a 0.82193737,1.2436077 61.735463 0 0 -0.99805,0.39453 0.82193737,1.2436077 61.735463 0 0 -0.27929,1.29883 0.82193737,1.2436077 61.735463 0 0 1.61914,-0.22266 0.82193737,1.2436077 61.735463 0 0 0.27929,-1.30078 0.82193737,1.2436077 61.735463 0 0 -0.62109,-0.16992 z m 67.654298,0.10937 a 1.9294256,2.9192593 61.735469 0 0 -2.59961,0.92578 1.9294256,2.9192593 61.735469 0 0 -0.654297,3.05274 1.9294256,2.9192593 61.735469 0 0 3.802735,-0.52735 1.9294256,2.9192593 61.735469 0 0 0.654296,-3.05273 1.9294256,2.9192593 61.735469 0 0 -1.203124,-0.39844 z m -39.117188,0.18164 a 1.1418347,1.7276187 61.735467 0 0 -1.38672,0.54688 1.1418347,1.7276187 61.735467 0 0 -0.38867,1.80664 1.1418347,1.7276187 61.735467 0 0 2.25195,-0.31055 1.1418347,1.7276187 61.735467 0 0 0.38672,-1.80664 1.1418347,1.7276187 61.735467 0 0 -0.86328,-0.23633 z m 4.73828,0.71875 a 1.2436077,0.82193737 28.264537 0 0 -0.51367,0.16992 1.2436077,0.82193737 28.264537 0 0 0.2793,1.30079 1.2436077,0.82193737 28.264537 0 0 1.62109,0.22461 1.2436077,0.82193737 28.264537 0 0 -0.2793,-1.30079 1.2436077,0.82193737 28.264537 0 0 -1.10742,-0.39453 z m -28.18164,0.2461 a 1.3888762,2.1013974 61.735465 0 0 -1.68555,0.66601 1.3888762,2.1013974 61.735465 0 0 -0.82617,1.52539 2.2254062,2.5309958 0 0 0 -1.11328,-0.34375 2.2254062,2.5309958 0 0 0 -2.22656,2.53125 2.2254062,2.5309958 0 0 0 2.22656,2.5293 2.2254062,2.5309958 0 0 0 2.22461,-2.5293 2.2254062,2.5309958 0 0 0 -0.31641,-1.29492 1.3888762,2.1013974 61.735465 0 0 2.29688,-0.59961 1.3888762,2.1013974 61.735465 0 0 0.47266,-2.19726 1.3888762,2.1013974 61.735465 0 0 -1.05274,-0.28711 z m 11.81836,0 a 1.7276187,1.1418347 28.264533 0 0 -0.71289,0.23632 1.7276187,1.1418347 28.264533 0 0 0.38867,1.80665 1.7276187,1.1418347 28.264533 0 0 2.25,0.31054 1.7276187,1.1418347 28.264533 0 0 -0.38867,-1.80664 1.7276187,1.1418347 28.264533 0 0 -1.53711,-0.54687 z m -29.3125,0.17382 a 1.3169961,1.4978441 0 0 0 -1.31836,1.49805 1.3169961,1.4978441 0 0 0 1.31836,1.49805 1.3169961,1.4978441 0 0 0 1.31641,-1.49805 1.3169961,1.4978441 0 0 0 -1.31641,-1.49805 z m 56.068359,0.38282 a 1.2436077,0.82193737 28.264537 0 0 -0.511718,0.16992 1.2436077,0.82193737 28.264537 0 0 0.279297,1.30078 1.2436077,0.82193737 28.264537 0 0 1.61914,0.22461 1.2436077,0.82193737 28.264537 0 0 -0.279297,-1.30078 1.2436077,0.82193737 28.264537 0 0 -1.107422,-0.39453 z m 14.945313,0.41211 a 1.8770449,2.2330458 28.032062 0 0 -2.253906,1.83593 1.8770449,2.2330458 28.032062 0 0 1.310546,2.45704 1.8770449,2.2330458 28.032062 0 0 2.445313,-1.81446 1.8770449,2.2330458 28.032062 0 0 -1.3125,-2.45703 1.8770449,2.2330458 28.032062 0 0 -0.189453,-0.0215 z m -8.199219,0.10156 a 2.2254062,2.5309958 0 0 0 -2.224609,2.53125 2.2254062,2.5309958 0 0 0 2.224609,2.53125 2.2254062,2.5309958 0 0 0 2.226563,-2.53125 2.2254062,2.5309958 0 0 0 -2.226563,-2.53125 z m -68.654293,0.38281 a 1.9294256,2.9192593 61.735469 0 0 -2.33985,0.92383 1.9294256,2.9192593 61.735469 0 0 -0.65625,3.05273 1.9294256,2.9192593 61.735469 0 0 3.80274,-0.52539 1.9294256,2.9192593 61.735469 0 0 0.65625,-3.05273 1.9294256,2.9192593 61.735469 0 0 -1.46289,-0.39844 z m 48.3125,0.008 a 2.1013974,1.3888762 28.264535 0 0 -0.86719,0.28711 2.1013974,1.3888762 28.264535 0 0 0.47265,2.19922 2.1013974,1.3888762 28.264535 0 0 2.73633,0.37891 2.1013974,1.3888762 28.264535 0 0 -0.4707,-2.19922 2.1013974,1.3888762 28.264535 0 0 -1.87109,-0.66602 z m -32.22657,0.50196 a 1.1418347,1.7276187 61.735467 0 0 -1.53711,0.54883 1.1418347,1.7276187 61.735467 0 0 -0.38867,1.80664 1.1418347,1.7276187 61.735467 0 0 2.25,-0.3125 1.1418347,1.7276187 61.735467 0 0 0.38867,-1.80664 1.1418347,1.7276187 61.735467 0 0 -0.71289,-0.23633 z m 23.20899,0.51562 a 2.2254062,2.5309958 0 0 0 -2.22461,2.53125 2.2254062,2.5309958 0 0 0 2.22461,2.53125 2.2254062,2.5309958 0 0 0 2.22656,-2.53125 2.2254062,2.5309958 0 0 0 -2.22656,-2.53125 z m -8.26367,0.36328 a 0.82193737,1.2436077 61.735463 0 0 -0.9961,0.39453 0.82193737,1.2436077 61.735463 0 0 -0.27929,1.29883 0.82193737,1.2436077 61.735463 0 0 1.61914,-0.22265 0.82193737,1.2436077 61.735463 0 0 0.27929,-1.30078 0.82193737,1.2436077 61.735463 0 0 -0.62304,-0.16993 z m 13.33789,0.29102 a 2.2254062,2.5309958 0 0 0 -2.22461,2.53125 2.2254062,2.5309958 0 0 0 2.22461,2.53125 2.2254062,2.5309958 0 0 0 2.22656,-2.53125 2.2254062,2.5309958 0 0 0 -2.22656,-2.53125 z m 16.410153,0.4043 a 2.2254062,2.5309958 0 0 0 -2.224609,2.53125 2.2254062,2.5309958 0 0 0 2.224609,2.53125 2.2254062,2.5309958 0 0 0 2.226563,-2.53125 2.2254062,2.5309958 0 0 0 -2.226563,-2.53125 z m -6.855473,0.21093 a 1.2436077,0.82193737 28.264537 0 0 -0.51367,0.16993 1.2436077,0.82193737 28.264537 0 0 0.2793,1.29882 1.2436077,0.82193737 28.264537 0 0 1.62109,0.22461 1.2436077,0.82193737 28.264537 0 0 -0.27929,-1.30078 1.2436077,0.82193737 28.264537 0 0 -1.10743,-0.39258 z m -27.85742,0.17578 a 0.82193737,1.2436077 61.735463 0 0 -1.10742,0.39454 0.82193737,1.2436077 61.735463 0 0 -0.2793,1.30078 0.82193737,1.2436077 61.735463 0 0 1.6211,-0.22461 0.82193737,1.2436077 61.735463 0 0 0.27929,-1.30078 0.82193737,1.2436077 61.735463 0 0 -0.51367,-0.16993 z m 9.17774,0.42579 a 1.9277439,2.2933603 28.032061 0 0 -2.11524,1.88476 1.9277439,2.2933603 28.032061 0 0 1.34571,2.52344 1.9277439,2.2933603 28.032061 0 0 2.51171,-1.86524 1.9277439,2.2933603 28.032061 0 0 -1.34765,-2.52148 1.9277439,2.2933603 28.032061 0 0 -0.39453,-0.0215 z m -30.93164,0.82226 a 2.2254062,2.5309958 0 0 0 -2.22461,2.53125 2.2254062,2.5309958 0 0 0 2.22461,2.53125 2.2254062,2.5309958 0 0 0 2.22656,-2.53125 2.2254062,2.5309958 0 0 0 -2.22656,-2.53125 z m 46.13476,0.24805 a 2.2933603,1.9277439 61.967939 0 0 -0.19531,0.0234 2.2933603,1.9277439 61.967939 0 0 -1.3457,2.52148 2.2933603,1.9277439 61.967939 0 0 2.50976,1.86328 2.2933603,1.9277439 61.967939 0 0 1.34571,-2.52148 2.2933603,1.9277439 61.967939 0 0 -2.31446,-1.88672 z m -21.68359,0.66015 a 3.8752264,3.2574227 61.967935 0 0 -0.33203,0.0371 3.8752264,3.2574227 61.967935 0 0 -2.27344,4.26172 3.8752264,3.2574227 61.967935 0 0 4.24023,3.15039 3.8752264,3.2574227 61.967935 0 0 2.27539,-4.26367 3.8752264,3.2574227 61.967935 0 0 -3.91015,-3.18555 z m -11.76172,0.0566 a 1.3888762,2.1013974 61.735465 0 0 -1.68555,0.66601 1.3888762,2.1013974 61.735465 0 0 -0.47265,2.19727 1.3888762,2.1013974 61.735465 0 0 2.73828,-0.37891 1.3888762,2.1013974 61.735465 0 0 0.4707,-2.19727 1.3888762,2.1013974 61.735465 0 0 -1.05078,-0.2871 z m 63.328124,0.4707 a 2.9192593,1.9294256 28.264531 0 0 -1.203125,0.40039 2.9192593,1.9294256 28.264531 0 0 0.65625,3.05273 2.9192593,1.9294256 28.264531 0 0 3.802735,0.52539 2.9192593,1.9294256 28.264531 0 0 -0.65625,-3.05273 2.9192593,1.9294256 28.264531 0 0 -2.59961,-0.92578 z m -8.652343,0.29883 a 3.7733096,3.1717539 61.967937 0 0 -0.320313,0.0352 3.7733096,3.1717539 61.967937 0 0 -2.216797,4.15039 3.7733096,3.1717539 61.967937 0 0 4.13086,3.06641 3.7733096,3.1717539 61.967937 0 0 2.214843,-4.15039 3.7733096,3.1717539 61.967937 0 0 -3.808593,-3.10156 z m -49.517581,0.75 a 2.1013974,1.3888762 28.264535 0 0 -0.86719,0.28711 2.1013974,1.3888762 28.264535 0 0 0.47266,2.19921 2.1013974,1.3888762 28.264535 0 0 2.73633,0.37891 2.1013974,1.3888762 28.264535 0 0 -0.4707,-2.19922 2.1013974,1.3888762 28.264535 0 0 -1.8711,-0.66601 z m 33.47461,0.43164 a 1.2436077,0.82193737 28.264537 0 0 -0.51172,0.16992 1.2436077,0.82193737 28.264537 0 0 0.2793,1.30078 1.2436077,0.82193737 28.264537 0 0 1.619141,0.22266 1.2436077,0.82193737 28.264537 0 0 -0.279297,-1.30078 1.2436077,0.82193737 28.264537 0 0 -1.107424,-0.39258 z m -56.38672,0.70703 a 2.2254062,2.5309958 0 0 0 -2.22656,2.53125 2.2254062,2.5309958 0 0 0 2.22656,2.53125 2.2254062,2.5309958 0 0 0 2.22461,-2.53125 2.2254062,2.5309958 0 0 0 -2.22461,-2.53125 z m 40.89063,0.3457 a 2.2254062,2.5309958 0 0 0 -2.22461,2.53125 2.2254062,2.5309958 0 0 0 2.22461,2.53125 2.2254062,2.5309958 0 0 0 2.22461,-2.53125 2.2254062,2.5309958 0 0 0 -2.22461,-2.53125 z m -27.64453,0.10742 a 2.168621,3.0161887 52.474355 0 0 -2.74805,1.4668 2.168621,3.0161887 52.474355 0 0 0.16211,3.33594 2.168621,3.0161887 52.474355 0 0 1.71875,0.13867 2.2254062,2.5309958 0 0 0 -0.68945,1.83006 2.2254062,2.5309958 0 0 0 2.22656,2.5293 2.2254062,2.5309958 0 0 0 2.22461,-2.5293 2.2254062,2.5309958 0 0 0 -2.22461,-2.53123 2.2254062,2.5309958 0 0 0 -0.10156,0.004 2.168621,3.0161887 52.474355 0 0 0.70703,-0.68164 2.168621,3.0161887 52.474355 0 0 -0.16211,-3.33593 2.168621,3.0161887 52.474355 0 0 -1.11328,-0.22657 z m 52.570309,0.0156 a 1.7276187,1.1418347 28.264533 0 0 -0.71289,0.23633 1.7276187,1.1418347 28.264533 0 0 0.388672,1.80664 1.7276187,1.1418347 28.264533 0 0 2.25,0.3125 1.7276187,1.1418347 28.264533 0 0 -0.388672,-1.80664 1.7276187,1.1418347 28.264533 0 0 -1.53711,-0.54883 z m -18.013669,0.0137 a 2.2254062,2.5309958 0 0 0 -2.22461,2.53125 2.2254062,2.5309958 0 0 0 2.22461,2.53125 2.2254062,2.5309958 0 0 0 2.22656,-2.53125 2.2254062,2.5309958 0 0 0 -2.22656,-2.53125 z m -27.82617,0.63281 a 2.2330458,1.8770449 61.967938 0 0 -0.18946,0.0215 2.2330458,1.8770449 61.967938 0 0 -1.3125,2.45703 2.2330458,1.8770449 61.967938 0 0 2.44531,1.81445 2.2330458,1.8770449 61.967938 0 0 1.31055,-2.45703 2.2330458,1.8770449 61.967938 0 0 -2.2539,-1.83594 z m 42.45898,2.09571 a 1.3888762,2.1013974 61.735465 0 0 -1.871094,0.66601 1.3888762,2.1013974 61.735465 0 0 -0.470703,2.19922 1.3888762,2.1013974 61.735465 0 0 2.736328,-0.37891 1.3888762,2.1013974 61.735465 0 0 0.472657,-2.19921 1.3888762,2.1013974 61.735465 0 0 -0.867188,-0.28711 z m -6.58984,0.24804 a 3.2574227,3.8752264 28.032065 0 0 -3.57422,3.18551 3.2574227,3.8752264 28.032065 0 0 2.27539,4.2637 3.2574227,3.8752264 28.032065 0 0 4.242186,-3.1484 3.2574227,3.8752264 28.032065 0 0 -2.275386,-4.2637 3.2574227,3.8752264 28.032065 0 0 -0.66797,-0.0371 z m -51.16797,0.0391 a 2.9192593,1.9294256 28.264531 0 0 -1.20508,0.39843 2.9192593,1.9294256 28.264531 0 0 0.65625,3.05271 2.9192593,1.9294256 28.264531 0 0 3.80273,0.5274 2.9192593,1.9294256 28.264531 0 0 -0.65625,-3.05276 2.9192593,1.9294256 28.264531 0 0 -2.59765,-0.92578 z m 31.61133,1.3789 a 2.2254062,2.5309958 0 0 0 -2.22461,2.53124 2.2254062,2.5309958 0 0 0 2.22461,2.5293 2.2254062,2.5309958 0 0 0 2.22461,-2.5293 2.2254062,2.5309958 0 0 0 -2.22461,-2.53124 z m -7.82227,0.11719 a 1.3888762,2.1013974 61.735465 0 0 -1.68555,0.66601 1.3888762,2.1013974 61.735465 0 0 -0.47265,2.19724 1.3888762,2.1013974 61.735465 0 0 2.73828,-0.3789 1.3888762,2.1013974 61.735465 0 0 0.4707,-2.19724 1.3888762,2.1013974 61.735465 0 0 -1.05078,-0.28711 z m -29.80078,0.75 a 2.2254062,2.5309958 0 0 0 -2.22656,2.52925 2.2254062,2.5309958 0 0 0 2.22656,2.5313 2.2254062,2.5309958 0 0 0 2.22461,-2.5313 2.2254062,2.5309958 0 0 0 -2.22461,-2.52925 z m 22.77539,0.12891 a 2.2254062,2.5309958 0 0 0 -2.22461,2.53124 2.2254062,2.5309958 0 0 0 2.22461,2.5313 2.2254062,2.5309958 0 0 0 2.22656,-2.5313 2.2254062,2.5309958 0 0 0 -2.22656,-2.53124 z m 56.560546,0.45114 a 2.2254062,2.5309958 0 0 0 -2.224609,2.5313 2.2254062,2.5309958 0 0 0 2.224609,2.5312 2.2254062,2.5309958 0 0 0 2.226563,-2.5312 2.2254062,2.5309958 0 0 0 -2.226563,-2.5313 z m -30.865236,0.1582 a 2.168621,3.0161887 52.474355 0 0 -2.74804,1.4668 2.168621,3.0161887 52.474355 0 0 0.1621,3.336 2.168621,3.0161887 52.474355 0 0 3.86133,-1.2403 2.168621,3.0161887 52.474355 0 0 -0.16211,-3.3359 2.168621,3.0161887 52.474355 0 0 -1.11328,-0.2266 z m 21.519533,0.1153 a 1.3169961,1.4978441 0 0 0 -1.316406,1.498 1.3169961,1.4978441 0 0 0 1.316406,1.4981 1.3169961,1.4978441 0 0 0 1.316406,-1.4981 1.3169961,1.4978441 0 0 0 -1.316406,-1.498 z m -41.570313,1.5527 a 2.1013974,1.3888762 28.264535 0 0 -0.86719,0.2871 2.1013974,1.3888762 28.264535 0 0 0.47266,2.1973 2.1013974,1.3888762 28.264535 0 0 2.73828,0.3789 2.1013974,1.3888762 28.264535 0 0 -0.47266,-2.1973 2.1013974,1.3888762 28.264535 0 0 -1.87109,-0.666 z m -18.40625,0.4453 a 3.0161887,2.168621 37.525645 0 0 -1.11328,0.2266 3.0161887,2.168621 37.525645 0 0 -0.16211,3.3359 3.0161887,2.168621 37.525645 0 0 3.85938,1.2402 3.0161887,2.168621 37.525645 0 0 0.16406,-3.3359 3.0161887,2.168621 37.525645 0 0 -2.74805,-1.4668 z m 7.83203,0.4512 a 1.8770449,2.2330458 28.032062 0 0 -2.06054,1.8359 1.8770449,2.2330458 28.032062 0 0 1.31054,2.4571 1.8770449,2.2330458 28.032062 0 0 2.44531,-1.8145 1.8770449,2.2330458 28.032062 0 0 -1.3125,-2.457 1.8770449,2.2330458 28.032062 0 0 -0.38281,-0.022 z m -12.22461,0.1582 a 1.9294256,2.9192593 61.735469 0 0 -2.59765,0.9258 1.9294256,2.9192593 61.735469 0 0 -0.65625,3.0527 1.9294256,2.9192593 61.735469 0 0 3.80273,-0.5254 1.9294256,2.9192593 61.735469 0 0 0.65625,-3.0527 1.9294256,2.9192593 61.735469 0 0 -1.20508,-0.4004 z m 58.949221,0.8555 a 2.2254062,2.5309958 0 0 0 -2.224609,2.5312 2.2254062,2.5309958 0 0 0 2.224609,2.5313 2.2254062,2.5309958 0 0 0 2.226563,-2.5313 2.2254062,2.5309958 0 0 0 -2.226563,-2.5312 z m -26.642581,1 a 2.1013974,1.3888762 28.264535 0 0 -0.86718,0.2871 2.1013974,1.3888762 28.264535 0 0 0.47265,2.1972 2.1013974,1.3888762 28.264535 0 0 2.73828,0.3789 2.1013974,1.3888762 28.264535 0 0 -0.47265,-2.1972 2.1013974,1.3888762 28.264535 0 0 -1.8711,-0.666 z m 36.058597,0.1074 a 2.2330458,1.8770449 61.967938 0 0 -0.189453,0.021 2.2330458,1.8770449 61.967938 0 0 -1.3125,2.457 2.2330458,1.8770449 61.967938 0 0 2.445312,1.8144 2.2330458,1.8770449 61.967938 0 0 1.310547,-2.457 2.2330458,1.8770449 61.967938 0 0 -2.253906,-1.8359 z m -49.552737,0.3945 a 1.3888762,2.1013974 61.735465 0 0 -1.68554,0.666 1.3888762,2.1013974 61.735465 0 0 -0.47266,2.1973 1.3888762,2.1013974 61.735465 0 0 1.30469,0.2598 1.3888762,2.1013974 61.735465 0 0 -0.67578,0.4101 1.3888762,2.1013974 61.735465 0 0 -0.72461,1.8906 3.1717539,3.7733096 28.032063 0 0 -1.19727,-0.5293 3.1717539,3.7733096 28.032063 0 0 -4.12891,3.0664 3.1717539,3.7733096 28.032063 0 0 2.21485,4.1504 3.1717539,3.7733096 28.032063 0 0 4.13086,-3.0664 3.1717539,3.7733096 28.032063 0 0 -0.58399,-3.1972 1.3888762,2.1013974 61.735465 0 0 2.55469,-0.4961 1.3888762,2.1013974 61.735465 0 0 0.4707,-2.1973 1.3888762,2.1013974 61.735465 0 0 -1.30078,-0.2598 1.3888762,2.1013974 61.735465 0 0 0.67383,-0.4101 1.3888762,2.1013974 61.735465 0 0 0.4707,-2.1973 1.3888762,2.1013974 61.735465 0 0 -1.05078,-0.2871 z m 22.57227,0.7227 a 2.2254062,2.5309958 0 0 0 -2.22461,2.5312 2.2254062,2.5309958 0 0 0 2.22461,2.5313 2.2254062,2.5309958 0 0 0 2.22656,-2.5313 2.2254062,2.5309958 0 0 0 -2.22656,-2.5312 z m 8.76367,0.1191 a 0.82193737,1.2436077 61.735463 0 0 -0.99805,0.3945 0.82193737,1.2436077 61.735463 0 0 -0.27929,1.3008 0.82193737,1.2436077 61.735463 0 0 1.62109,-0.2246 0.82193737,1.2436077 61.735463 0 0 0.2793,-1.3008 0.82193737,1.2436077 61.735463 0 0 -0.62305,-0.1699 z m -25.88477,0.043 a 2.1013974,1.3888762 28.264535 0 0 -0.86718,0.2871 2.1013974,1.3888762 28.264535 0 0 0.47265,2.1972 2.1013974,1.3888762 28.264535 0 0 2.73633,0.379 2.1013974,1.3888762 28.264535 0 0 -0.47266,-2.1973 2.1013974,1.3888762 28.264535 0 0 -1.86914,-0.666 z m -32.13671,0.7461 a 2.9192593,1.9294256 28.264531 0 0 -1.20313,0.3984 2.9192593,1.9294256 28.264531 0 0 0.65625,3.0527 2.9192593,1.9294256 28.264531 0 0 3.80273,0.5274 2.9192593,1.9294256 28.264531 0 0 -0.65624,-3.0528 2.9192593,1.9294256 28.264531 0 0 -2.59961,-0.9257 z m 18.53906,0.3632 a 1.7276187,1.1418347 28.264533 0 0 -0.71289,0.2364 1.7276187,1.1418347 28.264533 0 0 0.38867,1.8066 1.7276187,1.1418347 28.264533 0 0 2.25,0.3125 1.7276187,1.1418347 28.264533 0 0 -0.38867,-1.8066 1.7276187,1.1418347 28.264533 0 0 -1.53711,-0.5489 z m -5.29297,0.1231 a 3.7733096,3.1717539 61.967937 0 0 -0.32227,0.035 3.7733096,3.1717539 61.967937 0 0 -2.21484,4.1503 3.7733096,3.1717539 61.967937 0 0 4.12891,3.0664 3.7733096,3.1717539 61.967937 0 0 2.21679,-4.1503 3.7733096,3.1717539 61.967937 0 0 -3.80859,-3.1016 z m 72.394531,0.7871 a 2.9192593,1.9294256 28.264531 0 0 -1.203125,0.3984 2.9192593,1.9294256 28.264531 0 0 0.654296,3.0528 2.9192593,1.9294256 28.264531 0 0 3.804688,0.5273 2.9192593,1.9294256 28.264531 0 0 -0.65625,-3.0547 2.9192593,1.9294256 28.264531 0 0 -2.599609,-0.9238 z m -78.835941,0.6543 a 2.2254062,2.5309958 0 0 0 -2.22656,2.5313 2.2254062,2.5309958 0 0 0 2.22656,2.5312 2.2254062,2.5309958 0 0 0 2.22461,-2.5312 2.2254062,2.5309958 0 0 0 -2.22461,-2.5313 z m 28.63282,0.016 a 2.2254062,2.5309958 0 0 0 -2.22657,2.5293 2.2254062,2.5309958 0 0 0 2.22657,2.5313 2.2254062,2.5309958 0 0 0 2.22461,-2.5313 2.2254062,2.5309958 0 0 0 -2.22461,-2.5293 z m 7.6875,1.2305 a 1.9294256,2.9192593 61.735469 0 0 -2.59766,0.9258 1.9294256,2.9192593 61.735469 0 0 -0.65625,3.0527 1.9294256,2.9192593 61.735469 0 0 3.80273,-0.5254 1.9294256,2.9192593 61.735469 0 0 0.65625,-3.0527 1.9294256,2.9192593 61.735469 0 0 -1.20507,-0.4004 z m 10.28125,0.1094 a 2.9192593,1.9294256 28.264531 0 0 -1.20313,0.3984 2.9192593,1.9294256 28.264531 0 0 0.65625,3.0527 2.9192593,1.9294256 28.264531 0 0 3.80274,0.5274 2.9192593,1.9294256 28.264531 0 0 -0.65626,-3.0527 2.9192593,1.9294256 28.264531 0 0 -2.5996,-0.9258 z m 23.388668,0.3633 a 2.2254062,2.5309958 0 0 0 -2.22461,2.5312 2.2254062,2.5309958 0 0 0 2.22461,2.5293 2.2254062,2.5309958 0 0 0 2.224609,-2.5293 2.2254062,2.5309958 0 0 0 -2.224609,-2.5312 z m -14.154297,0.1386 a 1.3888762,2.1013974 61.735465 0 0 -1.871091,0.666 1.3888762,2.1013974 61.735465 0 0 -0.47266,2.1973 1.3888762,2.1013974 61.735465 0 0 2.738282,-0.3789 1.3888762,2.1013974 61.735465 0 0 0.470703,-2.1973 1.3888762,2.1013974 61.735465 0 0 -0.865234,-0.2871 z m -33.744141,0.8125 a 1.2436077,0.82193737 28.264537 0 0 -0.51172,0.1699 1.2436077,0.82193737 28.264537 0 0 0.2793,1.3008 1.2436077,0.82193737 28.264537 0 0 1.61914,0.2246 1.2436077,0.82193737 28.264537 0 0 -0.2793,-1.3007 1.2436077,0.82193737 28.264537 0 0 -1.10742,-0.3946 z m 40.070312,0.4688 a 1.3169961,1.4978441 0 0 0 -1.318359,1.498 1.3169961,1.4978441 0 0 0 1.318359,1.4981 1.3169961,1.4978441 0 0 0 1.316407,-1.4981 1.3169961,1.4978441 0 0 0 -1.316407,-1.498 z m -21.900392,1.0703 a 2.2330458,1.8770449 61.967938 0 0 -0.18945,0.021 2.2330458,1.8770449 61.967938 0 0 -1.3125,2.455 2.2330458,1.8770449 61.967938 0 0 2.44531,1.8145 2.2330458,1.8770449 61.967938 0 0 1.31055,-2.4551 2.2330458,1.8770449 61.967938 0 0 -2.25391,-1.8359 z m -35.99805,0.2422 a 1.3169961,1.4978441 0 0 0 -1.3164,1.498 1.3169961,1.4978441 0 0 0 1.3164,1.4981 1.3169961,1.4978441 0 0 0 1.31836,-1.4981 1.3169961,1.4978441 0 0 0 -1.31836,-1.498 z m -10.02148,0.4785 a 1.9294256,2.9192593 61.735469 0 0 -2.59766,0.9258 1.9294256,2.9192593 61.735469 0 0 -0.65625,3.0527 1.9294256,2.9192593 61.735469 0 0 3.80274,-0.5254 1.9294256,2.9192593 61.735469 0 0 0.65625,-3.0527 1.9294256,2.9192593 61.735469 0 0 -1.20508,-0.4004 z m 30.12305,1.3301 a 2.1013974,1.3888762 28.264535 0 0 -0.86719,0.2871 2.1013974,1.3888762 28.264535 0 0 0.47266,2.1972 2.1013974,1.3888762 28.264535 0 0 2.73632,0.3789 2.1013974,1.3888762 28.264535 0 0 -0.4707,-2.1972 2.1013974,1.3888762 28.264535 0 0 -1.87109,-0.666 z m -4.56446,0.2168 a 2.2254062,2.5309958 0 0 0 -2.22656,2.5312 2.2254062,2.5309958 0 0 0 2.22656,2.5313 2.2254062,2.5309958 0 0 0 2.22461,-2.5313 2.2254062,2.5309958 0 0 0 -2.22461,-2.5312 z m 37.660161,0.012 a 2.2933603,1.9277439 61.967939 0 0 -0.195313,0.023 2.2933603,1.9277439 61.967939 0 0 -1.347656,2.5215 2.2933603,1.9277439 61.967939 0 0 2.509766,1.8633 2.2933603,1.9277439 61.967939 0 0 1.347656,-2.5215 2.2933603,1.9277439 61.967939 0 0 -2.314453,-1.8867 z m -26.595701,0.031 a 1.1418347,1.7276187 61.735467 0 0 -1.38477,0.5469 1.1418347,1.7276187 61.735467 0 0 -0.38867,1.8066 1.1418347,1.7276187 61.735467 0 0 2.25,-0.3105 1.1418347,1.7276187 61.735467 0 0 0.38867,-1.8066 1.1418347,1.7276187 61.735467 0 0 -0.86523,-0.2364 z m -23.31641,0.3203 a 2.2254062,2.5309958 0 0 0 -2.22656,2.5313 2.2254062,2.5309958 0 0 0 2.22656,2.5312 2.2254062,2.5309958 0 0 0 2.22461,-2.5312 2.2254062,2.5309958 0 0 0 -2.22461,-2.5313 z m -5.95117,0.3282 a 1.8770449,2.2330458 28.032062 0 0 -2.06055,1.8359 1.8770449,2.2330458 28.032062 0 0 1.31055,2.457 1.8770449,2.2330458 28.032062 0 0 2.44531,-1.8144 1.8770449,2.2330458 28.032062 0 0 -1.3125,-2.457 1.8770449,2.2330458 28.032062 0 0 -0.38281,-0.022 z m 72.779296,0.1308 a 3.8752263,3.2574227 61.967935 0 0 -0.330078,0.037 3.8752263,3.2574227 61.967935 0 0 -2.27539,4.2637 3.8752263,3.2574227 61.967935 0 0 4.242187,3.1484 3.8752263,3.2574227 61.967935 0 0 2.275391,-4.2636 3.8752263,3.2574227 61.967935 0 0 -3.91211,-3.1856 z m -25.021486,0.1153 a 1.7276187,1.1418347 28.264533 0 0 -0.71289,0.2343 1.7276187,1.1418347 28.264533 0 0 0.38867,1.8067 1.7276187,1.1418347 28.264533 0 0 2.25,0.3125 1.7276187,1.1418347 28.264533 0 0 -0.38672,-1.8067 1.7276187,1.1418347 28.264533 0 0 -1.53906,-0.5468 z m -13.07226,0.5507 a 1.8770449,2.2330458 28.032062 0 0 -2.0586,1.836 1.8770449,2.2330458 28.032062 0 0 1.31055,2.457 1.8770449,2.2330458 28.032062 0 0 2.44336,-1.8144 1.8770449,2.2330458 28.032062 0 0 -1.31055,-2.4571 1.8770449,2.2330458 28.032062 0 0 -0.38476,-0.022 z m 29.542965,1.1309 a 0.82193737,1.2436077 61.735463 0 0 -0.996094,0.3945 0.82193737,1.2436077 61.735463 0 0 -0.279297,1.3008 0.82193737,1.2436077 61.735463 0 0 1.619141,-0.2246 0.82193737,1.2436077 61.735463 0 0 0.279297,-1.3008 0.82193737,1.2436077 61.735463 0 0 -0.623047,-0.1699 z m -22.478515,0.072 a 1.3169961,1.4978441 0 0 0 -1.31641,1.498 1.3169961,1.4978441 0 0 0 1.31641,1.4981 1.3169961,1.4978441 0 0 0 1.31641,-1.4981 1.3169961,1.4978441 0 0 0 -1.31641,-1.498 z m 39.865234,0.084 a 1.1418347,1.7276187 61.735467 0 0 -1.386719,0.5468 1.1418347,1.7276187 61.735467 0 0 -0.386719,1.8067 1.1418347,1.7276187 61.735467 0 0 2.25,-0.3106 1.1418347,1.7276187 61.735467 0 0 0.388672,-1.8066 1.1418347,1.7276187 61.735467 0 0 -0.865234,-0.2363 z m -69.800784,0.3242 a 1.2436077,0.82193737 28.264537 0 0 -0.51367,0.1699 1.2436077,0.82193737 28.264537 0 0 0.2793,1.3008 1.2436077,0.82193737 28.264537 0 0 1.62109,0.2246 1.2436077,0.82193737 28.264537 0 0 -0.2793,-1.3008 1.2436077,0.82193737 28.264537 0 0 -1.10742,-0.3945 z m -16.02148,0.5703 a 3.2574227,3.8752264 28.032065 0 0 -3.57422,3.1855 3.2574227,3.8752264 28.032065 0 0 2.27539,4.2637 3.2574227,3.8752264 28.032065 0 0 4.24219,-3.1484 3.2574227,3.8752264 28.032065 0 0 -2.27539,-4.2637 3.2574227,3.8752264 28.032065 0 0 -0.66797,-0.037 z m 30.64648,0.2637 a 2.1013974,1.3888762 28.264535 0 0 -0.86718,0.2871 2.1013974,1.3888762 28.264535 0 0 0.47265,2.1972 2.1013974,1.3888762 28.264535 0 0 2.73633,0.3789 2.1013974,1.3888762 28.264535 0 0 -0.4707,-2.1972 2.1013974,1.3888762 28.264535 0 0 -1.8711,-0.666 z m -4.97265,1.2636 a 2.1013974,1.3888762 28.264535 0 0 -0.86524,0.2871 2.1013974,1.3888762 28.264535 0 0 0.47071,2.1993 2.1013974,1.3888762 28.264535 0 0 2.73828,0.3789 2.1013974,1.3888762 28.264535 0 0 -0.47266,-2.1993 2.1013974,1.3888762 28.264535 0 0 -1.87109,-0.666 z m -13.20703,0.1153 a 1.3169961,1.4978441 0 0 0 -1.31641,1.498 1.3169961,1.4978441 0 0 0 1.31641,1.4981 1.3169961,1.4978441 0 0 0 1.31835,-1.4981 1.3169961,1.4978441 0 0 0 -1.31835,-1.498 z m 44.26367,0.3281 a 1.3888762,2.1013974 61.735465 0 0 -1.8711,0.666 1.3888762,2.1013974 61.735465 0 0 -0.4707,2.1992 1.3888762,2.1013974 61.735465 0 0 2.736328,-0.3789 1.3888762,2.1013974 61.735465 0 0 0.472656,-2.1992 1.3888762,2.1013974 61.735465 0 0 -0.867184,-0.2871 z m -40.15039,0.2851 a 1.7849815,1.2833905 37.525646 0 0 -0.65821,0.1348 1.7849815,1.2833905 37.525646 0 0 -0.09765,1.9746 1.7849815,1.2833905 37.525646 0 0 2.28515,0.7344 1.7849815,1.2833905 37.525646 0 0 0.09766,-1.9746 1.7849815,1.2833905 37.525646 0 0 -1.62695,-0.8692 z m -24.46875,0.1094 a 1.7276187,1.1418347 28.264533 0 0 -0.71289,0.2363 1.7276187,1.1418347 28.264533 0 0 0.38867,1.8067 1.7276187,1.1418347 28.264533 0 0 2.25,0.3105 1.7276187,1.1418347 28.264533 0 0 -0.38672,-1.8066 1.7276187,1.1418347 28.264533 0 0 -1.53906,-0.5469 z m 72.083981,0.047 a 1.2833905,1.7849815 52.474354 0 0 -1.626953,0.8672 1.2833905,1.7849815 52.474354 0 0 0.09766,1.9746 1.2833905,1.7849815 52.474354 0 0 2.283203,-0.7344 1.2833905,1.7849815 52.474354 0 0 -0.0957,-1.9746 1.2833905,1.7849815 52.474354 0 0 -0.658203,-0.1328 z m -13.425781,0.3066 a 1.3888762,2.1013974 61.735465 0 0 -1.87109,0.6661 1.3888762,2.1013974 61.735465 0 0 -0.47266,2.1972 1.3888762,2.1013974 61.735465 0 0 2.73828,-0.3789 1.3888762,2.1013974 61.735465 0 0 0.4707,-2.1973 1.3888762,2.1013974 61.735465 0 0 -0.86523,-0.2871 z m -28.95117,0.084 a 1.9277439,2.2933603 28.032061 0 0 -2.11524,1.8867 1.9277439,2.2933603 28.032061 0 0 1.34571,2.5215 1.9277439,2.2933603 28.032061 0 0 2.51171,-1.8633 1.9277439,2.2933603 28.032061 0 0 -1.34765,-2.5214 1.9277439,2.2933603 28.032061 0 0 -0.39453,-0.024 z m 21.23633,0.2539 a 3.1717539,3.7733096 28.032063 0 0 -3.48047,3.1016 3.1717539,3.7733096 28.032063 0 0 2.21679,4.1504 3.1717539,3.7733096 28.032063 0 0 4.12891,-3.0664 3.1717539,3.7733096 28.032063 0 0 -2.21484,-4.1504 3.1717539,3.7733096 28.032063 0 0 -0.65039,-0.035 z m -36.59766,0.047 a 1.2436077,0.82193737 28.264537 0 0 -0.51367,0.1699 1.2436077,0.82193737 28.264537 0 0 0.27929,1.2989 1.2436077,0.82193737 28.264537 0 0 1.6211,0.2246 1.2436077,0.82193737 28.264537 0 0 -0.2793,-1.3008 1.2436077,0.82193737 28.264537 0 0 -1.10742,-0.3926 z m 27.51172,0.4863 a 3.7733096,3.1717539 61.967937 0 0 -0.32227,0.037 3.7733096,3.1717539 61.967937 0 0 -2.21484,4.1504 3.7733096,3.1717539 61.967937 0 0 4.1289,3.0664 3.7733096,3.1717539 61.967937 0 0 2.2168,-4.1523 3.7733096,3.1717539 61.967937 0 0 -3.80859,-3.1016 z m 36.355467,1.4024 a 0.82193737,1.2436077 61.735463 0 0 -0.998047,0.3945 0.82193737,1.2436077 61.735463 0 0 -0.279297,1.3008 0.82193737,1.2436077 61.735463 0 0 1.619141,-0.2246 0.82193737,1.2436077 61.735463 0 0 0.279297,-1.3008 0.82193737,1.2436077 61.735463 0 0 -0.621094,-0.1699 z m 6.039062,0.623 a 2.2254062,2.5309958 0 0 0 -2.224609,2.5313 2.2254062,2.5309958 0 0 0 2.224609,2.5293 2.2254062,2.5309958 0 0 0 2.226563,-2.5293 2.2254062,2.5309958 0 0 0 -2.226563,-2.5313 z m -47.105469,0.062 a 1.3169961,1.4978441 0 0 0 -1.31641,1.4981 1.3169961,1.4978441 0 0 0 1.31641,1.498 1.3169961,1.4978441 0 0 0 1.31641,-1.498 1.3169961,1.4978441 0 0 0 -1.31641,-1.4981 z m 54.097657,0.2481 a 1.3169961,1.4978441 0 0 0 -1.318359,1.498 1.3169961,1.4978441 0 0 0 1.318359,1.4981 1.3169961,1.4978441 0 0 0 1.316406,-1.4981 1.3169961,1.4978441 0 0 0 -1.316406,-1.498 z m -73.117187,0.3183 a 1.2436077,0.82193737 28.264537 0 0 -0.51367,0.1699 1.2436077,0.82193737 28.264537 0 0 0.27929,1.3008 1.2436077,0.82193737 28.264537 0 0 1.6211,0.2246 1.2436077,0.82193737 28.264537 0 0 -0.2793,-1.3007 1.2436077,0.82193737 28.264537 0 0 -1.10742,-0.3946 z m 48.855468,0.4004 a 2.2254062,2.5309958 0 0 0 -2.224609,2.5313 2.2254062,2.5309958 0 0 0 2.224609,2.5312 2.2254062,2.5309958 0 0 0 2.226563,-2.5312 2.2254062,2.5309958 0 0 0 -2.226563,-2.5313 z m -40.968748,0.625 a 1.8770449,2.2330458 28.032062 0 0 -2.06055,1.836 1.8770449,2.2330458 28.032062 0 0 1.31055,2.457 1.8770449,2.2330458 28.032062 0 0 2.44531,-1.8145 1.8770449,2.2330458 28.032062 0 0 -1.3125,-2.457 1.8770449,2.2330458 28.032062 0 0 -0.38281,-0.022 z m 6.91211,0.125 a 1.7276187,1.1418347 28.264533 0 0 -0.71094,0.2363 1.7276187,1.1418347 28.264533 0 0 0.38672,1.8067 1.7276187,1.1418347 28.264533 0 0 2.25,0.3105 1.7276187,1.1418347 28.264533 0 0 -0.38672,-1.8066 1.7276187,1.1418347 28.264533 0 0 -1.53906,-0.5469 z m -20.98242,0.049 a 2.2254062,2.5309958 0 0 0 -2.22461,2.5293 2.2254062,2.5309958 0 0 0 2.22461,2.5313 2.2254062,2.5309958 0 0 0 2.22656,-2.5313 2.2254062,2.5309958 0 0 0 -2.22656,-2.5293 z m -7.86524,0.168 a 1.3169961,1.4978441 0 0 0 -1.31641,1.4981 1.3169961,1.4978441 0 0 0 1.31641,1.498 1.3169961,1.4978441 0 0 0 1.31641,-1.498 1.3169961,1.4978441 0 0 0 -1.31641,-1.4981 z m 57.75,0.6817 a 1.1418347,1.7276187 61.735467 0 0 -1.38476,0.5468 1.1418347,1.7276187 61.735467 0 0 -0.38868,1.8067 1.1418347,1.7276187 61.735467 0 0 2.25,-0.3106 1.1418347,1.7276187 61.735467 0 0 0.38868,-1.8066 1.1418347,1.7276187 61.735467 0 0 -0.86524,-0.2363 z m -5.42383,0.4394 a 1.3169961,1.4978441 0 0 0 -1.3164,1.4981 1.3169961,1.4978441 0 0 0 1.3164,1.496 1.3169961,1.4978441 0 0 0 1.31641,-1.496 1.3169961,1.4978441 0 0 0 -1.31641,-1.4981 z m 15.970706,0.25 a 2.2330458,1.8770449 61.967938 0 0 -0.189453,0.022 2.2330458,1.8770449 61.967938 0 0 -1.3125,2.457 2.2330458,1.8770449 61.967938 0 0 2.445313,1.8145 2.2330458,1.8770449 61.967938 0 0 1.310546,-2.4571 2.2330458,1.8770449 61.967938 0 0 -2.253906,-1.8359 z m -53.511716,1.1055 a 2.1013974,1.3888762 28.264535 0 0 -0.86719,0.2871 2.1013974,1.3888762 28.264535 0 0 0.47266,2.1973 2.1013974,1.3888762 28.264535 0 0 2.73828,0.3789 2.1013974,1.3888762 28.264535 0 0 -0.47266,-2.1973 2.1013974,1.3888762 28.264535 0 0 -1.87109,-0.666 z m 11.5625,0.6855 a 2.2254062,2.5309958 0 0 0 -2.22657,2.5313 2.2254062,2.5309958 0 0 0 2.22657,2.5312 2.2254062,2.5309958 0 0 0 2.22461,-2.5312 2.2254062,2.5309958 0 0 0 -2.22461,-2.5313 z m 49.480466,0.1836 a 1.3888762,2.1013974 61.735465 0 0 -1.871094,0.666 1.3888762,2.1013974 61.735465 0 0 -0.472656,2.1973 1.3888762,2.1013974 61.735465 0 0 2.736328,-0.3789 1.3888762,2.1013974 61.735465 0 0 0.472657,-2.1973 1.3888762,2.1013974 61.735465 0 0 -0.865235,-0.2871 z m -41.810546,0.084 a 1.3169961,1.4978441 0 0 0 -1.31641,1.498 1.3169961,1.4978441 0 0 0 1.31641,1.4981 1.3169961,1.4978441 0 0 0 1.31641,-1.4981 1.3169961,1.4978441 0 0 0 -1.31641,-1.498 z m 7.47851,0.707 a 2.2254062,2.5309958 0 0 0 -2.2246,2.5313 2.2254062,2.5309958 0 0 0 2.2246,2.5312 2.2254062,2.5309958 0 0 0 2.22461,-2.5312 2.2254062,2.5309958 0 0 0 -2.22461,-2.5313 z m -37.99609,0.3301 a 1.3169961,1.4978441 0 0 0 -1.31641,1.4981 1.3169961,1.4978441 0 0 0 1.31641,1.498 1.3169961,1.4978441 0 0 0 1.31641,-1.498 1.3169961,1.4978441 0 0 0 -1.31641,-1.4981 z m 79.378908,0.033 a 1.3169961,1.4978441 0 0 0 -1.316407,1.4981 1.3169961,1.4978441 0 0 0 1.316407,1.498 1.3169961,1.4978441 0 0 0 1.316406,-1.498 1.3169961,1.4978441 0 0 0 -1.316406,-1.4981 z m -34.900388,0.1856 a 2.2254062,2.5309958 0 0 0 -2.22657,2.5312 2.2254062,2.5309958 0 0 0 2.22657,2.5313 2.2254062,2.5309958 0 0 0 2.22461,-2.5313 2.2254062,2.5309958 0 0 0 -2.22461,-2.5312 z m 6.24218,1.8906 a 0.82193737,1.2436077 61.735463 0 0 -0.99609,0.3926 0.82193737,1.2436077 61.735463 0 0 -0.2793,1.3007 0.82193737,1.2436077 61.735463 0 0 1.61914,-0.2226 0.82193737,1.2436077 61.735463 0 0 0.2793,-1.3008 0.82193737,1.2436077 61.735463 0 0 -0.62305,-0.1699 z m -34.43554,0.2226 a 1.3169961,1.4978441 0 0 0 -1.31641,1.4981 1.3169961,1.4978441 0 0 0 1.31641,1.4961 1.3169961,1.4978441 0 0 0 1.31836,-1.4961 1.3169961,1.4978441 0 0 0 -1.31836,-1.4981 z m 39.63867,0.01 a 2.9192593,1.9294256 28.264531 0 0 -1.20313,0.3984 2.9192593,1.9294256 28.264531 0 0 0.6543,3.0528 2.9192593,1.9294256 28.264531 0 0 3.802736,0.5254 2.9192593,1.9294256 28.264531 0 0 -0.654297,-3.0528 2.9192593,1.9294256 28.264531 0 0 -2.599609,-0.9238 z m -50.90234,0.6895 a 1.7849815,1.2833905 37.525646 0 0 -0.66016,0.1347 1.7849815,1.2833905 37.525646 0 0 -0.0957,1.9727 1.7849815,1.2833905 37.525646 0 0 2.28515,0.7344 1.7849815,1.2833905 37.525646 0 0 0.09571,-1.9747 1.7849815,1.2833905 37.525646 0 0 -1.625,-0.8671 z m 60.36523,0.5996 a 0.82193737,1.2436077 61.735463 0 0 -0.998047,0.3925 0.82193737,1.2436077 61.735463 0 0 -0.279297,1.3008 0.82193737,1.2436077 61.735463 0 0 1.621094,-0.2226 0.82193737,1.2436077 61.735463 0 0 0.279297,-1.3008 0.82193737,1.2436077 61.735463 0 0 -0.623047,-0.1699 z m -54.78125,0.1 a 1.2436077,0.82193737 28.264537 0 0 -0.51172,0.1699 1.2436077,0.82193737 28.264537 0 0 0.2793,1.3008 1.2436077,0.82193737 28.264537 0 0 1.61914,0.2246 1.2436077,0.82193737 28.264537 0 0 -0.2793,-1.3008 1.2436077,0.82193737 28.264537 0 0 -1.10742,-0.3945 z m 24.20312,0.5039 a 1.1418347,1.7276187 61.735467 0 0 -1.53906,0.5488 1.1418347,1.7276187 61.735467 0 0 -0.38672,1.8066 1.1418347,1.7276187 61.735467 0 0 2.25,-0.3125 1.1418347,1.7276187 61.735467 0 0 0.38672,-1.8066 1.1418347,1.7276187 61.735467 0 0 -0.71094,-0.2363 z m 38.320318,0.2187 a 1.2833905,1.7849815 52.474354 0 0 -1.626954,0.8692 1.2833905,1.7849815 52.474354 0 0 0.0957,1.9746 1.2833905,1.7849815 52.474354 0 0 2.285156,-0.7344 1.2833905,1.7849815 52.474354 0 0 -0.0957,-1.9746 1.2833905,1.7849815 52.474354 0 0 -0.658203,-0.1348 z m -44.808598,0.1426 a 1.2436077,0.82193737 28.264537 0 0 -0.51172,0.1699 1.2436077,0.82193737 28.264537 0 0 0.2793,1.3008 1.2436077,0.82193737 28.264537 0 0 1.61914,0.2246 1.2436077,0.82193737 28.264537 0 0 -0.27929,-1.3008 1.2436077,0.82193737 28.264537 0 0 -1.10743,-0.3945 z m -6.15429,1.0215 a 1.9294256,2.9192593 61.735469 0 0 -2.59766,0.9258 1.9294256,2.9192593 61.735469 0 0 -0.65625,3.0527 1.9294256,2.9192593 61.735469 0 0 3.80274,-0.5273 1.9294256,2.9192593 61.735469 0 0 0.65624,-3.0528 1.9294256,2.9192593 61.735469 0 0 -1.20507,-0.3984 z m 17.72656,1.6055 a 1.7276187,1.1418347 28.264533 0 0 -0.71094,0.2363 1.7276187,1.1418347 28.264533 0 0 0.38672,1.8066 1.7276187,1.1418347 28.264533 0 0 2.25195,0.3106 1.7276187,1.1418347 28.264533 0 0 -0.38867,-1.8067 1.7276187,1.1418347 28.264533 0 0 -1.53906,-0.5468 z m 9.58789,1.2461 a 1.3169961,1.4978441 0 0 0 -1.31836,1.498 1.3169961,1.4978441 0 0 0 1.31836,1.498 1.3169961,1.4978441 0 0 0 1.31641,-1.498 1.3169961,1.4978441 0 0 0 -1.31641,-1.498 z m 18.962891,0.014 a 0.82193737,1.2436077 61.735463 0 0 -1.107422,0.3946 0.82193737,1.2436077 61.735463 0 0 -0.279297,1.3007 0.82193737,1.2436077 61.735463 0 0 1.621094,-0.2246 0.82193737,1.2436077 61.735463 0 0 0.279296,-1.3008 0.82193737,1.2436077 61.735463 0 0 -0.513671,-0.1699 z m -9.791016,0.2715 a 1.3169961,1.4978441 0 0 0 -1.316406,1.4981 1.3169961,1.4978441 0 0 0 1.316406,1.498 1.3169961,1.4978441 0 0 0 1.318359,-1.498 1.3169961,1.4978441 0 0 0 -1.318359,-1.4981 z m -51.082035,0.6133 a 1.3169961,1.4978441 0 0 0 -1.3164,1.498 1.3169961,1.4978441 0 0 0 1.3164,1.4981 1.3169961,1.4978441 0 0 0 1.31641,-1.4981 1.3169961,1.4978441 0 0 0 -1.31641,-1.498 z m 7.18555,0.3848 a 1.2436077,0.82193737 28.264537 0 0 -0.51367,0.1699 1.2436077,0.82193737 28.264537 0 0 0.28125,1.3008 1.2436077,0.82193737 28.264537 0 0 1.61914,0.2246 1.2436077,0.82193737 28.264537 0 0 -0.2793,-1.3008 1.2436077,0.82193737 28.264537 0 0 -1.10742,-0.3945 z m 17.35547,0.3652 a 1.3169961,1.4978441 0 0 0 -1.31641,1.498 1.3169961,1.4978441 0 0 0 1.31641,1.4981 1.3169961,1.4978441 0 0 0 1.31641,-1.4981 1.3169961,1.4978441 0 0 0 -1.31641,-1.498 z m 43.882812,0.5351 a 1.3169961,1.4978441 0 0 0 -1.316406,1.4981 1.3169961,1.4978441 0 0 0 1.316406,1.498 1.3169961,1.4978441 0 0 0 1.318359,-1.498 1.3169961,1.4978441 0 0 0 -1.318359,-1.4981 z m -52.617192,2.5411 a 1.3169961,1.4978441 0 0 0 -1.31836,1.498 1.3169961,1.4978441 0 0 0 1.31836,1.4981 1.3169961,1.4978441 0 0 0 1.31641,-1.4981 1.3169961,1.4978441 0 0 0 -1.31641,-1.498 z m 43.373051,0.2558 a 1.3169961,1.4978441 0 0 0 -1.318359,1.4981 1.3169961,1.4978441 0 0 0 1.318359,1.498 1.3169961,1.4978441 0 0 0 1.316407,-1.498 1.3169961,1.4978441 0 0 0 -1.316407,-1.4981 z m -25.388671,0.1016 a 1.3169961,1.4978441 0 0 0 -1.31641,1.4961 1.3169961,1.4978441 0 0 0 1.31641,1.498 1.3169961,1.4978441 0 0 0 1.31836,-1.498 1.3169961,1.4978441 0 0 0 -1.31836,-1.4961 z m 16.343749,0.3808 a 1.1418347,1.7276187 61.735467 0 0 -1.539059,0.5489 1.1418347,1.7276187 61.735467 0 0 -0.38867,1.8066 1.1418347,1.7276187 61.735467 0 0 2.251948,-0.3125 1.1418347,1.7276187 61.735467 0 0 0.386719,-1.8066 1.1418347,1.7276187 61.735467 0 0 -0.710938,-0.2364 z m -43.261719,0.4278 a 1.3169961,1.4978441 0 0 0 -1.31641,1.498 1.3169961,1.4978441 0 0 0 1.31641,1.4981 1.3169961,1.4978441 0 0 0 1.31641,-1.4981 1.3169961,1.4978441 0 0 0 -1.31641,-1.498 z m 17.39844,1.7402 a 1.7276187,1.1418347 28.264533 0 0 -0.71289,0.2363 1.7276187,1.1418347 28.264533 0 0 0.38867,1.8067 1.7276187,1.1418347 28.264533 0 0 2.25,0.3125 1.7276187,1.1418347 28.264533 0 0 -0.38672,-1.8086 1.7276187,1.1418347 28.264533 0 0 -1.53906,-0.5469 z"
       id="path5501"
       inkscape:connector-curvature="0" />
    <path
       style="color:#000000;font-style:normal;font-variant:normal;font-weight:normal;font-stretch:normal;font-size:medium;line-height:normal;font-family:sans-serif;text-indent:0;text-align:start;text-decoration:none;text-decoration-line:none;text-decoration-style:solid;text-decoration-color:#000000;letter-spacing:normal;word-spacing:normal;text-transform:none;direction:ltr;block-progression:tb;writing-mode:lr-tb;baseline-shift:baseline;text-anchor:start;white-space:normal;clip-rule:nonzero;display:inline;overflow:visible;visibility:visible;opacity:1;isolation:auto;mix-blend-mode:normal;color-interpolation:sRGB;color-interpolation-filters:linearRGB;solid-color:#000000;solid-opacity:1;fill:#84ac86;fill-opacity:1;fill-rule:evenodd;stroke:none;stroke-width:3;stroke-linecap:round;stroke-linejoin:miter;stroke-miterlimit:4;stroke-dasharray:none;stroke-dashoffset:0;stroke-opacity:1;color-rendering:auto;image-rendering:auto;shape-rendering:auto;text-rendering:auto;enable-background:accumulate"
       d="m 66.292955,998.14598 a 0.68611671,0.68611671 0 0 0 -0.64585,0.94433 c 0,0 0.300934,0.8604 -0.02769,1.60339 -0.164313,0.3715 -0.462382,0.7405 -1.164852,1.0443 -0.70247,0.3037 -1.822588,0.514 -3.52225,0.4368 -3.276528,-0.1489 -4.312171,-1.0636 -4.665663,-1.7526 -0.353491,-0.68909 -0.109874,-1.33549 -0.109874,-1.33549 a 0.68624207,0.68624207 0 1 0 -1.281874,-0.4904 c 0,0 -0.466269,1.2089 0.171512,2.45199 0.63778,1.2432 2.294884,2.3373 5.824262,2.4977 1.837083,0.083 3.158345,-0.1288 4.128795,-0.5485 0.97045,-0.4196 1.577144,-1.0747 1.875019,-1.7482 0.595751,-1.34689 0.05181,-2.65659 0.05181,-2.65659 a 0.68611671,0.68611671 0 0 0 -0.633344,-0.44673 z"
       id="path4865"
       inkscape:connector-curvature="0" />
    <path
       inkscape:connector-curvature="0"
       id="path4869"
       d="m 73.85638,1032.0521 a 0.68611671,0.68611671 0 0 0 -0.64585,0.9442 c 0,0 0.300934,0.8605 -0.02769,1.6035 -0.164313,0.3715 -0.462382,0.7405 -1.164852,1.0442 -0.70247,0.3038 -1.822588,0.5141 -3.52225,0.4369 -3.276528,-0.149 -4.312171,-1.0637 -4.665663,-1.7527 -0.353491,-0.689 -0.109874,-1.3354 -0.109874,-1.3354 a 0.68625637,0.68625637 0 0 0 -1.281874,-0.4905 c 0,0 -0.466269,1.209 0.171512,2.4521 0.63778,1.2432 2.294884,2.3372 5.824262,2.4977 1.837083,0.083 3.158345,-0.1289 4.128795,-0.5485 0.97045,-0.4197 1.577144,-1.0747 1.875019,-1.7482 0.595751,-1.3469 0.05181,-2.6566 0.05181,-2.6566 a 0.68611671,0.68611671 0 0 0 -0.633344,-0.4467 z"
       style="color:#000000;font-style:normal;font-variant:normal;font-weight:normal;font-stretch:normal;font-size:medium;line-height:normal;font-family:sans-serif;text-indent:0;text-align:start;text-decoration:none;text-decoration-line:none;text-decoration-style:solid;text-decoration-color:#000000;letter-spacing:normal;word-spacing:normal;text-transform:none;direction:ltr;block-progression:tb;writing-mode:lr-tb;baseline-shift:baseline;text-anchor:start;white-space:normal;clip-rule:nonzero;display:inline;overflow:visible;visibility:visible;opacity:1;isolation:auto;mix-blend-mode:normal;color-interpolation:sRGB;color-interpolation-filters:linearRGB;solid-color:#000000;solid-opacity:1;fill:#84ac86;fill-opacity:1;fill-rule:evenodd;stroke:none;stroke-width:3;stroke-linecap:round;stroke-linejoin:miter;stroke-miterlimit:4;stroke-dasharray:none;stroke-dashoffset:0;stroke-opacity:1;color-rendering:auto;image-rendering:auto;shape-rendering:auto;text-rendering:auto;enable-background:accumulate" />
    <path
       style="color:#000000;font-style:normal;font-variant:normal;font-weight:normal;font-stretch:normal;font-size:medium;line-height:normal;font-family:sans-serif;text-indent:0;text-align:start;text-decoration:none;text-decoration-line:none;text-decoration-style:solid;text-decoration-color:#000000;letter-spacing:normal;word-spacing:normal;text-transform:none;direction:ltr;block-progression:tb;writing-mode:lr-tb;baseline-shift:baseline;text-anchor:start;white-space:normal;clip-rule:nonzero;display:inline;overflow:visible;visibility:visible;opacity:1;isolation:auto;mix-blend-mode:normal;color-interpolation:sRGB;color-interpolation-filters:linearRGB;solid-color:#000000;solid-opacity:1;fill:#84ac86;fill-opacity:1;fill-rule:evenodd;stroke:none;stroke-width:3;stroke-linecap:round;stroke-linejoin:miter;stroke-miterlimit:4;stroke-dasharray:none;stroke-dashoffset:0;stroke-opacity:1;color-rendering:auto;image-rendering:auto;shape-rendering:auto;text-rendering:auto;enable-background:accumulate"
       d="m 92.970191,1006.8207 a 0.68611671,0.68611671 0 0 0 -0.64585,0.9442 c 0,0 0.300934,0.8605 -0.02769,1.6034 -0.164313,0.3715 -0.462382,0.7405 -1.164852,1.0443 -0.70247,0.3038 -1.822588,0.5141 -3.52225,0.4368 -3.276528,-0.1489 -4.312171,-1.0636 -4.665663,-1.7526 -0.353491,-0.689 -0.109874,-1.3355 -0.109874,-1.3355 a 0.68624207,0.68624207 0 0 0 -1.281874,-0.4904 c 0,0 -0.466269,1.2089 0.171512,2.4521 0.63778,1.2431 2.294884,2.3372 5.824262,2.4976 1.837083,0.083 3.158345,-0.1288 4.128795,-0.5485 0.97045,-0.4196 1.577144,-1.0747 1.875019,-1.7481 0.595751,-1.3469 0.05181,-2.6567 0.05181,-2.6567 a 0.68611671,0.68611671 0 0 0 -0.633344,-0.4466 z"
       id="path4871"
       inkscape:connector-curvature="0" />
    <path
       inkscape:connector-curvature="0"
       id="path4873"
       d="m 22.524969,980.22525 a 0.68611671,0.68611671 0 0 0 -0.64585,0.9442 c 0,0 0.300934,0.8605 -0.02769,1.6035 -0.164313,0.3715 -0.462382,0.7405 -1.164852,1.0442 -0.70247,0.3038 -1.822588,0.5141 -3.52225,0.4368 -3.276528,-0.1489 -4.312171,-1.0636 -4.665663,-1.7526 -0.353491,-0.689 -0.109874,-1.3355 -0.109874,-1.3355 a 0.68624207,0.68624207 0 1 0 -1.281874,-0.4904 c 0,0 -0.466269,1.2089 0.171512,2.4521 0.63778,1.2432 2.294884,2.3372 5.824262,2.4976 1.837083,0.083 3.158345,-0.1288 4.128795,-0.5484 0.97045,-0.4197 1.577144,-1.0748 1.875019,-1.7482 0.595751,-1.3469 0.05181,-2.6567 0.05181,-2.6567 a 0.68611671,0.68611671 0 0 0 -0.633344,-0.4466 z"
       style="color:#000000;font-style:normal;font-variant:normal;font-weight:normal;font-stretch:normal;font-size:medium;line-height:normal;font-family:sans-serif;text-indent:0;text-align:start;text-decoration:none;text-decoration-line:none;text-decoration-style:solid;text-decoration-color:#000000;letter-spacing:normal;word-spacing:normal;text-transform:none;direction:ltr;block-progression:tb;writing-mode:lr-tb;baseline-shift:baseline;text-anchor:start;white-space:normal;clip-rule:nonzero;display:inline;overflow:visible;visibility:visible;opacity:1;isolation:auto;mix-blend-mode:normal;color-interpolation:sRGB;color-interpolation-filters:linearRGB;solid-color:#000000;solid-opacity:1;fill:#84ac86;fill-opacity:1;fill-rule:evenodd;stroke:none;stroke-width:3;stroke-linecap:round;stroke-linejoin:miter;stroke-miterlimit:4;stroke-dasharray:none;stroke-dashoffset:0;stroke-opacity:1;color-rendering:auto;image-rendering:auto;shape-rendering:auto;text-rendering:auto;enable-background:accumulate" />
    <path
       style="color:#000000;font-style:normal;font-variant:normal;font-weight:normal;font-stretch:normal;font-size:medium;line-height:normal;font-family:sans-serif;text-indent:0;text-align:start;text-decoration:none;text-decoration-line:none;text-decoration-style:solid;text-decoration-color:#000000;letter-spacing:normal;word-spacing:normal;text-transform:none;direction:ltr;block-progression:tb;writing-mode:lr-tb;baseline-shift:baseline;text-anchor:start;white-space:normal;clip-rule:nonzero;display:inline;overflow:visible;visibility:visible;opacity:1;isolation:auto;mix-blend-mode:normal;color-interpolation:sRGB;color-interpolation-filters:linearRGB;solid-color:#000000;solid-opacity:1;fill:#84ac86;fill-opacity:1;fill-rule:evenodd;stroke:none;stroke-width:3;stroke-linecap:round;stroke-linejoin:miter;stroke-miterlimit:4;stroke-dasharray:none;stroke-dashoffset:0;stroke-opacity:1;color-rendering:auto;image-rendering:auto;shape-rendering:auto;text-rendering:auto;enable-background:accumulate"
       d="m 35.117438,994.49785 a 0.68611671,0.68611671 0 0 0 -0.64585,0.9442 c 0,0 0.300934,0.8604 -0.02769,1.6034 -0.164313,0.3715 -0.462382,0.7405 -1.164852,1.0443 -0.70247,0.3038 -1.822588,0.5141 -3.52225,0.4368 -3.276527,-0.1489 -4.31217,-1.0636 -4.665662,-1.7526 -0.353491,-0.6891 -0.109874,-1.3355 -0.109874,-1.3355 a 0.68624207,0.68624207 0 0 0 -1.281874,-0.4904 c 0,0 -0.466269,1.2089 0.171512,2.4521 0.63778,1.2431 2.294884,2.3372 5.824261,2.4976 1.837083,0.083 3.158345,-0.1288 4.128795,-0.5485 0.97045,-0.4196 1.577144,-1.0747 1.875019,-1.7481 0.595751,-1.347 0.05181,-2.6567 0.05181,-2.6567 a 0.68611671,0.68611671 0 0 0 -0.633344,-0.4466 z"
       id="path4875"
       inkscape:connector-curvature="0" />
    <path
       style="color:#000000;font-style:normal;font-variant:normal;font-weight:normal;font-stretch:normal;font-size:medium;line-height:normal;font-family:sans-serif;text-indent:0;text-align:start;text-decoration:none;text-decoration-line:none;text-decoration-style:solid;text-decoration-color:#000000;letter-spacing:normal;word-spacing:normal;text-transform:none;direction:ltr;block-progression:tb;writing-mode:lr-tb;baseline-shift:baseline;text-anchor:start;white-space:normal;clip-rule:nonzero;display:inline;overflow:visible;visibility:visible;opacity:1;isolation:auto;mix-blend-mode:normal;color-interpolation:sRGB;color-interpolation-filters:linearRGB;solid-color:#000000;solid-opacity:1;fill:#84ac86;fill-opacity:1;fill-rule:evenodd;stroke:none;stroke-width:3;stroke-linecap:round;stroke-linejoin:miter;stroke-miterlimit:4;stroke-dasharray:none;stroke-dashoffset:0;stroke-opacity:1;color-rendering:auto;image-rendering:auto;shape-rendering:auto;text-rendering:auto;enable-background:accumulate"
       d="m 34.928031,1034.8722 c -1.546825,0.3668 -0.277306,2.4459 -1.113371,3.4363 -0.748716,0.9052 -2.060231,1.05 -3.159903,1.2031 -2.091671,0.061 -4.325728,0.054 -6.222756,-0.9391 -1.521691,-0.5697 -1.208298,-2.081 -1.319168,-3.3007 -1.072946,-1.2046 -1.930689,0.8663 -1.551701,1.8045 0.277758,2.1339 2.434115,3.3514 4.375851,3.6914 2.612246,0.5016 5.482084,0.6717 7.946893,-0.494 1.213676,-1.3873 2.096644,0.9804 3.492139,0.9271 1.850376,0.4176 3.860136,0.4252 5.668284,-0.1864 1.676144,-0.5552 2.900102,-2.1802 2.852866,-3.9652 0.394757,-1.6683 -1.871304,-1.6044 -1.35036,0 0.211345,1.6529 -1.635664,2.6402 -3.054302,2.7551 -1.898325,0.1535 -4.166352,0.2723 -5.622382,-1.1864 -0.312489,-1.0683 0.430695,-2.2196 -0.22054,-3.2508 -0.125057,-0.2817 -0.392541,-0.5303 -0.72155,-0.4991 z"
       id="path4877"
       inkscape:connector-curvature="0" />
    <path
       inkscape:connector-curvature="0"
       id="path4885"
       d="m 16.445054,1020.6452 c -1.546825,0.3668 -0.277306,2.4459 -1.113371,3.4363 -0.748716,0.9052 -2.060231,1.05 -3.159903,1.2031 -2.091671,0.061 -4.3257283,0.054 -6.2227563,-0.9391 -1.521691,-0.5697 -1.208298,-2.081 -1.319168,-3.3007 -1.072946,-1.2046 -1.930689,0.8663 -1.551701,1.8045 0.277758,2.1339 2.434115,3.3514 4.375851,3.6914 2.6122463,0.5016 5.4820843,0.6717 7.9468933,-0.494 1.213676,-1.3873 2.096644,0.9804 3.492139,0.9271 1.850376,0.4176 3.860136,0.4252 5.668284,-0.1864 1.676144,-0.5552 2.900102,-2.1802 2.852866,-3.9652 0.394757,-1.6683 -1.871304,-1.6044 -1.35036,0 0.211345,1.6529 -1.635664,2.6402 -3.054302,2.7551 -1.898325,0.1535 -4.166352,0.2723 -5.622382,-1.1864 -0.312489,-1.0683 0.430695,-2.2196 -0.22054,-3.2508 -0.125057,-0.2817 -0.392541,-0.5303 -0.72155,-0.4991 z"
       style="color:#000000;font-style:normal;font-variant:normal;font-weight:normal;font-stretch:normal;font-size:medium;line-height:normal;font-family:sans-serif;text-indent:0;text-align:start;text-decoration:none;text-decoration-line:none;text-decoration-style:solid;text-decoration-color:#000000;letter-spacing:normal;word-spacing:normal;text-transform:none;direction:ltr;block-progression:tb;writing-mode:lr-tb;baseline-shift:baseline;text-anchor:start;white-space:normal;clip-rule:nonzero;display:inline;overflow:visible;visibility:visible;opacity:1;isolation:auto;mix-blend-mode:normal;color-interpolation:sRGB;color-interpolation-filters:linearRGB;solid-color:#000000;solid-opacity:1;fill:#84ac86;fill-opacity:1;fill-rule:evenodd;stroke:none;stroke-width:3;stroke-linecap:round;stroke-linejoin:miter;stroke-miterlimit:4;stroke-dasharray:none;stroke-dashoffset:0;stroke-opacity:1;color-rendering:auto;image-rendering:auto;shape-rendering:auto;text-rendering:auto;enable-background:accumulate" />
    <path
       style="color:#000000;font-style:normal;font-variant:normal;font-weight:normal;font-stretch:normal;font-size:medium;line-height:normal;font-family:sans-serif;text-indent:0;text-align:start;text-decoration:none;text-decoration-line:none;text-decoration-style:solid;text-decoration-color:#000000;letter-spacing:normal;word-spacing:normal;text-transform:none;direction:ltr;block-progression:tb;writing-mode:lr-tb;baseline-shift:baseline;text-anchor:start;white-space:normal;clip-rule:nonzero;display:inline;overflow:visible;visibility:visible;opacity:1;isolation:auto;mix-blend-mode:normal;color-interpolation:sRGB;color-interpolation-filters:linearRGB;solid-color:#000000;solid-opacity:1;fill:#84ac86;fill-opacity:1;fill-rule:evenodd;stroke:none;stroke-width:3;stroke-linecap:round;stroke-linejoin:miter;stroke-miterlimit:4;stroke-dasharray:none;stroke-dashoffset:0;stroke-opacity:1;color-rendering:auto;image-rendering:auto;shape-rendering:auto;text-rendering:auto;enable-background:accumulate"
       d="m 84.606343,971.9534 c -1.546825,0.3668 -0.277306,2.4461 -1.113371,3.4364 -0.748716,0.9052 -2.060231,1.05 -3.159903,1.2031 -2.091671,0.061 -4.325728,0.054 -6.222756,-0.9391 -1.521691,-0.5697 -1.208298,-2.081 -1.319168,-3.3008 -1.072946,-1.2045 -1.930689,0.8663 -1.551701,1.8047 0.277758,2.1338 2.434115,3.3513 4.375851,3.6913 2.612246,0.5016 5.482084,0.6717 7.946893,-0.494 1.213676,-1.3873 2.096644,0.9804 3.492139,0.9271 1.850376,0.4176 3.860136,0.4252 5.668284,-0.1864 1.676144,-0.5552 2.900102,-2.1802 2.852866,-3.9651 0.394757,-1.6685 -1.871304,-1.6046 -1.35036,0 0.211345,1.6528 -1.635664,2.6401 -3.054302,2.755 -1.898325,0.1535 -4.166352,0.2723 -5.622382,-1.1864 -0.312489,-1.0682 0.430695,-2.2197 -0.22054,-3.2508 -0.125057,-0.2817 -0.392541,-0.5303 -0.72155,-0.4992 z"
       id="path4887"
       inkscape:connector-curvature="0" />
    <path
       inkscape:connector-curvature="0"
       id="path4889"
       d="m 19.412864,963.95921 c -1.546825,0.3668 -0.277306,2.446 -1.113371,3.4364 -0.748716,0.9052 -2.060231,1.05 -3.159903,1.2031 -2.091671,0.061 -4.325728,0.054 -6.2227564,-0.9391 -1.521691,-0.5697 -1.208298,-2.081 -1.319168,-3.3008 -1.072946,-1.2045 -1.930689,0.8663 -1.551701,1.8046 0.277758,2.1339 2.434115,3.3514 4.3758514,3.6914 2.612246,0.50165 5.482084,0.67175 7.946893,-0.494 1.213676,-1.3873 2.096644,0.98045 3.492139,0.92715 1.850376,0.4176 3.860136,0.4252 5.668284,-0.1864 1.676144,-0.55525 2.900102,-2.18025 2.852866,-3.96525 0.394757,-1.6684 -1.871304,-1.6045 -1.35036,0 0.211345,1.6529 -1.635664,2.6402 -3.054302,2.7551 -1.898325,0.1535 -4.166352,0.2723 -5.622382,-1.1864 -0.312489,-1.0683 0.430695,-2.2197 -0.22054,-3.2508 -0.125057,-0.2817 -0.392541,-0.5303 -0.72155,-0.4992 z"
       style="color:#000000;font-style:normal;font-variant:normal;font-weight:normal;font-stretch:normal;font-size:medium;line-height:normal;font-family:sans-serif;text-indent:0;text-align:start;text-decoration:none;text-decoration-line:none;text-decoration-style:solid;text-decoration-color:#000000;letter-spacing:normal;word-spacing:normal;text-transform:none;direction:ltr;block-progression:tb;writing-mode:lr-tb;baseline-shift:baseline;text-anchor:start;white-space:normal;clip-rule:nonzero;display:inline;overflow:visible;visibility:visible;opacity:1;isolation:auto;mix-blend-mode:normal;color-interpolation:sRGB;color-interpolation-filters:linearRGB;solid-color:#000000;solid-opacity:1;fill:#84ac86;fill-opacity:1;fill-rule:evenodd;stroke:none;stroke-width:3;stroke-linecap:round;stroke-linejoin:miter;stroke-miterlimit:4;stroke-dasharray:none;stroke-dashoffset:0;stroke-opacity:1;color-rendering:auto;image-rendering:auto;shape-rendering:auto;text-rendering:auto;enable-background:accumulate" />
    <path
       style="color:#000000;font-style:normal;font-variant:normal;font-weight:normal;font-stretch:normal;font-size:medium;line-height:normal;font-family:sans-serif;text-indent:0;text-align:start;text-decoration:none;text-decoration-line:none;text-decoration-style:solid;text-decoration-color:#000000;letter-spacing:normal;word-spacing:normal;text-transform:none;direction:ltr;block-progression:tb;writing-mode:lr-tb;baseline-shift:baseline;text-anchor:start;white-space:normal;clip-rule:nonzero;display:inline;overflow:visible;visibility:visible;opacity:1;isolation:auto;mix-blend-mode:normal;color-interpolation:sRGB;color-interpolation-filters:linearRGB;solid-color:#000000;solid-opacity:1;fill:#84ac86;fill-opacity:1;fill-rule:evenodd;stroke:none;stroke-width:3;stroke-linecap:round;stroke-linejoin:miter;stroke-miterlimit:4;stroke-dasharray:none;stroke-dashoffset:0;stroke-opacity:1;color-rendering:auto;image-rendering:auto;shape-rendering:auto;text-rendering:auto;enable-background:accumulate"
       d="m 65.043237,1024.1505 c -1.546825,0.3669 -0.277306,2.4461 -1.113371,3.4365 -0.748716,0.9052 -2.060231,1.05 -3.159903,1.2031 -2.091671,0.061 -4.325728,0.054 -6.222756,-0.9391 -1.521691,-0.5697 -1.208298,-2.0812 -1.319168,-3.3008 -1.072946,-1.2046 -1.930689,0.8662 -1.551701,1.8046 0.277758,2.1339 2.434115,3.3514 4.375851,3.6914 2.612246,0.5016 5.482084,0.6717 7.946893,-0.494 1.213676,-1.3873 2.096644,0.9804 3.492139,0.9271 1.850376,0.4176 3.860136,0.4252 5.668284,-0.1864 1.676144,-0.5552 2.900102,-2.1802 2.852866,-3.9652 0.394757,-1.6684 -1.871304,-1.6045 -1.35036,0 0.211345,1.6529 -1.635664,2.6402 -3.054302,2.7551 -1.898325,0.1535 -4.166352,0.2723 -5.622382,-1.1864 -0.312489,-1.0683 0.430695,-2.2198 -0.22054,-3.2509 -0.125057,-0.2816 -0.392541,-0.5304 -0.72155,-0.4992 z"
       id="path4891"
       inkscape:connector-curvature="0" />
    <path
       inkscape:connector-curvature="0"
       id="path4893"
       d="m 74.841719,959.08286 c -1.546825,0.3668 -0.277306,2.446 -1.113371,3.4364 -0.748716,0.9052 -2.060231,1.05 -3.159903,1.2031 -2.091671,0.061 -4.325728,0.054 -6.222756,-0.9391 -1.521691,-0.5697 -1.208298,-2.081 -1.319168,-3.3007 -1.072946,-1.2046 -1.930689,0.8662 -1.551701,1.8045 0.277758,2.1339 2.434115,3.3514 4.375851,3.6914 2.612246,0.5016 5.482084,0.6717 7.946893,-0.494 1.213676,-1.3873 2.096644,0.9804 3.492139,0.9271 1.850376,0.4176 3.860136,0.4252 5.668284,-0.1864 1.676144,-0.5552 2.900102,-2.1802 2.852866,-3.9652 0.394757,-1.6684 -1.871304,-1.6045 -1.35036,0 0.211345,1.6529 -1.635664,2.6402 -3.054302,2.7551 -1.898325,0.1535 -4.166352,0.2723 -5.622382,-1.1864 -0.312489,-1.0683 0.430695,-2.2197 -0.22054,-3.2508 -0.125057,-0.2817 -0.392541,-0.5303 -0.72155,-0.4991 z"
       style="color:#000000;font-style:normal;font-variant:normal;font-weight:normal;font-stretch:normal;font-size:medium;line-height:normal;font-family:sans-serif;text-indent:0;text-align:start;text-decoration:none;text-decoration-line:none;text-decoration-style:solid;text-decoration-color:#000000;letter-spacing:normal;word-spacing:normal;text-transform:none;direction:ltr;block-progression:tb;writing-mode:lr-tb;baseline-shift:baseline;text-anchor:start;white-space:normal;clip-rule:nonzero;display:inline;overflow:visible;visibility:visible;opacity:1;isolation:auto;mix-blend-mode:normal;color-interpolation:sRGB;color-interpolation-filters:linearRGB;solid-color:#000000;solid-opacity:1;fill:#84ac86;fill-opacity:1;fill-rule:evenodd;stroke:none;stroke-width:3;stroke-linecap:round;stroke-linejoin:miter;stroke-miterlimit:4;stroke-dasharray:none;stroke-dashoffset:0;stroke-opacity:1;color-rendering:auto;image-rendering:auto;shape-rendering:auto;text-rendering:auto;enable-background:accumulate" />
    <path
       style="color:#000000;font-style:normal;font-variant:normal;font-weight:normal;font-stretch:normal;font-size:medium;line-height:normal;font-family:sans-serif;text-indent:0;text-align:start;text-decoration:none;text-decoration-line:none;text-decoration-style:solid;text-decoration-color:#000000;letter-spacing:normal;word-spacing:normal;text-transform:none;direction:ltr;block-progression:tb;writing-mode:lr-tb;baseline-shift:baseline;text-anchor:start;white-space:normal;clip-rule:nonzero;display:inline;overflow:visible;visibility:visible;opacity:1;isolation:auto;mix-blend-mode:normal;color-interpolation:sRGB;color-interpolation-filters:linearRGB;solid-color:#000000;solid-opacity:1;fill:#84ac86;fill-opacity:1;fill-rule:evenodd;stroke:none;stroke-width:3;stroke-linecap:round;stroke-linejoin:miter;stroke-miterlimit:4;stroke-dasharray:none;stroke-dashoffset:0;stroke-opacity:1;color-rendering:auto;image-rendering:auto;shape-rendering:auto;text-rendering:auto;enable-background:accumulate"
       d="m 40.885547,1010.3926 c -1.546825,0.3668 -0.277306,2.446 -1.113371,3.4364 -0.748716,0.9052 -2.060231,1.05 -3.159903,1.2031 -2.091671,0.061 -4.325728,0.054 -6.222756,-0.9391 -1.521691,-0.5697 -1.208298,-2.081 -1.319168,-3.3008 -1.072946,-1.2045 -1.930689,0.8664 -1.551701,1.8046 0.277758,2.1339 2.434115,3.3513 4.375851,3.6913 2.612246,0.5016 5.482084,0.6717 7.946893,-0.494 1.213676,-1.3872 2.096644,0.9804 3.492139,0.9271 1.850376,0.4176 3.860136,0.4252 5.668284,-0.1864 1.676144,-0.5552 2.900102,-2.1801 2.852866,-3.9651 0.394757,-1.6683 -1.871304,-1.6044 -1.35036,0 0.211345,1.6529 -1.635664,2.6401 -3.054302,2.755 -1.898325,0.1535 -4.166352,0.2723 -5.622382,-1.1863 -0.312489,-1.0683 0.430695,-2.2196 -0.22054,-3.2508 -0.125057,-0.2818 -0.392541,-0.5304 -0.72155,-0.4992 z"
       id="path4895"
       inkscape:connector-curvature="0" />
    <path
       inkscape:connector-curvature="0"
       id="path4897"
       d="m 62.197661,979.20876 c -1.546825,0.3668 -0.277306,2.4459 -1.113371,3.4363 -0.748716,0.9052 -2.060231,1.05 -3.159903,1.2031 -2.091671,0.061 -4.325728,0.054 -6.222756,-0.9391 -1.521691,-0.5697 -1.208298,-2.081 -1.319168,-3.3007 -1.072946,-1.2046 -1.930689,0.8663 -1.551701,1.8045 0.277758,2.1339 2.434115,3.3514 4.375851,3.6914 2.612246,0.5016 5.482084,0.6717 7.946893,-0.494 1.213676,-1.3873 2.096644,0.9804 3.492139,0.9271 1.850376,0.4176 3.860136,0.4252 5.668284,-0.1864 1.676144,-0.5552 2.900102,-2.1802 2.852866,-3.9652 0.394757,-1.6684 -1.871304,-1.6044 -1.35036,0 0.211345,1.6529 -1.635664,2.6402 -3.054302,2.7551 -1.898325,0.1535 -4.166352,0.2723 -5.622382,-1.1864 -0.312489,-1.0683 0.430695,-2.2196 -0.22054,-3.2508 -0.125057,-0.2817 -0.392541,-0.5303 -0.72155,-0.4991 z"
       style="color:#000000;font-style:normal;font-variant:normal;font-weight:normal;font-stretch:normal;font-size:medium;line-height:normal;font-family:sans-serif;text-indent:0;text-align:start;text-decoration:none;text-decoration-line:none;text-decoration-style:solid;text-decoration-color:#000000;letter-spacing:normal;word-spacing:normal;text-transform:none;direction:ltr;block-progression:tb;writing-mode:lr-tb;baseline-shift:baseline;text-anchor:start;white-space:normal;clip-rule:nonzero;display:inline;overflow:visible;visibility:visible;opacity:1;isolation:auto;mix-blend-mode:normal;color-interpolation:sRGB;color-interpolation-filters:linearRGB;solid-color:#000000;solid-opacity:1;fill:#84ac86;fill-opacity:1;fill-rule:evenodd;stroke:none;stroke-width:3;stroke-linecap:round;stroke-linejoin:miter;stroke-miterlimit:4;stroke-dasharray:none;stroke-dashoffset:0;stroke-opacity:1;color-rendering:auto;image-rendering:auto;shape-rendering:auto;text-rendering:auto;enable-background:accumulate" />
    <use
       x="0"
       y="0"
       inkscape:tiled-clone-of="#path5501"
       xlink:href="#path5501"
       transform="matrix(1.1561067,0,0,1.1561067,-104.59877,-42.273752)"
       id="use5505"
       width="100%"
       height="100%" />
    <use
       x="0"
       y="0"
       inkscape:tiled-clone-of="#path5501"
       xlink:href="#path5501"
       transform="matrix(1.3369885,0,0,1.3369885,-106.69269,-47.028574)"
       id="use5507"
       width="100%"
       height="100%" />
    <use
       x="0"
       y="0"
       inkscape:tiled-clone-of="#path5501"
       xlink:href="#path5501"
       transform="matrix(1.4113187,0,0,1.4113187,-107.55316,-46.493532)"
       id="use5509"
       width="100%"
       height="100%" />
    <use
       x="0"
       y="0"
       inkscape:tiled-clone-of="#path5501"
       xlink:href="#path5501"
       transform="matrix(1.6157587,0,0,1.6157587,-109.91976,-52.417923)"
       id="use5511"
       width="100%"
       height="100%" />
    <use
       x="0"
       y="0"
       inkscape:tiled-clone-of="#path5501"
       xlink:href="#path5501"
       transform="matrix(2.0652081,0,0,2.0652081,-115.12266,-70.506055)"
       id="use5513"
       width="100%"
       height="100%" />
    <use
       x="0"
       y="0"
       inkscape:tiled-clone-of="#path5501"
       xlink:href="#path5501"
       transform="matrix(2.5536341,0,0,2.5536341,-120.77675,-90.529216)"
       id="use5515"
       width="100%"
       height="100%" />
    <use
       x="0"
       y="0"
       inkscape:tiled-clone-of="#path5501"
       xlink:href="#path5501"
       transform="matrix(1.1671103,0,0,1.1671103,-101.74363,-42.820038)"
       id="use5519"
       width="100%"
       height="100%" />
    <use
       x="0"
       y="0"
       inkscape:tiled-clone-of="#path5501"
       xlink:href="#path5501"
       transform="matrix(1.5116437,0,0,1.5116437,-105.732,-55.699512)"
       id="use5521"
       width="100%"
       height="100%" />
    <use
       x="0"
       y="0"
       inkscape:tiled-clone-of="#path5501"
       xlink:href="#path5501"
       transform="matrix(2.1737151,0,0,2.1737151,-113.39622,-84.343483)"
       id="use5523"
       width="100%"
       height="100%" />
    <use
       x="0"
       y="0"
       inkscape:tiled-clone-of="#path5501"
       xlink:href="#path5501"
       transform="matrix(2.3721627,0,0,2.3721627,-115.6935,-89.970377)"
       id="use5525"
       width="100%"
       height="100%" />
    <use
       x="0"
       y="0"
       inkscape:tiled-clone-of="#path5501"
       xlink:href="#path5501"
       transform="matrix(1.8829451,0,0,1.8829451,-110.03023,-61.457425)"
       id="use5527"
       width="100%"
       height="100%" />
    <use
       x="0"
       y="0"
       inkscape:tiled-clone-of="#path5501"
       xlink:href="#path5501"
       transform="matrix(2.1285479,0,0,2.1285479,-112.87339,-69.42538)"
       id="use5529"
       width="100%"
       height="100%" />
    <use
       x="0"
       y="0"
       inkscape:tiled-clone-of="#path5501"
       xlink:href="#path5501"
       transform="matrix(1.599229,0,0,1.599229,-103.76337,-68.498259)"
       id="use5531"
       width="100%"
       height="100%" />
    <use
       x="0"
       y="0"
       inkscape:tiled-clone-of="#path5501"
       xlink:href="#path5501"
       transform="matrix(1.3877668,0,0,1.3877668,-101.31546,-53.774757)"
       id="use5533"
       width="100%"
       height="100%" />
    <use
       x="0"
       y="0"
       inkscape:tiled-clone-of="#path5501"
       xlink:href="#path5501"
       transform="matrix(1.9546278,0,0,1.9546278,-107.87752,-77.691914)"
       id="use5535"
       width="100%"
       height="100%" />
    <use
       x="0"
       y="0"
       inkscape:tiled-clone-of="#path5501"
       xlink:href="#path5501"
       transform="matrix(1.7206141,0,0,1.7206141,-105.16855,-61.848818)"
       id="use5537"
       width="100%"
       height="100%" />
    <use
       x="0"
       y="0"
       inkscape:tiled-clone-of="#path5501"
       xlink:href="#path5501"
       transform="matrix(2.5284219,0,0,2.5284219,-114.51984,-97.728038)"
       id="use5539"
       width="100%"
       height="100%" />
    <use
       x="0"
       y="0"
       inkscape:tiled-clone-of="#path5501"
       xlink:href="#path5501"
       transform="matrix(2.3938508,0,0,2.3938508,-112.96202,-86.821861)"
       id="use5541"
       width="100%"
       height="100%" />
    <use
       x="0"
       y="0"
       inkscape:tiled-clone-of="#path5501"
       xlink:href="#path5501"
       transform="matrix(2.9338159,0,0,2.9338159,-119.21273,-109.40374)"
       id="use5543"
       width="100%"
       height="100%" />
  </g>
</svg>
